<?xml version="1.0" encoding="utf-8"?>
<!-- Generator: Adobe Illustrator 25.2.3, SVG Export Plug-In . SVG Version: 6.00 Build 0)  -->
<svg version="1.1" id="Capa_1" xmlns="http://www.w3.org/2000/svg" xmlns:xlink="http://www.w3.org/1999/xlink" x="0px" y="0px"
	 viewBox="0 0 470.4 179" style="enable-background:new 0 0 470.4 179;" xml:space="preserve">
<style type="text/css">
	.st0{opacity:7.000000e-02;clip-path:url(#SVGID_2_);}
	.st1{fill:#451991;}
	.st2{opacity:7.000000e-02;clip-path:url(#SVGID_4_);}
</style>
<g id="Grupo_102534" transform="translate(-319.609 -1558.5)">
	<g>
		<g>
			<defs>
				<path id="SVGID_1_" d="M891.2,3117h312.9c11.6,0,21,9.4,21,21v137c0,11.6-9.4,21-21,21H891.2c-11.6,0-21-9.4-21-21v-137
					C870.2,3126.4,879.6,3117,891.2,3117z"/>
			</defs>
			<clipPath id="SVGID_2_">
				<use xlink:href="#SVGID_1_"  style="overflow:visible;"/>
			</clipPath>
			<g id="Enmascarar_grupo_57" transform="translate(435.071 1558.5)" class="st0">
				<path id="Rectángulo_33891" class="st1" d="M143.1,61.7l298.4,91.2c9,2.7,14,12.2,11.3,21.2L369,448c-2.7,9-12.2,14-21.2,11.3
					L49.4,368.1c-9-2.7-14-12.2-11.3-21.2L121.9,73C124.6,64,134.1,58.9,143.1,61.7z"/>
			</g>
		</g>
	</g>
</g>
<g>
	<defs>
		<path id="SVGID_3_" d="M136.5,0h312.9c11.6,0,21,9.4,21,21v137c0,11.6-9.4,21-21,21H136.5c-11.6,0-21-9.4-21-21V21
			C115.5,9.4,124.9,0,136.5,0z"/>
	</defs>
	<clipPath id="SVGID_4_">
		<use xlink:href="#SVGID_3_"  style="overflow:visible;"/>
	</clipPath>
	<g id="Enmascarar_grupo_57_1_" class="st2">
		<path id="Rectángulo_33891_1_" class="st1" d="M258.6,61.7L557,152.9c9,2.7,14,12.2,11.3,21.2l-83.7,273.9
			c-2.7,9-12.2,14-21.2,11.3l-298.4-91.2c-9-2.7-14-12.2-11.3-21.2L237.3,73C240.1,64,249.6,59,258.6,61.7z"/>
	</g>
</g>
</svg>
