<svg xmlns="http://www.w3.org/2000/svg" xmlns:xlink="http://www.w3.org/1999/xlink" width="64" height="51" viewBox="0 0 64 51">
  <defs>
    <clipPath id="clip-path">
      <rect id="Rectángulo_34061" data-name="Rectángulo 34061" width="64" height="51" transform="translate(925 4336)" fill="none" stroke="#707070" stroke-width="1"/>
    </clipPath>
  </defs>
  <g id="Enmascarar_grupo_65" data-name="Enmascarar grupo 65" transform="translate(-925 -4336)" clip-path="url(#clip-path)">
    <g id="Grupo_90405" data-name="Grupo 90405" transform="translate(516 2049)">
      <rect id="Rectángulo_34059" data-name="Rectángulo 34059" width="43" height="46" transform="translate(421 2286)" fill="none"/>
      <g id="Grupo_90404" data-name="Grupo 90404">
        <g id="Grupo_90402" data-name="Grupo 90402" transform="translate(154 2)" opacity="0.28">
          <rect id="Rectángulo_34060" data-name="Rectángulo 34060" width="31" height="31" transform="translate(256 2286)" fill="#f739a8"/>
        </g>
        <g id="Grupo_90414" data-name="Grupo 90414" transform="translate(419.729 2295.458)">
          <path id="Trazado_125518" data-name="Trazado 125518" d="M250.031,13.93H245.37a.869.869,0,0,1-.87-.87V8.4a.8.8,0,0,1,.234.163l5.134,5.134A.8.8,0,0,1,250.031,13.93Z" transform="translate(-224.93 -7.727)" fill="#eae8ea"/>
          <g id="Grupo_90414-2" data-name="Grupo 90414" transform="translate(4.662 18.449)">
            <path id="Trazado_125519" data-name="Trazado 125519" d="M60.331,232.9H58.57a.32.32,0,0,1-.32-.32V230.82a.32.32,0,0,1,.32-.32h1.761a.32.32,0,0,1,.32.32v1.761A.32.32,0,0,1,60.331,232.9Z" transform="translate(-58.25 -230.5)" fill="#e2dee2"/>
            <path id="Trazado_125520" data-name="Trazado 125520" d="M60.331,292.9H58.57a.32.32,0,0,1-.32-.32V290.82a.32.32,0,0,1,.32-.32h1.761a.32.32,0,0,1,.32.32v1.761A.32.32,0,0,1,60.331,292.9Z" transform="translate(-58.25 -285.698)" fill="#e2dee2"/>
            <path id="Trazado_125521" data-name="Trazado 125521" d="M60.331,352.9H58.57a.32.32,0,0,1-.32-.32V350.82a.32.32,0,0,1,.32-.32h1.761a.32.32,0,0,1,.32.32v1.761A.32.32,0,0,1,60.331,352.9Z" transform="translate(-58.25 -340.895)" fill="#e2dee2"/>
          </g>
          <path id="Trazado_125522" data-name="Trazado 125522" d="M39.58,17.369H25.773V6.535a1.392,1.392,0,0,0-.41-.99L20.229.41A1.392,1.392,0,0,0,19.238,0H1.4A1.4,1.4,0,0,0,0,1.4V17.569a.6.6,0,1,0,1.2,0V1.4a.2.2,0,0,1,.2-.2H18.97V5.333A1.472,1.472,0,0,0,20.44,6.8h4.133V17.369h-.2a1.4,1.4,0,0,0-1.4,1.4v9.218a.6.6,0,0,0,1.2,0V18.77a.2.2,0,0,1,.2-.2H39.58a.2.2,0,0,1,.2.2V39.58a.2.2,0,0,1-.2.2H24.372a.2.2,0,0,1-.2-.2V30.789a.6.6,0,0,0-1.2,0V33.3H1.4a.2.2,0,0,1-.2-.2V20.37a.6.6,0,1,0-1.2,0V33.1a1.4,1.4,0,0,0,1.4,1.4H22.972V39.58a1.4,1.4,0,0,0,1.4,1.4H39.58a1.4,1.4,0,0,0,1.4-1.4V18.77A1.4,1.4,0,0,0,39.58,17.369ZM20.44,5.6a.27.27,0,0,1-.269-.269V2.05L23.724,5.6Z"/>
          <path id="Trazado_125523" data-name="Trazado 125523" d="M321.9,248.2a.6.6,0,0,0,0-1.2h-4.8a.6.6,0,0,0-.6.6v3.2a.6.6,0,0,0,.6.6h12.006a.6.6,0,0,0,.6-.6v-3.2a.6.6,0,0,0-.6-.6h-4.4a.6.6,0,1,0,0,1.2h3.8v2H317.7v-2Z" transform="translate(-291.167 -227.23)"/>
          <path id="Trazado_125524" data-name="Trazado 125524" d="M316.5,320a.6.6,0,0,0,.6.6h2.4a.6.6,0,0,0,.6-.6v-2.4a.6.6,0,0,0-.6-.6h-2.4a.6.6,0,0,0-.6.6Zm1.2-1.8h1.2v1.2h-1.2Z" transform="translate(-291.167 -291.627)"/>
          <path id="Trazado_125525" data-name="Trazado 125525" d="M380.1,317.6a.6.6,0,0,0-.6-.6h-2.4a.6.6,0,0,0-.6.6V320a.6.6,0,0,0,.6.6h2.4a.6.6,0,0,0,.6-.6Zm-1.2,1.8h-1.2v-1.2h1.2Z" transform="translate(-346.365 -291.627)"/>
          <path id="Trazado_125526" data-name="Trazado 125526" d="M440.1,317.6a.6.6,0,0,0-.6-.6h-2.4a.6.6,0,0,0-.6.6V320a.6.6,0,0,0,.6.6h2.4a.6.6,0,0,0,.6-.6Zm-1.2,1.8h-1.2v-1.2h1.2Z" transform="translate(-401.562 -291.627)"/>
          <path id="Trazado_125527" data-name="Trazado 125527" d="M316.5,380a.6.6,0,0,0,.6.6h2.4a.6.6,0,0,0,.6-.6v-2.4a.6.6,0,0,0-.6-.6h-2.4a.6.6,0,0,0-.6.6Zm1.2-1.8h1.2v1.2h-1.2Z" transform="translate(-291.167 -346.825)"/>
          <path id="Trazado_125528" data-name="Trazado 125528" d="M380.1,377.6a.6.6,0,0,0-.6-.6h-2.4a.6.6,0,0,0-.6.6V380a.6.6,0,0,0,.6.6h2.4a.6.6,0,0,0,.6-.6Zm-1.2,1.8h-1.2v-1.2h1.2Z" transform="translate(-346.365 -346.825)"/>
          <path id="Trazado_125529" data-name="Trazado 125529" d="M316.5,440a.6.6,0,0,0,.6.6h2.4a.6.6,0,0,0,.6-.6v-2.4a.6.6,0,0,0-.6-.6h-2.4a.6.6,0,0,0-.6.6Zm1.2-1.8h1.2v1.2h-1.2Z" transform="translate(-291.167 -402.022)"/>
          <path id="Trazado_125530" data-name="Trazado 125530" d="M379.5,437h-2.4a.6.6,0,0,0-.6.6V440a.6.6,0,0,0,.6.6h2.4a.6.6,0,0,0,.6-.6v-2.4A.6.6,0,0,0,379.5,437Zm-.6,2.4h-1.2v-1.2h1.2Z" transform="translate(-346.365 -402.022)"/>
          <path id="Trazado_125531" data-name="Trazado 125531" d="M439.5,377h-2.4a.6.6,0,0,0-.6.6v7.2a.6.6,0,0,0,.6.6h2.4a.6.6,0,0,0,.6-.6v-7.2A.6.6,0,0,0,439.5,377Zm-.6,7.2h-1.2v-6h1.2Z" transform="translate(-401.562 -346.825)"/>
          <path id="Trazado_125532" data-name="Trazado 125532" d="M94.642,46.105a.6.6,0,0,0-.777.342,5.4,5.4,0,1,0,1.916-2.455.6.6,0,1,0,.694.979,4.193,4.193,0,1,1-1.492,1.91A.6.6,0,0,0,94.642,46.105Z" transform="translate(-86.016 -39.558)"/>
          <path id="Trazado_125533" data-name="Trazado 125533" d="M54.352,223.6a.6.6,0,0,0-.6-.6h-2.4a.6.6,0,0,0-.6.6V226a.6.6,0,0,0,.6.6h2.4a.6.6,0,0,0,.6-.6Zm-1.2,1.8h-1.2v-1.2h1.2Z" transform="translate(-46.688 -205.151)"/>
          <path id="Trazado_125534" data-name="Trazado 125534" d="M54.352,283.6a.6.6,0,0,0-.6-.6h-2.4a.6.6,0,0,0-.6.6V286a.6.6,0,0,0,.6.6h2.4a.6.6,0,0,0,.6-.6Zm-1.2,1.8h-1.2v-1.2h1.2Z" transform="translate(-46.688 -260.348)"/>
          <path id="Trazado_125535" data-name="Trazado 125535" d="M53.752,343h-2.4a.6.6,0,0,0-.6.6V346a.6.6,0,0,0,.6.6h2.4a.6.6,0,0,0,.6-.6v-2.4A.6.6,0,0,0,53.752,343Zm-.6,2.4h-1.2v-1.2h1.2Z" transform="translate(-46.688 -315.546)"/>
          <path id="Trazado_125536" data-name="Trazado 125536" d="M50,193.6a.6.6,0,0,0,.6.6H67.169a.6.6,0,0,0,0-1.2H50.6A.6.6,0,0,0,50,193.6Z" transform="translate(-45.998 -177.552)"/>
          <path id="Trazado_125537" data-name="Trazado 125537" d="M120.066,223H108.1a.6.6,0,1,0,0,1.2h11.966a.6.6,0,1,0,0-1.2Z" transform="translate(-98.896 -205.151)"/>
          <path id="Trazado_125538" data-name="Trazado 125538" d="M108.1,254.2h4a.6.6,0,0,0,0-1.2h-4a.6.6,0,0,0,0,1.2Z" transform="translate(-98.896 -232.75)"/>
          <path id="Trazado_125539" data-name="Trazado 125539" d="M120.066,283H108.1a.6.6,0,1,0,0,1.2h11.966a.6.6,0,0,0,0-1.2Z" transform="translate(-98.896 -260.348)"/>
          <path id="Trazado_125540" data-name="Trazado 125540" d="M108.1,314.2h9.268a.6.6,0,0,0,0-1.2H108.1a.6.6,0,1,0,0,1.2Z" transform="translate(-98.896 -287.947)"/>
          <path id="Trazado_125541" data-name="Trazado 125541" d="M120.667,343.6a.6.6,0,0,0-.6-.6H108.1a.6.6,0,1,0,0,1.2h11.966A.6.6,0,0,0,120.667,343.6Z" transform="translate(-98.896 -315.546)"/>
          <path id="Trazado_125542" data-name="Trazado 125542" d="M108.1,373a.6.6,0,1,0,0,1.2h3.2a.6.6,0,1,0,0-1.2Z" transform="translate(-98.896 -343.145)"/>
          <path id="Trazado_125543" data-name="Trazado 125543" d="M141.385,72.579a1.047,1.047,0,0,1-.7-.3.6.6,0,1,0-.871.827,2.323,2.323,0,0,0,.944.577v.266a.6.6,0,0,0,1.2,0V73.68a1.678,1.678,0,0,0,1.105-1.381,1.642,1.642,0,0,0-1.429-1.784c-.208-.05-.56-.171-.576-.42a.422.422,0,0,1,.213-.379.849.849,0,0,1,.635.061.6.6,0,0,0,.59-1.045,2.11,2.11,0,0,0-.54-.2V68.3a.6.6,0,1,0-1.2,0v.334a1.608,1.608,0,0,0-.9,1.54,1.735,1.735,0,0,0,1.495,1.511c.208.05.551.178.516.476a.489.489,0,0,1-.484.421Z" transform="translate(-128.469 -62.278)"/>
        </g>
      </g>
    </g>
  </g>
</svg>
