<?xml version="1.0" encoding="utf-8"?>
<!-- Generator: Adobe Illustrator 25.2.3, SVG Export Plug-In . SVG Version: 6.00 Build 0)  -->
<svg version="1.1" id="Capa_1" xmlns="http://www.w3.org/2000/svg" xmlns:xlink="http://www.w3.org/1999/xlink" x="0px" y="0px"
	 viewBox="0 0 400 258" style="enable-background:new 0 0 400 258;" xml:space="preserve">
<style type="text/css">
	.st0{opacity:8.900000e-02;fill:#36A3F7;enable-background:new    ;}
	.st1{fill:none;stroke:#636363;stroke-linecap:round;}
	.st2{fill:none;stroke:#36A3F7;}
	.st3{fill:#636363;}
	.st4{enable-background:new    ;}
	.st5{fill:#12263F;}
</style>
<g id="Grupo_102523" transform="translate(-915 -5082)">
	<g id="Grupo_90485" transform="translate(0 688)">
		<rect id="Rectángulo_34071" x="915" y="4394" class="st0" width="400" height="258"/>
		<g id="Grupo_90483" transform="translate(933.182 4414.91)">
			<line id="Línea_148" class="st1" x1="17.2" y1="4.5" x2="17.2" y2="196"/>
			<line id="Línea_149" class="st1" x1="330.5" y1="196" x2="17.2" y2="196"/>
			<line id="Línea_150" class="st2" x1="302.3" y1="24.6" x2="18.3" y2="192.6"/>
			<path id="Polígono_4" class="st3" d="M17.8,0.1l3,5h-6L17.8,0.1z"/>
			<path id="Polígono_5" class="st3" d="M336.3,195.9l-6.1,3.3L330,193L336.3,195.9z"/>
			<g class="st4">
				<path class="st5" d="M6,19.1c0-0.4-0.1-0.8-0.4-1c-0.2-0.3-0.6-0.5-1.2-0.7C3.9,17.2,3.4,17,3,16.7c-0.4-0.2-0.8-0.5-1.1-0.7
					c-0.3-0.3-0.5-0.6-0.7-1S1,14.2,1,13.7c0-0.9,0.3-1.6,0.8-2.2s1.3-0.9,2.2-1V8.9h1.2v1.7c0.9,0.1,1.6,0.5,2.2,1.2
					c0.5,0.6,0.8,1.5,0.8,2.5H6c0-0.6-0.1-1.1-0.4-1.4s-0.6-0.5-1-0.5c-0.4,0-0.8,0.1-1,0.4s-0.4,0.6-0.4,1c0,0.4,0.1,0.7,0.3,1
					c0.2,0.2,0.7,0.5,1.3,0.7c0.6,0.2,1.1,0.5,1.5,0.7c0.4,0.2,0.7,0.5,1,0.8c0.3,0.3,0.5,0.6,0.6,1c0.1,0.4,0.2,0.8,0.2,1.2
					c0,0.9-0.3,1.6-0.8,2.2c-0.6,0.6-1.3,0.9-2.3,1v1.6H3.9v-1.5c-1.1-0.1-1.9-0.5-2.5-1.1s-0.9-1.5-0.9-2.6h2.3
					c0,0.6,0.1,1.1,0.4,1.4c0.3,0.3,0.7,0.5,1.3,0.5c0.5,0,0.8-0.1,1.1-0.4S6,19.5,6,19.1z"/>
			</g>
			<g class="st4">
				<path class="st5" d="M282,213.3l2.6-8.6h2.6l-4,11.4h-2.4l-3.9-11.4h2.6L282,213.3z"/>
				<path class="st5" d="M297.5,210.7c0,1.1-0.2,2.1-0.6,2.9c-0.4,0.8-1,1.5-1.7,2c-0.7,0.5-1.6,0.7-2.5,0.7c-0.9,0-1.8-0.2-2.5-0.7
					c-0.7-0.5-1.3-1.1-1.7-1.9s-0.6-1.8-0.6-2.9v-0.6c0-1.1,0.2-2.1,0.6-3c0.4-0.9,1-1.5,1.7-2c0.7-0.5,1.6-0.7,2.5-0.7
					c0.9,0,1.8,0.2,2.5,0.7c0.7,0.5,1.3,1.1,1.7,2c0.4,0.9,0.6,1.8,0.6,2.9V210.7z M295.2,210.1c0-1.2-0.2-2.1-0.6-2.7
					c-0.4-0.6-1-0.9-1.8-0.9c-0.8,0-1.4,0.3-1.8,0.9c-0.4,0.6-0.6,1.5-0.6,2.7v0.6c0,1.2,0.2,2.1,0.6,2.7c0.4,0.6,1,1,1.8,1
					c0.8,0,1.4-0.3,1.8-0.9s0.6-1.5,0.6-2.7V210.1z"/>
				<path class="st5" d="M301.6,214.2h5v1.9h-7.3v-11.4h2.3V214.2z"/>
				<path class="st5" d="M316.3,204.7v7.5c0,1.2-0.4,2.2-1.2,3c-0.8,0.7-1.8,1.1-3.2,1.1c-1.3,0-2.4-0.4-3.2-1.1s-1.2-1.7-1.2-2.9
					v-7.6h2.3v7.5c0,0.7,0.2,1.3,0.5,1.6c0.4,0.3,0.8,0.5,1.5,0.5c1.3,0,2-0.7,2-2.1v-7.6H316.3z"/>
				<path class="st5" d="M321.3,204.7l2.9,8.2l2.9-8.2h3.1v11.4h-2.4V213l0.2-5.4l-3.1,8.5h-1.6l-3.1-8.5l0.2,5.4v3.1h-2.3v-11.4
					H321.3z"/>
				<path class="st5" d="M339.1,211.2h-4.5v3h5.3v1.9h-7.6v-11.4h7.6v1.9h-5.3v2.7h4.5V211.2z"/>
				<path class="st5" d="M350.5,216.1h-2.3l-4.6-7.5v7.5h-2.3v-11.4h2.3l4.6,7.5v-7.5h2.3V216.1z"/>
			</g>
			<g class="st4">
				<path class="st5" d="M202.5,113.5c-0.1,1.2-0.6,2.1-1.3,2.8c-0.7,0.7-1.7,1-3,1c-1.3,0-2.4-0.5-3.2-1.4c-0.8-1-1.2-2.3-1.2-3.9
					v-1.1c0-1.1,0.2-2,0.6-2.8c0.4-0.8,0.9-1.4,1.6-1.8c0.7-0.4,1.5-0.6,2.4-0.6c1.2,0,2.2,0.3,2.9,1c0.7,0.7,1.2,1.6,1.3,2.8H201
					c-0.1-0.9-0.4-1.6-0.8-2c-0.4-0.4-1-0.6-1.8-0.6c-1,0-1.7,0.4-2.3,1.1c-0.5,0.7-0.8,1.7-0.8,3v1.1c0,1.2,0.3,2.2,0.8,2.9
					s1.2,1.1,2.2,1.1c0.8,0,1.5-0.2,1.9-0.6s0.7-1,0.9-2H202.5z"/>
				<path class="st5" d="M213.3,111.8c0,1.1-0.2,2.1-0.6,2.9s-0.9,1.5-1.6,1.9s-1.5,0.7-2.4,0.7c-0.9,0-1.7-0.2-2.4-0.7
					c-0.7-0.4-1.2-1.1-1.6-1.9s-0.6-1.8-0.6-2.8v-0.8c0-1.1,0.2-2.1,0.6-2.9c0.4-0.8,0.9-1.5,1.6-1.9s1.5-0.7,2.4-0.7
					c0.9,0,1.7,0.2,2.4,0.7s1.2,1.1,1.6,1.9s0.6,1.8,0.6,2.9V111.8z M211.8,111c0-1.3-0.3-2.4-0.8-3.1c-0.5-0.7-1.3-1.1-2.3-1.1
					c-0.9,0-1.7,0.4-2.2,1.1c-0.5,0.7-0.8,1.7-0.8,3v0.8c0,1.3,0.3,2.3,0.8,3.1c0.5,0.7,1.3,1.1,2.3,1.1c1,0,1.7-0.4,2.2-1.1
					s0.8-1.7,0.8-3V111z"/>
				<path class="st5" d="M218.9,112c-1.3-0.4-2.2-0.8-2.8-1.4s-0.9-1.2-0.9-2c0-0.9,0.4-1.6,1.1-2.2c0.7-0.6,1.6-0.9,2.8-0.9
					c0.8,0,1.5,0.2,2.1,0.5c0.6,0.3,1.1,0.7,1.4,1.2s0.5,1.1,0.5,1.7h-1.5c0-0.7-0.2-1.2-0.7-1.6s-1.1-0.6-1.9-0.6
					c-0.7,0-1.3,0.2-1.7,0.5s-0.6,0.8-0.6,1.4c0,0.5,0.2,0.9,0.6,1.2c0.4,0.3,1.1,0.6,2,0.9c0.9,0.3,1.7,0.6,2.2,0.9
					c0.5,0.3,0.9,0.7,1.2,1.1s0.4,0.9,0.4,1.5c0,0.9-0.4,1.7-1.1,2.2s-1.7,0.8-2.9,0.8c-0.8,0-1.5-0.1-2.2-0.4
					c-0.7-0.3-1.2-0.7-1.6-1.2s-0.6-1.1-0.6-1.8h1.5c0,0.7,0.3,1.2,0.8,1.6s1.2,0.6,2,0.6c0.8,0,1.4-0.2,1.8-0.5s0.6-0.8,0.6-1.3
					s-0.2-1-0.6-1.3S219.9,112.3,218.9,112z"/>
				<path class="st5" d="M232.9,106.9h-3.7v10.1h-1.5v-10.1h-3.6v-1.2h8.8V106.9z"/>
				<path class="st5" d="M243.1,111.8c0,1.1-0.2,2.1-0.6,2.9s-0.9,1.5-1.6,1.9s-1.5,0.7-2.4,0.7c-0.9,0-1.7-0.2-2.4-0.7
					c-0.7-0.4-1.2-1.1-1.6-1.9s-0.6-1.8-0.6-2.8v-0.8c0-1.1,0.2-2.1,0.6-2.9c0.4-0.8,0.9-1.5,1.6-1.9s1.5-0.7,2.4-0.7
					c0.9,0,1.7,0.2,2.4,0.7s1.2,1.1,1.6,1.9s0.6,1.8,0.6,2.9V111.8z M241.6,111c0-1.3-0.3-2.4-0.8-3.1c-0.5-0.7-1.3-1.1-2.3-1.1
					c-0.9,0-1.7,0.4-2.2,1.1c-0.5,0.7-0.8,1.7-0.8,3v0.8c0,1.3,0.3,2.3,0.8,3.1c0.5,0.7,1.3,1.1,2.3,1.1c1,0,1.7-0.4,2.2-1.1
					s0.8-1.7,0.8-3V111z"/>
				<path class="st5" d="M253.1,115.1l3.2-9.4h1.6l-4.2,11.4h-1.3l-4.2-11.4h1.6L253.1,115.1z"/>
				<path class="st5" d="M265.2,114.1h-4.8l-1.1,3h-1.5l4.3-11.4h1.3l4.4,11.4h-1.5L265.2,114.1z M260.9,112.9h3.9l-1.9-5.3
					L260.9,112.9z"/>
				<path class="st5" d="M273.5,112.5h-2.7v4.6h-1.5v-11.4h3.8c1.3,0,2.3,0.3,3,0.9c0.7,0.6,1,1.4,1,2.5c0,0.7-0.2,1.3-0.6,1.9
					s-0.9,0.9-1.6,1.2l2.7,4.8v0.1H276L273.5,112.5z M270.9,111.3h2.3c0.7,0,1.3-0.2,1.8-0.6c0.4-0.4,0.7-0.9,0.7-1.5
					c0-0.7-0.2-1.2-0.6-1.6c-0.4-0.4-1-0.6-1.8-0.6h-2.3V111.3z"/>
				<path class="st5" d="M280.8,117.1h-1.5v-11.4h1.5V117.1z"/>
				<path class="st5" d="M289.8,114.1h-4.8l-1.1,3h-1.5l4.3-11.4h1.3l4.4,11.4h-1.5L289.8,114.1z M285.5,112.9h3.9l-1.9-5.3
					L285.5,112.9z"/>
				<path class="st5" d="M294,117.1v-11.4h3.7c1.2,0,2.2,0.3,2.8,0.8c0.6,0.5,0.9,1.3,0.9,2.3c0,0.5-0.2,1-0.5,1.4
					c-0.3,0.4-0.7,0.7-1.2,0.9c0.6,0.2,1.1,0.5,1.5,1c0.4,0.5,0.5,1.1,0.5,1.7c0,1-0.3,1.8-1,2.4c-0.7,0.6-1.6,0.9-2.8,0.9H294z
					 M295.5,110.6h2.3c0.7,0,1.2-0.2,1.6-0.5c0.4-0.3,0.6-0.8,0.6-1.3c0-0.6-0.2-1.1-0.5-1.4c-0.4-0.3-0.9-0.4-1.7-0.4h-2.2V110.6z
					 M295.5,111.8v4.1h2.5c0.7,0,1.2-0.2,1.7-0.5c0.4-0.4,0.6-0.9,0.6-1.5c0-1.4-0.7-2.1-2.2-2.1H295.5z"/>
				<path class="st5" d="M305.5,115.9h5.4v1.2H304v-11.4h1.5V115.9z"/>
				<path class="st5" d="M319,111.8h-4.9v4h5.7v1.2h-7.2v-11.4h7.1v1.2h-5.6v3.7h4.9V111.8z"/>
			</g>
		</g>
	</g>
</g>
</svg>
