<svg xmlns="http://www.w3.org/2000/svg" width="108" height="108" viewBox="0 0 108 108">
  <g id="Grupo_102527" data-name="Grupo 102527" transform="translate(-471 -8096)">
    <circle id="Elipse_4723" data-name="Elipse 4723" cx="54" cy="54" r="54" transform="translate(471 8096)" fill="#36a3f7"/>
    <g id="Grupo_101809" data-name="Grupo 101809" transform="translate(-1493.099 6417)">
      <path id="Trazado_157059" data-name="Trazado 157059" d="M2007.259,1783.583a1.783,1.783,0,0,1-.943-1.765c.027-1.979-.01-3.961.013-5.94a10.66,10.66,0,0,1,9.982-10.811,47.648,47.648,0,0,1,9.308.031,10.621,10.621,0,0,1,9.042,9.615c.138,2.468.051,4.948.085,7.422a1.671,1.671,0,0,1-.907,1.448Z" transform="translate(-2.534 -8.061)"/>
      <path id="Trazado_157060" data-name="Trazado 157060" d="M2022.552,1691a1.712,1.712,0,0,1,.832,1.72c-.051.762,0,1.531-.016,2.3a1.238,1.238,0,1,1-2.468-.009c-.017-.765.037-1.534-.016-2.3a1.658,1.658,0,0,1,.842-1.711Z" transform="translate(-4.123)"/>
      <path id="Trazado_157061" data-name="Trazado 157061" d="M1983.1,1729.626a1.658,1.658,0,0,1,1.711-.844c.763.053,1.531,0,2.3.016a1.238,1.238,0,1,1,.008,2.468c-.765.02-1.534-.036-2.3.016a1.708,1.708,0,0,1-1.72-.831Z" transform="translate(0 -4.123)"/>
      <path id="Trazado_157062" data-name="Trazado 157062" d="M2033.335,1747.834c.306,1.009.171,1.393-.707,1.916a25.758,25.758,0,0,1-6.807,2.846,2.854,2.854,0,0,0-1.393.773,7.644,7.644,0,0,1-10.875-.07,2.391,2.391,0,0,0-1.18-.672,26.555,26.555,0,1,1,32.912-29.531c1.277,8.661-1.317,16.232-7.422,22.555-.69.714-1.143.747-2.033.207-.661-.6-.656-1.18.04-1.959a32.388,32.388,0,0,0,3.226-4.057,24.1,24.1,0,0,0,1.467-23.214,22.3,22.3,0,0,0-5.5-7.322,22.7,22.7,0,0,0-13.685-6.114,23.283,23.283,0,0,0-17.9,5.666,23,23,0,0,0-8.185,15.691,23.251,23.251,0,0,0,5.688,17.968,24.192,24.192,0,0,0,9.394,6.657c.782.32.666.29.791-.539.256-1.68-.5-2.427-1.958-3.194a20.965,20.965,0,0,1-7.445-30.5,1.613,1.613,0,0,1,2.371-.728,1.637,1.637,0,0,1,.053,2.312,18.22,18.22,0,0,0,7.42,26.92.744.744,0,0,0,1.057-.253,7.933,7.933,0,0,1,12.656-.107c.292.533.638.6,1.212.322,5.977-2.935,9.606-7.664,10.431-14.263a17.218,17.218,0,0,0-4.8-14.609,16.465,16.465,0,0,0-3.748-3.072,17.493,17.493,0,0,0-9.462-2.652,17.286,17.286,0,0,0-9.855,2.986c-.273.185-.543.372-.826.543a1.456,1.456,0,0,1-2.124-.258c-.452-1.021-.276-1.588.723-2.3a20.017,20.017,0,0,1,8.7-3.571,20.547,20.547,0,0,1,17.312,4.967,19.89,19.89,0,0,1,7.025,13.495,21.179,21.179,0,0,1-12.354,21.45.9.9,0,0,0-.64,1.077,7.577,7.577,0,0,1,.016,1.072,5.941,5.941,0,0,0-.011,1.128,16.757,16.757,0,0,0,3.462-1.471c.418-.2.8-.478,1.232-.661A1.226,1.226,0,0,1,2033.335,1747.834Z" transform="translate(-1.021 -1.022)"/>
      <path id="Trazado_157063" data-name="Trazado 157063" d="M2039.326,1710.174a22.674,22.674,0,0,1,7.393,12.723,23.6,23.6,0,0,1-6.239,21.877c-.891.953-.949,1.155-.474,2.155a16.014,16.014,0,0,1-2.493,1.976,1.442,1.442,0,0,0-2.047-.187,22.138,22.138,0,0,1-4.735,2.151l.2-1.481a1.64,1.64,0,0,1,.64-.5c7.335-4.077,11.823-10.2,13.122-18.524a24.556,24.556,0,0,0-5.006-19.136C2039.463,1710.929,2039,1710.676,2039.326,1710.174Z" transform="translate(-5.199 -2.093)" fill="#fcd230"/>
      <path id="Trazado_157064" data-name="Trazado 157064" d="M2058.139,1728.8c.493,0,.986-.024,1.477.007a1.225,1.225,0,0,1,.018,2.45c-1.01.04-2.025.042-3.034,0a1.226,1.226,0,0,1,.063-2.45C2057.153,1728.777,2057.647,1728.8,2058.139,1728.8Z" transform="translate(-7.896 -4.125)" fill="#010101"/>
      <path id="Trazado_157065" data-name="Trazado 157065" d="M2054.638,1709.9a1.2,1.2,0,0,1,1.072.85,1.079,1.079,0,0,1-.389,1.325c-.926.587-1.878,1.136-2.852,1.636a1.071,1.071,0,0,1-1.433-.456,1.029,1.029,0,0,1,.076-1.435,13.6,13.6,0,0,1,3.249-1.9A.934.934,0,0,1,2054.638,1709.9Z" transform="translate(-7.387 -2.063)" fill="#010101"/>
      <path id="Trazado_157066" data-name="Trazado 157066" d="M2004.683,1701.021a1.24,1.24,0,0,1-1.131-.69c-.452-.779-.918-1.55-1.349-2.341a1.22,1.22,0,0,1,.372-1.727,1.2,1.2,0,0,1,1.75.477c.5.811,1,1.629,1.432,2.481A1.207,1.207,0,0,1,2004.683,1701.021Z" transform="translate(-2.063 -0.552)" fill="#010101"/>
      <path id="Trazado_157067" data-name="Trazado 157067" d="M1993.121,1712.565a1.172,1.172,0,0,1-1.633,1.137,22.841,22.841,0,0,1-2.838-1.62,1.086,1.086,0,0,1-.288-1.6,1.107,1.107,0,0,1,1.562-.451c.894.468,1.758.991,2.63,1.5A1.154,1.154,0,0,1,1993.121,1712.565Z" transform="translate(-0.55 -2.06)" fill="#010101"/>
      <path id="Trazado_157068" data-name="Trazado 157068" d="M2052.127,1746.046a3.186,3.186,0,0,1,.566.2c.81.454,1.618.91,2.408,1.4a1.235,1.235,0,1,1-1.225,2.139q-1.259-.684-2.475-1.443a1.141,1.141,0,0,1-.506-1.423A1.272,1.272,0,0,1,2052.127,1746.046Z" transform="translate(-7.391 -6.008)" fill="#010101"/>
      <path id="Trazado_157069" data-name="Trazado 157069" d="M2042.113,1697.363a3.591,3.591,0,0,1-.221.616c-.437.787-.882,1.571-1.352,2.339a1.264,1.264,0,0,1-1.746.549,1.235,1.235,0,0,1-.4-1.775q.669-1.22,1.4-2.407a1.146,1.146,0,0,1,1.4-.552A1.289,1.289,0,0,1,2042.113,1697.363Z" transform="translate(-6.012 -0.553)" fill="#010101"/>
      <path id="Trazado_157070" data-name="Trazado 157070" d="M1989.533,1750.015a1.365,1.365,0,0,1-1.28-.846,1.083,1.083,0,0,1,.4-1.381c.918-.588,1.874-1.119,2.838-1.628a1.058,1.058,0,0,1,1.328.335,1.022,1.022,0,0,1,.153,1.359A10.854,10.854,0,0,1,1989.533,1750.015Z" transform="translate(-0.552 -6.007)" fill="#010101"/>
      <path id="Trazado_157071" data-name="Trazado 157071" d="M2030.046,1781.235c-1.624.084-1.624.084-1.624-1.528,0-1.017.013-2.035-.006-3.052a1.325,1.325,0,0,0-1.276-1.434,1.37,1.37,0,0,0-1.367,1.453c-.025,1.318-.03,2.64,0,3.958.014.519-.161.644-.658.641-2.832-.022-5.664-.029-8.5,0-.591.006-.672-.231-.662-.725.026-1.264.03-2.53,0-3.794-.025-1.126-.844-1.771-1.772-1.441a1.28,1.28,0,0,0-.88,1.342c0,1.319-.02,2.64.007,3.959.01.5-.151.675-.659.656-.934-.036-1.869-.011-2.8-.01-.257,0-.52.01-.51-.36.049-2.141-.249-4.306.172-6.418a7.879,7.879,0,0,1,7.536-6.445,58.717,58.717,0,0,1,8.565.027,2.5,2.5,0,0,1,.465.137,7.779,7.779,0,0,1,3.379,3.777,10.617,10.617,0,0,1,.974,4.549c-.01,1.234.009,2.468-.008,3.7C2030.42,1780.6,2030.494,1781.023,2030.046,1781.235Z" transform="translate(-2.858 -8.393)" fill="#5bbc92"/>
      <path id="Trazado_157072" data-name="Trazado 157072" d="M2032.1,1781.273a.213.213,0,0,0,.035-.074c.18-3.632.614-7.306-1.662-10.549a18.438,18.438,0,0,0-2.338-2.41,7.925,7.925,0,0,1,6.261,7.041c.087,1.806.022,3.62.054,5.429.009.48-.172.624-.625.595C2033.255,1781.271,2032.679,1781.282,2032.1,1781.273Z" transform="translate(-4.916 -8.43)" fill="#2db17f"/>
      <path id="Trazado_157073" data-name="Trazado 157073" d="M2026.219,1744.213a7.859,7.859,0,0,0-5.811-3.007,7.474,7.474,0,0,0-6.656,3.248.7.7,0,0,1-1.048.28,18.339,18.339,0,0,1-7.764-27.171c.52-.751.813-1.431.148-2.219a.355.355,0,0,1,.106-.442,10.01,10.01,0,0,1,2.086-1.925c.876.7,1.152.681,2.18,0,6.407-4.24,13-4.507,19.759-.887a2.7,2.7,0,0,1,.324.241,18.657,18.657,0,0,1,6.828,14.5,19.036,19.036,0,0,1-2.9,10.748,19.245,19.245,0,0,1-6.2,6.293C2026.958,1744.073,2026.649,1744.341,2026.219,1744.213Z" transform="translate(-2.032 -2.027)" fill="#f8c42d"/>
      <path id="Trazado_157074" data-name="Trazado 157074" d="M2006.568,1712.27q-1.1,1.183-2.192,2.367c-1.045-.411-1.413-.3-2.08.64a20.8,20.8,0,0,0,8.7,30.995c.575.253.759.51.673,1.134a6.433,6.433,0,0,0,.187,2.707,22.586,22.586,0,0,1-9.045-5.391c-6.837-6.767-9.23-14.93-6.571-24.15s9.022-14.986,18.418-16.925a22.918,22.918,0,0,1,20.785,5.758c-.053.558.446.8.712,1.153a25.209,25.209,0,0,1,3.228,25.057,24.579,24.579,0,0,1-6.228,8.9,20.512,20.512,0,0,1-6.109,4.108c-.306-1.4.127-2.149,1.555-2.846a20.608,20.608,0,0,0,11.43-20.657,20.857,20.857,0,0,0-21.951-18.646,20.613,20.613,0,0,0-10.873,3.849C2006.327,1710.949,2006.232,1711.256,2006.568,1712.27Z" transform="translate(-1.319 -1.321)" fill="#fce265"/>
      <path id="Trazado_157075" data-name="Trazado 157075" d="M2029.221,1744.551a19.415,19.415,0,0,0,9.873-14.794,19.413,19.413,0,0,0-2.707-12.394,33.224,33.224,0,0,0-3.84-4.695,17.6,17.6,0,0,1,7.914,9.946,18.348,18.348,0,0,1-9.945,22.4C2029.846,1745.32,2029.452,1745.267,2029.221,1744.551Z" transform="translate(-5.034 -2.365)" fill="#e6b629"/>
      <path id="Trazado_157076" data-name="Trazado 157076" d="M2020.588,1757.987a4.652,4.652,0,0,1-3.745-3.407,4.746,4.746,0,0,1,1.39-5.179,4.7,4.7,0,0,1,5.023-1.051,2.41,2.41,0,0,1,.861,1.166,6.6,6.6,0,0,1-2.465,8.188A1.263,1.263,0,0,1,2020.588,1757.987Z" transform="translate(-3.655 -6.225)" fill="#5bbc92"/>
      <path id="Trazado_157077" data-name="Trazado 157077" d="M2021.079,1758.025a6.176,6.176,0,0,0,3.824-5.195,7.32,7.32,0,0,0-1.156-4.443,5,5,0,0,1-2.667,9.637Z" transform="translate(-4.145 -6.264)" fill="#2db17f"/>
      <path id="Trazado_157078" data-name="Trazado 157078" d="M2023.854,1731.662a1.654,1.654,0,0,0-1.131-1.4c-.845-.39-1.741-.67-2.587-1.059-2.778-1.277-3.529-4.219-1.643-6.362a1.433,1.433,0,0,1,.351-.346c.983-.518,1.763-1.1,1.7-2.425-.025-.525.616-.791,1.2-.744a1.092,1.092,0,0,1,1.057.88,2.74,2.74,0,0,1,.061.819.575.575,0,0,0,.516.687,5.63,5.63,0,0,1,1.969,1,1.281,1.281,0,0,1,.415,1.8,1.233,1.233,0,0,1-1.813.241,3.568,3.568,0,0,0-2.283-.794,1.7,1.7,0,0,0-1.676,1.212c-.176.828.311,1.283.94,1.65a14.008,14.008,0,0,0,2.363.95,4.222,4.222,0,0,1,3.033,3.9,4.478,4.478,0,0,1-2.75,4.39,1.012,1.012,0,0,0-.723,1.158c.026.949-.427,1.443-1.194,1.457s-1.256-.485-1.252-1.409c0-.591-.124-.882-.774-.975a4.771,4.771,0,0,1-1.881-.8,1.239,1.239,0,0,1-.5-1.7,1.212,1.212,0,0,1,1.718-.427,4.787,4.787,0,0,0,2.755.676A2.222,2.222,0,0,0,2023.854,1731.662Z" transform="translate(-3.71 -3.091)"/>
    </g>
  </g>
</svg>
