<svg xmlns="http://www.w3.org/2000/svg" xmlns:xlink="http://www.w3.org/1999/xlink" width="376" height="279" viewBox="0 0 376 279">
  <defs>
    <clipPath id="clip-path">
      <rect id="Rect치ngulo_34047" data-name="Rect치ngulo 34047" width="376" height="276" fill="#dc9ce8"/>
    </clipPath>
  </defs>
  <g id="Grupo_96746" data-name="Grupo 96746" transform="translate(-1020 -1410)">
    <path id="Trazado_124754" data-name="Trazado 124754" d="M0,0H376V279H0Z" transform="translate(1020 1410)" fill="#f739a8" opacity="0.067"/>
    <g id="Grupo_88472" data-name="Grupo 88472" transform="translate(1020 1410)">
      <rect id="Rect치ngulo_33714" data-name="Rect치ngulo 33714" width="376" height="279" fill="none" opacity="0.07"/>
      <g id="Enmascarar_grupo_61" data-name="Enmascarar grupo 61" transform="translate(0 3)" opacity="0.24" clip-path="url(#clip-path)">
        <path id="Trazado_122678" data-name="Trazado 122678" d="M16.343,0,458.581,4.5c9.118.093,16.585,7.337,16.678,16.18L479.4,415.709a15.867,15.867,0,0,1-16.342,15.844l-442.238-4.5c-9.118-.093-16.585-7.337-16.678-16.18L0,15.845A15.867,15.867,0,0,1,16.343,0Z" transform="translate(440.236 477.956) rotate(163)" fill="#dc9ce8"/>
      </g>
    </g>
    <g id="Grupo_88438" data-name="Grupo 88438" transform="translate(631.41 1195.238)">
      <g id="Grupo_88366" data-name="Grupo 88366" transform="translate(406.904 360.529)">
        <path id="Trazado_122208" data-name="Trazado 122208" d="M436.847,343.74l104.964-60.6,72.568,41.9L509.407,385.641Z" transform="translate(-436.847 -283.138)" opacity="0.3"/>
        <path id="Trazado_122209" data-name="Trazado 122209" d="M436.847,343.52l104.964-60.606,72.568,41.9L509.407,385.418Z" transform="translate(-436.847 -282.055)" fill="#fff"/>
        <g id="Grupo_88363" data-name="Grupo 88363" transform="translate(66.038 5.466)">
          <g id="Grupo_88361" data-name="Grupo 88361" transform="translate(1.735 4.204)">
            <path id="Trazado_122210" data-name="Trazado 122210" d="M448.317,307.438l17.334-10.005,2.289,1.325-17.338,10Zm17.334-9.591-16.616,9.591,1.567.906,16.616-9.587Z" transform="translate(-402.237 -270.829)" fill="#535359"/>
            <path id="Trazado_122211" data-name="Trazado 122211" d="M451.557,299.306c1.179-.691,2.524-.945,3.13-.6.592.349.15,1.121-1.033,1.805s-2.531.941-3.126.592S450.371,299.989,451.557,299.306Zm1.74,1c.983-.561,1.348-1.2,1.029-1.39a3.489,3.489,0,0,0-2.416.6c-.987.565-1.352,1.2-1.022,1.394A3.485,3.485,0,0,0,453.3,300.3Z" transform="translate(-396.717 -267.643)" fill="#535359"/>
            <path id="Trazado_122212" data-name="Trazado 122212" d="M465.182,307.165c10.566-6.1,18.129-9.529,20.76-9.425a1.44,1.44,0,0,1,.822.246l.038.023.008.035c1.083,3.088,8.3,8.861,14.088,13.5,3.638,2.915,6.791,5.431,7.924,6.852a19.811,19.811,0,0,1,3.683,6.126l-.492.05a19.939,19.939,0,0,0-3.645-6.053c-1.125-1.39-4.256-3.9-7.882-6.8-5.8-4.647-13.009-10.424-14.157-13.581a.855.855,0,0,0-.423-.1c-1.89-.085-8.227,2.332-20.372,9.337-12.129,7.01-16.308,10.666-16.174,11.761a.332.332,0,0,0,.173.242c5.477.664,15.479,4.828,23.525,8.17a125.7,125.7,0,0,0,11.792,4.555,70.972,70.972,0,0,0,10.485,2.1l-.1.3a73.186,73.186,0,0,1-10.608-2.132,125.323,125.323,0,0,1-11.864-4.574c-8.043-3.345-18.044-7.509-23.387-8.139l-.058,0-.05-.019a.637.637,0,0,1-.419-.472C448.666,317.639,454.612,313.264,465.182,307.165Z" transform="translate(-448.85 -297.737)" fill="#535359"/>
            <path id="Trazado_122213" data-name="Trazado 122213" d="M443.408,304.6l.376-.2a10.2,10.2,0,0,1,2.281,2.777,15.571,15.571,0,0,0,3.634,4.263,18.517,18.517,0,0,0,3.107,1.805c.849.407,1.89.895,3.753,1.97,4.025-1.613,10.009-4.878,10.977-5.408a2.866,2.866,0,0,1-.714-1.559l.015-.138.227,0a11.713,11.713,0,0,1,2.7.407,98.268,98.268,0,0,0,9.38-6.33c-1.859-1.079-2.723-1.678-3.418-2.159a17.206,17.206,0,0,0-3.119-1.8,40.023,40.023,0,0,0-7.39-2.1,27.634,27.634,0,0,1-4.82-1.317l.342-.219a27.723,27.723,0,0,0,4.663,1.26A40.94,40.94,0,0,1,472.921,298a18.545,18.545,0,0,1,3.2,1.836,37.86,37.86,0,0,0,3.526,2.232l.142.081-.1.1A102.471,102.471,0,0,1,470,308.808l-.127.073-.169-.05a12.713,12.713,0,0,0-2.374-.422,3.271,3.271,0,0,0,.734,1.367l.092.092-.134.081c-.073.038-6.956,3.852-11.346,5.581l-.18.069-.142-.085c-1.947-1.118-3.015-1.632-3.864-2.032a19.368,19.368,0,0,1-3.184-1.847,15.938,15.938,0,0,1-3.71-4.344A10.319,10.319,0,0,0,443.408,304.6Z" transform="translate(-395.227 -266.779)" fill="#535359"/>
          </g>
          <path id="Trazado_122214" data-name="Trazado 122214" d="M444.531,295.245a.212.212,0,0,1,.18,0l66.332,38.3c.05.023.05.073,0,.1a.2.2,0,0,1-.177,0l-66.336-38.305A.053.053,0,0,1,444.531,295.245Z" transform="translate(-428.967 -283.058)" fill="#535359"/>
          <path id="Trazado_122215" data-name="Trazado 122215" d="M448.483,308.134l15.778-9.107,7.505,10.82L461.6,315.712Zm15.686-8.849-15.333,8.849,12.767,7.375,9.863-5.7Z" transform="translate(-404.966 -279.703)" fill="#535359"/>
          <path id="Trazado_122216" data-name="Trazado 122216" d="M450.68,312.7l20.3-11.726,7.5,10.827-14.664,8.473Zm20.2-11.461L451.037,312.7l12.771,7.371,14.369-8.308Z" transform="translate(-420.11 -291.739)" fill="#535359"/>
          <path id="Trazado_122217" data-name="Trazado 122217" d="M453.255,316.4l23.36-13.478,7.5,10.82-17.722,10.236Zm23.268-13.217L453.62,316.4l12.771,7.374,17.426-10.063Z" transform="translate(-435.641 -302.92)" fill="#535359"/>
          <path id="Trazado_122218" data-name="Trazado 122218" d="M451.1,316.134l40.037-23.111a.188.188,0,0,1,.18,0c.058.031.058.077,0,.1l-40.041,23.114a.2.2,0,0,1-.177,0C451.054,316.223,451.054,316.173,451.1,316.134Z" transform="translate(-434.481 -257.108)" fill="#535359"/>
          <path id="Trazado_122219" data-name="Trazado 122219" d="M478.11,293.027a.163.163,0,0,1,.177,0c.058.023.058.073,0,.1-22.031,12.721-22.031,33.412,0,46.125.058.038.058.088,0,.107a.2.2,0,0,1-.177,0c-10.716-6.18-16.619-14.407-16.619-23.164S467.394,299.21,478.11,293.027Z" transform="translate(-461.491 -280.225)" fill="#535359"/>
          <path id="Trazado_122220" data-name="Trazado 122220" d="M466.7,298.192a.161.161,0,0,1,.146-.012c.061.015.1.061.05.092l-14,14.146,44.458,9.906c.061.019.1.058.069.1a.158.158,0,0,1-.161.042l-44.727-9.967L466.681,298.2Z" transform="translate(-446.213 -283.158)" fill="#535359"/>
          <path id="Trazado_122221" data-name="Trazado 122221" d="M466.119,297.415a.2.2,0,0,1,.142-.023c.065.027.088.065.054.1l-12.064,14.369,25.162,5.654c.069.015.1.058.069.1a.172.172,0,0,1-.161.042l-25.43-5.711,12.2-14.511Z" transform="translate(-433.46 -275.357)" fill="#535359"/>
          <path id="Trazado_122222" data-name="Trazado 122222" d="M467.458,296.62a.185.185,0,0,1,.146-.019c.062.023.081.065.054.1l-12.487,15.026,10.731,2.523c.065.008.092.058.069.088a.159.159,0,0,1-.165.042L454.825,311.8l.058-.065,12.548-15.091Z" transform="translate(-425.227 -269.034)" fill="#535359"/>
          <path id="Trazado_122223" data-name="Trazado 122223" d="M455.624,301.64c4.713-2.731,10.247-5.327,11.192-4.778s-3.553,3.733-8.273,6.464-10.255,5.331-11.2,4.774C446.4,307.559,450.9,304.36,455.624,301.64Zm2.738,1.582c5.638-3.257,8.884-5.911,8.273-6.265-.6-.342-5.2,1.533-10.835,4.782s-8.892,5.9-8.281,6.257S452.728,306.476,458.363,303.223Z" transform="translate(-395.28 -263.57)" fill="#535359"/>
          <path id="Trazado_122224" data-name="Trazado 122224" d="M455.995,301.861c4.16-2.4,9.034-4.682,9.875-4.194s-3.119,3.292-7.279,5.7-9.03,4.686-9.867,4.2S451.843,304.262,455.995,301.861Zm2.42,1.4c4.943-2.854,7.808-5.185,7.282-5.5s-4.567,1.348-9.518,4.21-7.8,5.181-7.282,5.492C449.43,307.761,453.464,306.117,458.414,303.259Z" transform="translate(-399.672 -266.141)" fill="#535359"/>
          <path id="Trazado_122225" data-name="Trazado 122225" d="M455.288,301.449c5.681-3.28,12.329-6.407,13.458-5.754s-4.294,4.49-9.971,7.766-12.329,6.41-13.462,5.765C444.18,308.567,449.608,304.73,455.288,301.449Zm3.311,1.913c6.791-3.933,10.708-7.14,9.971-7.567s-6.3,1.836-13.1,5.765c-6.814,3.918-10.716,7.133-9.982,7.559S451.8,307.284,458.6,303.362Z" transform="translate(-389.344 -260.175)" fill="#535359"/>
          <path id="Trazado_122226" data-name="Trazado 122226" d="M448.313,293.983a.188.188,0,0,1,.18,0l4.436,2.562c.054.031.054.077,0,.108a.245.245,0,0,1-.18,0l-4.436-2.566C448.259,294.055,448.259,294.017,448.313,293.983Z" transform="translate(-385.361 -241.197)" fill="#535359"/>
          <path id="Trazado_122227" data-name="Trazado 122227" d="M451.372,298.625a.174.174,0,0,1,.173,0l3.787,2.185c.046.027.046.073,0,.1a.2.2,0,0,1-.177,0l-3.783-2.189C451.322,298.7,451.322,298.648,451.372,298.625Z" transform="translate(-399.521 -263.292)" fill="#535359"/>
          <path id="Trazado_122228" data-name="Trazado 122228" d="M450.383,299.2a.181.181,0,0,1,.177,0l3.783,2.182c.05.035.05.081,0,.108a.167.167,0,0,1-.169,0l-3.787-2.185C450.333,299.264,450.333,299.226,450.383,299.2Z" transform="translate(-394.732 -266.056)" fill="#535359"/>
          <path id="Trazado_122229" data-name="Trazado 122229" d="M442.34,297.432a.163.163,0,0,1,.177,0l4.44,2.554c.054.035.054.085,0,.108a.166.166,0,0,1-.169,0l-4.448-2.566A.05.05,0,0,1,442.34,297.432Z" transform="translate(-356.458 -257.882)" fill="#535359"/>
          <path id="Trazado_122230" data-name="Trazado 122230" d="M442.343,307.22l22.942-13.243a.215.215,0,0,1,.169,0c.054.035.054.085,0,.108l-22.93,13.243a.245.245,0,0,1-.18,0C442.289,307.3,442.289,307.251,442.343,307.22Z" transform="translate(-374.955 -251.873)" fill="#535359"/>
          <path id="Trazado_122231" data-name="Trazado 122231" d="M446.526,297.552l5.113-2.956.81.465-5.108,2.948Z" transform="translate(-378.133 -244.981)" fill="#535359"/>
          <path id="Trazado_122232" data-name="Trazado 122232" d="M443.406,299.353l5.109-2.956.8.461-5.1,2.956Z" transform="translate(-363.018 -253.706)" fill="#535359"/>
          <path id="Trazado_122233" data-name="Trazado 122233" d="M454.257,294.09c2.754-1.586,5.949-2.243,7.259-1.479,1.325.764.192,2.6-2.558,4.194s-5.942,2.243-7.271,1.479C450.377,297.528,451.5,295.68,454.257,294.09Zm4.34,2.508c2.473-1.421,3.645-3.161,2.566-3.783s-4.083.061-6.556,1.483-3.641,3.157-2.558,3.779S456.127,298.027,458.6,296.6Z" transform="translate(-405.481 -236.73)" fill="#535359"/>
          <path id="Trazado_122234" data-name="Trazado 122234" d="M451.367,301.388l3.8-2.193a.181.181,0,0,1,.177,0c.054.031.054.069,0,.1l-3.8,2.189a.2.2,0,0,1-.173,0C451.317,301.461,451.317,301.411,451.367,301.388Z" transform="translate(-399.515 -266.056)" fill="#535359"/>
          <g id="Grupo_88362" data-name="Grupo 88362" transform="translate(30.216 50.125)">
            <path id="Trazado_122235" data-name="Trazado 122235" d="M453.925,300.709l14.449-8.342a.445.445,0,0,1,.357,0,.112.112,0,0,1,0,.207l-14.349,8.277-.926,2.7,4.521-.615,14.349-8.281a.369.369,0,0,1,.357,0c.1.058.1.146,0,.2L458.231,303.2l-5.416.741Z" transform="translate(-452.815 -292.329)" fill="#535359"/>
            <path id="Trazado_122236" data-name="Trazado 122236" d="M454.549,294.381a1.3,1.3,0,0,1,1.168,0,.357.357,0,0,1,0,.676,1.3,1.3,0,0,1-1.168,0A.358.358,0,0,1,454.549,294.381Zm.81.465c.123-.069.123-.184,0-.25a.43.43,0,0,0-.45,0,.132.132,0,0,0,0,.25A.489.489,0,0,0,455.36,294.846Z" transform="translate(-441.755 -290.937)" fill="#535359"/>
            <path id="Trazado_122237" data-name="Trazado 122237" d="M453.62,294.916a1.334,1.334,0,0,1,1.171,0,.364.364,0,0,1,0,.684,1.335,1.335,0,0,1-1.171,0C453.3,295.4,453.3,295.108,453.62,294.916Zm.814.468a.136.136,0,0,0,0-.253.522.522,0,0,0-.453,0c-.131.069-.131.188,0,.253A.5.5,0,0,0,454.434,295.385Z" transform="translate(-437.246 -293.542)" fill="#535359"/>
          </g>
        </g>
        <g id="Grupo_88364" data-name="Grupo 88364" transform="translate(41.544 63.686)">
          <path id="Trazado_122238" data-name="Trazado 122238" d="M456.27,302.134l31.383-18.117,1.369.8-31.376,18.113Z" transform="translate(-427.64 -267.488)" fill="#bcbec0"/>
          <path id="Trazado_122239" data-name="Trazado 122239" d="M457.2,302.677l31.376-18.12,1.373.791-31.379,18.113Z" transform="translate(-432.151 -270.093)" fill="#bcbec0"/>
          <path id="Trazado_122240" data-name="Trazado 122240" d="M458.136,299.821l23.443-13.537,1.369.792L459.5,300.62Z" transform="translate(-428.729 -273.888)" fill="#bcbec0"/>
          <path id="Trazado_122241" data-name="Trazado 122241" d="M459.067,297.686l17.183-9.921,1.365.8-17.175,9.918Z" transform="translate(-426.975 -277.436)" fill="#bcbec0"/>
          <path id="Trazado_122242" data-name="Trazado 122242" d="M460,304.283l31.383-18.113,1.369.792-31.376,18.117Z" transform="translate(-445.689 -277.907)" fill="#bcbec0"/>
          <path id="Trazado_122243" data-name="Trazado 122243" d="M460.93,295.408l9.3-5.382,1.38.791L462.3,296.2Z" transform="translate(-428.121 -283.833)" fill="#bcbec0"/>
          <path id="Trazado_122244" data-name="Trazado 122244" d="M461.862,305.358l31.372-18.113,1.373.792-31.376,18.117Z" transform="translate(-454.701 -283.112)" fill="#bcbec0"/>
          <path id="Trazado_122245" data-name="Trazado 122245" d="M462.839,302.539,486.278,289l1.027.593-23.443,13.537Z" transform="translate(-451.151 -286.838)" fill="#bcbec0"/>
          <path id="Trazado_122246" data-name="Trazado 122246" d="M463.727,306.441l31.372-18.12,1.373.791L465.1,307.229Z" transform="translate(-463.727 -288.321)" fill="#bcbec0"/>
        </g>
        <g id="Grupo_88365" data-name="Grupo 88365" transform="translate(5.747 43.026)">
          <path id="Trazado_122247" data-name="Trazado 122247" d="M465.248,300.9l17.179-9.921,1.369.8-17.179,9.917Z" transform="translate(-421.098 -272.32)" fill="#bcbec0"/>
          <path id="Trazado_122248" data-name="Trazado 122248" d="M466.331,302.852l20.281-11.718,1.373.791L467.7,303.64Z" transform="translate(-429.446 -274.879)" fill="#bcbec0"/>
          <path id="Trazado_122249" data-name="Trazado 122249" d="M467.076,305.619l25.772-14.88,1.369.788-25.772,14.887Z" transform="translate(-438.541 -276.134)" fill="#bcbec0"/>
          <path id="Trazado_122250" data-name="Trazado 122250" d="M468.177,307.3l28.214-16.286,1.377.784-28.221,16.294Z" transform="translate(-446.318 -278.841)" fill="#bcbec0"/>
          <path id="Trazado_122251" data-name="Trazado 122251" d="M468.924,306.686l25.769-14.88,1.369.795-25.768,14.872Z" transform="translate(-447.481 -281.293)" fill="#bcbec0"/>
          <path id="Trazado_122252" data-name="Trazado 122252" d="M470.01,308.365l28.218-16.3,1.373.8-28.221,16.282Z" transform="translate(-455.191 -283.973)" fill="#bcbec0"/>
          <path id="Trazado_122253" data-name="Trazado 122253" d="M470.757,303.849l16.635-9.613,1.373.8-16.642,9.609Z" transform="translate(-447.225 -287.788)" fill="#bcbec0"/>
          <path id="Trazado_122254" data-name="Trazado 122254" d="M471.982,305.259l18.312-10.566,1.373.791-18.316,10.574Z" transform="translate(-454.834 -290.965)" fill="#bcbec0"/>
          <path id="Trazado_122255" data-name="Trazado 122255" d="M472.727,301.852l9.306-5.375,1.373.8-9.31,5.375Z" transform="translate(-449.436 -294.407)" fill="#bcbec0"/>
          <path id="Trazado_122256" data-name="Trazado 122256" d="M464.538,307.111l31.733-18.321,33.692,19.446-31.741,18.321ZM496.271,289.2l-31.015,17.914,32.966,19.031,31.027-17.906Z" transform="translate(-464.538 -288.79)" fill="#535359"/>
          <path id="Trazado_122257" data-name="Trazado 122257" d="M467.422,308.568l31.368-18.113.364.2-31.376,18.12Z" transform="translate(-444.805 -277.406)" fill="#535359"/>
          <path id="Trazado_122258" data-name="Trazado 122258" d="M465.558,307.5l31.38-18.117.357.206L465.915,307.7Z" transform="translate(-435.789 -272.198)" fill="#535359"/>
          <path id="Trazado_122259" data-name="Trazado 122259" d="M469.286,309.645l31.38-18.113.356.207-31.376,18.113Z" transform="translate(-453.833 -282.617)" fill="#535359"/>
          <path id="Trazado_122260" data-name="Trazado 122260" d="M471.149,310.719l31.376-18.113.364.206-31.379,18.12Z" transform="translate(-462.857 -287.824)" fill="#535359"/>
        </g>
      </g>
      <g id="Grupo_88375" data-name="Grupo 88375" transform="translate(609.07 360.528)">
        <g id="Grupo_88370" data-name="Grupo 88370" transform="translate(21.095 0)">
          <path id="Trazado_122261" data-name="Trazado 122261" d="M466.215,325.377l30.533-45.293,90.8,20.4-30.529,45.289Z" transform="translate(-466.215 -280.084)" opacity="0.3"/>
          <path id="Trazado_122262" data-name="Trazado 122262" d="M466.215,325.184,496.748,279.9l90.8,20.4-30.529,45.285Z" transform="translate(-466.215 -279.14)" fill="#fff"/>
          <g id="Grupo_88367" data-name="Grupo 88367" transform="translate(19.836 4.84)">
            <path id="Trazado_122263" data-name="Trazado 122263" d="M475.2,300.52l8.986-13.32,3.042.682-8.975,13.32Zm9.273-12.941-8.6,12.778,2.089.462,8.608-12.77Z" transform="translate(-421.569 -268.726)" fill="#535359"/>
            <path id="Trazado_122264" data-name="Trazado 122264" d="M482.854,300.86c5.47-8.121,10.043-13.077,12.559-13.591a1.7,1.7,0,0,1,.925.036l.056.012.036.024c3.174,2.6,13.915,6.252,22.534,9.182A126.542,126.542,0,0,1,531.139,301a39.536,39.536,0,0,1,7.711,4.8l-.427.155a39.852,39.852,0,0,0-7.631-4.736,127.85,127.85,0,0,0-12.088-4.437c-8.64-2.946-19.373-6.6-22.662-9.25a1.067,1.067,0,0,0-.458.016c-1.806.363-5.968,4.087-12.26,13.416s-7.571,13.7-6.674,14.676a.65.65,0,0,0,.327.191c5.522-.678,17.722.825,27.517,2.037,6.128.742,11.419,1.4,14.11,1.435a77.464,77.464,0,0,0,11.179-.522l.127.287a77.532,77.532,0,0,1-11.315.526c-2.743-.032-8.054-.686-14.205-1.443-9.792-1.208-21.976-2.707-27.366-2.037l-.052.008-.06-.008a1.074,1.074,0,0,1-.717-.339C474.952,314.428,477.372,308.986,482.854,300.86Z" transform="translate(-475.876 -287.223)" fill="#535359"/>
            <path id="Trazado_122265" data-name="Trazado 122265" d="M469.507,298.76l.211-.275a20.348,20.348,0,0,1,4.075,2.033,24.409,24.409,0,0,0,10.51,4.031c1.06.175,2.38.395,4.856.941,2.6-2.647-.028-9.25-.554-10l-.1-.131.219-.064c1.232-.335,10.956-4.246,12.128-7.153-2.476-.562-3.7-.913-4.681-1.2a30.9,30.9,0,0,0-4.154-.937,49.9,49.9,0,0,0-8.313-.2,32.973,32.973,0,0,1-5.374-.088l.152-.283a33.9,33.9,0,0,0,5.2.068,50.507,50.507,0,0,1,8.472.227,28.93,28.93,0,0,1,4.242.949c1,.283,2.248.65,4.832,1.228l.207.048-.04.124c-.957,2.954-10.31,6.79-12.244,7.42.678,1.22,3.082,7.707.323,10.254l-.108.112-.2-.048c-2.6-.582-3.931-.8-5.016-.981a29.964,29.964,0,0,1-4.234-.953,31.639,31.639,0,0,1-6.5-3.146A20.271,20.271,0,0,0,469.507,298.76Z" transform="translate(-413.076 -266.336)" fill="#535359"/>
            <path id="Trazado_122266" data-name="Trazado 122266" d="M472.622,288.1a.346.346,0,0,1,.331-.084l8.48,1.9c.132.04.2.12.144.191a.323.323,0,0,1-.327.088l-8.48-1.9C472.633,288.266,472.57,288.178,472.622,288.1Z" transform="translate(-405.573 -260.969)" fill="#535359"/>
          </g>
          <path id="Trazado_122267" data-name="Trazado 122267" d="M475.486,281.08a.336.336,0,0,1,.331-.076l75.01,16.845c.136.036.2.12.148.2a.36.36,0,0,1-.335.084l-75.01-16.861C475.5,281.251,475.434,281.159,475.486,281.08Z" transform="translate(-466.557 -236.073)" fill="#535359"/>
          <path id="Trazado_122268" data-name="Trazado 122268" d="M472.4,299.47l12.4-18.412a.166.166,0,0,1,.168-.04c.06.016.092.052.068.092l-12.4,18.412a.177.177,0,0,1-.163.04C472.408,299.549,472.372,299.506,472.4,299.47Z" transform="translate(-388.337 -237.574)" fill="#535359"/>
          <path id="Trazado_122269" data-name="Trazado 122269" d="M477.434,302.472l13.619-20.222a.2.2,0,0,1,.168-.036c.072.008.1.06.072.1l-13.627,20.214c-.02.04-.1.052-.167.04S477.4,302.508,477.434,302.472Z" transform="translate(-414.658 -245.362)" fill="#535359"/>
          <path id="Trazado_122270" data-name="Trazado 122270" d="M478.075,302.616,491.7,282.4c.02-.036.1-.052.163-.04s.1.06.072.088l-13.619,20.226a.168.168,0,0,1-.167.04C478.083,302.7,478.051,302.656,478.075,302.616Z" transform="translate(-417.875 -246.083)" fill="#535359"/>
          <path id="Trazado_122271" data-name="Trazado 122271" d="M489.962,311.085l17.4-25.8a.163.163,0,0,1,.159-.044c.068.016.1.064.072.092l-17.383,25.8a.157.157,0,0,1-.164.044C489.974,311.164,489.939,311.121,489.962,311.085Z" transform="translate(-480.922 -266.042)" fill="#535359"/>
          <g id="Grupo_88368" data-name="Grupo 88368" transform="translate(12.9 42.787)">
            <path id="Trazado_122272" data-name="Trazado 122272" d="M481.9,283.22a.324.324,0,0,1,.331-.084l45.435,10.2c.132.036.2.12.139.191a.34.34,0,0,1-.331.084l-45.427-10.2C481.917,283.387,481.853,283.288,481.9,283.22Z" transform="translate(-481.885 -282.842)" fill="#535359"/>
            <path id="Trazado_122273" data-name="Trazado 122273" d="M481.9,283.22a.234.234,0,0,1,.088-.064.353.353,0,0,1,.359.032l1.268,1.044c.076.072.044.171-.064.207a.4.4,0,0,1-.359-.032l-1.264-1.053A.106.106,0,0,1,481.9,283.22Z" transform="translate(-437.709 -273.684)" fill="#535359"/>
            <path id="Trazado_122274" data-name="Trazado 122274" d="M481.9,283.426a.282.282,0,0,1,.183-.092l2.153-.279c.139-.016.279.032.3.112.044.084-.048.155-.188.183l-2.153.275c-.144.016-.279-.028-.307-.12A.083.083,0,0,1,481.9,283.426Z" transform="translate(-438.609 -272.563)" fill="#535359"/>
            <path id="Trazado_122275" data-name="Trazado 122275" d="M492.757,286.061a.247.247,0,0,1,.179-.088l2.153-.287a.311.311,0,0,1,.311.116c.032.076-.06.16-.2.175l-2.149.275c-.139.024-.279-.024-.311-.1A.109.109,0,0,1,492.757,286.061Z" transform="translate(-492.738 -285.683)" fill="#535359"/>
            <path id="Trazado_122276" data-name="Trazado 122276" d="M492.986,285.518a.235.235,0,0,1,.088-.072.367.367,0,0,1,.355.044l1.268,1.045c.08.068.044.167-.068.2a.4.4,0,0,1-.359-.032l-1.256-1.049C492.966,285.61,492.95,285.558,492.986,285.518Z" transform="translate(-492.966 -285.141)" fill="#535359"/>
          </g>
          <g id="Grupo_88369" data-name="Grupo 88369" transform="translate(65.854 54.658)">
            <path id="Trazado_122277" data-name="Trazado 122277" d="M475.484,281.774a.337.337,0,0,1,.327-.076l18.1,4.063c.124.032.2.112.132.191-.036.072-.191.112-.323.08l-18.089-4.063C475.5,281.937,475.428,281.861,475.484,281.774Z" transform="translate(-475.464 -281.402)" fill="#535359"/>
            <path id="Trazado_122278" data-name="Trazado 122278" d="M475.477,281.779a.2.2,0,0,1,.092-.068.4.4,0,0,1,.355.036l1.26,1.053c.084.064.056.167-.064.2a.372.372,0,0,1-.351-.028l-1.264-1.053A.109.109,0,0,1,475.477,281.779Z" transform="translate(-458.629 -278.389)" fill="#535359"/>
            <path id="Trazado_122279" data-name="Trazado 122279" d="M475.477,281.993a.309.309,0,0,1,.184-.092l2.157-.283a.317.317,0,0,1,.311.116c.028.072-.056.159-.191.179l-2.161.279a.313.313,0,0,1-.311-.112A.133.133,0,0,1,475.477,281.993Z" transform="translate(-459.526 -277.272)" fill="#535359"/>
            <path id="Trazado_122280" data-name="Trazado 122280" d="M479.473,283.077a.234.234,0,0,1,.183-.084l2.153-.283c.14-.02.275.028.307.108s-.064.167-.2.183l-2.145.275c-.143.02-.279-.028-.307-.112A.112.112,0,0,1,479.473,283.077Z" transform="translate(-479.454 -282.706)" fill="#535359"/>
            <path id="Trazado_122281" data-name="Trazado 122281" d="M479.7,282.531a.158.158,0,0,1,.088-.06.4.4,0,0,1,.359.032l1.264,1.049c.076.068.052.16-.068.211a.428.428,0,0,1-.355-.04l-1.264-1.052A.1.1,0,0,1,479.7,282.531Z" transform="translate(-479.683 -282.159)" fill="#535359"/>
          </g>
          <path id="Trazado_122282" data-name="Trazado 122282" d="M486.508,285.251l.467-.677,7.452,1.67-.467.685Z" transform="translate(-454.005 -239.145)" fill="#535359"/>
          <path id="Trazado_122283" data-name="Trazado 122283" d="M476.532,283.02l.467-.681,7.444,1.671-.467.689Z" transform="translate(-404.25 -228.002)" fill="#535359"/>
        </g>
        <g id="Grupo_88374" data-name="Grupo 88374" transform="translate(0 30.54)">
          <path id="Trazado_122284" data-name="Trazado 122284" d="M469.73,304.667,529.253,270.3l68.887,39.779-59.519,34.36Z" transform="translate(-469.73 -270.304)" opacity="0.3"/>
          <path id="Trazado_122285" data-name="Trazado 122285" d="M469.73,304.473l59.524-34.36,68.887,39.779L538.621,344.26Z" transform="translate(-469.73 -269.362)" fill="#fff"/>
          <path id="Trazado_122286" data-name="Trazado 122286" d="M485.279,271.388a.453.453,0,0,1,.367,0L543.329,304.7c.1.06.1.147,0,.207a.405.405,0,0,1-.359,0L485.279,271.6C485.176,271.548,485.176,271.452,485.279,271.388Z" transform="translate(-476.682 -234.982)" fill="#535359"/>
          <path id="Trazado_122287" data-name="Trazado 122287" d="M477.382,289.565l31.477-18.18a.233.233,0,0,1,.179,0,.067.067,0,0,1,0,.112l-31.477,18.172a.15.15,0,0,1-.179,0C477.326,289.64,477.326,289.593,477.382,289.565Z" transform="translate(-410.997 -219.796)" fill="#535359"/>
          <path id="Trazado_122288" data-name="Trazado 122288" d="M483.444,287.8l24.2-13.962a.244.244,0,0,1,.183,0,.055.055,0,0,1,0,.1l-24.193,13.97a.253.253,0,0,1-.187,0A.064.064,0,0,1,483.444,287.8Z" transform="translate(-433.996 -227.807)" fill="#535359"/>
          <path id="Trazado_122289" data-name="Trazado 122289" d="M483.935,288.092l24.2-13.97a.194.194,0,0,1,.175,0c.056.024.056.076,0,.1L484.119,288.2a.212.212,0,0,1-.183,0A.055.055,0,0,1,483.935,288.092Z" transform="translate(-436.433 -229.215)" fill="#535359"/>
          <path id="Trazado_122290" data-name="Trazado 122290" d="M491.242,299.317l33.9-19.568a.169.169,0,0,1,.183,0c.048.028.048.072,0,.1l-33.9,19.576a.2.2,0,0,1-.175,0C491.186,299.4,491.186,299.353,491.242,299.317Z" transform="translate(-482.548 -262.859)" fill="#535359"/>
          <g id="Grupo_88371" data-name="Grupo 88371" transform="translate(13.465 35.596)">
            <path id="Trazado_122291" data-name="Trazado 122291" d="M489.864,274.949a.381.381,0,0,1,.359,0L524.7,294.855a.112.112,0,0,1,0,.207.389.389,0,0,1-.363,0l-34.471-19.895C489.76,275.1,489.76,275.016,489.864,274.949Z" transform="translate(-489.783 -274.904)" fill="#535359"/>
            <path id="Trazado_122292" data-name="Trazado 122292" d="M489.861,274.948a.3.3,0,0,1,.128-.044c.139-.008.279.036.3.116l.427,1.252c.024.08-.064.16-.2.176a.293.293,0,0,1-.3-.116l-.419-1.252C489.769,275.02,489.8,274.98,489.861,274.948Z" transform="translate(-455.732 -256.244)" fill="#535359"/>
            <path id="Trazado_122293" data-name="Trazado 122293" d="M489.87,274.947a.312.312,0,0,1,.223-.04l2.173.231c.136.024.223.1.2.183s-.155.132-.3.116L490,275.191c-.144-.012-.235-.088-.207-.179C489.8,274.987,489.83,274.967,489.87,274.947Z" transform="translate(-457.483 -255.235)" fill="#535359"/>
            <path id="Trazado_122294" data-name="Trazado 122294" d="M497.968,279.873a.4.4,0,0,1,.227-.036l2.169.247c.139.012.227.088.2.168s-.159.136-.295.124l-2.169-.247c-.135-.02-.235-.1-.207-.176A.132.132,0,0,1,497.968,279.873Z" transform="translate(-497.888 -279.828)" fill="#535359"/>
            <path id="Trazado_122295" data-name="Trazado 122295" d="M498.405,279.622a.393.393,0,0,1,.131-.036c.136-.024.271.036.291.116l.431,1.248c.024.088-.068.167-.2.183s-.279-.04-.295-.124l-.431-1.252C498.313,279.71,498.341,279.658,498.405,279.622Z" transform="translate(-498.325 -279.577)" fill="#535359"/>
          </g>
          <g id="Grupo_88372" data-name="Grupo 88372" transform="translate(54.188 59.11)">
            <path id="Trazado_122296" data-name="Trazado 122296" d="M484.847,272.052a.44.44,0,0,1,.375,0l13.723,7.93a.113.113,0,0,1,0,.207.384.384,0,0,1-.371,0l-13.727-7.93C484.751,272.207,484.751,272.12,484.847,272.052Z" transform="translate(-484.775 -272.01)" fill="#535359"/>
            <path id="Trazado_122297" data-name="Trazado 122297" d="M484.849,272.051a.277.277,0,0,1,.128-.036c.148-.02.283.028.3.112l.427,1.248c.024.084-.068.156-.2.18a.311.311,0,0,1-.307-.116l-.423-1.256C484.765,272.131,484.789,272.087,484.849,272.051Z" transform="translate(-471.469 -265.331)" fill="#535359"/>
            <path id="Trazado_122298" data-name="Trazado 122298" d="M484.851,272.051a.4.4,0,0,1,.227-.04l2.177.247c.132.016.223.1.2.176a.311.311,0,0,1-.307.116l-2.161-.247c-.143-.012-.235-.1-.207-.167A.148.148,0,0,1,484.851,272.051Z" transform="translate(-473.217 -264.327)" fill="#535359"/>
            <path id="Trazado_122299" data-name="Trazado 122299" d="M487.745,273.987a.392.392,0,0,1,.235-.048l2.169.239c.139.024.231.1.2.179s-.155.128-.3.116l-2.173-.243c-.132-.012-.223-.1-.2-.175C487.689,274.027,487.713,273.991,487.745,273.987Z" transform="translate(-487.673 -273.934)" fill="#535359"/>
            <path id="Trazado_122300" data-name="Trazado 122300" d="M488.183,273.724a.568.568,0,0,1,.132-.036c.148-.02.279.036.307.116l.423,1.256c.02.08-.068.152-.2.172-.148.02-.279-.036-.3-.116l-.427-1.256A.128.128,0,0,1,488.183,273.724Z" transform="translate(-488.111 -273.682)" fill="#535359"/>
          </g>
          <path id="Trazado_122301" data-name="Trazado 122301" d="M492.913,277.851l.9-.529,5.657,3.267-.911.522Z" transform="translate(-463.494 -234.949)" fill="#535359"/>
          <path id="Trazado_122302" data-name="Trazado 122302" d="M485.208,273.39l.9-.518,5.657,3.263-.907.521Z" transform="translate(-425.062 -212.757)" fill="#535359"/>
          <g id="Grupo_88373" data-name="Grupo 88373" transform="translate(24.581 8.136)">
            <path id="Trazado_122303" data-name="Trazado 122303" d="M479.123,287.354l17.506-10.107,2.317,1.332-17.511,10.107Zm17.506-9.692-16.781,9.692,1.587.909,16.785-9.684Z" transform="translate(-432.567 -250.364)" fill="#535359"/>
            <path id="Trazado_122304" data-name="Trazado 122304" d="M482.328,279.1c1.2-.7,2.56-.953,3.162-.6s.159,1.132-1.037,1.818-2.552.949-3.166.6S481.127,279.786,482.328,279.1Zm1.766,1.013c.993-.574,1.364-1.212,1.037-1.411a3.522,3.522,0,0,0-2.44.606c-1,.566-1.375,1.216-1.04,1.4A3.493,3.493,0,0,0,484.094,280.109Z" transform="translate(-426.925 -247.107)" fill="#535359"/>
            <path id="Trazado_122305" data-name="Trazado 122305" d="M496.136,287.069c10.677-6.16,18.324-9.632,20.979-9.521a1.477,1.477,0,0,1,.833.243l.036.02.016.036c1.084,3.122,8.364,8.959,14.221,13.643,3.684,2.946,6.857,5.5,8.014,6.929,3.018,3.74,3.716,6.168,3.716,6.192l-.5.04a20.235,20.235,0,0,0-3.672-6.112c-1.144-1.411-4.306-3.947-7.966-6.877-5.865-4.689-13.157-10.53-14.309-13.723a.814.814,0,0,0-.427-.1c-1.91-.084-8.32,2.36-20.576,9.437s-16.486,10.777-16.338,11.877a.294.294,0,0,0,.168.247c5.526.67,15.633,4.88,23.762,8.261,5.087,2.117,9.473,3.935,11.921,4.6a71.04,71.04,0,0,0,10.585,2.121l-.084.287a71.535,71.535,0,0,1-10.717-2.141,126.448,126.448,0,0,1-12-4.633c-8.121-3.381-18.228-7.583-23.634-8.213l-.056,0-.044-.02a.608.608,0,0,1-.419-.478C479.455,297.647,485.471,293.233,496.136,287.069Z" transform="translate(-479.642 -277.546)" fill="#535359"/>
            <path id="Trazado_122306" data-name="Trazado 122306" d="M474.343,284.6l.383-.2a10.354,10.354,0,0,1,2.3,2.807,15.862,15.862,0,0,0,3.668,4.306,18.879,18.879,0,0,0,3.15,1.826c.853.407,1.906.909,3.779,1.989a123.24,123.24,0,0,0,11.091-5.47,2.888,2.888,0,0,1-.717-1.567l.008-.136.24-.016a11.33,11.33,0,0,1,2.723.419,97.491,97.491,0,0,0,9.469-6.407c-1.874-1.084-2.743-1.686-3.448-2.181a18.125,18.125,0,0,0-3.154-1.814,40.5,40.5,0,0,0-7.46-2.121,26.812,26.812,0,0,1-4.872-1.332l.347-.219a27.541,27.541,0,0,0,4.713,1.284,40.489,40.489,0,0,1,7.6,2.157,19.838,19.838,0,0,1,3.221,1.858c.714.5,1.611,1.12,3.564,2.261l.152.08-.112.1a106.094,106.094,0,0,1-9.776,6.614l-.132.08-.167-.048a11.845,11.845,0,0,0-2.4-.431,3.233,3.233,0,0,0,.75,1.379l.088.092-.143.088c-.072.032-7.025,3.883-11.458,5.638l-.183.076-.144-.092c-1.965-1.132-3.042-1.643-3.9-2.057a19.363,19.363,0,0,1-3.213-1.866,16.1,16.1,0,0,1-3.76-4.389A10.457,10.457,0,0,0,474.343,284.6Z" transform="translate(-425.666 -246.383)" fill="#535359"/>
          </g>
        </g>
      </g>
      <g id="Grupo_88437" data-name="Grupo 88437" transform="translate(440.921 240.611)">
        <g id="Grupo_88423" data-name="Grupo 88423">
          <g id="Grupo_88419" data-name="Grupo 88419" transform="translate(0 68.153)">
            <path id="Trazado_122513" data-name="Trazado 122513" d="M508.952,266.7v6.011c0,6.157-4.08,12.31-12.226,17-16.235,9.4-42.614,9.393-58.884,0-8.12-4.69-12.19-10.829-12.19-17v-6.007Z" transform="translate(-425.643 -242.663)" fill="#636363"/>
            <path id="Trazado_122514" data-name="Trazado 122514" d="M437.849,302.314c16.27,9.379,42.649,9.393,58.919,0,16.253-9.384,16.253-24.615-.035-34.008-16.235-9.388-42.614-9.388-58.884,0S421.583,292.912,437.849,302.314Z" transform="translate(-425.65 -261.265)" fill="#afafaf"/>
            <path id="Trazado_122515" data-name="Trazado 122515" d="M436.33,282.825c7.364,4.248,19.3,4.248,26.657,0s7.364-11.139,0-15.391-19.293-4.257-26.657,0S428.97,278.568,436.33,282.825Z" transform="translate(-408.002 -251.084)" fill="#dc9ce8"/>
          </g>
          <g id="Grupo_88421" data-name="Grupo 88421" transform="translate(6.802 3.779)">
            <path id="Trazado_122516" data-name="Trazado 122516" d="M496.89,251.254v66.928c0,5.136-3.4,10.294-10.206,14.224-13.605,7.863-35.679,7.854-49.275-.009-6.816-3.921-10.215-9.079-10.219-14.215l.009-66.928Z" transform="translate(-427.186 -231.13)" fill="#6741a8"/>
            <g id="Grupo_88420" data-name="Grupo 88420" transform="translate(-0.002 20.119)">
              <path id="Trazado_122517" data-name="Trazado 122517" d="M496.886,252.064h0c0,23.037-48.581,34.534-69.691,14.454h0l0,1.233c7.015,40.656,69.7,34.985,69.7,17.826Z" transform="translate(-427.182 -248.501)" opacity="0.05"/>
              <path id="Trazado_122518" data-name="Trazado 122518" d="M496.893,260.136h0c0,23.046-48.581,34.534-69.691,14.454h0l-.013,1.233c7.019,40.66,69.7,29.141,69.7,11.983Z" transform="translate(-427.189 -220.895)" opacity="0.05"/>
              <path id="Trazado_122519" data-name="Trazado 122519" d="M496.883,256.482c-.743.7-1.538,1.37-2.338,2a23.265,23.265,0,0,1-7.868,6.979c-13.6,7.859-35.674,7.859-49.279,0-6.794-3.921-10.188-9.061-10.2-14.2l0,24.266c0,17.172,62.685,22.834,69.691-17.822Z" transform="translate(-427.179 -251.258)" opacity="0.05"/>
              <path id="Trazado_122520" data-name="Trazado 122520" d="M427.192,257.239h0c0,23.042,48.581,34.521,69.691,14.462h0v1.224c-7.006,40.656-69.691,34.989-69.691,17.822Z" transform="translate(-427.179 -230.803)" opacity="0.05"/>
            </g>
            <path id="Trazado_122521" data-name="Trazado 122521" d="M437.4,281.045c13.6,7.859,35.678,7.859,49.279,0s13.6-20.6,0-28.456-35.674-7.846-49.275,0S423.789,273.182,437.4,281.045Z" transform="translate(-427.179 -246.701)" fill="#e6e7e8"/>
          </g>
          <g id="Grupo_88422" data-name="Grupo 88422">
            <path id="Trazado_122522" data-name="Trazado 122522" d="M508.952,251.284V257.3c0,6.157-4.08,12.31-12.226,17-16.235,9.4-42.614,9.388-58.884,0-8.12-4.69-12.19-10.829-12.19-17v-6.007Z" transform="translate(-425.643 -227.248)" fill="#636363"/>
            <path id="Trazado_122523" data-name="Trazado 122523" d="M437.849,286.891c16.27,9.384,42.649,9.392,58.915,0s16.252-24.615-.031-34.008c-16.235-9.388-42.614-9.388-58.884,0S421.583,277.5,437.849,286.891Z" transform="translate(-425.65 -245.846)" fill="#afafaf"/>
            <path id="Trazado_122524" data-name="Trazado 122524" d="M436.33,267.407c7.364,4.252,19.293,4.252,26.653,0s7.368-11.139,0-15.395-19.289-4.252-26.653,0S428.97,263.155,436.33,267.407Z" transform="translate(-408.002 -235.666)" fill="#636363"/>
          </g>
        </g>
        <g id="Grupo_88428" data-name="Grupo 88428" transform="translate(22.577 55.564)">
          <g id="Grupo_88424" data-name="Grupo 88424" transform="translate(107.73 11.146)">
            <path id="Trazado_122525" data-name="Trazado 122525" d="M455.75,268.848l12.637-7.3c1.684-.964,4.036-.822,6.612.668,5.167,2.975,9.362,10.241,9.362,16.208,0,2.979-1.052,5.083-2.74,6.06l-12.633,7.293Z" transform="translate(-453.014 -260.939)" fill="#16a89f"/>
            <path id="Trazado_122526" data-name="Trazado 122526" d="M473.837,280.077c0-5.963-4.19-13.225-9.362-16.208s-9.344-.57-9.344,5.406c0,5.958,4.186,13.22,9.353,16.208S473.837,286.044,473.837,280.077Z" transform="translate(-455.131 -255.297)" fill="#24d2c1"/>
            <path id="Trazado_122527" data-name="Trazado 122527" d="M471.56,278.049c0-5.145-3.611-11.413-8.075-13.976-4.451-2.586-8.062-.5-8.062,4.663,0,5.141,3.607,11.4,8.067,13.981S471.564,283.19,471.56,278.049Z" transform="translate(-454.136 -254.012)" fill="#0a8074"/>
          </g>
          <g id="Grupo_88426" data-name="Grupo 88426">
            <path id="Trazado_122528" data-name="Trazado 122528" d="M432.325,313.937,525.751,260c4.274-2.475,10.193-2.121,16.717,1.649,13.057,7.532,23.643,25.884,23.643,40.952,0,7.541-2.648,12.836-6.935,15.311L465.754,371.84Z" transform="translate(-425.399 -258.417)" fill="#36a3f7"/>
            <g id="Grupo_88425" data-name="Grupo 88425" transform="translate(12.901 -2.76)">
              <path id="Trazado_122529" data-name="Trazado 122529" d="M433,283.735h0c19.148-11.05,52.007,23.806,45.447,50.968h0l1.025-.583c30.419-25.331-4.367-74.694-18.626-66.46Z" transform="translate(-432.998 -229.944)" opacity="0.05"/>
              <path id="Trazado_122530" data-name="Trazado 122530" d="M439.708,279.858h0c19.134-11.046,51.989,23.811,45.438,50.963h0l1.016-.57c30.428-25.336-4.354-74.7-18.617-66.464Z" transform="translate(-410.049 -243.186)" opacity="0.05"/>
              <path id="Trazado_122531" data-name="Trazado 122531" d="M446.56,275.906h0c19.148-11.059,51.993,23.806,45.443,50.968h0l1.026-.584c30.428-25.336-4.363-74.694-18.622-66.46Z" transform="translate(-386.615 -256.72)" opacity="0.05"/>
              <path id="Trazado_122532" data-name="Trazado 122532" d="M433.31,272.553c.95.283,1.87.61,2.8.986a22.2,22.2,0,0,1,9.565,3.187c13.048,7.527,23.638,25.871,23.638,40.943,0,7.527-2.647,12.827-6.917,15.3l20.177-11.651c14.268-8.23-11.1-63.03-48.249-49.354Z" transform="translate(-431.931 -219.558)" opacity="0.05"/>
              <path id="Trazado_122533" data-name="Trazado 122533" d="M461.425,333.519h0c19.148-11.05,5.388-56.926-21.406-64.838h0l1.008-.592c37.146-13.676,62.5,41.124,48.249,49.354Z" transform="translate(-408.986 -232.8)" opacity="0.05"/>
              <path id="Trazado_122534" data-name="Trazado 122534" d="M468.3,329.568h0c19.134-11.05,5.375-56.926-21.433-64.838h0l1.021-.6c37.146-13.671,62.5,41.133,48.24,49.368Z" transform="translate(-385.555 -246.339)" opacity="0.05"/>
              <path id="Trazado_122535" data-name="Trazado 122535" d="M469.488,261.639c-6.082-3.505-11.624-4.053-15.824-2.113,26.768,7.969,40.488,53.774,21.362,64.824h0l11.214-6.475c4.265-2.475,6.891-7.766,6.891-15.285,0-7.536-2.652-15.89-6.935-23.3S476.016,265.41,469.488,261.639Z" transform="translate(-362.319 -258.418)" opacity="0.05"/>
            </g>
            <path id="Trazado_122536" data-name="Trazado 122536" d="M478.039,314.793c0-15.072-10.59-33.416-23.638-40.943-13.066-7.536-23.643-1.432-23.643,13.649s10.582,33.416,23.643,40.943C467.453,335.987,478.035,329.883,478.039,314.793Z" transform="translate(-430.758 -216.677)" fill="#36a3f7"/>
          </g>
          <g id="Grupo_88427" data-name="Grupo 88427" transform="translate(1.644 72.394)">
            <path id="Trazado_122537" data-name="Trazado 122537" d="M431.749,282.706l12.637-7.293c1.693-.972,4.031-.827,6.621.659,5.158,2.983,9.357,10.246,9.357,16.213,0,2.975-1.043,5.074-2.745,6.055l-12.637,7.293Z" transform="translate(-429.013 -274.795)" fill="#2cffe2"/>
            <path id="Trazado_122538" data-name="Trazado 122538" d="M449.845,293.934c-.009-5.967-4.186-13.234-9.357-16.213s-9.357-.566-9.357,5.415c0,5.963,4.186,13.211,9.353,16.2S449.836,299.905,449.845,293.934Z" transform="translate(-431.13 -269.152)" fill="#24e0c6"/>
            <path id="Trazado_122539" data-name="Trazado 122539" d="M447.574,291.908c0-5.154-3.615-11.417-8.075-13.985s-8.08-.482-8.08,4.672,3.615,11.4,8.075,13.972S447.574,297.049,447.574,291.908Z" transform="translate(-430.142 -267.869)" fill="#10bfa7"/>
          </g>
        </g>
        <g id="Grupo_88431" data-name="Grupo 88431" transform="translate(165.352 21.397)">
          <g id="Grupo_88429" data-name="Grupo 88429">
            <path id="Trazado_122540" data-name="Trazado 122540" d="M552.546,355.781h0L541.261,254.933H474.443L463.11,355.781h0c-.606,7.037,3.748,14.193,13.053,19.563,17.486,10.1,45.845,10.1,63.326.013C548.8,369.974,553.147,362.822,552.546,355.781Z" transform="translate(-463.059 -236.165)" fill="#2cffe2"/>
            <path id="Trazado_122541" data-name="Trazado 122541" d="M475.421,283.634c13.052,7.549,34.229,7.549,47.277.013s13.057-19.766,0-27.307-34.225-7.532-47.277,0S462.359,276.1,475.421,283.634Z" transform="translate(-454.286 -250.687)" fill="#2cffe2"/>
            <g id="Grupo_88492" data-name="Grupo 88492" transform="translate(0.017)">
              <path id="Trazado_122542" data-name="Trazado 122542" d="M534.46,255.6c-1.808,22.255-48.881,34.149-69.138,14.9l-.177,1.56c6.723,39.007,72.67,30.008,72.67,13.552Z" transform="translate(-455.927 -233.887)" opacity="0.05"/>
              <path id="Trazado_122543" data-name="Trazado 122543" d="M534.836,257.073a17.907,17.907,0,0,1-2.586,5.048,22.1,22.1,0,0,1-7.541,6.688c-13.044,7.536-34.224,7.536-47.277,0-6.524-3.766-9.781-8.694-9.79-13.64l-2.608,22.547c0,16.46,63.379,21.044,70.1-17.972Z" transform="translate(-456.303 -235.361)" opacity="0.05"/>
              <path id="Trazado_122544" data-name="Trazado 122544" d="M540.32,262.112c-1.98,24.39-53.562,37.42-75.751,16.323l-.2,1.719c7.377,42.742,79.627,32.876,79.627,14.838Z" transform="translate(-458.516 -210.816)" opacity="0.05"/>
              <path id="Trazado_122545" data-name="Trazado 122545" d="M540.727,263.709a19.876,19.876,0,0,1-2.829,5.538,24.468,24.468,0,0,1-8.261,7.329c-14.308,8.257-37.5,8.257-51.807,0-7.147-4.129-10.714-9.53-10.723-14.931l-2.86,24.686c0,18.034,69.439,23.055,76.807-19.687Z" transform="translate(-458.998 -213.209)" opacity="0.05"/>
              <path id="Trazado_122546" data-name="Trazado 122546" d="M545.837,268.264c-2.144,26.4-57.965,40.492-81.983,17.658l-.212,1.852c7.969,46.265,86.178,35.595,86.178,16.076Z" transform="translate(-461.067 -190.572)" opacity="0.05"/>
              <path id="Trazado_122547" data-name="Trazado 122547" d="M546.279,270a21.531,21.531,0,0,1-3.054,5.971,26.379,26.379,0,0,1-8.951,7.939c-15.479,8.942-40.585,8.942-56.064,0-7.731-4.464-11.594-10.308-11.612-16.16l-3.085,26.724c0,19.523,75.145,24.96,83.119-21.3Z" transform="translate(-461.508 -192.313)" opacity="0.05"/>
              <path id="Trazado_122548" data-name="Trazado 122548" d="M463.339,295.436c1.848,4.508,5.795,8.774,11.872,12.283,8.747,5.052,20.217,7.581,31.67,7.581s22.918-2.528,31.656-7.567c8.99-5.2,13.344-12.054,13.079-18.86l-1.582-14.166C547.771,302.561,490.186,317.735,463.339,295.436Z" transform="translate(-462.104 -168.54)" opacity="0.05"/>
              <path id="Trazado_122549" data-name="Trazado 122549" d="M551.37,280.008l-.38-3.421a23.4,23.4,0,0,1-3.311,6.458,28.32,28.32,0,0,1-9.654,8.57c-16.721,9.676-43.864,9.676-60.581,0-8.35-4.809-12.535-11.138-12.54-17.459l-.194,1.644-1.6,14.237h0c-.606,7.037,3.748,14.193,13.053,19.563,8.747,5.052,20.217,7.581,31.67,7.581.813,0,1.635-.022,2.449-.049C529.318,313.433,547.538,302.263,551.37,280.008Z" transform="translate(-463.06 -170.421)" opacity="0.05"/>
            </g>
          </g>
          <g id="Grupo_88430" data-name="Grupo 88430" transform="translate(31.605 2.227)">
            <path id="Trazado_122550" data-name="Trazado 122550" d="M496.679,252.918v7.859c0,1.954-1.3,3.912-3.885,5.406-5.158,2.988-13.539,2.988-18.71,0-2.577-1.494-3.872-3.452-3.872-5.406v-7.859Z" transform="translate(-470.202 -245.283)" fill="#f739a8"/>
            <path id="Trazado_122551" data-name="Trazado 122551" d="M474.092,264.235c5.172,2.979,13.552,2.979,18.723,0s5.158-7.823-.013-10.807-13.539-2.984-18.71,0S468.916,261.252,474.092,264.235Z" transform="translate(-470.21 -251.191)" fill="#db2690"/>
            <path id="Trazado_122552" data-name="Trazado 122552" d="M473.965,262.679c4.464,2.573,11.687,2.573,16.146,0s4.46-6.749,0-9.318-11.682-2.577-16.146,0S469.509,260.1,473.965,262.679Z" transform="translate(-468.796 -250.377)" fill="#ac156d"/>
          </g>
        </g>
        <g id="Grupo_88436" data-name="Grupo 88436" transform="translate(109.785 60.043)">
          <g id="Grupo_88432" data-name="Grupo 88432" transform="translate(0 108.111)">
            <path id="Trazado_122553" data-name="Trazado 122553" d="M450.488,289.432v6.122c0,6.281,4.15,12.557,12.456,17.331,16.54,9.569,43.427,9.565,60,0,8.274-4.774,12.425-11.041,12.429-17.331l0-6.117Z" transform="translate(-450.488 -264.934)" fill="#636363"/>
            <path id="Trazado_122554" data-name="Trazado 122554" d="M522.936,325.71c-16.571,9.574-43.453,9.583-60.029.009s-16.562-25.084.031-34.649c16.54-9.574,43.427-9.574,60,0S539.515,316.136,522.936,325.71Z" transform="translate(-450.482 -283.889)" fill="#afafaf"/>
            <path id="Trazado_122555" data-name="Trazado 122555" d="M488.535,305.862c-7.5,4.332-19.665,4.318-27.166-.009s-7.5-11.346,0-15.682,19.665-4.332,27.166.013C496.041,294.5,496.041,301.53,488.535,305.862Z" transform="translate(-432.511 -273.514)" fill="#ba6000"/>
          </g>
          <g id="Grupo_88434" data-name="Grupo 88434" transform="translate(9.03 4.819)">
            <path id="Trazado_122556" data-name="Trazado 122556" d="M519.4,264.887v107.88c.009,4.955-3.258,9.888-9.786,13.653-13.061,7.541-34.233,7.536-47.281,0-6.533-3.766-9.8-8.7-9.8-13.653l0-107.88Z" transform="translate(-452.531 -245.587)" fill="#f739a8"/>
            <g id="Grupo_88433" data-name="Grupo 88433" transform="translate(-0.009 19.3)">
              <path id="Trazado_122557" data-name="Trazado 122557" d="M519.4,265.666h0c0,22.109-46.609,33.133-66.862,13.879h0l0,1.171c6.728,39.007,66.867,33.57,66.867,17.1Z" transform="translate(-452.531 -262.245)" opacity="0.05"/>
              <path id="Trazado_122558" data-name="Trazado 122558" d="M519.4,273.41h0c0,22.109-46.609,33.133-66.862,13.883h0l0,1.167c6.728,39.02,66.867,33.584,66.867,17.106Z" transform="translate(-452.531 -235.76)" opacity="0.05"/>
              <path id="Trazado_122559" data-name="Trazado 122559" d="M519.4,281.326h0c0,22.1-46.609,33.124-66.862,13.87h0l0,1.167c6.728,39.016,66.867,33.575,66.867,17.11Z" transform="translate(-452.531 -208.687)" opacity="0.05"/>
              <path id="Trazado_122560" data-name="Trazado 122560" d="M519.394,269.9a28.254,28.254,0,0,1-2.245,1.918,22.384,22.384,0,0,1-7.541,6.705c-13.061,7.532-34.233,7.532-47.281-.009-6.524-3.757-9.782-8.694-9.795-13.627v23.289c0,16.465,60.144,21.91,66.871-17.1Z" transform="translate(-452.528 -264.892)" opacity="0.05"/>
              <path id="Trazado_122561" data-name="Trazado 122561" d="M452.532,270.632h0c0,22.118,46.614,33.133,66.862,13.87h0l.009,1.176c-6.727,39.016-66.871,33.579-66.871,17.105Z" transform="translate(-452.528 -245.261)" opacity="0.05"/>
              <path id="Trazado_122562" data-name="Trazado 122562" d="M452.532,278.545h0c0,22.109,46.614,33.124,66.862,13.879h0l.009,1.167c-6.727,39.016-66.871,33.579-66.871,17.106Z" transform="translate(-452.528 -218.198)" opacity="0.05"/>
              <path id="Trazado_122563" data-name="Trazado 122563" d="M509.608,312.931c6.082-3.514,9.335-8.036,9.737-12.646-20.279,19.2-66.813,8.173-66.813-13.91h0v12.951c.013,4.915,3.28,9.844,9.795,13.6s15.081,5.653,23.652,5.653C494.527,318.584,503.084,316.7,509.608,312.931Z" transform="translate(-452.528 -191.419)" opacity="0.05"/>
            </g>
            <path id="Trazado_122564" data-name="Trazado 122564" d="M462.328,293.47c13.048,7.541,34.22,7.541,47.281.009s13.057-19.771,0-27.3-34.224-7.541-47.281,0S449.266,285.938,462.328,293.47Z" transform="translate(-452.529 -260.52)" fill="#ff3f4a"/>
          </g>
          <g id="Grupo_88435" data-name="Grupo 88435">
            <path id="Trazado_122565" data-name="Trazado 122565" d="M450.488,264.972V271.1c0,6.276,4.15,12.544,12.456,17.327,16.54,9.569,43.427,9.569,60,0,8.274-4.782,12.425-11.046,12.429-17.327l0-6.117Z" transform="translate(-450.488 -240.477)" fill="#636363"/>
            <path id="Trazado_122566" data-name="Trazado 122566" d="M522.936,301.243c-16.571,9.578-43.453,9.591-60.029.022s-16.562-25.1.031-34.658c16.54-9.569,43.427-9.569,60,0S539.515,291.687,522.936,301.243Z" transform="translate(-450.482 -259.43)" fill="#afafaf"/>
            <path id="Trazado_122567" data-name="Trazado 122567" d="M488.535,281.4c-7.5,4.332-19.665,4.327-27.166,0s-7.5-11.359,0-15.691,19.665-4.332,27.166,0S496.041,277.071,488.535,281.4Z" transform="translate(-432.511 -249.058)" fill="#636363"/>
          </g>
        </g>
      </g>
    </g>
  </g>
</svg>
