<svg xmlns="http://www.w3.org/2000/svg" width="85" height="85" viewBox="0 0 85 85">
  <g id="Grupo_102535" data-name="Grupo 102535" transform="translate(-285 -1605.5)">
    <circle id="Elipse_4725" data-name="Elipse 4725" cx="42.5" cy="42.5" r="42.5" transform="translate(285 1605.5)" fill="#dc9ce8"/>
    <g id="Grupo_101808" data-name="Grupo 101808" transform="translate(-1440.642 -191.785)">
      <path id="Trazado_157048" data-name="Trazado 157048" d="M1798.283,1875.474a1.731,1.731,0,0,1-1.706.866q-28.407-.021-56.814,0a1.756,1.756,0,0,1-1.764-.869v-33.441a1.69,1.69,0,0,1,1.647-.866q28.466.022,56.932,0a1.732,1.732,0,0,1,1.7.869Zm-57.666-1.715h55.062v-30h-55.062Z" transform="translate(0 -18.983)"/>
      <path id="Trazado_157049" data-name="Trazado 157049" d="M1785.931,1817.163h3.288q10.415,0,20.83.005a2.327,2.327,0,0,1,.857.137,1.217,1.217,0,0,1,.691,1.307,1.237,1.237,0,0,1-1.057,1.034,3.829,3.829,0,0,1-.528.026l-26.949-.007c-.137,0-.275,0-.412-.008a1.166,1.166,0,0,1-1.088-.761,1.138,1.138,0,0,1,.229-1.309c1.7-1.715,3.4-3.428,5.119-5.116a1.2,1.2,0,0,1,1.743.048,1.234,1.234,0,0,1-.006,1.75c-.715.754-1.461,1.479-2.2,2.207a7.63,7.63,0,0,1-.638.507Z" transform="translate(-28.399)"/>
      <path id="Trazado_157050" data-name="Trazado 157050" d="M1807.324,1952.437h-24.166c-.137,0-.275,0-.411,0a1.26,1.26,0,0,1-1.241-1.236,1.21,1.21,0,0,1,1.209-1.254c1-.034,2-.025,3-.024q11.647.011,23.293.032a12.929,12.929,0,0,1,1.7.127,1.051,1.051,0,0,1,.739,1.709,9.265,9.265,0,0,1-1.041,1.2c-1.327,1.335-2.67,2.655-4,3.981-.35.347-.772.658-1.248.457a2.093,2.093,0,0,1-.958-.837,1.1,1.1,0,0,1,.334-1.329Z" transform="translate(-28.433 -90.059)"/>
      <path id="Trazado_157051" data-name="Trazado 157051" d="M1745.554,1878.646v-30.005h55.062v30.005Zm27.587-27.61v-.006h-19.655c-1.3,0-1.677.335-1.834,1.61a2.425,2.425,0,0,1-2.214,2.151c-1.111.095-1.547.531-1.549,1.644q-.008,7.21.012,14.419c0,1.116.432,1.552,1.547,1.642a2.41,2.41,0,0,1,2.177,2.052c.176,1.407.516,1.71,1.921,1.71l39.075-.008c1.367,0,1.712-.306,1.891-1.677a2.431,2.431,0,0,1,2.155-2.083c1.2-.114,1.576-.521,1.578-1.73,0-2-.007-4-.008-6,0-2.786.006-5.571,0-8.357,0-1.075-.43-1.524-1.454-1.6a2.4,2.4,0,0,1-2.278-2.21c-.145-1.2-.541-1.552-1.763-1.553Z" transform="translate(-4.937 -23.87)" fill="#0d7300"/>
      <path id="Trazado_157052" data-name="Trazado 157052" d="M1777.541,1855.543h19.6c1.222,0,1.619.351,1.763,1.553a2.4,2.4,0,0,0,2.278,2.21c1.024.077,1.45.526,1.454,1.6.01,2.785,0,5.571,0,8.357,0,2,.012,4,.008,6,0,1.21-.382,1.617-1.579,1.731a2.431,2.431,0,0,0-2.155,2.083c-.179,1.371-.524,1.677-1.891,1.677l-39.075.008c-1.406,0-1.746-.3-1.921-1.71a2.41,2.41,0,0,0-2.177-2.052c-1.115-.091-1.544-.526-1.547-1.642q-.018-7.21-.012-14.419c0-1.113.438-1.549,1.549-1.644a2.425,2.425,0,0,0,2.213-2.151c.158-1.276.537-1.61,1.834-1.61h19.656Zm-.021,2.645a9.963,9.963,0,1,0,9.916,9.56A9.933,9.933,0,0,0,1777.52,1858.188Zm7.683,19.962h5.171c1.9,0,3.8.006,5.705-.011a.565.565,0,0,0,.441-.248,5.2,5.2,0,0,1,3.507-3.34v-12.814a5,5,0,0,1-3.379-3.071.7.7,0,0,0-.806-.534c-3.353.018-6.706.009-10.058.011-.166,0-.331.015-.551.025A12.76,12.76,0,0,1,1785.2,1878.151Zm-30.278-16.415a2.056,2.056,0,0,0-.029.222c0,4.06.011,8.121,0,12.181,0,.366.174.458.45.56a4.833,4.833,0,0,1,2.974,2.9.708.708,0,0,0,.8.549c3.354-.016,6.708,0,10.061,0,.165,0,.33-.015.552-.025a12.749,12.749,0,0,1-.065-19.919c-.01-.014-.021-.04-.031-.04-3.608-.008-7.217-.018-10.825-.008a.556.556,0,0,0-.393.312A5.2,5.2,0,0,1,1754.925,1861.736Z" transform="translate(-9.337 -28.376)"/>
      <path id="Trazado_157053" data-name="Trazado 157053" d="M1806.249,1863.189a9.963,9.963,0,1,1-10,10.417A9.954,9.954,0,0,1,1806.249,1863.189Zm1.275,6.238v0c.823,0,1.647.011,2.471,0a1.322,1.322,0,0,0,1.312-1.184,1.283,1.283,0,0,0-1.085-1.386,10.821,10.821,0,0,0-1.581-.075c-1.066-.01-1.066,0-1.1-1.036a2.149,2.149,0,0,0-.02-.293,1.366,1.366,0,0,0-1.344-1.168,1.326,1.326,0,0,0-1.286,1.222,3.875,3.875,0,0,0-.01.764c.029.359-.1.524-.471.592a3.822,3.822,0,0,0-3.29,4.059,3.913,3.913,0,0,0,4.033,3.568c.784,0,1.569-.02,2.353,0a1.165,1.165,0,0,1,.263,2.293,2.606,2.606,0,0,1-.695.082c-1.549.005-3.1-.008-4.648,0a1.317,1.317,0,0,0-1.316,1.179,1.283,1.283,0,0,0,1.079,1.39,10.026,10.026,0,0,0,1.522.077c1.114.01,1.114,0,1.167,1.088,0,.059,0,.118.01.176a1.372,1.372,0,0,0,1.348,1.231,1.354,1.354,0,0,0,1.29-1.225,3.808,3.808,0,0,0,.011-.763c-.029-.362.109-.522.475-.588a3.83,3.83,0,0,0,3.286-4.065,3.9,3.9,0,0,0-3.978-3.561c-.706,0-1.412.009-2.118.008-.908,0-1.434-.446-1.425-1.192.009-.722.567-1.185,1.453-1.193C1805.994,1869.422,1806.759,1869.427,1807.524,1869.427Z" transform="translate(-38.066 -33.377)" fill="#0dd200"/>
      <path id="Trazado_157054" data-name="Trazado 157054" d="M1847.3,1883.048a12.76,12.76,0,0,0,.031-19.982c.22-.01.386-.025.551-.025,3.353,0,6.706.007,10.058-.011a.7.7,0,0,1,.806.534,5,5,0,0,0,3.379,3.071v12.814a5.2,5.2,0,0,0-3.507,3.34.565.565,0,0,1-.441.248c-1.9.017-3.8.011-5.705.011Zm11.131-9.994a1.275,1.275,0,1,0-1.269,1.284A1.3,1.3,0,0,0,1858.427,1873.055Z" transform="translate(-71.429 -33.274)" fill="#0dac00"/>
      <path id="Trazado_157055" data-name="Trazado 157055" d="M1759.841,1866.672a5.2,5.2,0,0,0,3.488-3.266.556.556,0,0,1,.393-.312c3.608-.01,7.216,0,10.825.008.01,0,.021.026.031.04a12.749,12.749,0,0,0,.065,19.919c-.222.011-.387.026-.552.025-3.354,0-6.708-.018-10.061,0a.708.708,0,0,1-.8-.55,4.833,4.833,0,0,0-2.974-2.9c-.276-.1-.451-.194-.45-.56.013-4.06,0-8.12,0-12.181A2.06,2.06,0,0,1,1759.841,1866.672Zm3.686,6.426a1.332,1.332,0,0,0,1.322,1.3,1.308,1.308,0,0,0,1.279-1.273,1.3,1.3,0,1,0-2.6-.023Z" transform="translate(-14.254 -33.312)" fill="#0dac00"/>
      <path id="Trazado_157056" data-name="Trazado 157056" d="M1816.684,1871.5c-.765,0-1.53-.005-2.295,0-.887.008-1.444.472-1.453,1.193-.009.747.517,1.19,1.425,1.192.706,0,1.412-.01,2.118-.008a3.9,3.9,0,0,1,3.978,3.561,3.83,3.83,0,0,1-3.286,4.065c-.366.066-.5.227-.475.588a3.79,3.79,0,0,1-.011.763,1.354,1.354,0,0,1-1.29,1.225,1.372,1.372,0,0,1-1.348-1.231c-.008-.058-.007-.117-.01-.176-.054-1.085-.054-1.078-1.168-1.088a10.022,10.022,0,0,1-1.521-.077,1.283,1.283,0,0,1-1.08-1.39,1.318,1.318,0,0,1,1.316-1.179c1.549-.01,3.1,0,4.648,0a2.605,2.605,0,0,0,.695-.082,1.165,1.165,0,0,0-.263-2.293c-.784-.019-1.569,0-2.353,0a3.913,3.913,0,0,1-4.033-3.568,3.821,3.821,0,0,1,3.29-4.059c.366-.067.5-.232.471-.592a3.884,3.884,0,0,1,.01-.764,1.326,1.326,0,0,1,1.286-1.222,1.366,1.366,0,0,1,1.344,1.168,2.092,2.092,0,0,1,.02.293c.036,1.032.036,1.026,1.1,1.036a10.822,10.822,0,0,1,1.581.075,1.282,1.282,0,0,1,1.085,1.386,1.322,1.322,0,0,1-1.312,1.184c-.823.014-1.647,0-2.471,0Z" transform="translate(-47.226 -35.447)"/>
      <path id="Trazado_157057" data-name="Trazado 157057" d="M1874.618,1889.5a1.274,1.274,0,1,1-1.246-1.306A1.3,1.3,0,0,1,1874.618,1889.5Z" transform="translate(-87.62 -49.719)"/>
      <path id="Trazado_157058" data-name="Trazado 157058" d="M1770.54,1889.5a1.3,1.3,0,1,1,2.6.022,1.308,1.308,0,0,1-1.279,1.272A1.332,1.332,0,0,1,1770.54,1889.5Z" transform="translate(-21.266 -49.716)"/>
    </g>
  </g>
</svg>
