<?xml version="1.0" encoding="utf-8"?>
<!-- Generator: Adobe Illustrator 25.2.3, SVG Export Plug-In . SVG Version: 6.00 Build 0)  -->
<svg version="1.1" id="Capa_1" xmlns="http://www.w3.org/2000/svg" xmlns:xlink="http://www.w3.org/1999/xlink" x="0px" y="0px"
	 viewBox="0 0 219.3 231.3" style="enable-background:new 0 0 219.3 231.3;" xml:space="preserve">
<style type="text/css">
	.st0{opacity:0.117;}
	.st1{fill:#231F20;fill-opacity:0;}
	.st2{opacity:3.200000e-02;fill:#231F20;enable-background:new    ;}
	.st3{opacity:6.500000e-02;fill:#231F20;enable-background:new    ;}
	.st4{opacity:9.700000e-02;fill:#231F20;enable-background:new    ;}
	.st5{opacity:0.129;fill:#231F20;enable-background:new    ;}
	.st6{opacity:0.161;fill:#231F20;enable-background:new    ;}
	.st7{opacity:0.194;fill:#231F20;enable-background:new    ;}
	.st8{opacity:0.226;fill:#231F20;enable-background:new    ;}
	.st9{opacity:0.258;fill:#231F20;enable-background:new    ;}
	.st10{opacity:0.29;fill:#231F20;enable-background:new    ;}
	.st11{opacity:0.323;fill:#231F20;enable-background:new    ;}
	.st12{opacity:0.355;fill:#231F20;enable-background:new    ;}
	.st13{opacity:0.387;fill:#231F20;enable-background:new    ;}
	.st14{opacity:0.419;fill:#231F20;enable-background:new    ;}
	.st15{opacity:0.452;fill:#231F20;enable-background:new    ;}
	.st16{opacity:0.484;fill:#231F20;enable-background:new    ;}
	.st17{opacity:0.516;fill:#231F20;enable-background:new    ;}
	.st18{opacity:0.548;fill:#231F20;enable-background:new    ;}
	.st19{opacity:0.581;fill:#231F20;enable-background:new    ;}
	.st20{opacity:0.613;fill:#231F20;enable-background:new    ;}
	.st21{opacity:0.645;fill:#231F20;enable-background:new    ;}
	.st22{opacity:0.677;fill:#231F20;enable-background:new    ;}
	.st23{opacity:0.71;fill:#231F20;enable-background:new    ;}
	.st24{opacity:0.742;fill:#231F20;enable-background:new    ;}
	.st25{opacity:0.774;fill:#231F20;enable-background:new    ;}
	.st26{opacity:0.806;fill:#231F20;enable-background:new    ;}
	.st27{opacity:0.839;fill:#231F20;enable-background:new    ;}
	.st28{opacity:0.871;fill:#231F20;enable-background:new    ;}
	.st29{opacity:0.903;fill:#231F20;enable-background:new    ;}
	.st30{opacity:0.935;fill:#231F20;enable-background:new    ;}
	.st31{opacity:0.968;fill:#231F20;enable-background:new    ;}
	.st32{fill:#231F20;}
	.st33{fill:url(#Trazado_150243_1_);}
	.st34{opacity:0.5;fill:url(#Trazado_150244_1_);enable-background:new    ;}
	.st35{fill:#638BD0;}
	.st36{fill:url(#Elipse_4785_1_);}
	.st37{fill:#A48157;}
	.st38{fill:#C8A376;}
	.st39{fill:#E3C095;}
	.st40{fill:#C5C5C5;}
	.st41{fill:#DCDCDC;}
	.st42{fill:#898989;}
	.st43{fill:#ACACAC;}
	.st44{fill:#808080;}
	.st45{fill:#2E3545;}
	.st46{fill:#4F5B77;}
	.st47{fill:#3D475D;}
	.st48{fill:#DDDDDD;}
	.st49{fill:#868686;}
	.st50{fill:#B4B4B4;}
	.st51{fill:#303748;}
	.st52{fill:#404A60;}
	.st53{fill:#E9E9E9;}
	.st54{fill:#53607D;}
</style>
<g id="Grupo_102539" transform="translate(-353 -3974.73)">
	<g id="Grupo_96744" transform="translate(353 4140.431)" class="st0">
		<ellipse id="Elipse_4752" class="st1" cx="141" cy="36.6" rx="78.3" ry="29"/>
		<ellipse id="Elipse_4753" class="st2" cx="138.9" cy="36.3" rx="78.3" ry="29"/>
		<ellipse id="Elipse_4754" class="st3" cx="136.9" cy="36.1" rx="78.3" ry="29"/>
		<ellipse id="Elipse_4755" class="st4" cx="134.9" cy="35.8" rx="78.3" ry="29"/>
		<ellipse id="Elipse_4756" class="st5" cx="132.9" cy="35.6" rx="78.3" ry="29"/>
		<ellipse id="Elipse_4757" class="st6" cx="130.9" cy="35.4" rx="78.3" ry="29"/>
		<ellipse id="Elipse_4758" class="st7" cx="128.8" cy="35.1" rx="78.3" ry="29"/>
		<ellipse id="Elipse_4759" class="st8" cx="126.8" cy="34.9" rx="78.3" ry="29"/>
		<ellipse id="Elipse_4760" class="st9" cx="124.8" cy="34.6" rx="78.3" ry="29"/>
		<ellipse id="Elipse_4761" class="st10" cx="122.8" cy="34.4" rx="78.3" ry="29"/>
		<ellipse id="Elipse_4762" class="st11" cx="120.8" cy="34.1" rx="78.3" ry="29"/>
		<ellipse id="Elipse_4763" class="st12" cx="118.7" cy="33.9" rx="78.3" ry="29"/>
		<ellipse id="Elipse_4764" class="st13" cx="116.7" cy="33.6" rx="78.3" ry="29"/>
		<ellipse id="Elipse_4765" class="st14" cx="114.7" cy="33.4" rx="78.3" ry="29"/>
		<ellipse id="Elipse_4766" class="st15" cx="112.7" cy="33.2" rx="78.3" ry="29"/>
		<ellipse id="Elipse_4767" class="st16" cx="110.7" cy="32.9" rx="78.3" ry="29"/>
		<ellipse id="Elipse_4768" class="st17" cx="108.6" cy="32.7" rx="78.3" ry="29"/>
		<ellipse id="Elipse_4769" class="st18" cx="106.6" cy="32.4" rx="78.3" ry="29"/>
		<ellipse id="Elipse_4770" class="st19" cx="104.6" cy="32.2" rx="78.3" ry="29"/>
		<ellipse id="Elipse_4771" class="st20" cx="102.6" cy="31.9" rx="78.3" ry="29"/>
		<ellipse id="Elipse_4772" class="st21" cx="100.6" cy="31.7" rx="78.3" ry="29"/>
		<ellipse id="Elipse_4773" class="st22" cx="98.5" cy="31.4" rx="78.3" ry="29"/>
		<ellipse id="Elipse_4774" class="st23" cx="96.5" cy="31.2" rx="78.3" ry="29"/>
		<ellipse id="Elipse_4775" class="st24" cx="94.5" cy="30.9" rx="78.3" ry="29"/>
		<ellipse id="Elipse_4776" class="st25" cx="92.5" cy="30.7" rx="78.3" ry="29"/>
		<ellipse id="Elipse_4777" class="st26" cx="90.5" cy="30.5" rx="78.3" ry="29"/>
		<ellipse id="Elipse_4778" class="st27" cx="88.4" cy="30.2" rx="78.3" ry="29"/>
		<ellipse id="Elipse_4779" class="st28" cx="86.4" cy="30" rx="78.3" ry="29"/>
		<ellipse id="Elipse_4780" class="st29" cx="84.4" cy="29.7" rx="78.3" ry="29"/>
		<ellipse id="Elipse_4781" class="st30" cx="82.4" cy="29.5" rx="78.3" ry="29"/>
		<ellipse id="Elipse_4782" class="st31" cx="80.4" cy="29.2" rx="78.3" ry="29"/>
		<ellipse id="Elipse_4783" class="st32" cx="78.3" cy="29" rx="78.3" ry="29"/>
	</g>
	
		<linearGradient id="Trazado_150243_1_" gradientUnits="userSpaceOnUse" x1="-945.6588" y1="5490.2642" x2="-944.6588" y2="5490.2642" gradientTransform="matrix(156.6919 0 0 -73.8729 148530.0625 409743.3438)">
		<stop  offset="0" style="stop-color:#1EC0B1"/>
		<stop  offset="1" style="stop-color:#1EC0B1"/>
	</linearGradient>
	<path id="Trazado_150243" class="st33" d="M353,4124.5v46.6h0.1c2.4,15.2,36.5,27.2,78.2,27.2s75.8-12,78.2-27.2h0.1v-46.6H353z"/>
	
		<linearGradient id="Trazado_150244_1_" gradientUnits="userSpaceOnUse" x1="-944.7998" y1="5490.2642" x2="-945.5518" y2="5490.2642" gradientTransform="matrix(156.6919 0 0 -73.8729 148530.0625 409743.3438)">
		<stop  offset="0" style="stop-color:#231F20"/>
		<stop  offset="1" style="stop-color:#FFFFFF"/>
	</linearGradient>
	<path id="Trazado_150244" class="st34" d="M353,4124.5v46.6h0.1c2.4,15.2,36.5,27.2,78.2,27.2s75.8-12,78.2-27.2h0.1v-46.6H353z"/>
	<ellipse id="Elipse_4784" class="st35" cx="431.3" cy="4126.2" rx="78.3" ry="29"/>
	
		<linearGradient id="Elipse_4785_1_" gradientUnits="userSpaceOnUse" x1="-944.6666" y1="5485.437" x2="-945.6506" y2="5485.437" gradientTransform="matrix(156.688 0 0 -57.98 148526.3594 322170.5625)">
		<stop  offset="0" style="stop-color:#1EC0B1"/>
		<stop  offset="1" style="stop-color:#1EC0B1"/>
	</linearGradient>
	<ellipse id="Elipse_4785" class="st36" cx="431.3" cy="4124.9" rx="78.3" ry="29"/>
	
		<image style="overflow:visible;enable-background:new    ;" width="1563" height="580" id="Rectángulo_34088" xlink:href="A932806C.png"  transform="matrix(9.586552e-02 0 0 9.586552e-02 356.4341 4097.124)">
	</image>
	<g id="Grupo_100949" transform="translate(7.896)">
		<g id="Grupo_100822" transform="translate(371.283 4033.266)">
			<g id="Grupo_91737" transform="translate(0)">
				<g id="Grupo_91736">
					<g id="Grupo_91730">
						<g id="Grupo_91729">
							<g id="Grupo_91726" transform="translate(0 40.078)">
								<path id="Trazado_132101" class="st37" d="M0,0l0.2,31l44.2,25.8l-0.2-31L0,0z"/>
							</g>
							<g id="Grupo_91727" transform="translate(44.247 25.79)">
								<path id="Trazado_132102" class="st38" d="M0,40.1l0.2,31L69.5,31L69.3,0L0,40.1z"/>
							</g>
							<g id="Grupo_91728">
								<path id="Trazado_132103" class="st39" d="M0,40.1l44.2,25.8l69.3-40.1L69.3,0L0,40.1z"/>
							</g>
						</g>
					</g>
					<g id="Grupo_91735" transform="translate(15.788 8.798)">
						<g id="Grupo_91734" transform="translate(0)">
							<g id="Grupo_91731" transform="translate(0 40.525)">
								<path id="Trazado_132104" class="st40" d="M6.9,4L0,0l0.2,15.3l6.9,4L6.9,4z"/>
							</g>
							<g id="Grupo_91732">
								<path id="Trazado_132105" class="st41" d="M77,4l-6.9-4L0,40.5l6.9,4L77,4z"/>
							</g>
							<g id="Grupo_91733" transform="translate(6.939 4.033)">
								<path id="Trazado_132106" class="st42" d="M0,40.5l0.2,15.3l0.6-0.3L0.6,40.9L70.1,0.7V0L0,40.5z"/>
							</g>
						</g>
					</g>
				</g>
			</g>
			<g id="Grupo_91847" transform="translate(92.781 31.5)">
				<g id="Grupo_91846" transform="translate(0)">
					<g id="Grupo_91825" transform="translate(0 11.263)">
						<g id="Grupo_91824">
							<g id="Grupo_91746" transform="translate(15.296 8.811)">
								<path id="Trazado_132112" class="st43" d="M1.4,0.5L0.6,0L0,0.3l0.8,0.5L1.4,0.5z"/>
							</g>
							<g id="Grupo_91747" transform="translate(15.87 2.518)">
								<path id="Trazado_132113" class="st44" d="M0.8,0.5L0,0l0,6.3l0.8,0.5L0.8,0.5z"/>
							</g>
							<g id="Grupo_91748" transform="translate(15.279 2.86)">
								<path id="Trazado_132114" class="st45" d="M0.8,0.5L0,0l0,6.3l0.8,0.5L0.8,0.5z"/>
							</g>
							<g id="Grupo_91749" transform="translate(14.338 8.524)">
								<path id="Trazado_132115" class="st43" d="M1.4,0.5L0.6,0L0,0.3l0.8,0.5L1.4,0.5z"/>
							</g>
							<g id="Grupo_91750" transform="translate(13.381 9.076)">
								<path id="Trazado_132116" class="st43" d="M1.4,0.5L0.6,0L0,0.3l0.8,0.5L1.4,0.5z"/>
							</g>
							<g id="Grupo_91751" transform="translate(12.425 9.629)">
								<path id="Trazado_132117" class="st43" d="M1.4,0.5L0.6,0L0,0.3l0.8,0.5L1.4,0.5z"/>
							</g>
							<g id="Grupo_91752" transform="translate(11.468 10.181)">
								<path id="Trazado_132118" class="st43" d="M1.4,0.5L0.6,0L0,0.3l0.8,0.5L1.4,0.5z"/>
							</g>
							<g id="Grupo_91753" transform="translate(10.512 10.733)">
								<path id="Trazado_132119" class="st43" d="M1.4,0.5L0.6,0L0,0.3l0.8,0.5L1.4,0.5z"/>
							</g>
							<g id="Grupo_91754" transform="translate(16.085 2.987)">
								<path id="Trazado_132120" class="st46" d="M0,0.3l0,6.3l0.6-0.3l0-6.3L0,0.3z"/>
							</g>
							<g id="Grupo_91755" transform="translate(15.279 2.518)">
								<path id="Trazado_132121" class="st47" d="M1.4,0.5L0.6,0L0,0.3l0.8,0.5L1.4,0.5z"/>
							</g>
							<g id="Grupo_91756" transform="translate(14.914 3.07)">
								<path id="Trazado_132122" class="st44" d="M0.8,0.5L0,0l0,5.5l0.8,0.5L0.8,0.5z"/>
							</g>
							<g id="Grupo_91757" transform="translate(9.555 11.285)">
								<path id="Trazado_132123" class="st43" d="M1.4,0.5L0.6,0L0,0.3l0.8,0.5L1.4,0.5z"/>
							</g>
							<g id="Grupo_91758" transform="translate(15.128 3.539)">
								<path id="Trazado_132124" class="st46" d="M0,0.3l0,5.5l0.6-0.3l0-5.5L0,0.3z"/>
							</g>
							<g id="Grupo_91759" transform="translate(14.323 3.071)">
								<path id="Trazado_132125" class="st47" d="M1.4,0.5L0.6,0L0,0.3l0.8,0.5L1.4,0.5z"/>
							</g>
							<g id="Grupo_91760" transform="translate(14.322 3.412)">
								<path id="Trazado_132126" class="st45" d="M0.8,0.5L0,0l0,5.5l0.8,0.5L0.8,0.5z"/>
							</g>
							<g id="Grupo_91761" transform="translate(8.601 12.677)">
								<path id="Trazado_132127" class="st43" d="M1.4,0.5L0.6,0L0,0.3l0.8,0.5L1.4,0.5z"/>
							</g>
							<g id="Grupo_91762" transform="translate(13.957 3.623)">
								<path id="Trazado_132128" class="st44" d="M0.8,0.5L0,0l0,5.5l0.8,0.5L0.8,0.5z"/>
							</g>
							<g id="Grupo_91763" transform="translate(13.366 3.623)">
								<path id="Trazado_132129" class="st47" d="M1.4,0.5L0.6,0L0,0.3l0.8,0.5L1.4,0.5z"/>
							</g>
							<g id="Grupo_91764" transform="translate(13.366 3.964)">
								<path id="Trazado_132130" class="st45" d="M0.8,0.5L0,0l0,5.5l0.8,0.5L0.8,0.5z"/>
							</g>
							<g id="Grupo_91765" transform="translate(14.171 4.091)">
								<path id="Trazado_132131" class="st46" d="M0,0.3l0,5.5l0.6-0.3l0-5.5L0,0.3z"/>
							</g>
							<g id="Grupo_91766" transform="translate(13.001 4.175)">
								<path id="Trazado_132132" class="st44" d="M0.8,0.5L0,0l0,5.5l0.8,0.5L0.8,0.5z"/>
							</g>
							<g id="Grupo_91767" transform="translate(12.409 4.517)">
								<path id="Trazado_132133" class="st45" d="M0.8,0.5L0,0l0,5.5l0.8,0.5L0.8,0.5z"/>
							</g>
							<g id="Grupo_91768" transform="translate(12.044 4.727)">
								<path id="Trazado_132134" class="st44" d="M0.8,0.5L0,0l0,5.5l0.8,0.5L0.8,0.5z"/>
							</g>
							<g id="Grupo_91769" transform="translate(11.453 5.069)">
								<path id="Trazado_132135" class="st45" d="M0.8,0.5L0,0l0,5.5l0.8,0.5L0.8,0.5z"/>
							</g>
							<g id="Grupo_91770" transform="translate(11.088 5.279)">
								<path id="Trazado_132136" class="st44" d="M0.8,0.5L0,0l0,5.5l0.8,0.5L0.8,0.5z"/>
							</g>
							<g id="Grupo_91771" transform="translate(10.497 5.621)">
								<path id="Trazado_132137" class="st45" d="M0.8,0.5L0,0l0,5.5l0.8,0.5L0.8,0.5z"/>
							</g>
							<g id="Grupo_91772" transform="translate(10.131 5.832)">
								<path id="Trazado_132138" class="st44" d="M0.8,0.5L0,0l0,5.5l0.8,0.5L0.8,0.5z"/>
							</g>
							<g id="Grupo_91773" transform="translate(9.539 6.173)">
								<path id="Trazado_132139" class="st45" d="M0.8,0.5L0,0l0,5.5l0.8,0.5L0.8,0.5z"/>
							</g>
							<g id="Grupo_91774" transform="translate(9.175 6.384)">
								<path id="Trazado_132140" class="st44" d="M0.8,0.5L0,0l0,6.3l0.8,0.5L0.8,0.5z"/>
							</g>
							<g id="Grupo_91775" transform="translate(8.584 6.726)">
								<path id="Trazado_132141" class="st45" d="M0.8,0.5L0,0l0,6.3l0.8,0.5L0.8,0.5z"/>
							</g>
							<g id="Grupo_91776" transform="translate(7.642 12.39)">
								<path id="Trazado_132142" class="st43" d="M1.4,0.5L0.6,0L0,0.3l0.8,0.5L1.4,0.5z"/>
							</g>
							<g id="Grupo_91777" transform="translate(12.409 4.175)">
								<path id="Trazado_132143" class="st47" d="M1.4,0.5L0.6,0L0,0.3l0.8,0.5L1.4,0.5z"/>
							</g>
							<g id="Grupo_91778" transform="translate(13.216 4.644)">
								<path id="Trazado_132144" class="st46" d="M0,0.3l0,5.5l0.6-0.3l0-5.5L0,0.3z"/>
							</g>
							<g id="Grupo_91779" transform="translate(6.686 12.942)">
								<path id="Trazado_132145" class="st43" d="M1.4,0.5L0.6,0L0,0.3l0.8,0.5L1.4,0.5z"/>
							</g>
							<g id="Grupo_91780" transform="translate(11.452 4.727)">
								<path id="Trazado_132146" class="st47" d="M1.4,0.5L0.6,0L0,0.3l0.8,0.5L1.4,0.5z"/>
							</g>
							<g id="Grupo_91781" transform="translate(5.729 13.494)">
								<path id="Trazado_132147" class="st43" d="M1.4,0.5L0.6,0L0,0.3l0.8,0.5L1.4,0.5z"/>
							</g>
							<g id="Grupo_91782" transform="translate(10.496 5.28)">
								<path id="Trazado_132148" class="st47" d="M1.4,0.5L0.6,0L0,0.3l0.8,0.5L1.4,0.5z"/>
							</g>
							<g id="Grupo_91783" transform="translate(4.775 14.886)">
								<path id="Trazado_132149" class="st43" d="M1.4,0.5L0.6,0L0,0.3l0.8,0.5L1.4,0.5z"/>
							</g>
							<g id="Grupo_91784" transform="translate(9.54 5.832)">
								<path id="Trazado_132150" class="st47" d="M1.4,0.5L0.6,0L0,0.3l0.8,0.5L1.4,0.5z"/>
							</g>
							<g id="Grupo_91785" transform="translate(10.346 6.3)">
								<path id="Trazado_132151" class="st46" d="M0,0.3l0,5.5l0.6-0.3l0-5.5L0,0.3z"/>
							</g>
							<g id="Grupo_91786" transform="translate(8.218 6.936)">
								<path id="Trazado_132152" class="st44" d="M0.8,0.5L0,0l0,5.5l0.8,0.5L0.8,0.5z"/>
							</g>
							<g id="Grupo_91787" transform="translate(7.627 7.278)">
								<path id="Trazado_132153" class="st45" d="M0.8,0.5L0,0l0,5.5l0.8,0.5L0.8,0.5z"/>
							</g>
							<g id="Grupo_91788" transform="translate(7.262 7.488)">
								<path id="Trazado_132154" class="st44" d="M0.8,0.5L0,0l0,5.5l0.8,0.5L0.8,0.5z"/>
							</g>
							<g id="Grupo_91789" transform="translate(6.67 7.83)">
								<path id="Trazado_132155" class="st45" d="M0.8,0.5L0,0l0,5.5l0.8,0.5L0.8,0.5z"/>
							</g>
							<g id="Grupo_91790" transform="translate(6.305 8.041)">
								<path id="Trazado_132156" class="st44" d="M0.8,0.5L0,0l0,5.5l0.8,0.5L0.8,0.5z"/>
							</g>
							<g id="Grupo_91791" transform="translate(5.714 8.382)">
								<path id="Trazado_132157" class="st45" d="M0.8,0.5L0,0l0,5.5l0.8,0.5L0.8,0.5z"/>
							</g>
							<g id="Grupo_91792" transform="translate(5.349 8.593)">
								<path id="Trazado_132158" class="st44" d="M0.8,0.5L0,0l0,6.3l0.8,0.5L0.8,0.5z"/>
							</g>
							<g id="Grupo_91793" transform="translate(4.757 8.935)">
								<path id="Trazado_132159" class="st45" d="M0.8,0.5L0,0l0,6.3l0.8,0.5L0.8,0.5z"/>
							</g>
							<g id="Grupo_91794" transform="translate(3.816 14.599)">
								<path id="Trazado_132160" class="st43" d="M1.4,0.5L0.6,0L0,0.3l0.8,0.5L1.4,0.5z"/>
							</g>
							<g id="Grupo_91795" transform="translate(9.39 6.853)">
								<path id="Trazado_132161" class="st46" d="M0,0.3l0,6.3l0.6-0.3l0-6.3L0,0.3z"/>
							</g>
							<g id="Grupo_91796" transform="translate(8.583 6.384)">
								<path id="Trazado_132162" class="st47" d="M1.4,0.5L0.6,0L0,0.3l0.8,0.5L1.4,0.5z"/>
							</g>
							<g id="Grupo_91797" transform="translate(2.859 15.151)">
								<path id="Trazado_132163" class="st43" d="M1.4,0.5L0.6,0L0,0.3l0.8,0.5L1.4,0.5z"/>
							</g>
							<g id="Grupo_91798" transform="translate(7.627 6.936)">
								<path id="Trazado_132164" class="st47" d="M1.4,0.5L0.6,0L0,0.3l0.8,0.5L1.4,0.5z"/>
							</g>
							<g id="Grupo_91799" transform="translate(8.433 7.405)">
								<path id="Trazado_132165" class="st46" d="M0,0.3l0,5.5l0.6-0.3l0-5.5L0,0.3z"/>
							</g>
							<g id="Grupo_91800" transform="translate(1.906 16.542)">
								<path id="Trazado_132166" class="st43" d="M1.4,0.5L0.6,0L0,0.3l0.8,0.5L1.4,0.5z"/>
							</g>
							<g id="Grupo_91801" transform="translate(6.67 7.489)">
								<path id="Trazado_132167" class="st47" d="M1.4,0.5L0.6,0L0,0.3l0.8,0.5L1.4,0.5z"/>
							</g>
							<g id="Grupo_91802" transform="translate(6.519 8.509)">
								<path id="Trazado_132168" class="st46" d="M0,0.3l0,5.5l0.6-0.3l0-5.5L0,0.3z"/>
							</g>
							<g id="Grupo_91803" transform="translate(5.714 8.041)">
								<path id="Trazado_132169" class="st47" d="M1.4,0.5L0.6,0L0,0.3l0.8,0.5L1.4,0.5z"/>
							</g>
							<g id="Grupo_91804" transform="translate(4.757 8.593)">
								<path id="Trazado_132170" class="st47" d="M1.4,0.5L0.6,0L0,0.3l0.8,0.5L1.4,0.5z"/>
							</g>
							<g id="Grupo_91805" transform="translate(5.564 9.061)">
								<path id="Trazado_132171" class="st46" d="M0,0.3l0,6.3l0.6-0.3l0-6.3L0,0.3z"/>
							</g>
							<g id="Grupo_91806" transform="translate(4.393 9.145)">
								<path id="Trazado_132172" class="st44" d="M0.8,0.5L0,0l0,5.5l0.8,0.5L0.8,0.5z"/>
							</g>
							<g id="Grupo_91807" transform="translate(3.801 9.487)">
								<path id="Trazado_132173" class="st45" d="M0.8,0.5L0,0l0,5.5l0.8,0.5L0.8,0.5z"/>
							</g>
							<g id="Grupo_91808" transform="translate(3.801 9.145)">
								<path id="Trazado_132174" class="st47" d="M1.4,0.5L0.6,0L0,0.3l0.8,0.5L1.4,0.5z"/>
							</g>
							<g id="Grupo_91809" transform="translate(3.436 9.697)">
								<path id="Trazado_132175" class="st44" d="M0.8,0.5L0,0l0,5.5l0.8,0.5L0.8,0.5z"/>
							</g>
							<g id="Grupo_91810" transform="translate(2.845 10.039)">
								<path id="Trazado_132176" class="st45" d="M0.8,0.5L0,0l0,5.5l0.8,0.5L0.8,0.5z"/>
							</g>
							<g id="Grupo_91811" transform="translate(3.65 10.166)">
								<path id="Trazado_132177" class="st46" d="M0,0.3l0,5.5l0.6-0.3l0-5.5L0,0.3z"/>
							</g>
							<g id="Grupo_91812" transform="translate(2.844 9.698)">
								<path id="Trazado_132178" class="st47" d="M1.4,0.5L0.6,0L0,0.3l0.8,0.5L1.4,0.5z"/>
							</g>
							<g id="Grupo_91813" transform="translate(2.479 10.25)">
								<path id="Trazado_132179" class="st44" d="M0.8,0.5L0,0l0,6.3l0.8,0.5L0.8,0.5z"/>
							</g>
							<g id="Grupo_91814" transform="translate(1.888 10.25)">
								<path id="Trazado_132180" class="st47" d="M1.4,0.5L0.6,0L0,0.3l0.8,0.5L1.4,0.5z"/>
							</g>
							<g id="Grupo_91815" transform="translate(1.888 10.591)">
								<path id="Trazado_132181" class="st45" d="M0.8,0.5L0,0l0,6.3l0.8,0.5L0.8,0.5z"/>
							</g>
							<g id="Grupo_91816" transform="translate(0.806 0.468)">
								<path id="Trazado_132182" class="st48" d="M17.8,0L0,10.3l0,8.9L17.8,8.9L17.8,0z M4.8,15.2l0-6.3l0.6-0.3l0,6.3L4.8,15.2
									L4.8,15.2z M15.3,9.2l0-6.3l0.6-0.3l0,6.3L15.3,9.2L15.3,9.2z M8.6,13l0-6.3l0.6-0.3l0,6.3L8.6,13z M1.9,16.9l0-6.3l0.6-0.3
									l0,6.3L1.9,16.9L1.9,16.9z M10.5,11.1l0-5.5l0.6-0.3l0,5.5L10.5,11.1L10.5,11.1z M2.8,15.5l0-5.5l0.6-0.3l0,5.5L2.8,15.5
									L2.8,15.5z M3.8,14.9l0-5.5l0.6-0.3l0,5.5L3.8,14.9L3.8,14.9z M7.6,12.7l0-5.5l0.6-0.3l0,5.5L7.6,12.7L7.6,12.7z M6.7,13.3
									l0-5.5l0.6-0.3l0,5.5L6.7,13.3L6.7,13.3z M14.3,8.9l0-5.5l0.6-0.3l0,5.5L14.3,8.9z M11.5,10.5l0-5.5L12,4.7l0,5.5L11.5,10.5
									z M12.4,10l0-5.5L13,4.2l0,5.5L12.4,10z M9.5,11.6l0-5.5l0.6-0.3l0,5.5L9.5,11.6z M13.4,9.4l0-5.5l0.6-0.3l0,5.5L13.4,9.4z
									 M5.7,13.8l0-5.5L6.3,8l0,5.5L5.7,13.8z"/>
							</g>
							<g id="Grupo_91817" transform="translate(12.259 5.196)">
								<path id="Trazado_132183" class="st46" d="M0,0.3l0,5.5l0.6-0.3l0-5.5L0,0.3z"/>
							</g>
							<g id="Grupo_91818" transform="translate(11.302 5.748)">
								<path id="Trazado_132184" class="st46" d="M0,0.3l0,5.5l0.6-0.3l0-5.5L0,0.3z"/>
							</g>
							<g id="Grupo_91819" transform="translate(7.476 7.957)">
								<path id="Trazado_132185" class="st46" d="M0,0.3l0,5.5l0.6-0.3l0-5.5L0,0.3z"/>
							</g>
							<g id="Grupo_91820" transform="translate(4.607 9.614)">
								<path id="Trazado_132186" class="st46" d="M0,0.3l0,5.5l0.6-0.3l0-5.5L0,0.3z"/>
							</g>
							<g id="Grupo_91821" transform="translate(2.694 10.718)">
								<path id="Trazado_132187" class="st46" d="M0,0.3l0,6.3l0.6-0.3l0-6.3L0,0.3z"/>
							</g>
							<g id="Grupo_91822">
								<path id="Trazado_132188" class="st43" d="M18.6,0.5L17.8,0L0,10.3l0.8,0.5L18.6,0.5z"/>
							</g>
							<g id="Grupo_91823" transform="translate(0 10.286)">
								<path id="Trazado_132189" class="st44" d="M0.8,0.5L0,0l0,8.9l0.8,0.5L0.8,0.5z"/>
							</g>
						</g>
					</g>
					<g id="Grupo_91845" transform="translate(0.001)">
						<g id="Grupo_91844" transform="translate(0)">
							<g id="Grupo_91826" transform="translate(16.321 6.838)">
								<path id="Trazado_132190" class="st49" d="M0.8,0.5L0,0v0.8l0.8,0.5V0.5z"/>
							</g>
							<g id="Grupo_91827" transform="translate(16.312 3.499)">
								<path id="Trazado_132191" class="st49" d="M0.8,0.5L0,0v0.8l0.8,0.5L0.8,0.5z"/>
							</g>
							<g id="Grupo_91828" transform="translate(16.307 2.173)">
								<path id="Trazado_132192" class="st49" d="M0.8,0.5L0,0v0.8l0.8,0.5L0.8,0.5z"/>
							</g>
							<g id="Grupo_91829" transform="translate(10.074 7.686)">
								<path id="Trazado_132193" class="st50" d="M7.1,0.5L6.2,0L0,3.6l0.8,0.5L7.1,0.5z"/>
							</g>
							<g id="Grupo_91830" transform="translate(10.071 10.447)">
								<path id="Trazado_132194" class="st51" d="M0.8,0.5L0,0v0.8l0.8,0.5L0.8,0.5z"/>
							</g>
							<g id="Grupo_91831" transform="translate(10.071 6.838)">
								<path id="Trazado_132195" class="st52" d="M7.1,0.5L6.2,0L0,3.6l0.8,0.5L7.1,0.5z"/>
							</g>
							<g id="Grupo_91832" transform="translate(10.064 4.346)">
								<path id="Trazado_132196" class="st50" d="M7.1,0.5L6.2,0L0,3.6l0.8,0.5L7.1,0.5z"/>
							</g>
							<g id="Grupo_91833" transform="translate(10.061 3.499)">
								<path id="Trazado_132197" class="st52" d="M7.1,0.5L6.3,0L0,3.6l0.8,0.5L7.1,0.5z"/>
							</g>
							<g id="Grupo_91834" transform="translate(10.061 7.107)">
								<path id="Trazado_132198" class="st51" d="M0.8,0.5L0,0v0.8l0.8,0.5L0.8,0.5z"/>
							</g>
							<g id="Grupo_91835" transform="translate(6.007 3.021)">
								<path id="Trazado_132199" class="st50" d="M11.1,0.5L10.3,0L0,5.9l0.8,0.5L11.1,0.5z"/>
							</g>
							<g id="Grupo_91836" transform="translate(6.005 2.173)">
								<path id="Trazado_132200" class="st52" d="M11.1,0.5L10.3,0L0,5.9l0.8,0.5L11.1,0.5z"/>
							</g>
							<g id="Grupo_91837" transform="translate(6.005 8.121)">
								<path id="Trazado_132201" class="st51" d="M0.8,0.5L0,0v0.8l0.8,0.5L0.8,0.5z"/>
							</g>
							<g id="Grupo_91838" transform="translate(0.806 0.468)">
								<path id="Trazado_132202" class="st53" d="M17.8,0L0,10.3l0,8.3L17.8,8.3L17.8,0z M6,9V8.1l10.3-5.9V3L6,9L6,9z M10.1,8V7.1
									l6.2-3.6v0.8L10.1,8z M10.1,11.3v-0.8l6.2-3.6v0.8L10.1,11.3L10.1,11.3z"/>
							</g>
							<g id="Grupo_91839" transform="translate(10.877 7.307)">
								<path id="Trazado_132203" class="st54" d="M0,3.6v0.8l6.2-3.6V0L0,3.6z"/>
							</g>
							<g id="Grupo_91840" transform="translate(10.867 3.967)">
								<path id="Trazado_132204" class="st54" d="M0,3.6v0.8l6.2-3.6V0L0,3.6z"/>
							</g>
							<g id="Grupo_91841" transform="translate(6.811 2.642)">
								<path id="Trazado_132205" class="st54" d="M0,5.9v0.8l10.3-5.9V0L0,5.9z"/>
							</g>
							<g id="Grupo_91842">
								<path id="Trazado_132206" class="st50" d="M18.6,0.5L17.8,0L0,10.3l0.8,0.5L18.6,0.5z"/>
							</g>
							<g id="Grupo_91843" transform="translate(0 10.286)">
								<path id="Trazado_132207" class="st49" d="M0.8,0.5L0,0l0,8.3l0.8,0.5L0.8,0.5z"/>
							</g>
						</g>
					</g>
				</g>
			</g>
		</g>
		<g id="Grupo_100948" transform="translate(362.254 4001.423)">
			<g id="Grupo_91737-2" transform="translate(0)">
				<g id="Grupo_91736-2">
					<g id="Grupo_91730-2">
						<g id="Grupo_91729-2">
							<g id="Grupo_91726-2" transform="translate(0 40.078)">
								<path id="Trazado_132101-2" class="st37" d="M0,0l0.2,31l44.2,25.8l-0.2-31L0,0z"/>
							</g>
							<g id="Grupo_91727-2" transform="translate(44.247 25.79)">
								<path id="Trazado_132102-2" class="st38" d="M0,40.1l0.2,31L69.5,31L69.3,0L0,40.1z"/>
							</g>
							<g id="Grupo_91728-2">
								<path id="Trazado_132103-2" class="st39" d="M0,40.1l44.2,25.8l69.3-40.1L69.3,0L0,40.1z"/>
							</g>
						</g>
					</g>
					<g id="Grupo_91735-2" transform="translate(15.788 8.798)">
						<g id="Grupo_91734-2" transform="translate(0)">
							<g id="Grupo_91731-2" transform="translate(0 40.525)">
								<path id="Trazado_132104-2" class="st40" d="M6.9,4L0,0l0.2,15.3l6.9,4L6.9,4z"/>
							</g>
							<g id="Grupo_91732-2">
								<path id="Trazado_132105-2" class="st41" d="M77,4l-6.9-4L0,40.5l6.9,4L77,4z"/>
							</g>
							<g id="Grupo_91733-2" transform="translate(6.939 4.033)">
								<path id="Trazado_132106-2" class="st42" d="M0,40.5l0.2,15.3l0.6-0.3L0.6,40.9L70.1,0.7V0L0,40.5z"/>
							</g>
						</g>
					</g>
				</g>
			</g>
			<g id="Grupo_91847-2" transform="translate(92.781 31.5)">
				<g id="Grupo_91846-2" transform="translate(0)">
					<g id="Grupo_91825-2" transform="translate(0 11.263)">
						<g id="Grupo_91824-2">
							<g id="Grupo_91746-2" transform="translate(15.296 8.811)">
								<path id="Trazado_132112-2" class="st43" d="M1.4,0.5L0.6,0L0,0.3l0.8,0.5L1.4,0.5z"/>
							</g>
							<g id="Grupo_91747-2" transform="translate(15.87 2.518)">
								<path id="Trazado_132113-2" class="st44" d="M0.8,0.5L0,0l0,6.3l0.8,0.5L0.8,0.5z"/>
							</g>
							<g id="Grupo_91748-2" transform="translate(15.279 2.86)">
								<path id="Trazado_132114-2" class="st45" d="M0.8,0.5L0,0l0,6.3l0.8,0.5L0.8,0.5z"/>
							</g>
							<g id="Grupo_91749-2" transform="translate(14.338 8.524)">
								<path id="Trazado_132115-2" class="st43" d="M1.4,0.5L0.6,0L0,0.3l0.8,0.5L1.4,0.5z"/>
							</g>
							<g id="Grupo_91750-2" transform="translate(13.381 9.076)">
								<path id="Trazado_132116-2" class="st43" d="M1.4,0.5L0.6,0L0,0.3l0.8,0.5L1.4,0.5z"/>
							</g>
							<g id="Grupo_91751-2" transform="translate(12.425 9.629)">
								<path id="Trazado_132117-2" class="st43" d="M1.4,0.5L0.6,0L0,0.3l0.8,0.5L1.4,0.5z"/>
							</g>
							<g id="Grupo_91752-2" transform="translate(11.468 10.181)">
								<path id="Trazado_132118-2" class="st43" d="M1.4,0.5L0.6,0L0,0.3l0.8,0.5L1.4,0.5z"/>
							</g>
							<g id="Grupo_91753-2" transform="translate(10.512 10.733)">
								<path id="Trazado_132119-2" class="st43" d="M1.4,0.5L0.6,0L0,0.3l0.8,0.5L1.4,0.5z"/>
							</g>
							<g id="Grupo_91754-2" transform="translate(16.085 2.987)">
								<path id="Trazado_132120-2" class="st46" d="M0,0.3l0,6.3l0.6-0.3l0-6.3L0,0.3z"/>
							</g>
							<g id="Grupo_91755-2" transform="translate(15.279 2.518)">
								<path id="Trazado_132121-2" class="st47" d="M1.4,0.5L0.6,0L0,0.3l0.8,0.5L1.4,0.5z"/>
							</g>
							<g id="Grupo_91756-2" transform="translate(14.914 3.07)">
								<path id="Trazado_132122-2" class="st44" d="M0.8,0.5L0,0l0,5.5l0.8,0.5L0.8,0.5z"/>
							</g>
							<g id="Grupo_91757-2" transform="translate(9.555 11.285)">
								<path id="Trazado_132123-2" class="st43" d="M1.4,0.5L0.6,0L0,0.3l0.8,0.5L1.4,0.5z"/>
							</g>
							<g id="Grupo_91758-2" transform="translate(15.128 3.539)">
								<path id="Trazado_132124-2" class="st46" d="M0,0.3l0,5.5l0.6-0.3l0-5.5L0,0.3z"/>
							</g>
							<g id="Grupo_91759-2" transform="translate(14.323 3.071)">
								<path id="Trazado_132125-2" class="st47" d="M1.4,0.5L0.6,0L0,0.3l0.8,0.5L1.4,0.5z"/>
							</g>
							<g id="Grupo_91760-2" transform="translate(14.322 3.412)">
								<path id="Trazado_132126-2" class="st45" d="M0.8,0.5L0,0l0,5.5l0.8,0.5L0.8,0.5z"/>
							</g>
							<g id="Grupo_91761-2" transform="translate(8.601 12.677)">
								<path id="Trazado_132127-2" class="st43" d="M1.4,0.5L0.6,0L0,0.3l0.8,0.5L1.4,0.5z"/>
							</g>
							<g id="Grupo_91762-2" transform="translate(13.957 3.623)">
								<path id="Trazado_132128-2" class="st44" d="M0.8,0.5L0,0l0,5.5l0.8,0.5L0.8,0.5z"/>
							</g>
							<g id="Grupo_91763-2" transform="translate(13.366 3.623)">
								<path id="Trazado_132129-2" class="st47" d="M1.4,0.5L0.6,0L0,0.3l0.8,0.5L1.4,0.5z"/>
							</g>
							<g id="Grupo_91764-2" transform="translate(13.366 3.964)">
								<path id="Trazado_132130-2" class="st45" d="M0.8,0.5L0,0l0,5.5l0.8,0.5L0.8,0.5z"/>
							</g>
							<g id="Grupo_91765-2" transform="translate(14.171 4.091)">
								<path id="Trazado_132131-2" class="st46" d="M0,0.3l0,5.5l0.6-0.3l0-5.5L0,0.3z"/>
							</g>
							<g id="Grupo_91766-2" transform="translate(13.001 4.175)">
								<path id="Trazado_132132-2" class="st44" d="M0.8,0.5L0,0l0,5.5l0.8,0.5L0.8,0.5z"/>
							</g>
							<g id="Grupo_91767-2" transform="translate(12.409 4.517)">
								<path id="Trazado_132133-2" class="st45" d="M0.8,0.5L0,0l0,5.5l0.8,0.5L0.8,0.5z"/>
							</g>
							<g id="Grupo_91768-2" transform="translate(12.044 4.727)">
								<path id="Trazado_132134-2" class="st44" d="M0.8,0.5L0,0l0,5.5l0.8,0.5L0.8,0.5z"/>
							</g>
							<g id="Grupo_91769-2" transform="translate(11.453 5.069)">
								<path id="Trazado_132135-2" class="st45" d="M0.8,0.5L0,0l0,5.5l0.8,0.5L0.8,0.5z"/>
							</g>
							<g id="Grupo_91770-2" transform="translate(11.088 5.279)">
								<path id="Trazado_132136-2" class="st44" d="M0.8,0.5L0,0l0,5.5l0.8,0.5L0.8,0.5z"/>
							</g>
							<g id="Grupo_91771-2" transform="translate(10.497 5.621)">
								<path id="Trazado_132137-2" class="st45" d="M0.8,0.5L0,0l0,5.5l0.8,0.5L0.8,0.5z"/>
							</g>
							<g id="Grupo_91772-2" transform="translate(10.131 5.832)">
								<path id="Trazado_132138-2" class="st44" d="M0.8,0.5L0,0l0,5.5l0.8,0.5L0.8,0.5z"/>
							</g>
							<g id="Grupo_91773-2" transform="translate(9.539 6.173)">
								<path id="Trazado_132139-2" class="st45" d="M0.8,0.5L0,0l0,5.5l0.8,0.5L0.8,0.5z"/>
							</g>
							<g id="Grupo_91774-2" transform="translate(9.175 6.384)">
								<path id="Trazado_132140-2" class="st44" d="M0.8,0.5L0,0l0,6.3l0.8,0.5L0.8,0.5z"/>
							</g>
							<g id="Grupo_91775-2" transform="translate(8.584 6.726)">
								<path id="Trazado_132141-2" class="st45" d="M0.8,0.5L0,0l0,6.3l0.8,0.5L0.8,0.5z"/>
							</g>
							<g id="Grupo_91776-2" transform="translate(7.642 12.39)">
								<path id="Trazado_132142-2" class="st43" d="M1.4,0.5L0.6,0L0,0.3l0.8,0.5L1.4,0.5z"/>
							</g>
							<g id="Grupo_91777-2" transform="translate(12.409 4.175)">
								<path id="Trazado_132143-2" class="st47" d="M1.4,0.5L0.6,0L0,0.3l0.8,0.5L1.4,0.5z"/>
							</g>
							<g id="Grupo_91778-2" transform="translate(13.216 4.644)">
								<path id="Trazado_132144-2" class="st46" d="M0,0.3l0,5.5l0.6-0.3l0-5.5L0,0.3z"/>
							</g>
							<g id="Grupo_91779-2" transform="translate(6.686 12.942)">
								<path id="Trazado_132145-2" class="st43" d="M1.4,0.5L0.6,0L0,0.3l0.8,0.5L1.4,0.5z"/>
							</g>
							<g id="Grupo_91780-2" transform="translate(11.452 4.727)">
								<path id="Trazado_132146-2" class="st47" d="M1.4,0.5L0.6,0L0,0.3l0.8,0.5L1.4,0.5z"/>
							</g>
							<g id="Grupo_91781-2" transform="translate(5.729 13.494)">
								<path id="Trazado_132147-2" class="st43" d="M1.4,0.5L0.6,0L0,0.3l0.8,0.5L1.4,0.5z"/>
							</g>
							<g id="Grupo_91782-2" transform="translate(10.496 5.28)">
								<path id="Trazado_132148-2" class="st47" d="M1.4,0.5L0.6,0L0,0.3l0.8,0.5L1.4,0.5z"/>
							</g>
							<g id="Grupo_91783-2" transform="translate(4.775 14.886)">
								<path id="Trazado_132149-2" class="st43" d="M1.4,0.5L0.6,0L0,0.3l0.8,0.5L1.4,0.5z"/>
							</g>
							<g id="Grupo_91784-2" transform="translate(9.54 5.832)">
								<path id="Trazado_132150-2" class="st47" d="M1.4,0.5L0.6,0L0,0.3l0.8,0.5L1.4,0.5z"/>
							</g>
							<g id="Grupo_91785-2" transform="translate(10.346 6.3)">
								<path id="Trazado_132151-2" class="st46" d="M0,0.3l0,5.5l0.6-0.3l0-5.5L0,0.3z"/>
							</g>
							<g id="Grupo_91786-2" transform="translate(8.218 6.936)">
								<path id="Trazado_132152-2" class="st44" d="M0.8,0.5L0,0l0,5.5l0.8,0.5L0.8,0.5z"/>
							</g>
							<g id="Grupo_91787-2" transform="translate(7.627 7.278)">
								<path id="Trazado_132153-2" class="st45" d="M0.8,0.5L0,0l0,5.5l0.8,0.5L0.8,0.5z"/>
							</g>
							<g id="Grupo_91788-2" transform="translate(7.262 7.488)">
								<path id="Trazado_132154-2" class="st44" d="M0.8,0.5L0,0l0,5.5l0.8,0.5L0.8,0.5z"/>
							</g>
							<g id="Grupo_91789-2" transform="translate(6.67 7.83)">
								<path id="Trazado_132155-2" class="st45" d="M0.8,0.5L0,0l0,5.5l0.8,0.5L0.8,0.5z"/>
							</g>
							<g id="Grupo_91790-2" transform="translate(6.305 8.041)">
								<path id="Trazado_132156-2" class="st44" d="M0.8,0.5L0,0l0,5.5l0.8,0.5L0.8,0.5z"/>
							</g>
							<g id="Grupo_91791-2" transform="translate(5.714 8.382)">
								<path id="Trazado_132157-2" class="st45" d="M0.8,0.5L0,0l0,5.5l0.8,0.5L0.8,0.5z"/>
							</g>
							<g id="Grupo_91792-2" transform="translate(5.349 8.593)">
								<path id="Trazado_132158-2" class="st44" d="M0.8,0.5L0,0l0,6.3l0.8,0.5L0.8,0.5z"/>
							</g>
							<g id="Grupo_91793-2" transform="translate(4.757 8.935)">
								<path id="Trazado_132159-2" class="st45" d="M0.8,0.5L0,0l0,6.3l0.8,0.5L0.8,0.5z"/>
							</g>
							<g id="Grupo_91794-2" transform="translate(3.816 14.599)">
								<path id="Trazado_132160-2" class="st43" d="M1.4,0.5L0.6,0L0,0.3l0.8,0.5L1.4,0.5z"/>
							</g>
							<g id="Grupo_91795-2" transform="translate(9.39 6.853)">
								<path id="Trazado_132161-2" class="st46" d="M0,0.3l0,6.3l0.6-0.3l0-6.3L0,0.3z"/>
							</g>
							<g id="Grupo_91796-2" transform="translate(8.583 6.384)">
								<path id="Trazado_132162-2" class="st47" d="M1.4,0.5L0.6,0L0,0.3l0.8,0.5L1.4,0.5z"/>
							</g>
							<g id="Grupo_91797-2" transform="translate(2.859 15.151)">
								<path id="Trazado_132163-2" class="st43" d="M1.4,0.5L0.6,0L0,0.3l0.8,0.5L1.4,0.5z"/>
							</g>
							<g id="Grupo_91798-2" transform="translate(7.627 6.936)">
								<path id="Trazado_132164-2" class="st47" d="M1.4,0.5L0.6,0L0,0.3l0.8,0.5L1.4,0.5z"/>
							</g>
							<g id="Grupo_91799-2" transform="translate(8.433 7.405)">
								<path id="Trazado_132165-2" class="st46" d="M0,0.3l0,5.5l0.6-0.3l0-5.5L0,0.3z"/>
							</g>
							<g id="Grupo_91800-2" transform="translate(1.906 16.542)">
								<path id="Trazado_132166-2" class="st43" d="M1.4,0.5L0.6,0L0,0.3l0.8,0.5L1.4,0.5z"/>
							</g>
							<g id="Grupo_91801-2" transform="translate(6.67 7.489)">
								<path id="Trazado_132167-2" class="st47" d="M1.4,0.5L0.6,0L0,0.3l0.8,0.5L1.4,0.5z"/>
							</g>
							<g id="Grupo_91802-2" transform="translate(6.519 8.509)">
								<path id="Trazado_132168-2" class="st46" d="M0,0.3l0,5.5l0.6-0.3l0-5.5L0,0.3z"/>
							</g>
							<g id="Grupo_91803-2" transform="translate(5.714 8.041)">
								<path id="Trazado_132169-2" class="st47" d="M1.4,0.5L0.6,0L0,0.3l0.8,0.5L1.4,0.5z"/>
							</g>
							<g id="Grupo_91804-2" transform="translate(4.757 8.593)">
								<path id="Trazado_132170-2" class="st47" d="M1.4,0.5L0.6,0L0,0.3l0.8,0.5L1.4,0.5z"/>
							</g>
							<g id="Grupo_91805-2" transform="translate(5.564 9.061)">
								<path id="Trazado_132171-2" class="st46" d="M0,0.3l0,6.3l0.6-0.3l0-6.3L0,0.3z"/>
							</g>
							<g id="Grupo_91806-2" transform="translate(4.393 9.145)">
								<path id="Trazado_132172-2" class="st44" d="M0.8,0.5L0,0l0,5.5l0.8,0.5L0.8,0.5z"/>
							</g>
							<g id="Grupo_91807-2" transform="translate(3.801 9.487)">
								<path id="Trazado_132173-2" class="st45" d="M0.8,0.5L0,0l0,5.5l0.8,0.5L0.8,0.5z"/>
							</g>
							<g id="Grupo_91808-2" transform="translate(3.801 9.145)">
								<path id="Trazado_132174-2" class="st47" d="M1.4,0.5L0.6,0L0,0.3l0.8,0.5L1.4,0.5z"/>
							</g>
							<g id="Grupo_91809-2" transform="translate(3.436 9.697)">
								<path id="Trazado_132175-2" class="st44" d="M0.8,0.5L0,0l0,5.5l0.8,0.5L0.8,0.5z"/>
							</g>
							<g id="Grupo_91810-2" transform="translate(2.845 10.039)">
								<path id="Trazado_132176-2" class="st45" d="M0.8,0.5L0,0l0,5.5l0.8,0.5L0.8,0.5z"/>
							</g>
							<g id="Grupo_91811-2" transform="translate(3.65 10.166)">
								<path id="Trazado_132177-2" class="st46" d="M0,0.3l0,5.5l0.6-0.3l0-5.5L0,0.3z"/>
							</g>
							<g id="Grupo_91812-2" transform="translate(2.844 9.698)">
								<path id="Trazado_132178-2" class="st47" d="M1.4,0.5L0.6,0L0,0.3l0.8,0.5L1.4,0.5z"/>
							</g>
							<g id="Grupo_91813-2" transform="translate(2.479 10.25)">
								<path id="Trazado_132179-2" class="st44" d="M0.8,0.5L0,0l0,6.3l0.8,0.5L0.8,0.5z"/>
							</g>
							<g id="Grupo_91814-2" transform="translate(1.888 10.25)">
								<path id="Trazado_132180-2" class="st47" d="M1.4,0.5L0.6,0L0,0.3l0.8,0.5L1.4,0.5z"/>
							</g>
							<g id="Grupo_91815-2" transform="translate(1.888 10.591)">
								<path id="Trazado_132181-2" class="st45" d="M0.8,0.5L0,0l0,6.3l0.8,0.5L0.8,0.5z"/>
							</g>
							<g id="Grupo_91816-2" transform="translate(0.806 0.468)">
								<path id="Trazado_132182-2" class="st48" d="M17.8,0L0,10.3l0,8.9L17.8,8.9L17.8,0z M4.8,15.2l0-6.3l0.6-0.3l0,6.3L4.8,15.2
									L4.8,15.2z M15.3,9.2l0-6.3l0.6-0.3l0,6.3L15.3,9.2L15.3,9.2z M8.6,13l0-6.3l0.6-0.3l0,6.3L8.6,13z M1.9,16.9l0-6.3l0.6-0.3
									l0,6.3L1.9,16.9L1.9,16.9z M10.5,11.1l0-5.5l0.6-0.3l0,5.5L10.5,11.1L10.5,11.1z M2.8,15.5l0-5.5l0.6-0.3l0,5.5L2.8,15.5
									L2.8,15.5z M3.8,14.9l0-5.5l0.6-0.3l0,5.5L3.8,14.9L3.8,14.9z M7.6,12.7l0-5.5l0.6-0.3l0,5.5L7.6,12.7L7.6,12.7z M6.7,13.3
									l0-5.5l0.6-0.3l0,5.5L6.7,13.3L6.7,13.3z M14.3,8.9l0-5.5l0.6-0.3l0,5.5L14.3,8.9z M11.5,10.5l0-5.5L12,4.7l0,5.5L11.5,10.5
									z M12.4,10l0-5.5L13,4.2l0,5.5L12.4,10z M9.5,11.6l0-5.5l0.6-0.3l0,5.5L9.5,11.6z M13.4,9.4l0-5.5l0.6-0.3l0,5.5L13.4,9.4z
									 M5.7,13.8l0-5.5L6.3,8l0,5.5L5.7,13.8z"/>
							</g>
							<g id="Grupo_91817-2" transform="translate(12.259 5.196)">
								<path id="Trazado_132183-2" class="st46" d="M0,0.3l0,5.5l0.6-0.3l0-5.5L0,0.3z"/>
							</g>
							<g id="Grupo_91818-2" transform="translate(11.302 5.748)">
								<path id="Trazado_132184-2" class="st46" d="M0,0.3l0,5.5l0.6-0.3l0-5.5L0,0.3z"/>
							</g>
							<g id="Grupo_91819-2" transform="translate(7.476 7.957)">
								<path id="Trazado_132185-2" class="st46" d="M0,0.3l0,5.5l0.6-0.3l0-5.5L0,0.3z"/>
							</g>
							<g id="Grupo_91820-2" transform="translate(4.607 9.614)">
								<path id="Trazado_132186-2" class="st46" d="M0,0.3l0,5.5l0.6-0.3l0-5.5L0,0.3z"/>
							</g>
							<g id="Grupo_91821-2" transform="translate(2.694 10.718)">
								<path id="Trazado_132187-2" class="st46" d="M0,0.3l0,6.3l0.6-0.3l0-6.3L0,0.3z"/>
							</g>
							<g id="Grupo_91822-2">
								<path id="Trazado_132188-2" class="st43" d="M18.6,0.5L17.8,0L0,10.3l0.8,0.5L18.6,0.5z"/>
							</g>
							<g id="Grupo_91823-2" transform="translate(0 10.286)">
								<path id="Trazado_132189-2" class="st44" d="M0.8,0.5L0,0l0,8.9l0.8,0.5L0.8,0.5z"/>
							</g>
						</g>
					</g>
					<g id="Grupo_91845-2" transform="translate(0.001)">
						<g id="Grupo_91844-2" transform="translate(0)">
							<g id="Grupo_91826-2" transform="translate(16.321 6.838)">
								<path id="Trazado_132190-2" class="st49" d="M0.8,0.5L0,0v0.8l0.8,0.5V0.5z"/>
							</g>
							<g id="Grupo_91827-2" transform="translate(16.312 3.499)">
								<path id="Trazado_132191-2" class="st49" d="M0.8,0.5L0,0v0.8l0.8,0.5L0.8,0.5z"/>
							</g>
							<g id="Grupo_91828-2" transform="translate(16.307 2.173)">
								<path id="Trazado_132192-2" class="st49" d="M0.8,0.5L0,0v0.8l0.8,0.5L0.8,0.5z"/>
							</g>
							<g id="Grupo_91829-2" transform="translate(10.074 7.686)">
								<path id="Trazado_132193-2" class="st50" d="M7.1,0.5L6.2,0L0,3.6l0.8,0.5L7.1,0.5z"/>
							</g>
							<g id="Grupo_91830-2" transform="translate(10.071 10.447)">
								<path id="Trazado_132194-2" class="st51" d="M0.8,0.5L0,0v0.8l0.8,0.5L0.8,0.5z"/>
							</g>
							<g id="Grupo_91831-2" transform="translate(10.071 6.838)">
								<path id="Trazado_132195-2" class="st52" d="M7.1,0.5L6.2,0L0,3.6l0.8,0.5L7.1,0.5z"/>
							</g>
							<g id="Grupo_91832-2" transform="translate(10.064 4.346)">
								<path id="Trazado_132196-2" class="st50" d="M7.1,0.5L6.2,0L0,3.6l0.8,0.5L7.1,0.5z"/>
							</g>
							<g id="Grupo_91833-2" transform="translate(10.061 3.499)">
								<path id="Trazado_132197-2" class="st52" d="M7.1,0.5L6.3,0L0,3.6l0.8,0.5L7.1,0.5z"/>
							</g>
							<g id="Grupo_91834-2" transform="translate(10.061 7.107)">
								<path id="Trazado_132198-2" class="st51" d="M0.8,0.5L0,0v0.8l0.8,0.5L0.8,0.5z"/>
							</g>
							<g id="Grupo_91835-2" transform="translate(6.007 3.021)">
								<path id="Trazado_132199-2" class="st50" d="M11.1,0.5L10.3,0L0,5.9l0.8,0.5L11.1,0.5z"/>
							</g>
							<g id="Grupo_91836-2" transform="translate(6.005 2.173)">
								<path id="Trazado_132200-2" class="st52" d="M11.1,0.5L10.3,0L0,5.9l0.8,0.5L11.1,0.5z"/>
							</g>
							<g id="Grupo_91837-2" transform="translate(6.005 8.121)">
								<path id="Trazado_132201-2" class="st51" d="M0.8,0.5L0,0v0.8l0.8,0.5L0.8,0.5z"/>
							</g>
							<g id="Grupo_91838-2" transform="translate(0.806 0.468)">
								<path id="Trazado_132202-2" class="st53" d="M17.8,0L0,10.3l0,8.3L17.8,8.3L17.8,0z M6,9V8.1l10.3-5.9V3L6,9L6,9z M10.1,8
									V7.1l6.2-3.6v0.8L10.1,8z M10.1,11.3v-0.8l6.2-3.6v0.8L10.1,11.3L10.1,11.3z"/>
							</g>
							<g id="Grupo_91839-2" transform="translate(10.877 7.307)">
								<path id="Trazado_132203-2" class="st54" d="M0,3.6v0.8l6.2-3.6V0L0,3.6z"/>
							</g>
							<g id="Grupo_91840-2" transform="translate(10.867 3.967)">
								<path id="Trazado_132204-2" class="st54" d="M0,3.6v0.8l6.2-3.6V0L0,3.6z"/>
							</g>
							<g id="Grupo_91841-2" transform="translate(6.811 2.642)">
								<path id="Trazado_132205-2" class="st54" d="M0,5.9v0.8l10.3-5.9V0L0,5.9z"/>
							</g>
							<g id="Grupo_91842-2">
								<path id="Trazado_132206-2" class="st50" d="M18.6,0.5L17.8,0L0,10.3l0.8,0.5L18.6,0.5z"/>
							</g>
							<g id="Grupo_91843-2" transform="translate(0 10.286)">
								<path id="Trazado_132207-2" class="st49" d="M0.8,0.5L0,0l0,8.3l0.8,0.5L0.8,0.5z"/>
							</g>
						</g>
					</g>
				</g>
			</g>
		</g>
	</g>
</g>
</svg>
