<?xml version="1.0" encoding="utf-8"?>
<!-- Generator: Adobe Illustrator 25.2.3, SVG Export Plug-In . SVG Version: 6.00 Build 0)  -->
<svg version="1.1" id="Capa_1" xmlns="http://www.w3.org/2000/svg" xmlns:xlink="http://www.w3.org/1999/xlink" x="0px" y="0px"
	 viewBox="0 0 224.8 233.2" style="enable-background:new 0 0 224.8 233.2;" xml:space="preserve">
<style type="text/css">
	.st0{opacity:0.12;}
	.st1{fill:#231F20;fill-opacity:0;}
	.st2{opacity:3.200000e-02;fill:#231F20;enable-background:new    ;}
	.st3{opacity:6.500000e-02;fill:#231F20;enable-background:new    ;}
	.st4{opacity:9.700000e-02;fill:#231F20;enable-background:new    ;}
	.st5{opacity:0.129;fill:#231F20;enable-background:new    ;}
	.st6{opacity:0.161;fill:#231F20;enable-background:new    ;}
	.st7{opacity:0.194;fill:#231F20;enable-background:new    ;}
	.st8{opacity:0.226;fill:#231F20;enable-background:new    ;}
	.st9{opacity:0.258;fill:#231F20;enable-background:new    ;}
	.st10{opacity:0.29;fill:#231F20;enable-background:new    ;}
	.st11{opacity:0.323;fill:#231F20;enable-background:new    ;}
	.st12{opacity:0.355;fill:#231F20;enable-background:new    ;}
	.st13{opacity:0.387;fill:#231F20;enable-background:new    ;}
	.st14{opacity:0.419;fill:#231F20;enable-background:new    ;}
	.st15{opacity:0.452;fill:#231F20;enable-background:new    ;}
	.st16{opacity:0.484;fill:#231F20;enable-background:new    ;}
	.st17{opacity:0.516;fill:#231F20;enable-background:new    ;}
	.st18{opacity:0.548;fill:#231F20;enable-background:new    ;}
	.st19{opacity:0.581;fill:#231F20;enable-background:new    ;}
	.st20{opacity:0.613;fill:#231F20;enable-background:new    ;}
	.st21{opacity:0.645;fill:#231F20;enable-background:new    ;}
	.st22{opacity:0.677;fill:#231F20;enable-background:new    ;}
	.st23{opacity:0.71;fill:#231F20;enable-background:new    ;}
	.st24{opacity:0.742;fill:#231F20;enable-background:new    ;}
	.st25{opacity:0.774;fill:#231F20;enable-background:new    ;}
	.st26{opacity:0.806;fill:#231F20;enable-background:new    ;}
	.st27{opacity:0.839;fill:#231F20;enable-background:new    ;}
	.st28{opacity:0.871;fill:#231F20;enable-background:new    ;}
	.st29{opacity:0.903;fill:#231F20;enable-background:new    ;}
	.st30{opacity:0.935;fill:#231F20;enable-background:new    ;}
	.st31{opacity:0.968;fill:#231F20;enable-background:new    ;}
	.st32{fill:#231F20;}
	.st33{fill:url(#Trazado_150247_1_);}
	.st34{opacity:0.5;fill:url(#Trazado_150248_1_);enable-background:new    ;}
	.st35{fill:#638BD0;}
	.st36{fill:url(#Elipse_4853_1_);}
	.st37{fill:#354E66;}
	.st38{fill:#293644;}
	.st39{fill:#1B2735;}
	.st40{fill:#FEC110;}
	.st41{fill:#D4D4D4;}
	.st42{fill:#EB9100;}
</style>
<g id="Grupo_102541" transform="translate(-1107 -3975.688)">
	<g id="Grupo_96748" transform="translate(1107 4141.639)" class="st0">
		<ellipse id="Elipse_4820" class="st1" cx="144.5" cy="37.5" rx="80.3" ry="29.7"/>
		<ellipse id="Elipse_4821" class="st2" cx="142.4" cy="37.2" rx="80.3" ry="29.7"/>
		<ellipse id="Elipse_4822" class="st3" cx="140.3" cy="37" rx="80.3" ry="29.7"/>
		<ellipse id="Elipse_4823" class="st4" cx="138.3" cy="36.7" rx="80.3" ry="29.7"/>
		<ellipse id="Elipse_4824" class="st5" cx="136.2" cy="36.5" rx="80.3" ry="29.7"/>
		<ellipse id="Elipse_4825" class="st6" cx="134.1" cy="36.2" rx="80.3" ry="29.7"/>
		<ellipse id="Elipse_4826" class="st7" cx="132.1" cy="36" rx="80.3" ry="29.7"/>
		<ellipse id="Elipse_4827" class="st8" cx="130" cy="35.7" rx="80.3" ry="29.7"/>
		<ellipse id="Elipse_4828" class="st9" cx="127.9" cy="35.5" rx="80.3" ry="29.7"/>
		<ellipse id="Elipse_4829" class="st10" cx="125.9" cy="35.2" rx="80.3" ry="29.7"/>
		<ellipse id="Elipse_4830" class="st11" cx="123.8" cy="35" rx="80.3" ry="29.7"/>
		<ellipse id="Elipse_4831" class="st12" cx="121.7" cy="34.7" rx="80.3" ry="29.7"/>
		<ellipse id="Elipse_4832" class="st13" cx="119.6" cy="34.5" rx="80.3" ry="29.7"/>
		<ellipse id="Elipse_4833" class="st14" cx="117.6" cy="34.2" rx="80.3" ry="29.7"/>
		<ellipse id="Elipse_4834" class="st15" cx="115.5" cy="34" rx="80.3" ry="29.7"/>
		<ellipse id="Elipse_4835" class="st16" cx="113.4" cy="33.7" rx="80.3" ry="29.7"/>
		<ellipse id="Elipse_4836" class="st17" cx="111.4" cy="33.5" rx="80.3" ry="29.7"/>
		<ellipse id="Elipse_4837" class="st18" cx="109.3" cy="33.2" rx="80.3" ry="29.7"/>
		<ellipse id="Elipse_4838" class="st19" cx="107.2" cy="33" rx="80.3" ry="29.7"/>
		<ellipse id="Elipse_4839" class="st20" cx="105.1" cy="32.7" rx="80.3" ry="29.7"/>
		<ellipse id="Elipse_4840" class="st21" cx="103.1" cy="32.5" rx="80.3" ry="29.7"/>
		<ellipse id="Elipse_4841" class="st22" cx="101" cy="32.2" rx="80.3" ry="29.7"/>
		<ellipse id="Elipse_4842" class="st23" cx="98.9" cy="32" rx="80.3" ry="29.7"/>
		<ellipse id="Elipse_4843" class="st24" cx="96.9" cy="31.7" rx="80.3" ry="29.7"/>
		<ellipse id="Elipse_4844" class="st25" cx="94.8" cy="31.5" rx="80.3" ry="29.7"/>
		<ellipse id="Elipse_4845" class="st26" cx="92.7" cy="31.2" rx="80.3" ry="29.7"/>
		<ellipse id="Elipse_4846" class="st27" cx="90.7" cy="31" rx="80.3" ry="29.7"/>
		<ellipse id="Elipse_4847" class="st28" cx="88.6" cy="30.7" rx="80.3" ry="29.7"/>
		<ellipse id="Elipse_4848" class="st29" cx="86.5" cy="30.5" rx="80.3" ry="29.7"/>
		<ellipse id="Elipse_4849" class="st30" cx="84.4" cy="30.2" rx="80.3" ry="29.7"/>
		<ellipse id="Elipse_4850" class="st31" cx="82.4" cy="30" rx="80.3" ry="29.7"/>
		<ellipse id="Elipse_4851" class="st32" cx="80.3" cy="29.7" rx="80.3" ry="29.7"/>
	</g>
	
		<linearGradient id="Trazado_150247_1_" gradientUnits="userSpaceOnUse" x1="-189.875" y1="5492.6665" x2="-188.875" y2="5492.6665" gradientTransform="matrix(160.6157 0 0 -75.7251 31603.9121 420095.9062)">
		<stop  offset="0" style="stop-color:#66598E"/>
		<stop  offset="1" style="stop-color:#66598E"/>
	</linearGradient>
	<path id="Trazado_150247" class="st33" d="M1107,4125.3v47.8h0.1c2.5,15.6,37.4,27.9,80.2,27.9s77.7-12.3,80.2-27.9h0.1v-47.8H1107
		z"/>
	
		<linearGradient id="Trazado_150248_1_" gradientUnits="userSpaceOnUse" x1="-189.016" y1="5492.6665" x2="-189.768" y2="5492.6665" gradientTransform="matrix(160.6157 0 0 -75.7251 31603.9121 420095.9062)">
		<stop  offset="0" style="stop-color:#231F20"/>
		<stop  offset="1" style="stop-color:#FFFFFF"/>
	</linearGradient>
	<path id="Trazado_150248" class="st34" d="M1107,4125.3v47.8h0.1c2.5,15.6,37.4,27.9,80.2,27.9s77.7-12.3,80.2-27.9h0.1v-47.8H1107
		z"/>
	<ellipse id="Elipse_4852" class="st35" cx="1187.3" cy="4127" rx="80.3" ry="29.7"/>
	
		<linearGradient id="Elipse_4853_1_" gradientUnits="userSpaceOnUse" x1="-188.883" y1="5487.9604" x2="-189.867" y2="5487.9604" gradientTransform="matrix(160.616 0 0 -59.434 31603.9668 330297.1875)">
		<stop  offset="0" style="stop-color:#66598E"/>
		<stop  offset="1" style="stop-color:#66598E"/>
	</linearGradient>
	<ellipse id="Elipse_4853" class="st36" cx="1187.3" cy="4125.7" rx="80.3" ry="29.7"/>
	
		<image style="overflow:visible;enable-background:new    ;" width="1564" height="580" id="Rectángulo_34092" xlink:href="1D4F28FE.png"  transform="matrix(9.826855e-02 0 0 9.826855e-02 1110.431 4097.2461)">
	</image>
	<g id="Grupo_100947" transform="translate(1082.909 3947.327)">
		<g id="Grupo_100924">
			<g id="Grupo_100922">
				<g id="Grupo_100915">
					<ellipse id="Elipse_4959" class="st37" cx="111.4" cy="129.5" rx="24" ry="13.9"/>
					<g id="Grupo_100914">
						<path id="Trazado_155812" class="st38" d="M128.3,139.3c-9.4,5.4-24.6,5.4-33.9,0c-4.7-2.7-7-6.2-7-9.8v1c0,3.6,2.3,7.1,7,9.8
							c9.4,5.4,24.6,5.4,33.9,0c4.7-2.7,7-6.3,7-9.8v-1.1C135.4,133.1,133,136.6,128.3,139.3z"/>
					</g>
				</g>
				<path id="Trazado_155813" class="st39" d="M129.2,116.8c-9.9,5.7-25.9,5.7-35.7,0c-2.1-1.2-4-2.7-5.4-4.7V128
					c-0.5,3.8,1.8,7.6,6.8,10.5c9.1,5.3,23.9,5.3,33,0c4.5-2.6,6.8-6,6.8-9.4l0,0v0c0-0.1,0-0.2,0-0.3V112
					C133.3,114,131.4,115.6,129.2,116.8z"/>
				<g id="Grupo_100917">
					<ellipse id="Elipse_4960" class="st37" cx="111.4" cy="110.1" rx="24" ry="13.9"/>
					<g id="Grupo_100916">
						<path id="Trazado_155814" class="st38" d="M128.3,119.9c-9.4,5.4-24.6,5.4-33.9,0c-4.7-2.7-7-6.2-7-9.8v1c0,3.6,2.3,7.1,7,9.8
							c9.4,5.4,24.6,5.4,33.9,0c4.7-2.7,7-6.3,7-9.8v-1.1C135.4,113.7,133,117.2,128.3,119.9z"/>
					</g>
				</g>
				<path id="Trazado_155815" class="st39" d="M129.2,97.4c-9.9,5.7-25.9,5.7-35.7,0c-2.1-1.2-4-2.7-5.4-4.7v15.9
					c-0.5,3.8,1.8,7.6,6.8,10.5c9.1,5.3,23.9,5.3,33,0c4.5-2.6,6.8-6,6.8-9.4l0,0v0c0-0.1,0-0.2,0-0.3V92.6
					C133.3,94.6,131.4,96.2,129.2,97.4z"/>
				<g id="Grupo_100919">
					<ellipse id="Elipse_4961" class="st37" cx="111.4" cy="88.7" rx="24" ry="13.9"/>
					<g id="Grupo_100918">
						<path id="Trazado_155816" class="st38" d="M128.3,98.5c-9.4,5.4-24.6,5.4-33.9,0c-4.7-2.7-7-6.2-7-9.8v1c0,3.6,2.3,7.1,7,9.8
							c9.4,5.4,24.6,5.4,33.9,0c4.7-2.7,7-6.3,7-9.8v-1.1C135.4,92.2,133,95.8,128.3,98.5z"/>
					</g>
				</g>
				<g id="Grupo_100920">
					<ellipse id="Elipse_4962" class="st37" cx="111.4" cy="71.9" rx="25.3" ry="14.6"/>
					<ellipse id="Elipse_4963" class="st38" cx="111.4" cy="71.9" rx="23.4" ry="13.5"/>
					<path id="Trazado_155817" class="st39" d="M94.9,64.3c9.1-5.3,23.9-5.3,33,0c4.1,2.4,6.4,5.5,6.8,8.6c0.5-3.8-1.8-7.6-6.8-10.5
						c-9.1-5.3-23.9-5.3-33,0c-5,2.9-7.2,6.7-6.8,10.5C88.5,69.7,90.7,66.6,94.9,64.3z"/>
					<path id="Trazado_155818" class="st38" d="M129.2,82.2c-9.9,5.7-25.9,5.7-35.7,0c-4.9-2.8-7.4-6.6-7.4-10.3V74
						c0,3.7,2.5,7.5,7.4,10.4c9.9,5.7,25.9,5.7,35.7,0c4.9-2.8,7.4-6.6,7.4-10.3v-2.1C136.6,75.6,134.2,79.4,129.2,82.2z"/>
				</g>
				<g id="Grupo_100921">
					<path id="Trazado_155819" class="st39" d="M129.2,84.4c-9.9,5.7-25.9,5.7-35.7,0c-2.1-1.2-4-2.7-5.4-4.7V87
						c-0.5,3.8,1.8,7.6,6.8,10.5c9.1,5.3,23.9,5.3,33,0c4.5-2.6,6.8-6,6.8-9.4l0,0l0,0c0-0.1,0-0.2,0-0.3v-8.2
						C133.3,81.6,131.4,83.2,129.2,84.4z"/>
				</g>
			</g>
			<g id="Grupo_100923">
				<path id="Trazado_155820" class="st40" d="M109.7,72.9c1.4,0.8,2.2,1.7,2.2,2.5s-0.6,1.7-2,2.5c-1.3,0.8-2.8,1.2-4.2,1.1
					c-1.5,0-3.1-0.5-4.4-1.3c-1.4-0.8-2.2-1.7-2.2-2.5c0-0.9,0.6-1.7,2-2.5c1.3-0.8,2.7-1.2,4.2-1.1
					C106.8,71.6,108.3,72.1,109.7,72.9z M103.7,76.3c1.7,1,3.1,1.1,4.2,0.4c0.6-0.3,0.8-0.7,0.7-1.1c-0.1-0.4-0.6-0.8-1.5-1.3
					c-0.7-0.4-1.5-0.7-2.3-0.8c-0.7-0.1-1.3,0.1-1.9,0.4C101.8,74.5,102.1,75.3,103.7,76.3z"/>
				<path id="Trazado_155821" class="st40" d="M115.5,74.5l-8.6-5l2.3-1.3l8.6,5L115.5,74.5z"/>
				<path id="Trazado_155822" class="st40" d="M119.7,72.1l-8.6-5l2.3-1.3l6.7,3.9l3.3-1.9l1.9,1.1L119.7,72.1z"/>
			</g>
			<path id="Trazado_155823" class="st41" d="M128.3,140.4c4.7-2.7,7-6.3,7-9.8v-1.1c0-1.1-0.2-2.2-0.6-3.2v-11.9
				c0.4-1,0.6-2.1,0.6-3.2v-1.1c0-1.1-0.2-2.2-0.6-3.2V93c0.4-1,0.6-2.1,0.6-3.2v-1.1c0,0.1,0,0.1,0,0.2c0-1.2-0.2-2.3-0.6-3.4v-5.9
				c-0.7,0.9-1.4,1.7-2.3,2.5c-0.1,0-0.1,0.1-0.2,0.1c-0.2,0.2-0.4,0.3-0.6,0.5c-0.1,0.1-0.2,0.2-0.3,0.3c-0.1,0.1-0.3,0.2-0.4,0.3
				c-0.2,0.1-0.3,0.2-0.5,0.3c-0.1,0.1-0.2,0.1-0.3,0.2c-0.3,0.2-0.6,0.4-0.9,0.5c-0.7,0.4-1.3,0.7-2.1,1.1
				c-1.2,17.8-3.9,39.4-10,58.6C121.1,143.6,124.9,142.3,128.3,140.4z"/>
		</g>
		<g id="Grupo_100935">
			<g id="Grupo_100933">
				<g id="Grupo_100926">
					<ellipse id="Elipse_4964" class="st37" cx="72.1" cy="147" rx="24" ry="13.9"/>
					<g id="Grupo_100925">
						<path id="Trazado_155824" class="st38" d="M89.1,156.8c-9.4,5.4-24.6,5.4-33.9,0c-4.7-2.7-7-6.2-7-9.8v1c0,3.6,2.3,7.1,7,9.8
							c9.4,5.4,24.6,5.4,33.9,0c4.7-2.7,7-6.3,7-9.8V147C96.1,150.5,93.8,154.1,89.1,156.8z"/>
					</g>
				</g>
				<path id="Trazado_155825" class="st39" d="M90,134.2c-9.9,5.7-25.9,5.7-35.7,0c-2.1-1.2-4-2.7-5.4-4.7v15.9
					c-0.5,3.8,1.8,7.6,6.8,10.5c9.1,5.3,23.9,5.3,33,0c4.5-2.6,6.8-6,6.8-9.4l0,0l0,0c0-0.1,0-0.2,0-0.3v-16.8
					C94,131.4,92.1,133,90,134.2z"/>
				<g id="Grupo_100928">
					<ellipse id="Elipse_4965" class="st37" cx="72.1" cy="127.6" rx="24" ry="13.9"/>
					<g id="Grupo_100927">
						<path id="Trazado_155826" class="st38" d="M89.1,137.4c-9.4,5.4-24.6,5.4-33.9,0c-4.7-2.7-7-6.2-7-9.8v1c0,3.6,2.3,7.1,7,9.8
							c9.4,5.4,24.6,5.4,33.9,0c4.7-2.7,7-6.3,7-9.8v-1.1C96.1,131.1,93.8,134.7,89.1,137.4z"/>
					</g>
				</g>
				<path id="Trazado_155827" class="st39" d="M90,114.8c-9.9,5.7-25.9,5.7-35.7,0c-2.1-1.2-4-2.7-5.4-4.7V126
					c-0.5,3.8,1.8,7.6,6.8,10.5c9.1,5.3,23.9,5.3,33,0c4.5-2.6,6.8-6,6.8-9.4l0,0l0,0c0-0.1,0-0.2,0-0.3v-16.8
					C94,112,92.1,113.6,90,114.8z"/>
				<g id="Grupo_100930">
					<ellipse id="Elipse_4966" class="st37" cx="72.1" cy="106.1" rx="24" ry="13.9"/>
					<g id="Grupo_100929">
						<path id="Trazado_155828" class="st38" d="M89.1,115.9c-9.4,5.4-24.6,5.4-33.9,0c-4.7-2.7-7-6.2-7-9.8v1c0,3.6,2.3,7.1,7,9.8
							c9.4,5.4,24.6,5.4,33.9,0c4.7-2.7,7-6.3,7-9.8v-1.1C96.1,109.7,93.8,113.2,89.1,115.9z"/>
					</g>
				</g>
				<g id="Grupo_100931">
					<ellipse id="Elipse_4967" class="st37" cx="72.1" cy="89.3" rx="25.3" ry="14.6"/>
					<ellipse id="Elipse_4968" class="st38" cx="72.1" cy="89.3" rx="23.4" ry="13.5"/>
					<path id="Trazado_155829" class="st39" d="M55.6,81.7c9.1-5.3,23.9-5.3,33,0c4.1,2.4,6.4,5.5,6.8,8.6c0.5-3.8-1.8-7.6-6.8-10.5
						c-9.1-5.3-23.9-5.3-33,0c-5,2.9-7.2,6.7-6.8,10.5C49.2,87.2,51.4,84.1,55.6,81.7z"/>
					<path id="Trazado_155830" class="st38" d="M90,99.6c-9.9,5.7-25.9,5.7-35.7,0c-4.9-2.8-7.4-6.6-7.4-10.3v2.1
						c0,3.7,2.5,7.5,7.4,10.4c9.9,5.7,25.9,5.7,35.7,0c4.9-2.8,7.4-6.6,7.4-10.3v-2.1C97.4,93.1,94.9,96.8,90,99.6z"/>
				</g>
				<g id="Grupo_100932">
					<path id="Trazado_155831" class="st39" d="M90,101.8c-9.9,5.7-25.9,5.7-35.7,0c-2.1-1.2-4-2.7-5.4-4.7v7.3
						c-0.5,3.8,1.8,7.6,6.8,10.5c9.1,5.3,23.9,5.3,33,0c4.5-2.6,6.8-6,6.8-9.4l0,0l0,0c0-0.1,0-0.2,0-0.3v-8.2
						C94,99,92.1,100.6,90,101.8z"/>
				</g>
			</g>
			<g id="Grupo_100934">
				<path id="Trazado_155832" class="st40" d="M70.4,90.3c1.4,0.8,2.2,1.7,2.2,2.5s-0.6,1.7-2,2.5c-1.3,0.8-2.8,1.2-4.2,1.1
					c-1.5,0-3.1-0.5-4.4-1.3c-1.4-0.8-2.2-1.7-2.2-2.5c0-0.8,0.6-1.7,2-2.5c1.3-0.8,2.7-1.2,4.2-1.1C67.6,89.1,69.1,89.5,70.4,90.3z
					 M64.5,93.8c1.7,1,3.1,1.1,4.2,0.4c0.6-0.3,0.8-0.7,0.7-1.1c-0.1-0.4-0.6-0.8-1.5-1.3c-0.7-0.4-1.5-0.7-2.3-0.8
					c-0.7-0.1-1.3,0.1-1.9,0.4C62.5,92,62.8,92.8,64.5,93.8z"/>
				<path id="Trazado_155833" class="st40" d="M76.3,91.9l-8.6-5l2.3-1.3l8.6,5L76.3,91.9z"/>
				<path id="Trazado_155834" class="st40" d="M80.5,89.5l-8.6-5l2.3-1.3l6.7,3.9l3.3-1.9l1.9,1.1L80.5,89.5z"/>
			</g>
			<path id="Trazado_155835" class="st41" d="M89.1,157.9c4.7-2.7,7-6.3,7-9.8V147c0-1.1-0.2-2.2-0.6-3.2v-11.9
				c0.4-1,0.6-2.1,0.6-3.2v-1.1c0-1.1-0.2-2.2-0.6-3.2v-14c0.4-1,0.6-2.1,0.6-3.2v-1.1c0,0.1,0,0.1,0,0.2c0-1.2-0.2-2.3-0.6-3.4
				v-5.9c-0.7,0.9-1.4,1.7-2.3,2.5c0,0-0.1,0.1-0.2,0.1c-0.2,0.2-0.4,0.3-0.6,0.5c-0.1,0.1-0.2,0.2-0.3,0.3
				c-0.1,0.1-0.3,0.2-0.4,0.3c-0.2,0.1-0.3,0.2-0.5,0.3c-0.1,0.1-0.2,0.1-0.3,0.2c-0.3,0.2-0.6,0.4-0.9,0.5
				c-0.7,0.4-1.3,0.7-2.1,1.1c-1.2,17.8-3.9,39.4-10,58.6C81.8,161,85.6,159.8,89.1,157.9z"/>
		</g>
		<g id="Grupo_100946">
			<g id="Grupo_100944">
				<g id="Grupo_100937">
					
						<ellipse id="Elipse_4969" transform="matrix(0.8698 -0.4935 0.4935 0.8698 -50.9332 89.0782)" class="st39" cx="143.3" cy="141" rx="13.9" ry="24"/>
					<g id="Grupo_100936">
						<path id="Trazado_155836" class="st37" d="M143.4,121.4c9.3,5.5,16.8,18.7,16.7,29.5c0,5.4-2,9.2-5,10.9l0.9-0.5
							c3.1-1.7,5-5.5,5.1-11c0.1-10.8-7.4-24-16.7-29.5c-4.7-2.7-8.9-3-12-1.3l-0.9,0.5C134.6,118.4,138.8,118.7,143.4,121.4z"/>
					</g>
				</g>
				<path id="Trazado_155837" class="st38" d="M123.4,131.8c9.8,5.8,17.7,19.7,17.6,31.1c0,2.4-0.4,4.8-1.4,7l13.8-7.8
					c3.5-1.5,5.7-5.3,5.8-11.1c0.1-10.5-7.2-23.4-16.3-28.7c-4.5-2.6-8.5-2.9-11.5-1.3l0,0l0,0c-0.1,0-0.2,0.1-0.3,0.2l-14.6,8.3
					C119,129.7,121.3,130.5,123.4,131.8z"/>
				<g id="Grupo_100939">
					
						<ellipse id="Elipse_4970" transform="matrix(0.8698 -0.4935 0.4935 0.8698 -57.856 81.9971)" class="st39" cx="126.4" cy="150.6" rx="13.9" ry="24"/>
					<g id="Grupo_100938">
						<path id="Trazado_155838" class="st37" d="M126.6,131c9.3,5.5,16.8,18.7,16.7,29.5c0,5.4-2,9.2-5,10.9l0.9-0.5
							c3.1-1.7,5-5.5,5.1-11c0.1-10.8-7.4-24-16.7-29.5c-4.7-2.7-8.9-3-12-1.3l-0.9,0.5C117.7,128,121.9,128.3,126.6,131z"/>
					</g>
				</g>
				<path id="Trazado_155839" class="st38" d="M106.5,141.4c9.8,5.8,17.7,19.7,17.6,31.1c0,2.4-0.4,4.8-1.4,7l13.8-7.8
					c3.5-1.5,5.7-5.3,5.8-11.1c0.1-10.5-7.2-23.4-16.3-28.7c-4.5-2.6-8.5-2.9-11.5-1.3l0,0l0,0c-0.1,0.1-0.2,0.1-0.3,0.2l-14.6,8.3
					C102.1,139.2,104.4,140.1,106.5,141.4z"/>
				<g id="Grupo_100941">
					
						<ellipse id="Elipse_4971" transform="matrix(0.8698 -0.4935 0.4935 0.8698 -65.5047 74.1728)" class="st39" cx="107.8" cy="161.2" rx="13.9" ry="24"/>
					<g id="Grupo_100940">
						<path id="Trazado_155840" class="st37" d="M107.9,141.6c9.3,5.5,16.8,18.7,16.7,29.5c0,5.4-2,9.2-5,10.9l0.9-0.5
							c3.1-1.7,5-5.5,5.1-11c0.1-10.8-7.4-24-16.7-29.5c-4.7-2.7-8.9-3-12-1.3l-0.9,0.5C99,138.6,103.3,138.9,107.9,141.6z"/>
					</g>
				</g>
				<g id="Grupo_100942">
					
						<ellipse id="Elipse_4972" transform="matrix(0.87 -0.493 0.493 0.87 -71.4579 67.9514)" class="st38" cx="93.1" cy="169.5" rx="14.6" ry="25.3"/>
					
						<ellipse id="Elipse_4973" transform="matrix(0.8698 -0.4935 0.4935 0.8698 -71.5026 68.0376)" class="st39" cx="93.2" cy="169.5" rx="13.5" ry="23.4"/>
					<path id="Trazado_155841" class="st37" d="M94.7,187.6c-9.1-5.3-16.4-18.2-16.3-28.7c0-4.8,1.6-8.3,4.1-10.1
						c-3.5,1.5-5.7,5.3-5.8,11.1c-0.1,10.5,7.2,23.4,16.3,28.7c5,2.9,9.4,3,12.5,0.7C102.6,190.5,98.8,190,94.7,187.6z"/>
					<path id="Trazado_155842" class="st37" d="M93.3,148.8c9.8,5.8,17.7,19.7,17.6,31.1c0,5.7-2.1,9.7-5.3,11.5l1.8-1
						c3.3-1.8,5.3-5.8,5.4-11.5c0.1-11.4-7.8-25.3-17.6-31.1c-4.9-2.9-9.4-3.2-12.6-1.3l-1.8,1C84,145.7,88.4,146,93.3,148.8z"/>
				</g>
				<g id="Grupo_100943">
					<path id="Trazado_155843" class="st38" d="M95.2,147.8c9.8,5.8,17.7,19.7,17.6,31.1c0,2.4-0.4,4.8-1.4,7l6.4-3.6
						c3.5-1.5,5.7-5.3,5.8-11.1c0.1-10.5-7.2-23.4-16.3-28.7c-4.5-2.6-8.5-2.9-11.5-1.3l0,0l0,0c-0.1,0.1-0.2,0.1-0.3,0.2l-7.2,4.1
						C90.8,145.7,93.1,146.5,95.2,147.8z"/>
				</g>
			</g>
			<g id="Grupo_100945">
				<path id="Trazado_155844" class="st42" d="M94.9,170.5c0-1.7,0.4-2.7,1.1-3.2s1.8-0.3,3.1,0.5c1.3,0.7,2.4,1.8,3.1,3.1
					c0.7,1.4,1.1,2.9,1,4.5c0,1.7-0.4,2.7-1.1,3.2c-0.7,0.5-1.8,0.3-3.1-0.5c-1.3-0.7-2.4-1.8-3.1-3.1
					C95.2,173.5,94.8,172,94.9,170.5z M100.8,173.9c0-1.9-0.6-3.2-1.7-3.9c-0.6-0.3-1-0.4-1.3-0.1c-0.4,0.6-0.5,1.3-0.4,1.9
					c0,0.8,0.1,1.7,0.4,2.5c0.3,0.6,0.7,1.1,1.3,1.5C100.2,176.5,100.8,175.9,100.8,173.9L100.8,173.9z"/>
				<path id="Trazado_155845" class="st42" d="M93.4,164.6l-0.1,9.9l-2.3-1.4l0.1-9.9L93.4,164.6z"/>
				<path id="Trazado_155846" class="st42" d="M89.2,162.1l-0.1,9.9l-2.3-1.4l0.1-7.8l-3.3-1.9l0-2.2L89.2,162.1z"/>
			</g>
		</g>
		<path id="Trazado_155847" class="st41" d="M155.2,161.9L155.2,161.9l0.9-0.5c3.1-1.7,5-5.5,5.1-11c-0.1-4.3-1-8.5-2.7-12.4
			c-9.1,12.1-25.2,29.4-46.1,35.8c0.3,1.7,0.4,3.3,0.4,5c0,2.4-0.4,4.8-1.4,7l4.9-2.8c1.2-0.1,2.3-0.5,3.3-1.1l0,0l0.9-0.5
			c1-0.6,1.9-1.3,2.6-2.3l11.9-6.8c1.2-0.1,2.3-0.5,3.3-1.1l0,0l0.9-0.5c1-0.6,1.9-1.3,2.6-2.3l10.1-5.7
			C153,162.8,154.2,162.5,155.2,161.9z"/>
	</g>
</g>
</svg>
