<?xml version="1.0" encoding="utf-8"?>
<!-- Generator: Adobe Illustrator 25.2.3, SVG Export Plug-In . SVG Version: 6.00 Build 0)  -->
<svg version="1.1" id="Capa_1" xmlns="http://www.w3.org/2000/svg" xmlns:xlink="http://www.w3.org/1999/xlink" x="0px" y="0px"
	 viewBox="0 0 219.6 227.7" style="enable-background:new 0 0 219.6 227.7;" xml:space="preserve">
<style type="text/css">
	.st0{opacity:0.12;}
	.st1{fill:#231F20;fill-opacity:0;}
	.st2{opacity:3.200000e-02;fill:#231F20;enable-background:new    ;}
	.st3{opacity:6.500000e-02;fill:#231F20;enable-background:new    ;}
	.st4{opacity:9.700000e-02;fill:#231F20;enable-background:new    ;}
	.st5{opacity:0.129;fill:#231F20;enable-background:new    ;}
	.st6{opacity:0.161;fill:#231F20;enable-background:new    ;}
	.st7{opacity:0.194;fill:#231F20;enable-background:new    ;}
	.st8{opacity:0.226;fill:#231F20;enable-background:new    ;}
	.st9{opacity:0.258;fill:#231F20;enable-background:new    ;}
	.st10{opacity:0.29;fill:#231F20;enable-background:new    ;}
	.st11{opacity:0.323;fill:#231F20;enable-background:new    ;}
	.st12{opacity:0.355;fill:#231F20;enable-background:new    ;}
	.st13{opacity:0.387;fill:#231F20;enable-background:new    ;}
	.st14{opacity:0.419;fill:#231F20;enable-background:new    ;}
	.st15{opacity:0.452;fill:#231F20;enable-background:new    ;}
	.st16{opacity:0.484;fill:#231F20;enable-background:new    ;}
	.st17{opacity:0.516;fill:#231F20;enable-background:new    ;}
	.st18{opacity:0.548;fill:#231F20;enable-background:new    ;}
	.st19{opacity:0.581;fill:#231F20;enable-background:new    ;}
	.st20{opacity:0.613;fill:#231F20;enable-background:new    ;}
	.st21{opacity:0.645;fill:#231F20;enable-background:new    ;}
	.st22{opacity:0.677;fill:#231F20;enable-background:new    ;}
	.st23{opacity:0.71;fill:#231F20;enable-background:new    ;}
	.st24{opacity:0.742;fill:#231F20;enable-background:new    ;}
	.st25{opacity:0.774;fill:#231F20;enable-background:new    ;}
	.st26{opacity:0.806;fill:#231F20;enable-background:new    ;}
	.st27{opacity:0.839;fill:#231F20;enable-background:new    ;}
	.st28{opacity:0.871;fill:#231F20;enable-background:new    ;}
	.st29{opacity:0.903;fill:#231F20;enable-background:new    ;}
	.st30{opacity:0.935;fill:#231F20;enable-background:new    ;}
	.st31{opacity:0.968;fill:#231F20;enable-background:new    ;}
	.st32{fill:#231F20;}
	.st33{fill:url(#Trazado_150249_1_);}
	.st34{opacity:0.5;fill:url(#Trazado_150250_1_);enable-background:new    ;}
	.st35{fill:#638BD0;}
	.st36{fill:url(#Elipse_4887_1_);}
	.st37{opacity:0.331;fill:#999999;enable-background:new    ;}
	.st38{fill:#F15A24;}
	.st39{fill:#BA451C;}
	.st40{fill:#813013;}
	.st41{fill:#F78B41;}
	.st42{fill:#311B0B;}
	.st43{opacity:0.337;}
	.st44{fill:#838383;}
	.st45{fill:#FBB03B;}
	.st46{fill:#C2882E;}
</style>
<g id="Grupo_102542" transform="translate(-352 -4261.655)">
	<g id="Grupo_96750" transform="translate(352 4423.707)" class="st0">
		<ellipse id="Elipse_4854" class="st1" cx="141.1" cy="36.6" rx="78.4" ry="29"/>
		<ellipse id="Elipse_4855" class="st2" cx="139.1" cy="36.4" rx="78.4" ry="29"/>
		<ellipse id="Elipse_4856" class="st3" cx="137.1" cy="36.1" rx="78.4" ry="29"/>
		<ellipse id="Elipse_4857" class="st4" cx="135.1" cy="35.9" rx="78.4" ry="29"/>
		<ellipse id="Elipse_4858" class="st5" cx="133" cy="35.6" rx="78.4" ry="29"/>
		<ellipse id="Elipse_4859" class="st6" cx="131" cy="35.4" rx="78.4" ry="29"/>
		<ellipse id="Elipse_4860" class="st7" cx="129" cy="35.2" rx="78.4" ry="29"/>
		<ellipse id="Elipse_4861" class="st8" cx="127" cy="34.9" rx="78.4" ry="29"/>
		<ellipse id="Elipse_4862" class="st9" cx="124.9" cy="34.7" rx="78.4" ry="29"/>
		<ellipse id="Elipse_4863" class="st10" cx="122.9" cy="34.4" rx="78.4" ry="29"/>
		<ellipse id="Elipse_4864" class="st11" cx="120.9" cy="34.2" rx="78.4" ry="29"/>
		<ellipse id="Elipse_4865" class="st12" cx="118.9" cy="33.9" rx="78.4" ry="29"/>
		<ellipse id="Elipse_4866" class="st13" cx="116.9" cy="33.7" rx="78.4" ry="29"/>
		<ellipse id="Elipse_4867" class="st14" cx="114.8" cy="33.4" rx="78.4" ry="29"/>
		<ellipse id="Elipse_4868" class="st15" cx="112.8" cy="33.2" rx="78.4" ry="29"/>
		<ellipse id="Elipse_4869" class="st16" cx="110.8" cy="32.9" rx="78.4" ry="29"/>
		<ellipse id="Elipse_4870" class="st17" cx="108.8" cy="32.7" rx="78.4" ry="29"/>
		<ellipse id="Elipse_4871" class="st18" cx="106.7" cy="32.5" rx="78.4" ry="29"/>
		<ellipse id="Elipse_4872" class="st19" cx="104.7" cy="32.2" rx="78.4" ry="29"/>
		<ellipse id="Elipse_4873" class="st20" cx="102.7" cy="32" rx="78.4" ry="29"/>
		<ellipse id="Elipse_4874" class="st21" cx="100.7" cy="31.7" rx="78.4" ry="29"/>
		<ellipse id="Elipse_4875" class="st22" cx="98.7" cy="31.5" rx="78.4" ry="29"/>
		<ellipse id="Elipse_4876" class="st23" cx="96.6" cy="31.2" rx="78.4" ry="29"/>
		<ellipse id="Elipse_4877" class="st24" cx="94.6" cy="31" rx="78.4" ry="29"/>
		<ellipse id="Elipse_4878" class="st25" cx="92.6" cy="30.7" rx="78.4" ry="29"/>
		<ellipse id="Elipse_4879" class="st26" cx="90.6" cy="30.5" rx="78.4" ry="29"/>
		<ellipse id="Elipse_4880" class="st27" cx="88.5" cy="30.3" rx="78.4" ry="29"/>
		<ellipse id="Elipse_4881" class="st28" cx="86.5" cy="30" rx="78.4" ry="29"/>
		<ellipse id="Elipse_4882" class="st29" cx="84.5" cy="29.8" rx="78.4" ry="29"/>
		<ellipse id="Elipse_4883" class="st30" cx="82.5" cy="29.5" rx="78.4" ry="29"/>
		<ellipse id="Elipse_4884" class="st31" cx="80.5" cy="29.3" rx="78.4" ry="29"/>
		<ellipse id="Elipse_4885" class="st32" cx="78.4" cy="29" rx="78.4" ry="29"/>
	</g>
	
		<linearGradient id="Trazado_150249_1_" gradientUnits="userSpaceOnUse" x1="-946.6687" y1="5775.1836" x2="-945.6687" y2="5775.1836" gradientTransform="matrix(156.878 0 0 -73.963 148863.4844 431594.75)">
		<stop  offset="0" style="stop-color:#F86424"/>
		<stop  offset="1" style="stop-color:#F86424"/>
	</linearGradient>
	<path id="Trazado_150249" class="st33" d="M352,4407.8v46.7h0.1c2.4,15.2,36.6,27.3,78.3,27.3s75.8-12.1,78.3-27.3h0.1v-46.7H352z"
		/>
	
		<linearGradient id="Trazado_150250_1_" gradientUnits="userSpaceOnUse" x1="-945.8097" y1="5775.1836" x2="-946.5617" y2="5775.1836" gradientTransform="matrix(156.878 0 0 -73.963 148863.4844 431594.75)">
		<stop  offset="0" style="stop-color:#231F20"/>
		<stop  offset="1" style="stop-color:#FFFFFF"/>
	</linearGradient>
	<path id="Trazado_150250" class="st34" d="M352,4407.8v46.7h0.1c2.4,15.2,36.6,27.3,78.3,27.3s75.8-12.1,78.3-27.3h0.1v-46.7H352z"
		/>
	<ellipse id="Elipse_4886" class="st35" cx="430.4" cy="4409.4" rx="78.4" ry="29"/>
	
		<linearGradient id="Elipse_4887_1_" gradientUnits="userSpaceOnUse" x1="-945.6767" y1="5770.3545" x2="-946.6607" y2="5770.3545" gradientTransform="matrix(156.878 0 0 -58.05 148863.5 339377.25)">
		<stop  offset="0" style="stop-color:#F86424"/>
		<stop  offset="1" style="stop-color:#F86424"/>
	</linearGradient>
	<ellipse id="Elipse_4887" class="st36" cx="430.4" cy="4408.2" rx="78.4" ry="29"/>
	
		<image style="overflow:visible;enable-background:new    ;" width="1564" height="579" id="Rectángulo_34094" xlink:href="D75D7D49.png"  transform="matrix(9.598100e-02 0 0 9.598100e-02 355.0004 4380.3838)">
	</image>
	<g id="Grupo_101074" transform="translate(-1580.489 3654.877)">
		<g id="Grupo_101068">
			<ellipse id="Elipse_4975" class="st37" cx="2006.1" cy="700.4" rx="23.1" ry="10.6"/>
			<g id="Grupo_101065">
				<path id="Trazado_156435" class="st38" d="M2019.4,685c7.9-16.4-2.8-21.8-6.7-21c-2.1,0.6-4.4,0.9-6.6,0.9
					c-7.3,0-13.3-3-13.3-6.8c0-0.6,0.1-1.2,0.4-1.7c-1.5,2.2-3.5-1.3-1.3-4.3c-11.2,4.4-16,15.7-11.3,31.8c0.5,1.8,1.1,3.6,1.9,5.3
					C1987.3,698.3,2011.5,701.4,2019.4,685z"/>
				<path id="Trazado_156436" class="st39" d="M2016.8,658.8c1.8,5.7-2.3,2.3-4.1,5.3c4-1.2,6.7-3.4,6.7-5.9c0-3.8-5.9-6.8-13.3-6.8
					c-6.2,0-11.4,2.2-12.9,5.1C1995.1,653.6,2015,653.1,2016.8,658.8z"/>
			</g>
			<g id="Grupo_101066">
				<path id="Trazado_156437" class="st39" d="M2006.1,651.3c-7.3,0-13.3,3-13.3,6.8s5.9,6.8,13.3,6.8s13.3-3,13.3-6.8
					S2013.4,651.3,2006.1,651.3z M2006.1,663c-3.6,0-6.5-1.5-6.5-3.3s2.9-3.3,6.5-3.3s6.5,1.5,6.5,3.3S2009.7,663,2006.1,663
					L2006.1,663z"/>
				<ellipse id="Elipse_4976" class="st40" cx="2006.1" cy="659.7" rx="6.5" ry="3.3"/>
			</g>
			<path id="Trazado_156438" class="st41" d="M1988,661.3c1.5,5.2,13,8.7,21.1,7.6s3.8,13.8-9.4,15.9s-19.2-9.9-17.7-17.9
				S1986.9,657.7,1988,661.3z"/>
			<g id="Grupo_101067">
				<path id="Trazado_156439" class="st39" d="M2006.1,650.1c-4.8-0.3-9.6,0.4-14.2,2.1c-2.2,2.9-0.2,6.5,1.3,4.3
					c1.5-2.9,6.7-5.1,12.9-5.1c7.3,0,13.3,3,13.3,6.8c0,2.5-2.7,4.7-6.7,5.9c3.9-0.8,14.6,4.6,6.7,21s-32.1,13.2-36.9,4.2
					c7,16.1,20,14.1,23.6,13.2c24.2-7.3,25.1-40.3,13.3-41c15.7-3,14.8,18,7.9,32.2c1.9-3,3.3-6.3,4.3-9.7
					C2037.9,662.2,2026.8,649.1,2006.1,650.1z"/>
				<path id="Trazado_156440" class="st40" d="M2019.4,661.4c11.8,0.7,10.9,33.7-13.3,41c3.2,0.8,13.9,2.5,21.2-8.8
					C2034.1,679.4,2035.1,658.4,2019.4,661.4z"/>
			</g>
			<path id="Trazado_156441" class="st42" d="M2006.7,662.1c2.3-11.6,11.1-21.9,11.1-21.9c1.3-2.9-1.9-3.9-3.4-2.6
				s-8.3,13.5-9.3,24.4C2005.2,663.4,2006.5,663,2006.7,662.1z"/>
		</g>
		<g id="Grupo_101073">
			<g id="Grupo_101069" class="st43">
				<path id="Trazado_156442" class="st44" d="M2027.7,725c-13.5-7.8-35.4-7.8-49,0s-13.6,20.5-0.2,28.4s35.4,7.8,49,0
					S2041.1,732.8,2027.7,725z"/>
			</g>
			<g id="Grupo_101072">
				<g id="Grupo_101070">
					<path id="Trazado_156443" class="st45" d="M2061.1,714.8c0,0-1.6-2-6.2-1.8s-19.6,3.2-41.3,1s-28.8-12.4-32.3-17
						s-4.7-6.1-7.5-5.7c-0.6,1-1.1,2-1.1,2s-0.2,0.1-0.1,1c15.2,25.3,50.3,31.9,70.9,29.9c16-1.5,14.7-1.5,10.3,2.9
						c2.3-1.4,4.4-3.1,6.3-5c0,0,2.4-1.8,2.3-4.2C2062.5,716.7,2062,715.6,2061.1,714.8z"/>
					<path id="Trazado_156444" class="st46" d="M2043.4,724.2c-20.6,2-55.8-4.6-70.9-29.9c0.2,1.5,1.4,5.4,6.7,14.7
						c8.3,14.6,36.4,22,48.4,24.2c2.1,0.4,4.1,0.9,6.1,1.6c7.1-1.2,14-3.8,20.1-7.7C2058.1,722.7,2059.4,722.6,2043.4,724.2z"/>
				</g>
				<g id="Grupo_101071">
					<path id="Trazado_156445" class="st45" d="M2045.8,740.9c-1.1,0-1.2,0.8-1.8,0.2c-0.5-0.5-3.1-3.9-10.4-6.4
						c-2-0.7-4.1-1.2-6.1-1.6c-12-2.2-40.1-9.6-48.4-24.2s-6.5-15.7-6.5-15.7s0.5-0.9,1.1-2l0.4-0.8c0.7-1.3-0.9-2.8-2.8-8.1
						s-1.6-4.9-2.4-5.4s-5.6-0.3-5.2,1.3c0,0,0.6,11.4-0.4,15.1c2.5-1.2,3,2.1,3.3,5.6c0.4,4.4,2.6,22.5,24.5,33.4
						s48.1,10.9,50.7,10.8c1.9-0.1,2.7,2.2,3,3.4c0.8-0.2,1.1-0.4,1.1-1.2C2046.1,744.1,2046.9,740.9,2045.8,740.9z"/>
					<path id="Trazado_156446" class="st46" d="M2041.9,743.3c-2.6,0.1-28.8,0.1-50.7-10.8s-24.1-29-24.5-33.4
						c-0.3-3.6-0.8-6.8-3.3-5.6c-0.1,0.2-0.1,0.4-0.2,0.6c-1.3,2.8-10.9,16.5,1.8,31.4s32.5,23.1,47.2,25.2s28-2.1,30.6-3.2
						c0.7-0.3,1.4-0.5,2.2-0.7C2044.7,745.5,2043.8,743.2,2041.9,743.3z"/>
				</g>
			</g>
		</g>
	</g>
</g>
</svg>
