<svg xmlns="http://www.w3.org/2000/svg" xmlns:xlink="http://www.w3.org/1999/xlink" width="376" height="324" viewBox="0 0 376 324">
  <defs>
    <clipPath id="clip-path">
      <rect id="Rectángulo_34047" data-name="Rectángulo 34047" width="376" height="276" fill="#dc9ce8"/>
    </clipPath>
    <clipPath id="clip-path-2">
      <path id="Trazado_125062" data-name="Trazado 125062" d="M2193.773,1261.969l-30.527-26.326a.512.512,0,0,0,.52.055l30.527,26.325A.51.51,0,0,1,2193.773,1261.969Z" transform="translate(-2163.246 -1235.643)" fill="none"/>
    </clipPath>
    <clipPath id="clip-path-3">
      <path id="Trazado_125073" data-name="Trazado 125073" d="M2177.6,1245.763l-30.527-26.326a2.452,2.452,0,0,1-.772-1.989,5.925,5.925,0,0,1,3.728-4.927l30.527,26.326a5.923,5.923,0,0,0-3.727,4.926A2.451,2.451,0,0,0,2177.6,1245.763Z" transform="translate(-2146.297 -1212.522)" fill="none"/>
    </clipPath>
    <clipPath id="clip-path-4">
      <path id="Trazado_125080" data-name="Trazado 125080" d="M2193.773,1217.174l-30.527-26.326a.511.511,0,0,0,.52.055l30.527,26.326A.512.512,0,0,1,2193.773,1217.174Z" transform="translate(-2163.246 -1190.848)" fill="none"/>
    </clipPath>
    <clipPath id="clip-path-5">
      <path id="Trazado_125091" data-name="Trazado 125091" d="M2177.6,1200.97l-30.527-26.326a2.452,2.452,0,0,1-.772-1.989,5.925,5.925,0,0,1,3.728-4.927l30.527,26.325a5.924,5.924,0,0,0-3.727,4.927A2.451,2.451,0,0,0,2177.6,1200.97Z" transform="translate(-2146.297 -1167.729)" fill="none"/>
    </clipPath>
    <clipPath id="clip-path-6">
      <path id="Trazado_125098" data-name="Trazado 125098" d="M2193.773,1172.381l-30.527-26.326a.512.512,0,0,0,.52.055l30.527,26.325A.51.51,0,0,1,2193.773,1172.381Z" transform="translate(-2163.246 -1146.055)" fill="none"/>
    </clipPath>
    <clipPath id="clip-path-7">
      <path id="Trazado_125109" data-name="Trazado 125109" d="M2177.6,1156.177l-30.527-26.326a2.452,2.452,0,0,1-.772-1.989,5.924,5.924,0,0,1,3.728-4.926l30.527,26.325a5.924,5.924,0,0,0-3.727,4.926A2.45,2.45,0,0,0,2177.6,1156.177Z" transform="translate(-2146.297 -1122.936)" fill="none"/>
    </clipPath>
    <clipPath id="clip-path-8">
      <path id="Trazado_125116" data-name="Trazado 125116" d="M2193.773,1127.586l-30.527-26.326a.51.51,0,0,0,.52.055l30.527,26.326A.512.512,0,0,1,2193.773,1127.586Z" transform="translate(-2163.246 -1101.26)" fill="none"/>
    </clipPath>
    <clipPath id="clip-path-9">
      <path id="Trazado_125127" data-name="Trazado 125127" d="M2177.6,1111.382l-30.527-26.326a2.452,2.452,0,0,1-.772-1.989,5.925,5.925,0,0,1,3.728-4.926l30.527,26.325a5.924,5.924,0,0,0-3.727,4.927A2.451,2.451,0,0,0,2177.6,1111.382Z" transform="translate(-2146.297 -1078.141)" fill="none"/>
    </clipPath>
  </defs>
  <g id="Grupo_96748" data-name="Grupo 96748" transform="translate(-1020 -2260)">
    <g id="Grupo_88471" data-name="Grupo 88471" transform="translate(1020 2260)">
      <rect id="Rectángulo_33717" data-name="Rectángulo 33717" width="376" height="324" fill="#f739a8" opacity="0.07"/>
      <g id="Grupo_88470" data-name="Grupo 88470" transform="translate(0 45)">
        <rect id="Rectángulo_33714" data-name="Rectángulo 33714" width="376" height="279" fill="none" opacity="0.07"/>
        <g id="Enmascarar_grupo_61" data-name="Enmascarar grupo 61" transform="translate(0 3)" opacity="0.24" clip-path="url(#clip-path)">
          <path id="Trazado_122678" data-name="Trazado 122678" d="M16.343,0,458.581,4.5c9.118.093,16.585,7.337,16.678,16.18L479.4,415.709a15.867,15.867,0,0,1-16.342,15.844l-442.238-4.5c-9.118-.093-16.585-7.337-16.678-16.18L0,15.845A15.867,15.867,0,0,1,16.343,0Z" transform="translate(440.236 477.956) rotate(163)" fill="#dc9ce8"/>
        </g>
      </g>
    </g>
    <g id="Grupo_89669" data-name="Grupo 89669" transform="translate(341.472 2087.941)" style="isolation: isolate">
      <g id="Grupo_89501" data-name="Grupo 89501" transform="translate(858.325 382.273)" opacity="0.111" style="mix-blend-mode: screen;isolation: isolate">
        <g id="Grupo_89500" data-name="Grupo 89500" transform="translate(0 0)">
          <path id="Trazado_124996" data-name="Trazado 124996" d="M1519.772,1041.044l-47.792,27.773-48.1-27.773,47.792-27.773Z" transform="translate(-1423.875 -1013.271)" fill="#161616"/>
        </g>
      </g>
      <g id="Grupo_89503" data-name="Grupo 89503" transform="translate(981.893 393.3)" opacity="0.12" style="mix-blend-mode: screen;isolation: isolate">
        <g id="Grupo_89502" data-name="Grupo 89502" transform="translate(0)">
          <path id="Trazado_124997" data-name="Trazado 124997" d="M1998.5,1071.244l-16.655,9.678-16.765-9.679,16.655-9.679Z" transform="translate(-1965.078 -1061.564)" fill="#161616"/>
        </g>
      </g>
      <g id="Grupo_89505" data-name="Grupo 89505" transform="translate(909.362 437.142)" opacity="0.12" style="mix-blend-mode: screen;isolation: isolate">
        <g id="Grupo_89504" data-name="Grupo 89504">
          <path id="Trazado_124998" data-name="Trazado 124998" d="M1671.3,1260.5l-11.906,6.919-11.984-6.919,11.906-6.919Z" transform="translate(-1647.406 -1253.584)" fill="#2c2c2c"/>
        </g>
      </g>
      <g id="Grupo_89507" data-name="Grupo 89507" transform="translate(753.898 402.979)" opacity="0.153" style="mix-blend-mode: screen;isolation: isolate">
        <g id="Grupo_89506" data-name="Grupo 89506" transform="translate(0 0)">
          <path id="Trazado_124999" data-name="Trazado 124999" d="M1016.9,1118.554l-25.118,14.6-25.282-14.6,25.118-14.6Z" transform="translate(-966.503 -1103.957)" fill="#161616"/>
        </g>
      </g>
      <g id="Grupo_89509" data-name="Grupo 89509" transform="translate(748.833 327.619)" opacity="0.153" style="mix-blend-mode: screen;isolation: isolate">
        <g id="Grupo_89508" data-name="Grupo 89508" transform="translate(0)">
          <path id="Trazado_125000" data-name="Trazado 125000" d="M1026.086,797.576l-40.75,23.682-41.017-23.681,40.75-23.682Z" transform="translate(-944.319 -773.895)" fill="#161616"/>
        </g>
      </g>
      <g id="Grupo_89511" data-name="Grupo 89511" transform="translate(987.191 343.91)" opacity="0.178" style="mix-blend-mode: screen;isolation: isolate">
        <g id="Grupo_89510" data-name="Grupo 89510" transform="translate(0 0)">
          <path id="Trazado_125001" data-name="Trazado 125001" d="M2029.764,857.261l-20.673,12.014-20.808-12.013,20.673-12.014Z" transform="translate(-1988.283 -845.248)" fill="#161616"/>
        </g>
      </g>
      <g id="Grupo_89513" data-name="Grupo 89513" transform="translate(833.449 323.851)" opacity="0.117" style="mix-blend-mode: screen;isolation: isolate">
        <g id="Grupo_89512" data-name="Grupo 89512" transform="translate(0 0)">
          <path id="Trazado_125002" data-name="Trazado 125002" d="M1398.762,781.673l-41.783,24.282-42.055-24.28,41.783-24.282Z" transform="translate(-1314.924 -757.392)" fill="#161616"/>
        </g>
      </g>
      <g id="Grupo_89515" data-name="Grupo 89515" transform="translate(942.861 339.601)" opacity="0.14" style="mix-blend-mode: screen;isolation: isolate">
        <g id="Grupo_89514" data-name="Grupo 89514" transform="translate(0 0)">
          <path id="Trazado_125003" data-name="Trazado 125003" d="M1823.411,826.373l29.478,17.019-29.287,17.02-29.479-17.019Zm.188,33.355,28.109-16.335-28.294-16.335-28.109,16.335,28.294,16.335Z" transform="translate(-1794.124 -826.373)" fill="#2c2c2c"/>
        </g>
      </g>
      <g id="Grupo_89517" data-name="Grupo 89517" transform="translate(733.966 359.024)" opacity="0.161" style="mix-blend-mode: screen;isolation: isolate">
        <g id="Grupo_89516" data-name="Grupo 89516" transform="translate(0 0)">
          <path id="Trazado_125004" data-name="Trazado 125004" d="M924.191,911.441l45.278,26.142-44.984,26.142-45.279-26.141Zm.287,50.966L967.2,937.583l-43-24.825-42.718,24.825,43,24.824Z" transform="translate(-879.207 -911.441)" fill="#161616"/>
        </g>
      </g>
      <g id="Grupo_89527" data-name="Grupo 89527" transform="translate(885.867 195.577)">
        <g id="Grupo_89518" data-name="Grupo 89518" transform="translate(20.781 168.152)" opacity="0.095" style="isolation: isolate">
          <path id="Trazado_125005" data-name="Trazado 125005" d="M1691.961,937.668c12.971,7.489,13.037,19.629.15,27.119s-33.846,7.49-46.817,0-13.039-19.631-.153-27.12S1678.99,930.179,1691.961,937.668Z" transform="translate(-1635.521 -932.051)" fill="#838383"/>
        </g>
        <g id="Grupo_89526" data-name="Grupo 89526" transform="translate(0 0)">
          <g id="Grupo_89519" data-name="Grupo 89519" transform="translate(9.301 24.439)">
            <path id="Trazado_125006" data-name="Trazado 125006" d="M1671.49,367.306c-2.661-5.854-5.55-11.555-6.69-13.456s-2.2-12.924-4.866-20.6-7.906-11.222-13-13.707c-4.333-1.688-9.453.306-11,.051s-.348-4.184-1.545-6.04c-.042-.065-.068-.123-.1-.184a10.629,10.629,0,0,1-5.537.412,4.189,4.189,0,0,1-2.085-1.895,27.555,27.555,0,0,0-4.707.267c-4.587.737-5.723.84-7.107,1.91a100.767,100.767,0,0,0-9.007,8.239c-2.308,2.357-4.838,5.789-7.3,8.135-6.823,6.5-12.271,12.591-12.924,13.3a2.138,2.138,0,0,0-.37,1.6,5.17,5.17,0,0,0,.583,1.865,6.957,6.957,0,0,0,4.763-1.866c2.281-2.048,7.982-7.872,11.973-11.179s8.9-4.105,11.746-6.956,5.131-5.588,5.131-5.045-2.052,4.475-2.737,8.465c-.289,1.684-1.41,5.2-2.531,10.02-.787,7.488-1.826,18.216-2.1,25.031,2.391,4.194,15.36,8.661,22.668,9.206a5.174,5.174,0,0,0,3.284-3.3c.891-3.32-1.369-19.746-.8-25.22s3.079-15.851,6.175-15.737,3.518,1.14,6.368,6.614,5.132,10.947,7.07,14.254c1.211,2.067,1.131,3.911,1.624,6.99l.013.034c.77,1.954,7.29,16.121,9.244,18.93a2.594,2.594,0,0,0,.261.312c-.113-.458-.193-.747-.193-.747a8.073,8.073,0,0,1,4.138-2.592C1674.165,372.428,1673.812,372.415,1671.49,367.306Z" transform="translate(-1585.242 -309.763)" fill="#5b6989"/>
            <path id="Trazado_125007" data-name="Trazado 125007" d="M1801.71,312.443c1.546.256,6.665-1.738,11-.051-.3-.146-.588-.306-.868-.473l1.563-1.008c-3.547-2.2-5.021-8.3-5.021-8.3-2.573,1.7-3.531.936-3.531.936-.353.723-2.394,1.933-4.787,2.668.032.061.059.119.1.184C1801.362,308.259,1800.165,312.187,1801.71,312.443Z" transform="translate(-1751.016 -302.615)" fill="#292e3f"/>
          </g>
          <g id="Grupo_89520" data-name="Grupo 89520">
            <path id="Trazado_125008" data-name="Trazado 125008" d="M1778.57,345.437c0,.017,0,.034.007.051C1778.574,345.471,1778.572,345.454,1778.57,345.437Z" transform="translate(-1725.128 -311.221)" fill="#5b6989"/>
            <path id="Trazado_125009" data-name="Trazado 125009" d="M1778.145,341.827c0,.01,0,.02,0,.03C1778.147,341.847,1778.146,341.837,1778.145,341.827Z" transform="translate(-1724.8 -308.435)" fill="#5b6989"/>
            <path id="Trazado_125010" data-name="Trazado 125010" d="M1779.015,349.08l.011.089Z" transform="translate(-1725.472 -314.032)" fill="#5b6989"/>
            <path id="Trazado_125011" data-name="Trazado 125011" d="M1780.483,360.208c0,.02.006.039.009.059C1780.489,360.247,1780.486,360.228,1780.483,360.208Z" transform="translate(-1726.604 -322.619)" fill="#5b6989"/>
            <path id="Trazado_125012" data-name="Trazado 125012" d="M1780.993,363.718c0,.011,0,.022.005.033C1781,363.74,1780.995,363.729,1780.993,363.718Z" transform="translate(-1726.998 -325.328)" fill="#5b6989"/>
            <path id="Trazado_125013" data-name="Trazado 125013" d="M1779.487,352.81c0,.032.008.065.012.1C1779.5,352.875,1779.491,352.842,1779.487,352.81Z" transform="translate(-1725.836 -316.911)" fill="#5b6989"/>
            <path id="Trazado_125014" data-name="Trazado 125014" d="M1779.979,356.55c0,.027.007.054.011.081C1779.986,356.6,1779.982,356.577,1779.979,356.55Z" transform="translate(-1726.215 -319.797)" fill="#5b6989"/>
            <path id="Trazado_125015" data-name="Trazado 125015" d="M1827.79,266.475c.042,0,.085,0,.129,0l.132.011a4.744,4.744,0,0,1,.505.083,1.162,1.162,0,0,0-.005.153,1.106,1.106,0,0,0,.054.328.717.717,0,0,0,.05.114c.181.332.665.532,1.932-.285a11.818,11.818,0,0,1,1.392-3.032c1.39-2.03.671-4.442-.958-3.55-1.471.805-2.107,5.239-3.231,6.173Z" transform="translate(-1763.11 -245.377)" fill="#e8b188"/>
            <path id="Trazado_125016" data-name="Trazado 125016" d="M1765.8,258.439c3.8,1,9.7-1.8,10.325-3.08.1-.21.2-.453.3-.711.027-.072.053-.144.08-.218.079-.225.155-.458.227-.693a17.432,17.432,0,0,0,.536-2.221c0-.013,0-.025.005-.037a1.217,1.217,0,0,0,.015-.213c-.459.034-.614-2.035-1.35-4.677s-2.144-2.923-2.722-6.424c-4.926,1.05-7.939,1.083-9.8.166a85.825,85.825,0,0,0-.519,12.041,24.8,24.8,0,0,0,.261,2.643,4.454,4.454,0,0,0,.559,1.53A4.191,4.191,0,0,0,1765.8,258.439Z" transform="translate(-1712.991 -229.984)" fill="#e8b188"/>
            <path id="Trazado_125017" data-name="Trazado 125017" d="M1764.99,205.757c.578,3.5,1.986,3.782,2.722,6.424s.89,4.712,1.35,4.677a.7.7,0,0,0,.381-.183c1.124-.934,1.76-5.368,3.23-6.173,1.629-.892,2.348,1.521.958,3.55a11.809,11.809,0,0,0-1.392,3.032q-.068.217-.127.42c-.039.135-.075.265-.108.389-.066.248-.12.47-.162.656s-.073.335-.094.439-.03.16-.03.16a14.5,14.5,0,0,0,5.389-9.121c.8-5.848-.014-13.647-10.008-14.368s-14.92,3.5-14.92,3.5c.255,3.43.881,5.717,3.009,6.764C1757.051,206.84,1760.064,206.807,1764.99,205.757Z" transform="translate(-1704.763 -195.577)" fill="#311b0b"/>
            <path id="Trazado_125018" data-name="Trazado 125018" d="M1824.849,290.457s.01-.057.03-.16.052-.253.094-.439.1-.408.162-.656c.033-.124.069-.254.109-.389s.082-.276.127-.42c-1.266.817-1.75.616-1.932.285a.72.72,0,0,1-.05-.114,1.116,1.116,0,0,1-.055-.328,1.185,1.185,0,0,1,.006-.153,4.809,4.809,0,0,0-.505-.083l-.132-.011c-.044,0-.087,0-.129,0a.7.7,0,0,1-.381.183,1.223,1.223,0,0,1-.015.213l-.005.037a17.432,17.432,0,0,1-.536,2.221c-.072.235-.148.468-.227.693-.027.074-.053.147-.08.218-.1.259-.2.5-.3.711,0,0,.958.768,3.531-.936l.287-.868Z" transform="translate(-1757.895 -266.886)" fill="#ce9772"/>
            <path id="Trazado_125019" data-name="Trazado 125019" d="M1963.213,598.917a149.1,149.1,0,0,0-8.137-12.675,4.553,4.553,0,0,0-1.333-1.319c-1.507-.5-4.88.239-6.889,2.679,0,0,.08.289.193.747a19.956,19.956,0,0,1,.724,5.473c-.18,1.786.078,5.209.013,5.956-.144,1.651,1.148.216,1.794.718s1.507-4.45,1.866-4.091,3.373,6.818,3.8,7.033,4.234.359,5.023-.5S1963.931,600.209,1963.213,598.917Z" transform="translate(-1854.989 -495.913)" fill="#e8b188"/>
            <path id="Trazado_125020" data-name="Trazado 125020" d="M1553.82,458.433c-1.372,1.209-4.967,6.045-5.859,6.937s-3.032,6.421-3.389,7.4.8,1.07,1.338.714,3.42-3.632,4.133-4.167a6.654,6.654,0,0,1,2.794-1.026c.8-.089,3.26-2.583,3.706-2.851a10.876,10.876,0,0,0,1.453-2.464,1.272,1.272,0,0,1-.275-.021A5.376,5.376,0,0,1,1553.82,458.433Z" transform="translate(-1544.505 -398.418)" fill="#e8b188"/>
          </g>
          <g id="Grupo_89521" data-name="Grupo 89521" transform="translate(28.042 175.26)">
            <path id="Trazado_125021" data-name="Trazado 125021" d="M1667.358,973.248c.317,1.378,2.426,2.861,4.137,3.716s4.847.456,6.215,0,6.328-5.486,8.324-6.5,6.373-.515,8.119-3.251a5.57,5.57,0,0,0,.677-4.033,5.186,5.186,0,0,1-1.147,1.979,11.4,11.4,0,0,1-5.531,2.851c-2.167.57-4.847,2.623-7.025,4.5s-4.264,3.649-7.115,3.452a8.757,8.757,0,0,1-6.253-4.219A1.885,1.885,0,0,0,1667.358,973.248Z" transform="translate(-1667.323 -963.181)" fill="#292e3f"/>
            <path id="Trazado_125022" data-name="Trazado 125022" d="M1799.508,1055.307a11.582,11.582,0,0,0,4.825,1.417c1.939.188,6.5-.687,8.1-2.626.936-1.137.93-2.969.711-5.048a6.346,6.346,0,0,1-3.327,4.21c-2.224.969-6.956,1.254-9.123.4s-2.216-3.144-1.427-5.349a7.409,7.409,0,0,0-.6,1.188C1798.062,1051.209,1798.9,1054.768,1799.508,1055.307Z" transform="translate(-1768.517 -1028.874)" fill="#292e3f"/>
          </g>
          <g id="Grupo_89522" data-name="Grupo 89522" transform="translate(35.791 85.311)">
            <path id="Trazado_125023" data-name="Trazado 125023" d="M1734.11,630.894a31.067,31.067,0,0,0,.682-7.6c-.074-3.193-3.707-19.918-2.651-27.977s3.552-11.993-1.038-14.6c-1.483-.841-3.221-1.757-4.9-2.612-5.516-.176-18.5-1.229-24.59-8.882a120.754,120.754,0,0,0,0,17.977c.794,7.983,4.223,16.991,3.881,21.1-.516,6.188-.423,8.325.724,10.953,1.01,2.315,1.449,15.414,2.6,24.153.118.754.781,1.273,1.652,1.612,4.271.478,4.024-8.42,4.632-12.753s.38-13.988.684-20.222,4.257-6.69.3-13.76-6.3-13-5.62-14.9,5.768,1.216,9,1.824,2.625,10.491,2.625,13.76-.229,11.524.173,13.467c.3,1.462.591,2.853.712,3.431.3,1.444.391,5.171.681,8.479.369,4.2,1.068,4.293,1.98,11.363.588,4.561,1.052,14.608,1.307,21.166.144,1.322,2.022,2.105,4.155,2.38l0-.078C1737.5,657.7,1733.5,634.7,1734.11,630.894Z" transform="translate(-1701.264 -569.224)" fill="#5b6989"/>
            <path id="Trazado_125024" data-name="Trazado 125024" d="M1821.8,665.561a2.39,2.39,0,0,0,.037-.482c.564-7.171,1.976-20.952,2.058-24.058.161-6.086-1.115-11.223-1.186-13.907-.114-4.333,1.3-19.581,2.536-27.488a34.618,34.618,0,0,0-2.238-19.207c-.154-.341-.313-.677-.48-1.005,0,0-6.614,6.642-10.16,6.594-.441-.006-1.075-.013-1.859-.038,1.674.855,3.412,1.771,4.9,2.612,4.591,2.6,2.095,6.538,1.038,14.6s2.577,24.784,2.651,27.977a31.066,31.066,0,0,1-.682,7.6c-.608,3.8,3.39,26.8-3.007,28.278l0,.078C1818.251,667.481,1821.545,666.943,1821.8,665.561Z" transform="translate(-1785.567 -577.088)" fill="#292e3f"/>
            <path id="Trazado_125025" data-name="Trazado 125025" d="M1752.826,644.757c0-3.269.608-13.152-2.625-13.76s-8.322-3.725-9-1.824,1.667,7.83,5.62,14.9,0,7.526-.3,13.76-.076,15.889-.684,20.222-.361,13.231-4.632,12.753a9.863,9.863,0,0,0,4.556.437c1.71-.3,3.274-1.261,3.492-2.4.954-4.921,2.443-13.343,2.281-17.2-.1-2.276.531-17.979.531-17.979s.486,2.356.94,4.552C1752.6,656.282,1752.826,648.027,1752.826,644.757Z" transform="translate(-1731.992 -615.017)" fill="#292e3f"/>
          </g>
          <path id="Trazado_125026" data-name="Trazado 125026" d="M1728.245,556.655c-5.919.927-22.878-4.3-25.647-9.157a46.215,46.215,0,0,0,0,4.961c6.96,8.741,22.9,8.872,26.449,8.921s10.16-6.594,10.16-6.594c.167.329.326.665.48,1.005-.25-.6-1.061-2.6-1.857-5.014C1736.382,552.482,1732.947,555.919,1728.245,556.655Z" transform="translate(-1666.45 -467.147)" fill="#fbb03b"/>
          <g id="Grupo_89523" data-name="Grupo 89523" transform="translate(44.974 28.061)">
            <path id="Trazado_125027" data-name="Trazado 125027" d="M1741.522,376.68c-.011-1.034-.262-25.388.671-31.114a33.235,33.235,0,0,1,4.275-11.829c.725-1.345,1.474-2.736,2.188-4.357a24.772,24.772,0,0,1,3.267-5.224c1.572-2.065,2.611-3.429,1.864-5.346l.85-.331c.933,2.394-.356,4.087-1.988,6.23a24.012,24.012,0,0,0-3.158,5.039c-.728,1.654-1.487,3.061-2.22,4.422a32.494,32.494,0,0,0-4.177,11.543c-.92,5.648-.661,30.7-.658,30.957Z" transform="translate(-1741.484 -318.479)" fill="#292e3f"/>
          </g>
          <g id="Grupo_89524" data-name="Grupo 89524" transform="translate(9.898 32.734)">
            <path id="Trazado_125028" data-name="Trazado 125028" d="M1880.271,395.223a4.558,4.558,0,0,1,1.333,1.319,1.224,1.224,0,0,0,.014-.16c0-1.479-2.266-7.988-4.53-14.469-1.1-3.153-3.3-6.545-4.141-9.1-.891-2.716-1.687-9.106-2.687-12.761a52.372,52.372,0,0,0-5.252-13.223c-1.316-2.118-5.986-5.011-11.8-7.879l-1.563,1.009c.28.167.568.327.868.473,5.094,2.486,10.339,6.029,13,13.707s3.726,18.7,4.865,20.6,4.029,7.6,6.69,13.456c2.322,5.109,2.675,5.123.453,7.115A5.16,5.16,0,0,1,1880.271,395.223Z" transform="translate(-1791.415 -338.947)" fill="#292e3f"/>
            <path id="Trazado_125029" data-name="Trazado 125029" d="M1817.134,400.6c-2.851-5.474-3.272-6.5-6.369-6.614s-5.605,10.263-6.175,15.737,1.689,21.9.8,25.22a5.174,5.174,0,0,1-3.284,3.3,13.509,13.509,0,0,0,2.98-.049c4.7-.737,8.136-4.174,9.582-5.878a30.88,30.88,0,0,1-1.809-8.483c0-4.885,3.429-18.483,4.4-17.139s6.107,9.526,7.328,10.87.5,2.35,1.247,4.281c-.493-3.079-.413-4.923-1.625-6.99C1822.266,411.543,1819.985,406.069,1817.134,400.6Z" transform="translate(-1753.187 -381.416)" fill="#292e3f"/>
            <path id="Trazado_125030" data-name="Trazado 125030" d="M1621.469,356.672c0-.543-2.281,2.194-5.131,5.045s-7.754,3.649-11.746,6.956-9.693,9.131-11.973,11.179a6.957,6.957,0,0,1-4.763,1.866,5.321,5.321,0,0,0,3.318,2.658,4.459,4.459,0,0,0,2.128-.308s8.832-8.92,12.2-11.061c2.425-1.54,11.632-6.386,11.632-6.386s-.412,3.551-.937,8.536c1.12-4.818,2.242-8.336,2.531-10.02C1619.416,361.146,1621.469,357.215,1621.469,356.672Z" transform="translate(-1587.855 -352.572)" fill="#292e3f"/>
          </g>
          <g id="Grupo_89525" data-name="Grupo 89525" transform="translate(28.477 159.144)">
            <path id="Trazado_125031" data-name="Trazado 125031" d="M1814.417,960.86c-.605-1.672.147-5.975.147-5.975.014-.36-.331-.682-.909-.959-.109.587-.768,1.02-1.7,1.3a21.737,21.737,0,0,1-.24,5.5c-.684,3.041-1.369,4.181-.745,7.478s.9,6.587-1.006,7.271-7.372.608-7.126-.635,1.732-3.7,1.275-9.02-2.013-9.491-.856-12.227a1.548,1.548,0,0,1-.144-.492c-.961.231-1.528.6-1.384,1.121a112.3,112.3,0,0,1,1.6,13.515c.088,2.628-1.832,5.275-2.906,7.1-.788,2.205-.739,4.494,1.427,5.349s6.9.57,9.123-.4a6.344,6.344,0,0,0,3.326-4.21c-.154-1.464-.411-3.051-.521-4.607-.266-3.763-.874-5-.532-6.243S1815.022,962.533,1814.417,960.86Z" transform="translate(-1770.106 -939.286)" fill="#5b6989"/>
            <path id="Trazado_125032" data-name="Trazado 125032" d="M1694.455,893.759a1.52,1.52,0,0,0-.654-1.162c-.217,1.135-1.782,2.092-3.492,2.4a7.758,7.758,0,0,1-1.315.094,4.056,4.056,0,0,1,.745,2.205c-.057,1.881,1.939,6.328,1.084,9.465a4.961,4.961,0,0,1-4.105,3.478s-8.04,7.469-9.522,8.039c-1.418.546-4.5.2-6.913-2.1a5.965,5.965,0,0,0-1.05,1.1,8.756,8.756,0,0,0,6.253,4.219c2.851.2,4.937-1.571,7.115-3.452s4.859-3.934,7.025-4.5a11.4,11.4,0,0,0,5.531-2.851,5.186,5.186,0,0,0,1.147-1.979c-.239-1.679-.85-3.57-1.155-5.888C1694.577,898.492,1694.455,893.759,1694.455,893.759Z" transform="translate(-1669.231 -892.597)" fill="#5b6989"/>
            <path id="Trazado_125033" data-name="Trazado 125033" d="M1680.745,919.447c1.482-.57,9.522-8.039,9.522-8.039a4.961,4.961,0,0,0,4.105-3.478c.855-3.136-1.14-7.583-1.083-9.464a4.057,4.057,0,0,0-.745-2.205c-1.953,0-4.641-.546-4.892-2.143-.693.353-1.084.754-.965,1.157a26.784,26.784,0,0,1,.608,6.158c-.035,1.838-1.507,4.407-1.882,5.161-1.351,2.7-7.526,8.124-9.522,9.322a15.909,15.909,0,0,0-2.059,1.436C1676.243,919.646,1679.328,919.993,1680.745,919.447Z" transform="translate(-1672.781 -893.769)" fill="#fbb03b"/>
            <path id="Trazado_125034" data-name="Trazado 125034" d="M1813.813,967.477c.456,5.321-1.031,7.776-1.275,9.02s5.223,1.319,7.127.635,1.63-3.974,1.006-7.271.061-4.437.745-7.478a21.747,21.747,0,0,0,.24-5.5c-2.71.8-7.76.3-8.7-1.634C1811.8,957.987,1813.358,962.156,1813.813,967.477Z" transform="translate(-1779.812 -940.944)" fill="#fbb03b"/>
          </g>
        </g>
      </g>
      <g id="Grupo_89536" data-name="Grupo 89536" transform="translate(852.238 217.172)">
        <ellipse id="Elipse_4732" data-name="Elipse 4732" cx="40.23" cy="18.694" rx="40.23" ry="18.694" transform="translate(0 169.528)" fill="#999" opacity="0.082"/>
        <g id="Grupo_89535" data-name="Grupo 89535" transform="translate(0.894 0)">
          <path id="Trazado_125035" data-name="Trazado 125035" d="M1700.14,680.888l1.272-.063c-.658-13.214,1.817-37.771,2.313-42.49-.526-.083-.982-.146-1.263-.167C1701.972,642.831,1699.477,667.555,1700.14,680.888Z" transform="translate(-1631.783 -558.709)" fill="#fbb03b"/>
          <path id="Trazado_125036" data-name="Trazado 125036" d="M1721.838,336.014l.254,59.511c.427-.634,1-1.317,1.24-1.143l.028.019-.252-58.945a1.779,1.779,0,0,1-1.238.561Z" transform="translate(-1648.613 -325.113)" fill="#fbb03b"/>
          <path id="Trazado_125037" data-name="Trazado 125037" d="M1542.226,815.407a8.194,8.194,0,0,0,7.221-.685,1.625,1.625,0,0,0,.793-1.465c-.327-2.127-.818-30.516.573-36.57s2.291-4.5,2.291-9c0-3.124.434-12.942.7-18.659-2.114,12.368-5.845,33.353-7.516,37.53C1544.9,790.032,1543.284,803.083,1542.226,815.407Z" transform="translate(-1510.01 -644.258)" fill="#c2882e"/>
          <path id="Trazado_125038" data-name="Trazado 125038" d="M1505.424,351.949c.675-1.138,1.459-4.747,2.277-8.6,1.065-5.013,2.186-10.438,3.2-11.363,1.8-1.636,3.035-1.08,4.195-3.289-.257-4.882,1.118-7.076,2.76-6.447,2.137.819.25,3.26,1.663,2.891.305-.08.739-2.971,1.365-3.218a7.6,7.6,0,0,0,3.945-4.4,11.682,11.682,0,0,0,.517-1.623,11.329,11.329,0,0,0,.12-4.937,26.084,26.084,0,0,0-2.157-2.707c-10.182-11.174-24.17-5.237-23.941,5.9a189.576,189.576,0,0,1-1.042,19.323c-.2,2.593-.349,5.095-.349,7.512C1497.979,348.922,1503.87,354.567,1505.424,351.949Z" transform="translate(-1475.866 -299.507)" fill="#311b0b"/>
          <g id="Grupo_89528" data-name="Grupo 89528" transform="translate(31.835 18.014)">
            <path id="Trazado_125039" data-name="Trazado 125039" d="M1558.127,465.628c.314-.838.428-4.287.94-7.006,0-.008,0-.015,0-.023-1.394,2.276-3.1,5.486-4.247,6.939C1556.969,466.489,1557.78,466.552,1558.127,465.628Z" transform="translate(-1551.568 -438.153)" fill="#e8b188"/>
            <path id="Trazado_125040" data-name="Trazado 125040" d="M1578.659,373.458c-.625.247-1.059,3.138-1.364,3.218-1.412.37.474-2.072-1.663-2.891-1.587-.608-2.92,1.427-2.776,5.969a4.638,4.638,0,0,1,.349,1.069c.6,2.626,1.353,4.594,3.223,4.186a2.112,2.112,0,0,1,.543-.065,3.372,3.372,0,0,0,.789-1.012c.873-1.546,4.712-8.432,4.845-14.877A7.6,7.6,0,0,1,1578.659,373.458Z" transform="translate(-1565.473 -369.055)" fill="#e8b188"/>
            <path id="Trazado_125041" data-name="Trazado 125041" d="M1551.511,421.167c-1.87.407-2.626-1.561-3.223-4.186a4.633,4.633,0,0,0-.349-1.069c.005.159.007.313.016.478-1.16,2.209-2.4,1.653-4.194,3.289-1.017.925-2.139,6.35-3.2,11.363,1.34.658,2.4,1.175,3.257,1.555,1.142-1.453,2.853-4.663,4.247-6.939.288-1.52.7-2.81,1.346-3.279,1.313-.955,1.973-.736,2.647-1.277A2.111,2.111,0,0,0,1551.511,421.167Z" transform="translate(-1540.558 -405.214)" fill="#ce9772"/>
          </g>
          <g id="Grupo_89529" data-name="Grupo 89529" transform="translate(33.418 51.829)">
            <path id="Trazado_125042" data-name="Trazado 125042" d="M1560.1,534.018c6.544,5.57,10.07,9.244,12.047,9.476s13.514-.962,16.14-.8,3.454.68,4.353.221a3.7,3.7,0,0,0,1.214-1.823,22.958,22.958,0,0,0-.264-3.84c-.268-1.017-2.651-2.326-3.1-2.632l-.028-.019c-.242-.173-.813.509-1.24,1.143a5.612,5.612,0,0,0-.505.875,13.046,13.046,0,0,1-1.868,1.948s-12.912-1.13-14.33-2.112a66.717,66.717,0,0,1-4.552-5.649c-4.6-5.936-11.245-14.3-13.5-13.6a7.663,7.663,0,0,0-4.664,4.089C1548.744,527.176,1553.558,528.449,1560.1,534.018Z" transform="translate(-1549.16 -517.159)" fill="#e8b188"/>
            <path id="Trazado_125043" data-name="Trazado 125043" d="M1550.04,544.081c2.936,3.138,9,7.757,13.582,11.058,2.826,2.034,5.092,3.568,5.715,3.943,1.636.982,14.423-.347,15.241-.347.046,0,.106,0,.173.009.281.021.737.084,1.263.167,1.587.25,3.81.68,3.81.68s2.023-1.273,2.241-2.091a13.858,13.858,0,0,0,.121-2.454,3.7,3.7,0,0,1-1.214,1.823c-.9.459-1.727-.062-4.353-.221s-14.163,1.034-16.14.8-5.5-3.906-12.046-9.476-11.358-6.843-10.3-12.731C1546.954,537.834,1547.3,541.148,1550.04,544.081Z" transform="translate(-1547.491 -531.114)" fill="#ce9772"/>
          </g>
          <g id="Grupo_89530" data-name="Grupo 89530" transform="translate(47.445)">
            <path id="Trazado_125044" data-name="Trazado 125044" d="M1645.985,307.476s-2.763-4.9-4.137-4.862-2.551,3.889-3.505,3.889c-.921,0-11.324,2.864-20.238,5.543a11.619,11.619,0,0,1-.253,4.114,110.526,110.526,0,0,1,17.839-6.786c3.038-.645,4.432,1.267,5.9,1.3l.033,0a1.779,1.779,0,0,0,1.238-.561c.581-.542.948-1.215,1.545-.737a4.518,4.518,0,0,1,.358.322,2.613,2.613,0,0,1-.272-.914C1644.581,308.193,1645.985,307.476,1645.985,307.476Z" transform="translate(-1615.814 -299.77)" fill="#ce9772"/>
            <path id="Trazado_125045" data-name="Trazado 125045" d="M1639.936,301.153a2.583,2.583,0,0,0,1.484-1.577s-3.618-8.348-5.1-9.09a4.353,4.353,0,0,0-3.247,0s-3.061,2.783-5.473,3.339c-1.908.44-13.787,3.724-18.67,5.078a26.069,26.069,0,0,1,2.157,2.707c.057.27.1.546.133.823,8.914-2.679,19.317-5.543,20.238-5.543.955,0,2.131-3.853,3.506-3.889s4.137,4.862,4.137,4.862-1.4.716-1.49,1.308a2.611,2.611,0,0,0,.272.914C1638.568,300.761,1638.978,301.472,1639.936,301.153Z" transform="translate(-1608.929 -290.157)" fill="#e8b188"/>
          </g>
          <g id="Grupo_89531" data-name="Grupo 89531" transform="translate(20.781 170.463)">
            <path id="Trazado_125046" data-name="Trazado 125046" d="M1499.079,1148.593c2.546.847,4.456.051,7,1.642s5.071,3.422,7.469,4.217,6.3-.913,7.012-1.014c.452-.063.921-.729,1.205-1.212a3.478,3.478,0,0,0-1.164-1.076c-3.719-2.308-11.368-5.358-12.187-6.177a11.154,11.154,0,0,1-2.4-4.221c-1.6,1.752-5.84,1.61-8.249-.028C1497.813,1143.648,1496.751,1147.818,1499.079,1148.593Z" transform="translate(-1496.327 -1116.986)" fill="#e8b188"/>
            <path id="Trazado_125047" data-name="Trazado 125047" d="M1547.1,1043.134c4.058-1.058,11.935-1.179,14-1a1.811,1.811,0,0,0,2.023-1.7,18.878,18.878,0,0,0-3.306-1.141c-1.69-.6-7.963-1.091-9.654-1.364a5.3,5.3,0,0,1-2.122-1.181,8.194,8.194,0,0,1-7.221.685c-.152,1.771-.29,3.514-.415,5.218C1541.927,1044.14,1544.069,1043.923,1547.1,1043.134Z" transform="translate(-1529.388 -1036.754)" fill="#e8b188"/>
            <path id="Trazado_125048" data-name="Trazado 125048" d="M1541.064,1058.9c2.564-.218,5.781-1.255,7.854-1.636s11.127-.927,12.654-1.364,2.127-1.036,1.527-2.236a1.936,1.936,0,0,0-.731-.767,1.811,1.811,0,0,1-2.023,1.7c-2.068-.18-9.946-.059-14,1-3.029.79-5.171,1.006-6.691-.476-.079,1.079-.155,2.145-.224,3.183C1539.7,1058.785,1540.174,1058.974,1541.064,1058.9Z" transform="translate(-1528.631 -1049.21)" fill="#ce9772"/>
            <path id="Trazado_125049" data-name="Trazado 125049" d="M1492.966,1138.963c-.353,5.462-1.231,6.532-.6,7.834a6.6,6.6,0,0,0,6.259,3.6c2.127,0,7.754,4.729,10.124,5.073,2.124.307,8.883-1.964,8.979-3.109a1.615,1.615,0,0,0-.145-1.5c-.284.483-.753,1.149-1.205,1.212-.716.1-4.615,1.809-7.012,1.014s-4.923-2.626-7.469-4.217-4.456-.8-7-1.642c-2.329-.774-1.266-4.944-1.311-7.868a5.144,5.144,0,0,1-.527-.4Z" transform="translate(-1492.144 -1115.619)" fill="#ce9772"/>
          </g>
          <g id="Grupo_89532" data-name="Grupo 89532" transform="translate(16 83.013)">
            <path id="Trazado_125050" data-name="Trazado 125050" d="M1514.336,669.966s-2.945,5.4-8.836,5.073c-5.35-.3-11.24-.731-14.851-9.106-5.315,7.418,2.1,29.3,3.076,44.317,1.017,15.595.415,9.44,0,23.577s-3.416,33.233-2.393,37.529a6.624,6.624,0,0,0,3.369,4.227c1.811.164,3.6-.214,4.511-1.217a2.338,2.338,0,0,0,.616-1.315c-.08-2.863.117-7.741.49-13.365.177-2.678.391-5.51.639-8.4,1.058-12.324,2.671-25.375,4.06-28.849,1.671-4.178,5.4-25.163,7.516-37.53.922-5.393,2.2-16.324,2.2-16.327C1514.486,669.451,1514.336,669.966,1514.336,669.966Z" transform="translate(-1484.742 -663.148)" fill="#fbb03b"/>
            <path id="Trazado_125051" data-name="Trazado 125051" d="M1477.793,761.945c-1.023-4.3,1.977-23.393,2.393-37.529s1.017-7.982,0-23.577c-.979-15.012-8.391-36.9-3.076-44.317a28.028,28.028,0,0,1-1.021-2.784s-8.861,8.509-2.718,27.107c3.619,10.955,4.691,21.053,3.164,28.471s-.873,17.186-.873,38.725c0,2.291-.873,10.69.109,14.726a3.47,3.47,0,0,0,1.127,1.755,7.6,7.6,0,0,0,4.264,1.65A6.623,6.623,0,0,1,1477.793,761.945Z" transform="translate(-1471.202 -653.737)" fill="#c2882e"/>
          </g>
          <g id="Grupo_89533" data-name="Grupo 89533" transform="translate(0 33.968)">
            <path id="Trazado_125052" data-name="Trazado 125052" d="M1401.263,642.539l-.136-.663S1401.171,642.754,1401.263,642.539Z" transform="translate(-1401.127 -595.539)" fill="#292e3f"/>
            <path id="Trazado_125053" data-name="Trazado 125053" d="M1485.963,480.175c.2-6.763-2.561-21.324-3.846-24.427-.8-1.941-.451-5.966.081-7.717-.052-.519-.081-1.049-.081-1.59,0-2.417.149-4.919.349-7.512-4.477,2.517-5.937,14.516-4.522,19.865,1.473,5.563,5.4,15.49,2.945,29.18,2.467,7.949,6.537,10.444,10.816,11.34C1485.167,494.8,1485.789,486.067,1485.963,480.175Z" transform="translate(-1460.004 -438.929)" fill="#292e3f"/>
            <path id="Trazado_125054" data-name="Trazado 125054" d="M1534.64,473.831c-.613,2.889-1.208,5.642-1.751,7.317,1.486-2.2,5.3-5.386,8.647-4.272,2.02.673,1.178-2.723.2-5.515a31.719,31.719,0,0,1-.533,4.115C1540.714,476.771,1539.336,476.139,1534.64,473.831Z" transform="translate(-1502.805 -463.956)" fill="#292e3f"/>
          </g>
          <g id="Grupo_89534" data-name="Grupo 89534" transform="translate(21.64 38.482)">
            <path id="Trazado_125055" data-name="Trazado 125055" d="M1524.278,471.269c-3.932-3.933-6.331-8.423-10.677-12.57-.174.924-.3,1.93-.407,2.891.981,2.792,1.823,6.189-.2,5.515-3.342-1.114-7.161,2.069-8.647,4.272a6.781,6.781,0,0,1-.526,1.282c-1.448,2.439-6.658-2.3-7.364-9.372-.532,1.751-.885,5.776-.081,7.717,1.285,3.1,4.046,17.664,3.846,24.427-.173,5.892-.8,14.621,5.742,19.14a33.776,33.776,0,0,0,5.056.55c5.891.327,8.836-5.073,8.836-5.073s.15-.514.4-1.388c.688-2.378,2.154-7.479,3.551-12.588-1.107-.8-2.3-1.671-3.515-2.583.015,5.32-2.887,10.288-5.553,9.183-2.978-1.235-7.81-14.669-6.918-22.093a7.391,7.391,0,0,1,5.159-8.491c2.256-.691,8.9,7.669,13.5,13.6.026-.117.055-.239.08-.351C1528.205,477.977,1528.532,475.523,1524.278,471.269Z" transform="translate(-1495.907 -458.699)" fill="#5b6989"/>
            <path id="Trazado_125056" data-name="Trazado 125056" d="M1554.678,576.619c2.665,1.105,5.567-3.863,5.552-9.183a87.751,87.751,0,0,1-10.067-8.475,9.173,9.173,0,0,1-2.4-4.435C1546.867,561.95,1551.7,575.384,1554.678,576.619Z" transform="translate(-1535.837 -532.647)" fill="#292e3f"/>
          </g>
        </g>
      </g>
      <g id="Grupo_89590" data-name="Grupo 89590" transform="translate(967.497 411.307)">
        <g id="Grupo_89537" data-name="Grupo 89537" transform="translate(0 34.428)" style="mix-blend-mode: multiply;isolation: isolate">
          <path id="Trazado_125057" data-name="Trazado 125057" d="M2165.932,1242.979l-30.527-26.326,37.73-13.847,30.528,26.326Z" transform="translate(-2135.405 -1202.807)" fill="#838383"/>
        </g>
        <g id="Grupo_89550" data-name="Grupo 89550" transform="translate(1.99 24.552)">
          <g id="Grupo_89548" data-name="Grupo 89548">
            <g id="Grupo_89547" data-name="Grupo 89547" style="isolation: isolate">
              <g id="Grupo_89538" data-name="Grupo 89538" transform="translate(3.617 4.279)">
                <path id="Trazado_125058" data-name="Trazado 125058" d="M2196.62,1210.149l-30.527-26.326,32.011-11.651,30.528,26.325Z" transform="translate(-2166.093 -1172.172)" fill="#b3b3b3"/>
              </g>
              <g id="Grupo_89541" data-name="Grupo 89541" transform="translate(3.097 15.875)" style="isolation: isolate">
                <g id="Grupo_89540" data-name="Grupo 89540" clip-path="url(#clip-path-2)">
                  <g id="Grupo_89539" data-name="Grupo 89539" style="isolation: isolate">
                    <path id="Trazado_125059" data-name="Trazado 125059" d="M2193.773,1261.969l-30.527-26.326a.428.428,0,0,0,.27.1l30.527,26.325a.427.427,0,0,1-.27-.1Z" transform="translate(-2163.246 -1235.643)" fill="#999"/>
                    <path id="Trazado_125060" data-name="Trazado 125060" d="M2195.249,1262.448l-30.527-26.326a.629.629,0,0,0,.146-.014l30.527,26.325a.6.6,0,0,1-.146.014Z" transform="translate(-2164.452 -1236.023)" fill="#b3b3b3"/>
                    <path id="Trazado_125061" data-name="Trazado 125061" d="M2196.052,1262.3l-30.528-26.325a.731.731,0,0,0,.1-.03l30.528,26.326a.768.768,0,0,1-.1.03Z" transform="translate(-2165.108 -1235.888)" fill="#ccc"/>
                  </g>
                </g>
              </g>
              <g id="Grupo_89542" data-name="Grupo 89542" transform="translate(3.729)">
                <path id="Trazado_125063" data-name="Trazado 125063" d="M2197.233,1186.727l-30.527-26.326,32.011-11.651,30.528,26.326Z" transform="translate(-2166.706 -1148.75)" fill="#f8f8f8"/>
              </g>
              <g id="Grupo_89545" data-name="Grupo 89545" transform="translate(0 11.651)" style="isolation: isolate">
                <g id="Grupo_89544" data-name="Grupo 89544" clip-path="url(#clip-path-3)">
                  <g id="Grupo_89543" data-name="Grupo 89543" style="isolation: isolate">
                    <path id="Trazado_125064" data-name="Trazado 125064" d="M2178.01,1271.634l-30.527-26.325a2.19,2.19,0,0,1-.681-1.133l30.527,26.325a2.19,2.19,0,0,0,.681,1.133Z" transform="translate(-2146.709 -1238.393)" fill="#999"/>
                    <path id="Trazado_125065" data-name="Trazado 125065" d="M2176.917,1267.1l-30.528-26.325a3.07,3.07,0,0,1-.092-.761l30.527,26.326a3.046,3.046,0,0,0,.092.761Z" transform="translate(-2146.297 -1234.99)" fill="#b3b3b3"/>
                    <path id="Trazado_125066" data-name="Trazado 125066" d="M2176.824,1262.891l-30.527-26.326c0-.032,0-.064,0-.1a4.054,4.054,0,0,1,.077-.674l30.527,26.326a4.058,4.058,0,0,0-.077.674c0,.033,0,.064,0,.1Z" transform="translate(-2146.297 -1231.543)" fill="#ccc"/>
                    <path id="Trazado_125067" data-name="Trazado 125067" d="M2177.251,1258.24l-30.527-26.325a4.89,4.89,0,0,1,.26-.868l30.527,26.326a4.9,4.9,0,0,0-.26.867Z" transform="translate(-2146.646 -1227.662)" fill="#e6e6e6"/>
                    <path id="Trazado_125068" data-name="Trazado 125068" d="M2178.675,1251.974l-30.527-26.326a6.006,6.006,0,0,1,.659-1.207l30.527,26.325a5.981,5.981,0,0,0-.659,1.207Z" transform="translate(-2147.81 -1222.264)" fill="#fff"/>
                    <path id="Trazado_125069" data-name="Trazado 125069" d="M2182.28,1247.115l-30.527-26.325a6.5,6.5,0,0,1,.679-.816l30.528,26.326a6.481,6.481,0,0,0-.68.816Z" transform="translate(-2150.756 -1218.612)" fill="#fff"/>
                    <path id="Trazado_125070" data-name="Trazado 125070" d="M2186,1242.492l-30.528-26.326a6.115,6.115,0,0,1,1.037-.851l30.528,26.325a6.071,6.071,0,0,0-1.037.852Z" transform="translate(-2153.795 -1214.805)" fill="#fff"/>
                    <path id="Trazado_125071" data-name="Trazado 125071" d="M2191.677,1239.71l-30.527-26.325a5.177,5.177,0,0,1,.814-.431l30.528,26.326a5.171,5.171,0,0,0-.814.431Z" transform="translate(-2158.437 -1212.874)" fill="#e6e6e6"/>
                    <path id="Trazado_125072" data-name="Trazado 125072" d="M2196.133,1238.926,2165.6,1212.6c.067-.028.134-.054.2-.079l30.527,26.326q-.1.037-.2.079Z" transform="translate(-2162.078 -1212.522)" fill="#e6e6e6"/>
                  </g>
                </g>
              </g>
              <g id="Grupo_89546" data-name="Grupo 89546" transform="translate(30.527 26.326)">
                <path id="Trazado_125074" data-name="Trazado 125074" d="M2349.126,1292.842l-.077,2.927-32.012,11.651a1.116,1.116,0,0,0-.7.926c-.01.371.289.563.665.426l32.011-11.651-.077,2.927-32.011,11.651c-2,.729-3.591-.293-3.539-2.28a5.924,5.924,0,0,1,3.728-4.926Z" transform="translate(-2313.385 -1292.842)" fill="#8f8f8f"/>
              </g>
            </g>
          </g>
          <g id="Grupo_89549" data-name="Grupo 89549" transform="translate(1.264 2.377)">
            <path id="Trazado_125075" data-name="Trazado 125075" d="M2186.989,1161.758l-29.461,10.387a6.654,6.654,0,0,0-4.091,4.68,6.747,6.747,0,0,0-.218,1.547l1.612,1.39a4.084,4.084,0,0,1-.069-2.6,5.287,5.287,0,0,1,3.226-3.733l28.7-10.12,24.543,21.4c-8.233,2.851-26.418,9.112-27.67,9.373a7.476,7.476,0,0,0-4.311,3.629,6.187,6.187,0,0,0-.727,2.48l1.42,1.224a4.687,4.687,0,0,1,.514-3.061,6.277,6.277,0,0,1,3.383-2.933c1.666-.347,27.841-9.42,28.954-9.806l1.115-.386Z" transform="translate(-2153.218 -1161.758)" fill="#5b6989"/>
          </g>
        </g>
        <g id="Grupo_89563" data-name="Grupo 89563" transform="translate(1.99 16.368)">
          <g id="Grupo_89561" data-name="Grupo 89561">
            <g id="Grupo_89560" data-name="Grupo 89560" style="isolation: isolate">
              <g id="Grupo_89551" data-name="Grupo 89551" transform="translate(3.617 4.279)">
                <path id="Trazado_125076" data-name="Trazado 125076" d="M2196.62,1165.354l-30.527-26.326,32.011-11.651,30.528,26.325Z" transform="translate(-2166.093 -1127.377)" fill="#b3b3b3"/>
              </g>
              <g id="Grupo_89554" data-name="Grupo 89554" transform="translate(3.097 15.875)" style="isolation: isolate">
                <g id="Grupo_89553" data-name="Grupo 89553" clip-path="url(#clip-path-4)">
                  <g id="Grupo_89552" data-name="Grupo 89552" style="isolation: isolate">
                    <path id="Trazado_125077" data-name="Trazado 125077" d="M2193.773,1217.174l-30.527-26.326a.427.427,0,0,0,.27.1l30.527,26.326a.429.429,0,0,1-.27-.1Z" transform="translate(-2163.246 -1190.848)" fill="#999"/>
                    <path id="Trazado_125078" data-name="Trazado 125078" d="M2195.249,1217.653l-30.527-26.326a.61.61,0,0,0,.146-.014l30.527,26.326a.629.629,0,0,1-.146.014Z" transform="translate(-2164.452 -1191.228)" fill="#b3b3b3"/>
                    <path id="Trazado_125079" data-name="Trazado 125079" d="M2196.052,1217.5l-30.528-26.326a.761.761,0,0,0,.1-.03l30.528,26.325a.752.752,0,0,1-.1.03Z" transform="translate(-2165.108 -1191.094)" fill="#ccc"/>
                  </g>
                </g>
              </g>
              <g id="Grupo_89555" data-name="Grupo 89555" transform="translate(3.729)">
                <path id="Trazado_125081" data-name="Trazado 125081" d="M2197.233,1141.934l-30.527-26.326,32.011-11.651,30.528,26.326Z" transform="translate(-2166.706 -1103.957)" fill="#f8f8f8"/>
              </g>
              <g id="Grupo_89558" data-name="Grupo 89558" transform="translate(0 11.651)" style="isolation: isolate">
                <g id="Grupo_89557" data-name="Grupo 89557" clip-path="url(#clip-path-5)">
                  <g id="Grupo_89556" data-name="Grupo 89556" style="isolation: isolate">
                    <path id="Trazado_125082" data-name="Trazado 125082" d="M2178.01,1226.84l-30.527-26.326a2.188,2.188,0,0,1-.681-1.133l30.527,26.326a2.194,2.194,0,0,0,.681,1.133Z" transform="translate(-2146.709 -1193.598)" fill="#999"/>
                    <path id="Trazado_125083" data-name="Trazado 125083" d="M2176.917,1222.3l-30.528-26.326a3.064,3.064,0,0,1-.092-.761l30.527,26.326a3.048,3.048,0,0,0,.092.761Z" transform="translate(-2146.297 -1190.195)" fill="#b3b3b3"/>
                    <path id="Trazado_125084" data-name="Trazado 125084" d="M2176.824,1218.1l-30.527-26.326c0-.031,0-.063,0-.1a4.049,4.049,0,0,1,.077-.674l30.527,26.326a4.052,4.052,0,0,0-.077.674c0,.032,0,.064,0,.1Z" transform="translate(-2146.297 -1186.75)" fill="#ccc"/>
                    <path id="Trazado_125085" data-name="Trazado 125085" d="M2177.251,1213.447l-30.527-26.325a4.873,4.873,0,0,1,.26-.867l30.527,26.325a4.911,4.911,0,0,0-.26.867Z" transform="translate(-2146.646 -1182.87)" fill="#e6e6e6"/>
                    <path id="Trazado_125086" data-name="Trazado 125086" d="M2178.675,1207.18l-30.527-26.325a5.992,5.992,0,0,1,.659-1.207l30.527,26.326a6,6,0,0,0-.659,1.207Z" transform="translate(-2147.81 -1177.47)" fill="#fff"/>
                    <path id="Trazado_125087" data-name="Trazado 125087" d="M2182.28,1202.322,2151.753,1176a6.529,6.529,0,0,1,.679-.816l30.528,26.326a6.474,6.474,0,0,0-.68.816Z" transform="translate(-2150.756 -1173.819)" fill="#fff"/>
                    <path id="Trazado_125088" data-name="Trazado 125088" d="M2186,1197.7l-30.528-26.326a6.081,6.081,0,0,1,1.037-.851l30.528,26.326a6.1,6.1,0,0,0-1.037.851Z" transform="translate(-2153.795 -1170.01)" fill="#fff"/>
                    <path id="Trazado_125089" data-name="Trazado 125089" d="M2191.677,1194.915l-30.527-26.326a5.229,5.229,0,0,1,.814-.432l30.528,26.326a5.2,5.2,0,0,0-.814.431Z" transform="translate(-2158.437 -1168.079)" fill="#e6e6e6"/>
                    <path id="Trazado_125090" data-name="Trazado 125090" d="M2196.133,1194.133l-30.528-26.326c.067-.028.134-.054.2-.078l30.527,26.325q-.1.037-.2.079Z" transform="translate(-2162.078 -1167.729)" fill="#e6e6e6"/>
                  </g>
                </g>
              </g>
              <g id="Grupo_89559" data-name="Grupo 89559" transform="translate(30.527 26.325)">
                <path id="Trazado_125092" data-name="Trazado 125092" d="M2349.126,1248.047l-.077,2.927-32.012,11.651a1.114,1.114,0,0,0-.7.925c-.01.371.289.563.665.427l32.011-11.651-.077,2.927-32.011,11.651c-2,.73-3.591-.293-3.539-2.28a5.924,5.924,0,0,1,3.728-4.927Z" transform="translate(-2313.385 -1248.047)" fill="#8f8f8f"/>
              </g>
            </g>
          </g>
          <g id="Grupo_89562" data-name="Grupo 89562" transform="translate(1.264 2.377)">
            <path id="Trazado_125093" data-name="Trazado 125093" d="M2186.989,1116.965l-29.461,10.387a6.654,6.654,0,0,0-4.091,4.68,6.744,6.744,0,0,0-.218,1.547l1.612,1.39a4.085,4.085,0,0,1-.069-2.6,5.286,5.286,0,0,1,3.226-3.733l28.7-10.12,24.543,21.4c-8.233,2.851-26.418,9.112-27.67,9.373a7.478,7.478,0,0,0-4.311,3.629,6.186,6.186,0,0,0-.727,2.48l1.42,1.225a4.688,4.688,0,0,1,.514-3.062,6.278,6.278,0,0,1,3.383-2.932c1.666-.347,27.841-9.42,28.954-9.806l1.115-.386Z" transform="translate(-2153.218 -1116.965)" fill="#5b6989"/>
          </g>
        </g>
        <g id="Grupo_89576" data-name="Grupo 89576" transform="translate(1.99 8.184)">
          <g id="Grupo_89574" data-name="Grupo 89574">
            <g id="Grupo_89573" data-name="Grupo 89573" style="isolation: isolate">
              <g id="Grupo_89564" data-name="Grupo 89564" transform="translate(3.617 4.279)">
                <path id="Trazado_125094" data-name="Trazado 125094" d="M2196.62,1120.561l-30.527-26.325,32.011-11.651,30.528,26.326Z" transform="translate(-2166.093 -1082.584)" fill="#b3b3b3"/>
              </g>
              <g id="Grupo_89567" data-name="Grupo 89567" transform="translate(3.097 15.875)" style="isolation: isolate">
                <g id="Grupo_89566" data-name="Grupo 89566" clip-path="url(#clip-path-6)">
                  <g id="Grupo_89565" data-name="Grupo 89565" style="isolation: isolate">
                    <path id="Trazado_125095" data-name="Trazado 125095" d="M2193.773,1172.381l-30.527-26.326a.429.429,0,0,0,.27.1l30.527,26.326a.428.428,0,0,1-.27-.1Z" transform="translate(-2163.246 -1146.055)" fill="#999"/>
                    <path id="Trazado_125096" data-name="Trazado 125096" d="M2195.249,1172.859l-30.527-26.325a.622.622,0,0,0,.146-.014l30.527,26.325a.609.609,0,0,1-.146.014Z" transform="translate(-2164.452 -1146.435)" fill="#b3b3b3"/>
                    <path id="Trazado_125097" data-name="Trazado 125097" d="M2196.052,1172.711l-30.528-26.325a.8.8,0,0,0,.1-.03l30.528,26.325a.766.766,0,0,1-.1.03Z" transform="translate(-2165.108 -1146.301)" fill="#ccc"/>
                  </g>
                </g>
              </g>
              <g id="Grupo_89568" data-name="Grupo 89568" transform="translate(3.729)">
                <path id="Trazado_125099" data-name="Trazado 125099" d="M2197.233,1097.139l-30.527-26.326,32.011-11.651,30.528,26.326Z" transform="translate(-2166.706 -1059.162)" fill="#f8f8f8"/>
              </g>
              <g id="Grupo_89571" data-name="Grupo 89571" transform="translate(0 11.652)" style="isolation: isolate">
                <g id="Grupo_89570" data-name="Grupo 89570" clip-path="url(#clip-path-7)">
                  <g id="Grupo_89569" data-name="Grupo 89569" style="isolation: isolate">
                    <path id="Trazado_125100" data-name="Trazado 125100" d="M2178.01,1182.046l-30.527-26.325a2.189,2.189,0,0,1-.681-1.133l30.527,26.325a2.189,2.189,0,0,0,.681,1.133Z" transform="translate(-2146.709 -1148.805)" fill="#999"/>
                    <path id="Trazado_125101" data-name="Trazado 125101" d="M2176.917,1177.51l-30.528-26.325a3.069,3.069,0,0,1-.092-.761l30.527,26.326a3.044,3.044,0,0,0,.092.761Z" transform="translate(-2146.297 -1145.402)" fill="#b3b3b3"/>
                    <path id="Trazado_125102" data-name="Trazado 125102" d="M2176.824,1173.3l-30.527-26.326c0-.032,0-.064,0-.1a4.057,4.057,0,0,1,.077-.675l30.527,26.326a4.049,4.049,0,0,0-.077.674c0,.033,0,.064,0,.1Z" transform="translate(-2146.297 -1141.956)" fill="#ccc"/>
                    <path id="Trazado_125103" data-name="Trazado 125103" d="M2177.251,1168.652l-30.527-26.326a4.89,4.89,0,0,1,.26-.867l30.527,26.326a4.9,4.9,0,0,0-.26.867Z" transform="translate(-2146.646 -1138.075)" fill="#e6e6e6"/>
                    <path id="Trazado_125104" data-name="Trazado 125104" d="M2178.675,1162.387l-30.527-26.326a5.992,5.992,0,0,1,.659-1.207l30.527,26.325a5.987,5.987,0,0,0-.659,1.207Z" transform="translate(-2147.81 -1132.677)" fill="#fff"/>
                    <path id="Trazado_125105" data-name="Trazado 125105" d="M2182.28,1157.527l-30.527-26.325a6.542,6.542,0,0,1,.679-.817l30.528,26.326a6.463,6.463,0,0,0-.68.816Z" transform="translate(-2150.756 -1129.024)" fill="#fff"/>
                    <path id="Trazado_125106" data-name="Trazado 125106" d="M2186,1152.9l-30.528-26.326a6.109,6.109,0,0,1,1.037-.851l30.528,26.325a6.091,6.091,0,0,0-1.037.851Z" transform="translate(-2153.795 -1125.217)" fill="#fff"/>
                    <path id="Trazado_125107" data-name="Trazado 125107" d="M2191.677,1150.122,2161.15,1123.8a5.179,5.179,0,0,1,.814-.432l30.528,26.325a5.223,5.223,0,0,0-.814.431Z" transform="translate(-2158.437 -1123.286)" fill="#e6e6e6"/>
                    <path id="Trazado_125108" data-name="Trazado 125108" d="M2196.133,1149.34l-30.528-26.326c.067-.028.134-.054.2-.078l30.527,26.325c-.067.025-.134.051-.2.079Z" transform="translate(-2162.078 -1122.936)" fill="#e6e6e6"/>
                  </g>
                </g>
              </g>
              <g id="Grupo_89572" data-name="Grupo 89572" transform="translate(30.527 26.326)">
                <path id="Trazado_125110" data-name="Trazado 125110" d="M2349.126,1203.254l-.077,2.927-32.012,11.651a1.115,1.115,0,0,0-.7.926c-.01.371.289.563.665.426l32.011-11.651-.077,2.927-32.011,11.651c-2,.73-3.591-.293-3.539-2.28a5.923,5.923,0,0,1,3.728-4.926Z" transform="translate(-2313.385 -1203.254)" fill="#8f8f8f"/>
              </g>
            </g>
          </g>
          <g id="Grupo_89575" data-name="Grupo 89575" transform="translate(1.264 2.377)">
            <path id="Trazado_125111" data-name="Trazado 125111" d="M2186.989,1072.17l-29.461,10.387a6.654,6.654,0,0,0-4.091,4.68,6.75,6.75,0,0,0-.218,1.548l1.612,1.39a4.084,4.084,0,0,1-.069-2.6,5.287,5.287,0,0,1,3.226-3.733l28.7-10.12,24.543,21.4c-8.233,2.851-26.418,9.112-27.67,9.373a7.478,7.478,0,0,0-4.311,3.629,6.186,6.186,0,0,0-.727,2.481l1.42,1.224a4.687,4.687,0,0,1,.514-3.061,6.277,6.277,0,0,1,3.383-2.933c1.666-.347,27.841-9.42,28.954-9.806l1.115-.386Z" transform="translate(-2153.218 -1072.17)" fill="#5b6989"/>
          </g>
        </g>
        <g id="Grupo_89589" data-name="Grupo 89589" transform="translate(1.99)">
          <g id="Grupo_89587" data-name="Grupo 89587">
            <g id="Grupo_89586" data-name="Grupo 89586" style="isolation: isolate">
              <g id="Grupo_89577" data-name="Grupo 89577" transform="translate(3.617 4.279)">
                <path id="Trazado_125112" data-name="Trazado 125112" d="M2196.62,1075.766l-30.527-26.326,32.011-11.651,30.528,26.326Z" transform="translate(-2166.093 -1037.789)" fill="#b3b3b3"/>
              </g>
              <g id="Grupo_89580" data-name="Grupo 89580" transform="translate(3.097 15.875)" style="isolation: isolate">
                <g id="Grupo_89579" data-name="Grupo 89579" clip-path="url(#clip-path-8)">
                  <g id="Grupo_89578" data-name="Grupo 89578" style="isolation: isolate">
                    <path id="Trazado_125113" data-name="Trazado 125113" d="M2193.773,1127.586l-30.527-26.326a.425.425,0,0,0,.27.1l30.527,26.326a.429.429,0,0,1-.27-.1Z" transform="translate(-2163.246 -1101.26)" fill="#999"/>
                    <path id="Trazado_125114" data-name="Trazado 125114" d="M2195.249,1128.066l-30.527-26.326a.628.628,0,0,0,.146-.014l30.527,26.325a.622.622,0,0,1-.146.014Z" transform="translate(-2164.452 -1101.642)" fill="#b3b3b3"/>
                    <path id="Trazado_125115" data-name="Trazado 125115" d="M2196.052,1127.917l-30.528-26.325a.731.731,0,0,0,.1-.03l30.528,26.326a.767.767,0,0,1-.1.03Z" transform="translate(-2165.108 -1101.506)" fill="#ccc"/>
                  </g>
                </g>
              </g>
              <g id="Grupo_89581" data-name="Grupo 89581" transform="translate(3.729)">
                <path id="Trazado_125117" data-name="Trazado 125117" d="M2197.233,1052.345l-30.527-26.325,32.011-11.651,30.528,26.326Z" transform="translate(-2166.706 -1014.369)" fill="#f8f8f8"/>
              </g>
              <g id="Grupo_89584" data-name="Grupo 89584" transform="translate(0 11.651)" style="isolation: isolate">
                <g id="Grupo_89583" data-name="Grupo 89583" clip-path="url(#clip-path-9)">
                  <g id="Grupo_89582" data-name="Grupo 89582" style="isolation: isolate">
                    <path id="Trazado_125118" data-name="Trazado 125118" d="M2178.01,1137.253l-30.527-26.325a2.191,2.191,0,0,1-.681-1.133l30.527,26.326a2.19,2.19,0,0,0,.681,1.132Z" transform="translate(-2146.709 -1104.012)" fill="#999"/>
                    <path id="Trazado_125119" data-name="Trazado 125119" d="M2176.917,1132.717l-30.528-26.326a3.07,3.07,0,0,1-.092-.761l30.527,26.326a3.047,3.047,0,0,0,.092.761Z" transform="translate(-2146.297 -1100.609)" fill="#b3b3b3"/>
                    <path id="Trazado_125120" data-name="Trazado 125120" d="M2176.824,1128.51l-30.527-26.325c0-.032,0-.064,0-.1a4.049,4.049,0,0,1,.077-.674l30.527,26.326a4.047,4.047,0,0,0-.077.674c0,.032,0,.064,0,.1Z" transform="translate(-2146.297 -1097.162)" fill="#ccc"/>
                    <path id="Trazado_125121" data-name="Trazado 125121" d="M2177.251,1123.859l-30.527-26.326a4.879,4.879,0,0,1,.26-.867l30.527,26.326a4.908,4.908,0,0,0-.26.867Z" transform="translate(-2146.646 -1093.281)" fill="#e6e6e6"/>
                    <path id="Trazado_125122" data-name="Trazado 125122" d="M2178.675,1117.593l-30.527-26.325a5.979,5.979,0,0,1,.659-1.207l30.527,26.325a6,6,0,0,0-.659,1.207Z" transform="translate(-2147.81 -1087.883)" fill="#fff"/>
                    <path id="Trazado_125123" data-name="Trazado 125123" d="M2182.28,1112.734l-30.527-26.325a6.523,6.523,0,0,1,.679-.817l30.528,26.325a6.493,6.493,0,0,0-.68.816Z" transform="translate(-2150.756 -1084.231)" fill="#fff"/>
                    <path id="Trazado_125124" data-name="Trazado 125124" d="M2186,1108.109l-30.528-26.325a6.088,6.088,0,0,1,1.037-.851l30.528,26.326a6.077,6.077,0,0,0-1.037.851Z" transform="translate(-2153.795 -1080.422)" fill="#fff"/>
                    <path id="Trazado_125125" data-name="Trazado 125125" d="M2191.677,1105.327,2161.15,1079a5.22,5.22,0,0,1,.814-.432l30.528,26.326a5.183,5.183,0,0,0-.814.432Z" transform="translate(-2158.437 -1078.491)" fill="#e6e6e6"/>
                    <path id="Trazado_125126" data-name="Trazado 125126" d="M2196.133,1104.545l-30.528-26.326c.067-.028.134-.054.2-.078l30.527,26.325q-.1.037-.2.079Z" transform="translate(-2162.078 -1078.141)" fill="#e6e6e6"/>
                  </g>
                </g>
              </g>
              <g id="Grupo_89585" data-name="Grupo 89585" transform="translate(30.527 26.326)">
                <path id="Trazado_125128" data-name="Trazado 125128" d="M2349.126,1158.459l-.077,2.927-32.012,11.651a1.115,1.115,0,0,0-.7.925c-.01.371.289.563.665.427l32.011-11.651-.077,2.927-32.011,11.651c-2,.73-3.591-.293-3.539-2.28a5.923,5.923,0,0,1,3.728-4.926Z" transform="translate(-2313.385 -1158.459)" fill="#8f8f8f"/>
              </g>
            </g>
          </g>
          <g id="Grupo_89588" data-name="Grupo 89588" transform="translate(1.264 2.377)">
            <path id="Trazado_125129" data-name="Trazado 125129" d="M2186.989,1027.377l-29.461,10.387a6.655,6.655,0,0,0-4.091,4.68,6.747,6.747,0,0,0-.218,1.548l1.612,1.39a4.085,4.085,0,0,1-.069-2.6,5.286,5.286,0,0,1,3.226-3.733l28.7-10.12,24.543,21.4c-8.233,2.851-26.418,9.112-27.67,9.373a7.477,7.477,0,0,0-4.311,3.628,6.186,6.186,0,0,0-.727,2.481l1.42,1.224a4.688,4.688,0,0,1,.514-3.062,6.278,6.278,0,0,1,3.383-2.932c1.666-.347,27.841-9.42,28.954-9.807l1.115-.386Z" transform="translate(-2153.218 -1027.377)" fill="#5b6989"/>
          </g>
        </g>
      </g>
      <g id="Grupo_89670" data-name="Grupo 89670" transform="translate(690.994 295.965)">
        <path id="Trazado_125130" data-name="Trazado 125130" d="M877.062,1089.037l-69.692,40.509-105.9-61.164,69.677-40.48Z" transform="translate(-699.077 -938.254)" fill="#848484" opacity="0.163"/>
        <g id="Grupo_89605" data-name="Grupo 89605" transform="translate(100.541 60.697)">
          <g id="Grupo_89604" data-name="Grupo 89604" style="isolation: isolate">
            <g id="Grupo_89591" data-name="Grupo 89591" transform="translate(48.305 77.226)">
              <path id="Trazado_125131" data-name="Trazado 125131" d="M1347.323,1254.342l-4.38-2.549-.03-12.455,4.361,2.549Z" transform="translate(-1342.913 -1239.338)" fill="#c8a376"/>
            </g>
            <g id="Grupo_89592" data-name="Grupo 89592" transform="translate(48.305 76.262)">
              <path id="Trazado_125132" data-name="Trazado 125132" d="M1347.275,1238.628l-4.361-2.549,1.644-.964,4.38,2.548Z" transform="translate(-1342.913 -1235.115)" fill="#f4e0ce"/>
            </g>
            <g id="Grupo_89593" data-name="Grupo 89593" transform="translate(49.935 72.472)">
              <path id="Trazado_125133" data-name="Trazado 125133" d="M1354.445,1224.856l-4.38-2.549-.015-3.79,4.38,2.549Z" transform="translate(-1350.05 -1218.518)" fill="#c8a376"/>
            </g>
            <g id="Grupo_89594" data-name="Grupo 89594" transform="translate(48.286 72.472)">
              <path id="Trazado_125134" data-name="Trazado 125134" d="M1347.2,1222.031l-4.365-2.549,1.648-.964,4.38,2.549Z" transform="translate(-1342.831 -1218.518)" fill="#f4e0ce"/>
            </g>
            <g id="Grupo_89595" data-name="Grupo 89595" transform="translate(1.861 103.071)">
              <path id="Trazado_125135" data-name="Trazado 125135" d="M1143.862,1356.014l-4.365-2.515,1.633-.964,4.38,2.549Z" transform="translate(-1139.497 -1352.535)" fill="#f4e0ce"/>
            </g>
            <g id="Grupo_89596" data-name="Grupo 89596" transform="translate(3.494 73.437)">
              <path id="Trazado_125136" data-name="Trazado 125136" d="M1151.015,1251.135l-4.365-2.549,44.792-25.846,4.365,2.549Z" transform="translate(-1146.651 -1222.74)" fill="#f4e0ce"/>
            </g>
            <g id="Grupo_89597" data-name="Grupo 89597" transform="translate(1.846 99.282)">
              <path id="Trazado_125137" data-name="Trazado 125137" d="M1143.8,1339.419l-4.365-2.515,1.648-.964,4.365,2.548Z" transform="translate(-1139.432 -1335.939)" fill="#f4e0ce"/>
            </g>
            <g id="Grupo_89598" data-name="Grupo 89598" transform="translate(6.211 75.021)">
              <path id="Trazado_125138" data-name="Trazado 125138" d="M1206.653,1229.682l.015,3.789-1.663.964-44.792,25.845-1.648.931-.015-3.789,1.648-.931,44.792-25.845Z" transform="translate(-1158.55 -1229.682)" fill="#846340"/>
            </g>
            <g id="Grupo_89599" data-name="Grupo 89599" transform="translate(1.846 100.246)">
              <path id="Trazado_125139" data-name="Trazado 125139" d="M1143.812,1346.466l-4.365-2.515-.015-3.789,4.365,2.515Z" transform="translate(-1139.432 -1340.162)" fill="#c8a376"/>
            </g>
            <g id="Grupo_89600" data-name="Grupo 89600" transform="translate(48.103 5.718)">
              <path id="Trazado_125140" data-name="Trazado 125140" d="M1346.578,996.412l-4.365-2.549-.183-67.719,4.361,2.515Z" transform="translate(-1342.03 -926.144)" fill="#c8a376"/>
            </g>
            <g id="Grupo_89601" data-name="Grupo 89601" transform="translate(0 29.669)">
              <path id="Trazado_125141" data-name="Trazado 125141" d="M1135.957,1121.377l-4.365-2.545-.247-87.786,4.365,2.515Z" transform="translate(-1131.346 -1031.045)" fill="#c8a376"/>
            </g>
            <g id="Grupo_89602" data-name="Grupo 89602">
              <path id="Trazado_125142" data-name="Trazado 125142" d="M1135.711,933.286l-4.365-2.515,51.377-29.669,4.384,2.549Z" transform="translate(-1131.346 -901.102)" fill="#f4e0ce"/>
            </g>
            <g id="Grupo_89603" data-name="Grupo 89603" transform="translate(4.365 2.549)">
              <path id="Trazado_125143" data-name="Trazado 125143" d="M1201.859,912.265l.232,87.787-3.278,1.895-.048-12.455,1.663-.964-.015-3.789-1.663.964-.187-67.753-44.792,25.875.187,67.723-1.648.931.015,3.789,1.648-.931.03,12.486-3.292,1.895-.247-87.817Z" transform="translate(-1150.463 -912.265)" fill="#846340"/>
            </g>
          </g>
        </g>
        <g id="Grupo_89620" data-name="Grupo 89620" transform="translate(22.583 16.432)">
          <g id="Grupo_89619" data-name="Grupo 89619" style="isolation: isolate">
            <g id="Grupo_89606" data-name="Grupo 89606" transform="translate(48.32 77.226)">
              <path id="Trazado_125144" data-name="Trazado 125144" d="M1005.934,1060.467l-4.365-2.548-.034-12.456,4.365,2.515Z" transform="translate(-1001.535 -1045.463)" fill="#c8a376"/>
            </g>
            <g id="Grupo_89607" data-name="Grupo 89607" transform="translate(48.32 76.262)">
              <path id="Trazado_125145" data-name="Trazado 125145" d="M1005.9,1044.721l-4.365-2.515,1.648-.964,4.365,2.549Z" transform="translate(-1001.535 -1041.242)" fill="#f4e0ce"/>
            </g>
            <g id="Grupo_89608" data-name="Grupo 89608" transform="translate(49.953 72.473)">
              <path id="Trazado_125146" data-name="Trazado 125146" d="M1013.068,1030.982l-4.365-2.548-.015-3.79,4.365,2.549Z" transform="translate(-1008.688 -1024.644)" fill="#c8a376"/>
            </g>
            <g id="Grupo_89609" data-name="Grupo 89609" transform="translate(48.305 72.473)">
              <path id="Trazado_125147" data-name="Trazado 125147" d="M1005.835,1028.123l-4.365-2.515,1.648-.964,4.365,2.549Z" transform="translate(-1001.47 -1024.644)" fill="#f4e0ce"/>
            </g>
            <g id="Grupo_89610" data-name="Grupo 89610" transform="translate(1.88 103.101)">
              <path id="Trazado_125148" data-name="Trazado 125148" d="M802.5,1162.272l-4.365-2.549,1.633-.931,4.365,2.515Z" transform="translate(-798.136 -1158.793)" fill="#f4e0ce"/>
            </g>
            <g id="Grupo_89611" data-name="Grupo 89611" transform="translate(3.498 73.437)">
              <path id="Trazado_125149" data-name="Trazado 125149" d="M809.6,1057.257l-4.38-2.515,44.807-25.875,4.365,2.515Z" transform="translate(-805.223 -1028.867)" fill="#f4e0ce"/>
            </g>
            <g id="Grupo_89612" data-name="Grupo 89612" transform="translate(1.865 99.312)">
              <path id="Trazado_125150" data-name="Trazado 125150" d="M802.435,1145.675l-4.365-2.549,1.633-.931,4.38,2.515Z" transform="translate(-798.07 -1142.195)" fill="#f4e0ce"/>
            </g>
            <g id="Grupo_89613" data-name="Grupo 89613" transform="translate(6.23 75.021)">
              <path id="Trazado_125151" data-name="Trazado 125151" d="M865.276,1035.807l.015,3.79-1.648.93L818.836,1066.4l-1.633.964-.015-3.789,1.648-.964,44.792-25.875Z" transform="translate(-817.188 -1035.807)" fill="#846340"/>
            </g>
            <g id="Grupo_89614" data-name="Grupo 89614" transform="translate(1.865 100.243)">
              <path id="Trazado_125152" data-name="Trazado 125152" d="M802.45,1152.61l-4.365-2.549-.015-3.79,4.365,2.549Z" transform="translate(-798.07 -1146.271)" fill="#c8a376"/>
            </g>
            <g id="Grupo_89615" data-name="Grupo 89615" transform="translate(48.103 5.684)">
              <path id="Trazado_125153" data-name="Trazado 125153" d="M1005.153,802.391l-4.365-2.515-.2-67.753,4.38,2.549Z" transform="translate(-1000.586 -732.124)" fill="#c8a376"/>
            </g>
            <g id="Grupo_89616" data-name="Grupo 89616" transform="translate(0 29.665)">
              <path id="Trazado_125154" data-name="Trazado 125154" d="M794.533,927.49l-4.38-2.549-.25-87.787,4.365,2.549Z" transform="translate(-789.903 -837.154)" fill="#c8a376"/>
            </g>
            <g id="Grupo_89617" data-name="Grupo 89617">
              <path id="Trazado_125155" data-name="Trazado 125155" d="M794.268,739.441l-4.365-2.549,51.4-29.665,4.365,2.515Z" transform="translate(-789.903 -707.228)" fill="#f4e0ce"/>
            </g>
            <g id="Grupo_89618" data-name="Grupo 89618" transform="translate(4.365 2.515)">
              <path id="Trazado_125156" data-name="Trazado 125156" d="M860.416,718.244l.25,87.82-3.292,1.895-.034-12.489,1.648-.93-.015-3.79-1.648.931-.187-67.719-44.807,25.845.2,67.749-1.648.965.015,3.789,1.633-.964.045,12.459-3.292,1.925-.265-87.787Z" transform="translate(-809.02 -718.244)" fill="#846340"/>
            </g>
          </g>
        </g>
        <g id="Grupo_89624" data-name="Grupo 89624" transform="translate(0)" style="isolation: isolate">
          <g id="Grupo_89621" data-name="Grupo 89621" transform="translate(105.9 61.134)">
            <path id="Trazado_125157" data-name="Trazado 125157" d="M1224.51,903.017V910.6l-69.692,40.476.015-7.579Z" transform="translate(-1154.818 -903.017)" fill="#846340"/>
          </g>
          <g id="Grupo_89622" data-name="Grupo 89622" transform="translate(0 40.476)">
            <path id="Trazado_125158" data-name="Trazado 125158" d="M796.909,873.671l-.015,7.579-105.9-61.134.015-7.579Z" transform="translate(-690.993 -812.537)" fill="#c8a376"/>
          </g>
          <g id="Grupo_89623" data-name="Grupo 89623" transform="translate(0.015)">
            <path id="Trazado_125159" data-name="Trazado 125159" d="M866.636,696.394,796.959,736.87l-105.9-61.134,69.677-40.476Z" transform="translate(-691.059 -635.26)" fill="#f4e0ce"/>
            <path id="Trazado_125160" data-name="Trazado 125160" d="M731.684,693.751l60.417-35.1,96.625,55.794-60.417,35.1Z" transform="translate(-722.408 -653.309)" fill="#292e3f"/>
          </g>
        </g>
        <g id="Grupo_89627" data-name="Grupo 89627" transform="translate(32.976 19.134)">
          <g id="Grupo_89625" data-name="Grupo 89625" transform="translate(25.412)">
            <path id="Trazado_125161" data-name="Trazado 125161" d="M967.453,719.062l10.733,10.064,45.85,27.774L1005.4,767.707l-1.088-.621,17.549-10.187-44.949-27.277-10.049-9.41-16.215,4.193c1.26,1.427,4.335,5.9-2.825,10.064l-1.1-.62c7.717-4.507,2.25-9.35,2.19-9.384l-.516-.463Z" transform="translate(-946.72 -719.062)" fill="#fefefe"/>
          </g>
          <g id="Grupo_89626" data-name="Grupo 89626" transform="translate(0 14.787)">
            <path id="Trazado_125162" data-name="Trazado 125162" d="M919.512,817.686,900.905,828.5l-48.1-26.466-17.381-6.151,8.464-11.058.762.28c.34.123,8.509,3.165,16.185-1.275l1.1.62c-7.16,4.163-14.911,2.392-17.351,1.678l-7.19,9.38,16.417,5.841,47.046,25.909,17.568-10.191Z" transform="translate(-835.421 -783.828)" fill="#fefefe"/>
          </g>
        </g>
        <g id="Grupo_89632" data-name="Grupo 89632" transform="translate(45.756 35.909)">
          <g id="Grupo_89631" data-name="Grupo 89631" style="isolation: isolate">
            <g id="Grupo_89628" data-name="Grupo 89628" transform="translate(93.736 29.945)">
              <path id="Trazado_125163" data-name="Trazado 125163" d="M1305.847,923.689l-.015,3.789-3.887,4.1.019-3.789Z" transform="translate(-1301.946 -923.689)" fill="#b9822b"/>
            </g>
            <g id="Grupo_89629" data-name="Grupo 89629" transform="translate(0 4.099)">
              <path id="Trazado_125164" data-name="Trazado 125164" d="M985.153,840.436l-.018,3.789L891.4,814.281l.019-3.789Z" transform="translate(-891.398 -810.491)" fill="#846340"/>
            </g>
            <g id="Grupo_89630" data-name="Grupo 89630" transform="translate(0.019)">
              <path id="Trazado_125165" data-name="Trazado 125165" d="M989.1,822.481l-3.883,4.1L891.48,796.636l3.883-4.1Z" transform="translate(-891.48 -792.536)" fill="#fbb03b"/>
            </g>
          </g>
        </g>
      </g>
    </g>
  </g>
</svg>
