<svg xmlns="http://www.w3.org/2000/svg" xmlns:xlink="http://www.w3.org/1999/xlink" width="820" height="393" viewBox="0 0 820 393">
  <defs>
    <clipPath id="clip-path">
      <path id="Trazado_101510" data-name="Trazado 101510" d="M1892.606,715.7l-44.242,44.242.247.246H1936.6l.246-.246Z" transform="translate(-1848.364 -715.697)" fill="#fff"/>
    </clipPath>
  </defs>
  <g id="Grupo_102547" data-name="Grupo 102547" transform="translate(1801 6211)">
    <g id="Grupo_102521" data-name="Grupo 102521">
      <g id="Grupo_87309" data-name="Grupo 87309" transform="translate(-1801 -6211)" opacity="0.25">
        <rect id="Rectángulo_32436" data-name="Rectángulo 32436" width="820" height="393" transform="translate(0 0)" fill="#36a3f7"/>
      </g>
      <g id="Grupo_102466" data-name="Grupo 102466" transform="translate(1880.477 -1532.058)">
        <g id="Grupo_101948" data-name="Grupo 101948" transform="translate(-3445.307 -4665.038)">
          <g id="Grupo_101946" data-name="Grupo 101946">
            <g id="Grupo_101939" data-name="Grupo 101939" transform="translate(3.746 171.256)">
              <ellipse id="Elipse_4991" data-name="Elipse 4991" cx="70.389" cy="40.641" rx="70.389" ry="40.641" fill="#354e66"/>
              <g id="Grupo_101938" data-name="Grupo 101938" transform="translate(0.005 40.689)">
                <path id="Trazado_157599" data-name="Trazado 157599" d="M207.534,158.238c-27.489,15.872-72.056,15.872-99.545,0-13.7-7.913-20.571-18.274-20.612-28.645v3c-.044,10.432,6.825,20.873,20.612,28.832,27.489,15.872,72.056,15.872,99.545,0,13.746-7.933,20.618-18.336,20.618-28.736l0-3.144C228.128,139.934,221.256,150.313,207.534,158.238Z" transform="translate(-87.377 -129.549)" fill="#293644"/>
              </g>
            </g>
            <path id="Trazado_157600" data-name="Trazado 157600" d="M208.939,125.91c-28.95,16.714-75.892,16.714-104.842,0a50.78,50.78,0,0,1-15.9-13.652v46.6c-1.352,11.039,5.258,22.342,19.876,30.783,26.759,15.447,70.141,15.447,96.9,0,13.168-7.6,19.84-17.532,20.049-27.495h0v-.015c.006-.308.006-.619,0-.93V112.029C221.4,117.076,216.045,121.807,208.939,125.91Z" transform="translate(-82.383 48.533)" fill="#1b2735"/>
            <g id="Grupo_101941" data-name="Grupo 101941" transform="translate(3.746 114.347)">
              <ellipse id="Elipse_4992" data-name="Elipse 4992" cx="70.39" cy="40.64" rx="70.39" ry="40.64" fill="#354e66"/>
              <g id="Grupo_101940" data-name="Grupo 101940" transform="translate(0.005 40.69)">
                <path id="Trazado_157601" data-name="Trazado 157601" d="M207.534,138.834c-27.489,15.869-72.056,15.869-99.545,0-13.7-7.913-20.571-18.274-20.612-28.645v3c-.044,10.432,6.825,20.873,20.612,28.832,27.489,15.872,72.056,15.872,99.545,0,13.746-7.933,20.618-18.336,20.618-28.736l0-3.144C228.128,120.53,221.256,130.909,207.534,138.834Z" transform="translate(-87.377 -110.145)" fill="#293644"/>
              </g>
            </g>
            <path id="Trazado_157602" data-name="Trazado 157602" d="M208.939,106.512c-28.95,16.714-75.892,16.714-104.842,0a50.78,50.78,0,0,1-15.9-13.652v46.6C86.84,150.5,93.451,161.8,108.068,170.239c26.759,15.447,70.141,15.447,96.9,0,13.168-7.6,19.84-17.532,20.049-27.495h0v-.015c.006-.308.006-.619,0-.93V92.631C221.4,97.678,216.045,102.409,208.939,106.512Z" transform="translate(-82.383 11.041)" fill="#1b2735"/>
            <g id="Grupo_101943" data-name="Grupo 101943" transform="translate(3.746 51.469)">
              <ellipse id="Elipse_4993" data-name="Elipse 4993" cx="70.39" cy="40.641" rx="70.39" ry="40.641" fill="#354e66"/>
              <g id="Grupo_101942" data-name="Grupo 101942" transform="translate(0.005 40.692)">
                <path id="Trazado_157603" data-name="Trazado 157603" d="M207.534,117.392c-27.489,15.872-72.056,15.872-99.545,0-13.7-7.913-20.571-18.274-20.612-28.642v3c-.044,10.432,6.825,20.873,20.612,28.832,27.489,15.872,72.056,15.872,99.545,0,13.746-7.933,20.618-18.336,20.618-28.736l0-3.141C228.128,99.088,221.256,109.47,207.534,117.392Z" transform="translate(-87.377 -88.706)" fill="#293644"/>
              </g>
            </g>
            <g id="Grupo_101944" data-name="Grupo 101944">
              <ellipse id="Elipse_4994" data-name="Elipse 4994" cx="74.135" cy="42.803" rx="74.135" ry="42.803" fill="#354e66"/>
              <ellipse id="Elipse_4995" data-name="Elipse 4995" cx="68.517" cy="39.559" rx="68.517" ry="39.559" transform="translate(5.619 3.244)" fill="#293644"/>
              <path id="Trazado_157604" data-name="Trazado 157604" d="M108.068,75.595c26.759-15.45,70.141-15.45,96.9,0,12.139,7.009,18.752,15.993,19.876,25.163,1.352-11.039-5.259-22.345-19.876-30.783-26.759-15.45-70.141-15.45-96.9,0C93.451,78.413,86.84,89.719,88.192,100.758,89.316,91.587,95.929,82.6,108.068,75.595Z" transform="translate(-82.383 -55.144)" fill="#1b2735"/>
              <path id="Trazado_157605" data-name="Trazado 157605" d="M212.652,102.08c-28.95,16.714-75.892,16.714-104.842,0C93.378,93.745,86.143,82.832,86.1,71.91v6.121c-.044,10.989,7.191,21.984,21.712,30.369,28.95,16.717,75.892,16.717,104.842,0,14.476-8.358,21.714-19.312,21.714-30.267l0-6.22C234.32,82.835,227.085,93.748,212.652,102.08Z" transform="translate(-86.096 -29.009)" fill="#293644"/>
            </g>
            <g id="Grupo_101945" data-name="Grupo 101945" transform="translate(5.638 65.51)">
              <path id="Trazado_157606" data-name="Trazado 157606" d="M208.939,93.5c-28.95,16.717-75.892,16.717-104.842,0a50.715,50.715,0,0,1-15.9-13.655V101.4c-1.352,11.039,5.258,22.342,19.876,30.78,26.759,15.45,70.141,15.45,96.9,0,13.168-7.6,19.84-17.529,20.049-27.495h0v-.012c.006-.308.006-.619,0-.93V79.619C221.4,84.666,216.045,89.4,208.939,93.5Z" transform="translate(-88.02 -79.619)" fill="#1b2735"/>
            </g>
          </g>
          <path id="Trazado_157610" data-name="Trazado 157610" d="M149.913,257.933C163.656,250,170.528,239.6,170.528,229.2v-3.144l0,.059a24.622,24.622,0,0,0-1.889-9.464v-35a24.646,24.646,0,0,0,1.892-9.356v-3.144l0,.062a24.637,24.637,0,0,0-1.889-9.467V118.766a24.647,24.647,0,0,0,1.892-9.356v-3.141c0,.164-.018.328-.023.5a24.54,24.54,0,0,0-1.868-9.86V79.619A42.623,42.623,0,0,1,161.92,86.9c-.147.126-.3.249-.452.375-.531.449-1.065.9-1.628,1.34-.323.249-.666.493-1,.742-.419.311-.824.628-1.258.933-.481.34-.991.672-1.5,1.006-.314.208-.61.419-.933.625q-1.258.805-2.6,1.578c-1.927,1.112-3.942,2.138-6.015,3.1-3.382,52.307-11.382,115.69-29.357,171.985C129.175,266.864,140.543,263.344,149.913,257.933Z" transform="translate(-26.005 -14.109)" fill="#d4d4d4" style="mix-blend-mode: multiply;isolation: isolate"/>
        </g>
        <g id="Grupo_101959" data-name="Grupo 101959" transform="translate(-3560.489 -4613.861)">
          <g id="Grupo_101957" data-name="Grupo 101957">
            <g id="Grupo_101950" data-name="Grupo 101950" transform="translate(3.746 171.255)">
              <ellipse id="Elipse_4996" data-name="Elipse 4996" cx="70.39" cy="40.641" rx="70.39" ry="40.641" fill="#354e66"/>
              <g id="Grupo_101949" data-name="Grupo 101949" transform="translate(0.005 40.69)">
                <path id="Trazado_157611" data-name="Trazado 157611" d="M168.26,175.688c-27.489,15.869-72.056,15.869-99.545,0-13.7-7.913-20.571-18.274-20.612-28.645v3c-.044,10.435,6.825,20.876,20.612,28.835,27.489,15.872,72.056,15.872,99.545,0,13.746-7.936,20.618-18.336,20.618-28.738l0-3.141C188.854,157.384,181.982,167.763,168.26,175.688Z" transform="translate(-48.103 -146.999)" fill="#293644"/>
              </g>
            </g>
            <path id="Trazado_157612" data-name="Trazado 157612" d="M169.665,143.359c-28.95,16.717-75.889,16.717-104.842,0a50.738,50.738,0,0,1-15.9-13.652v46.6c-1.352,11.039,5.259,22.342,19.879,30.78,26.756,15.45,70.138,15.45,96.9,0,13.168-7.6,19.84-17.529,20.049-27.495h0v-.012c.006-.311.006-.619,0-.93V129.478C182.123,134.525,176.774,139.256,169.665,143.359Z" transform="translate(-43.109 31.082)" fill="#1b2735"/>
            <g id="Grupo_101952" data-name="Grupo 101952" transform="translate(3.746 114.347)">
              <ellipse id="Elipse_4997" data-name="Elipse 4997" cx="70.39" cy="40.641" rx="70.39" ry="40.641" fill="#354e66"/>
              <g id="Grupo_101951" data-name="Grupo 101951" transform="translate(0.005 40.691)">
                <path id="Trazado_157613" data-name="Trazado 157613" d="M168.26,156.284c-27.489,15.869-72.056,15.869-99.545,0-13.7-7.913-20.571-18.274-20.612-28.645v3c-.044,10.435,6.825,20.876,20.612,28.835,27.489,15.872,72.056,15.872,99.545,0,13.746-7.936,20.618-18.336,20.618-28.736l0-3.144C188.854,137.98,181.982,148.359,168.26,156.284Z" transform="translate(-48.103 -127.595)" fill="#293644"/>
              </g>
            </g>
            <path id="Trazado_157614" data-name="Trazado 157614" d="M169.665,123.964c-28.95,16.714-75.889,16.714-104.842,0a50.782,50.782,0,0,1-15.9-13.655v46.6c-1.352,11.039,5.259,22.342,19.879,30.78,26.756,15.45,70.138,15.45,96.9,0,13.168-7.6,19.84-17.529,20.049-27.5h0v-.012c.006-.311.006-.619,0-.93V110.08C182.123,115.127,176.774,119.858,169.665,123.964Z" transform="translate(-43.109 -6.41)" fill="#1b2735"/>
            <g id="Grupo_101954" data-name="Grupo 101954" transform="translate(3.746 51.468)">
              <ellipse id="Elipse_4998" data-name="Elipse 4998" cx="70.39" cy="40.641" rx="70.39" ry="40.641" fill="#354e66"/>
              <g id="Grupo_101953" data-name="Grupo 101953" transform="translate(0.005 40.69)">
                <path id="Trazado_157615" data-name="Trazado 157615" d="M168.26,134.844c-27.489,15.869-72.056,15.869-99.545,0-13.7-7.913-20.571-18.274-20.612-28.645v3c-.044,10.432,6.825,20.873,20.612,28.832,27.489,15.872,72.056,15.872,99.545,0,13.746-7.936,20.618-18.336,20.618-28.736l0-3.144C188.854,116.54,181.982,126.919,168.26,134.844Z" transform="translate(-48.103 -106.155)" fill="#293644"/>
              </g>
            </g>
            <g id="Grupo_101955" data-name="Grupo 101955">
              <ellipse id="Elipse_4999" data-name="Elipse 4999" cx="74.136" cy="42.803" rx="74.136" ry="42.803" fill="#354e66"/>
              <ellipse id="Elipse_5000" data-name="Elipse 5000" cx="68.517" cy="39.559" rx="68.517" ry="39.559" transform="translate(5.619 3.244)" fill="#293644"/>
              <path id="Trazado_157616" data-name="Trazado 157616" d="M68.8,93.042c26.756-15.447,70.138-15.447,96.9,0,12.139,7.009,18.752,16,19.876,25.163,1.352-11.039-5.259-22.342-19.876-30.783-26.759-15.447-70.141-15.447-96.9,0-14.62,8.441-21.231,19.744-19.879,30.783C50.042,109.038,56.655,100.052,68.8,93.042Z" transform="translate(-43.109 -72.594)" fill="#1b2735"/>
              <path id="Trazado_157617" data-name="Trazado 157617" d="M173.378,119.529c-28.95,16.717-75.889,16.717-104.842,0C54.1,111.2,46.869,100.281,46.825,89.359v6.124c-.044,10.989,7.191,21.984,21.712,30.369,28.953,16.714,75.892,16.714,104.842,0,14.476-8.358,21.714-19.312,21.714-30.267l0-6.22C195.046,100.284,187.811,111.2,173.378,119.529Z" transform="translate(-46.822 -46.46)" fill="#293644"/>
            </g>
            <g id="Grupo_101956" data-name="Grupo 101956" transform="translate(5.638 65.511)">
              <path id="Trazado_157618" data-name="Trazado 157618" d="M169.665,110.95c-28.95,16.714-75.889,16.714-104.842,0a50.721,50.721,0,0,1-15.9-13.658v21.55c-1.352,11.039,5.259,22.345,19.879,30.783,26.756,15.45,70.138,15.45,96.9,0,13.168-7.6,19.84-17.529,20.049-27.495h0v-.012c.006-.311.006-.619,0-.93V97.069C182.123,102.116,176.774,106.847,169.665,110.95Z" transform="translate(-48.746 -97.069)" fill="#1b2735"/>
            </g>
          </g>
          <path id="Trazado_157622" data-name="Trazado 157622" d="M110.639,275.383c13.743-7.936,20.615-18.336,20.615-28.739V243.5l0,.059a24.611,24.611,0,0,0-1.889-9.464V199.092a24.632,24.632,0,0,0,1.892-9.353V186.6l0,.059a24.622,24.622,0,0,0-1.889-9.464V136.216a24.646,24.646,0,0,0,1.892-9.356v-3.144c0,.167-.018.331-.023.5a24.558,24.558,0,0,0-1.868-9.86V97.069a42.5,42.5,0,0,1-6.716,7.282c-.144.126-.3.249-.455.375-.528.449-1.062.9-1.625,1.337-.323.252-.666.5-1,.745-.419.311-.824.628-1.258.933-.481.34-.991.672-1.5,1.006-.311.208-.61.419-.933.625q-1.258.805-2.6,1.578c-1.927,1.112-3.942,2.138-6.015,3.1-3.382,52.306-11.382,115.69-29.357,171.985C89.9,284.314,101.269,280.794,110.639,275.383Z" transform="translate(13.269 -31.558)" fill="#d4d4d4" style="mix-blend-mode: multiply;isolation: isolate"/>
        </g>
        <g id="Grupo_101976" data-name="Grupo 101976" transform="translate(-3261.442 -4567.671)">
          <g id="Grupo_101970" data-name="Grupo 101970" transform="translate(0 0)">
            <g id="Grupo_101968" data-name="Grupo 101968" transform="translate(0 0)">
              <g id="Grupo_101961" data-name="Grupo 101961" transform="translate(150.802)">
                <ellipse id="Elipse_5001" data-name="Elipse 5001" cx="40.641" cy="70.39" rx="40.641" ry="70.39" transform="translate(0 40.108) rotate(-29.568)" fill="#1b2735"/>
                <g id="Grupo_101960" data-name="Grupo 101960" transform="translate(35.394 15.265)">
                  <path id="Trazado_157623" data-name="Trazado 157623" d="M166.593,127.068c27.369,16.078,49.359,54.84,49.122,86.582-.12,15.822-5.745,26.908-14.743,32.061l2.61-1.481c9.095-5.109,14.787-16.236,14.907-32.155.24-31.742-21.753-70.5-49.122-86.582-13.684-8.039-26.12-8.883-35.167-3.751l-2.73,1.551C140.512,118.187,152.929,119.041,166.593,127.068Z" transform="translate(-131.47 -118.527)" fill="#354e66"/>
                </g>
              </g>
              <path id="Trazado_157624" data-name="Trazado 157624" d="M136.556,154.7c28.826,16.934,51.987,57.761,51.735,91.189a50.77,50.77,0,0,1-4.027,20.571l40.528-22.993c10.271-4.27,16.84-15.6,16.966-32.478.235-30.9-21.175-68.63-47.813-84.28-13.113-7.7-25.04-8.6-33.809-3.868h0l-.009.006q-.409.22-.809.457l-42.769,24.263C122.724,148.223,129.482,150.543,136.556,154.7Z" transform="translate(25.885 -100.536)" fill="#293644"/>
              <g id="Grupo_101963" data-name="Grupo 101963" transform="translate(101.305 28.081)">
                <ellipse id="Elipse_5002" data-name="Elipse 5002" cx="40.641" cy="70.39" rx="40.641" ry="70.39" transform="translate(0 40.108) rotate(-29.568)" fill="#1b2735"/>
                <g id="Grupo_101962" data-name="Grupo 101962" transform="translate(35.391 15.265)">
                  <path id="Trazado_157625" data-name="Trazado 157625" d="M149.718,136.643c27.366,16.078,49.359,54.84,49.121,86.582-.12,15.822-5.745,26.911-14.743,32.061l2.61-1.481c9.095-5.109,14.787-16.236,14.907-32.155.24-31.742-21.753-70.5-49.121-86.582-13.684-8.039-26.12-8.883-35.167-3.751l-2.733,1.551C123.637,127.762,136.054,128.616,149.718,136.643Z" transform="translate(-114.592 -128.102)" fill="#354e66"/>
                </g>
              </g>
              <path id="Trazado_157626" data-name="Trazado 157626" d="M119.682,164.271c28.827,16.934,51.99,57.761,51.735,91.19a50.772,50.772,0,0,1-4.024,20.571l40.528-22.993c10.268-4.27,16.837-15.6,16.963-32.478.235-30.9-21.172-68.63-47.813-84.28-13.11-7.7-25.037-8.6-33.809-3.868v0l-.009.009q-.409.22-.809.458L99.677,157.138C105.851,157.8,112.608,160.115,119.682,164.271Z" transform="translate(-6.724 -82.035)" fill="#293644"/>
              <g id="Grupo_101965" data-name="Grupo 101965" transform="translate(46.614 59.109)">
                <ellipse id="Elipse_5003" data-name="Elipse 5003" cx="40.641" cy="70.39" rx="40.641" ry="70.39" transform="translate(0 40.109) rotate(-29.568)" fill="#1b2735"/>
                <g id="Grupo_101964" data-name="Grupo 101964" transform="translate(35.394 15.264)">
                  <path id="Trazado_157627" data-name="Trazado 157627" d="M131.068,147.222C158.437,163.3,180.43,202.065,180.19,233.8c-.12,15.825-5.742,26.911-14.743,32.064l2.61-1.481c9.1-5.112,14.787-16.236,14.91-32.158.238-31.739-21.753-70.5-49.121-86.582-13.684-8.039-26.122-8.883-35.17-3.751l-2.73,1.551C104.987,138.344,117.4,139.2,131.068,147.222Z" transform="translate(-95.945 -138.681)" fill="#354e66"/>
                </g>
              </g>
              <g id="Grupo_101966" data-name="Grupo 101966" transform="translate(0 79.114)">
                <ellipse id="Elipse_5004" data-name="Elipse 5004" cx="42.803" cy="74.136" rx="42.803" ry="74.136" transform="matrix(0.87, -0.493, 0.493, 0.87, 0, 42.243)" fill="#293644"/>
                <ellipse id="Elipse_5005" data-name="Elipse 5005" cx="39.559" cy="68.517" rx="39.559" ry="68.517" transform="translate(5.594 45.529) rotate(-29.568)" fill="#1b2735"/>
                <path id="Trazado_157628" data-name="Trazado 157628" d="M129.4,262.733c-26.639-15.649-48.045-53.383-47.813-84.28.106-14.016,4.66-24.2,12.08-29.7C83.4,153.02,76.83,164.35,76.7,181.228c-.235,30.894,21.172,68.627,47.813,84.277,14.553,8.549,27.648,8.722,36.581,2.1C152.57,271.15,141.493,269.833,129.4,262.733Z" transform="translate(-51.129 -123.96)" fill="#354e66"/>
                <path id="Trazado_157629" data-name="Trazado 157629" d="M117.657,155.735c28.826,16.934,51.99,57.761,51.738,91.192-.126,16.664-6.05,28.343-15.529,33.768l5.323-3.021c9.581-5.382,15.576-17.1,15.7-33.868.252-33.431-22.908-74.258-51.735-91.189-14.412-8.467-27.513-9.356-37.041-3.951l-5.408,3.074C90.227,146.389,103.29,147.295,117.657,155.735Z" transform="translate(-43.389 -130.664)" fill="#354e66"/>
              </g>
              <g id="Grupo_101967" data-name="Grupo 101967" transform="translate(59.76 78.666)">
                <path id="Trazado_157630" data-name="Trazado 157630" d="M108.367,162.546c28.827,16.931,51.987,57.759,51.735,91.189a50.769,50.769,0,0,1-4.03,20.571l18.744-10.634c10.271-4.27,16.837-15.6,16.966-32.478.232-30.894-21.175-68.627-47.816-84.277-13.11-7.7-25.037-8.608-33.806-3.871h0l-.012.006c-.273.147-.54.3-.807.458l-20.981,11.9C94.535,156.071,101.29,158.391,108.367,162.546Z" transform="translate(-88.359 -140.145)" fill="#293644"/>
              </g>
            </g>
          </g>
          <path id="Trazado_157634" data-name="Trazado 157634" d="M239.687,208.029l-.015.006,2.61-1.481c9.095-5.109,14.787-16.236,14.907-32.155.088-11.67-2.836-24.286-7.921-36.378-26.741,35.5-73.789,86.189-135.088,105.085a82.359,82.359,0,0,1,1.3,14.737,50.719,50.719,0,0,1-4.03,20.571l14.429-8.185a24.784,24.784,0,0,0,9.611-3.082h0l2.61-1.481a24.77,24.77,0,0,0,7.57-6.663l34.9-19.8a24.705,24.705,0,0,0,9.608-3.082h0l2.61-1.481a24.77,24.77,0,0,0,7.57-6.663l29.709-16.855A24.783,24.783,0,0,0,239.687,208.029Z" transform="translate(16.025 -65.585)" fill="#d4d4d4" style="mix-blend-mode: multiply;isolation: isolate"/>
        </g>
      </g>
      <g id="Grupo_102467" data-name="Grupo 102467" transform="translate(-2560.5 -6927.5)">
        <rect id="Rectángulo_5574" data-name="Rectángulo 5574" width="69.677" height="69.677" transform="translate(957.769 793) rotate(45)" fill="none" stroke="#000" stroke-width="1"/>
        <g id="Grupo_54152" data-name="Grupo 54152" transform="translate(913 798.244)">
          <path id="Trazado_101509" data-name="Trazado 101509" d="M1892.606,715.7l-44.242,44.242.247.246H1936.6l.246-.246Z" transform="translate(-1848.364 -715.697)" fill="#fff" stroke="#000" stroke-width="1"/>
          <g id="Grupo_54151" data-name="Grupo 54151" clip-path="url(#clip-path)">
            <g id="Grupo_54150" data-name="Grupo 54150" transform="translate(2.11 -3.551)">
              <g id="Grupo_54149" data-name="Grupo 54149" transform="translate(0 0)">
                <g id="Grupo_54133" data-name="Grupo 54133" transform="translate(0)">
                  <rect id="Rectángulo_5362" data-name="Rectángulo 5362" width="119.223" height="2.463" transform="translate(0 119.222) rotate(-89.754)"/>
                </g>
                <g id="Grupo_54134" data-name="Grupo 54134" transform="translate(5.157 0.246)">
                  <rect id="Rectángulo_5363" data-name="Rectángulo 5363" width="119.223" height="2.463" transform="translate(0 119.222) rotate(-89.754)"/>
                </g>
                <g id="Grupo_54135" data-name="Grupo 54135" transform="translate(10.313)">
                  <rect id="Rectángulo_5364" data-name="Rectángulo 5364" width="119.223" height="2.463" transform="translate(0 119.222) rotate(-89.754)"/>
                </g>
                <g id="Grupo_54136" data-name="Grupo 54136" transform="translate(15.469 0.246)">
                  <rect id="Rectángulo_5365" data-name="Rectángulo 5365" width="119.223" height="2.463" transform="translate(0 119.222) rotate(-89.754)"/>
                </g>
                <g id="Grupo_54137" data-name="Grupo 54137" transform="translate(20.626)">
                  <rect id="Rectángulo_5366" data-name="Rectángulo 5366" width="119.223" height="2.463" transform="translate(0 119.222) rotate(-89.754)"/>
                </g>
                <g id="Grupo_54138" data-name="Grupo 54138" transform="translate(25.782 0.246)">
                  <rect id="Rectángulo_5367" data-name="Rectángulo 5367" width="119.223" height="2.463" transform="translate(0 119.222) rotate(-89.754)"/>
                </g>
                <g id="Grupo_54139" data-name="Grupo 54139" transform="translate(30.939)">
                  <rect id="Rectángulo_5368" data-name="Rectángulo 5368" width="119.223" height="2.463" transform="translate(0 119.222) rotate(-89.754)"/>
                </g>
                <g id="Grupo_54140" data-name="Grupo 54140" transform="translate(36.095 0.246)">
                  <rect id="Rectángulo_5369" data-name="Rectángulo 5369" width="119.223" height="2.463" transform="translate(0 119.222) rotate(-89.754)"/>
                </g>
                <g id="Grupo_54141" data-name="Grupo 54141" transform="translate(41.252)">
                  <rect id="Rectángulo_5370" data-name="Rectángulo 5370" width="119.223" height="2.463" transform="translate(0 119.222) rotate(-89.754)"/>
                </g>
                <g id="Grupo_54142" data-name="Grupo 54142" transform="translate(46.408 0.246)">
                  <rect id="Rectángulo_5371" data-name="Rectángulo 5371" width="119.223" height="2.463" transform="translate(0 119.222) rotate(-89.754)"/>
                </g>
                <g id="Grupo_54143" data-name="Grupo 54143" transform="translate(51.564)">
                  <rect id="Rectángulo_5372" data-name="Rectángulo 5372" width="119.223" height="2.463" transform="translate(0 119.222) rotate(-89.754)"/>
                </g>
                <g id="Grupo_54144" data-name="Grupo 54144" transform="translate(56.721 0.246)">
                  <rect id="Rectángulo_5373" data-name="Rectángulo 5373" width="119.223" height="2.463" transform="translate(0 119.222) rotate(-89.754)"/>
                </g>
                <g id="Grupo_54145" data-name="Grupo 54145" transform="translate(61.877)">
                  <rect id="Rectángulo_5374" data-name="Rectángulo 5374" width="119.223" height="2.463" transform="translate(0 119.222) rotate(-89.754)"/>
                </g>
                <g id="Grupo_54146" data-name="Grupo 54146" transform="translate(67.034 0.246)">
                  <rect id="Rectángulo_5375" data-name="Rectángulo 5375" width="119.223" height="2.463" transform="translate(0 119.222) rotate(-89.754)"/>
                </g>
                <g id="Grupo_54147" data-name="Grupo 54147" transform="translate(72.19)">
                  <rect id="Rectángulo_5376" data-name="Rectángulo 5376" width="119.223" height="2.463" transform="translate(0 119.222) rotate(-89.754)"/>
                </g>
                <g id="Grupo_54148" data-name="Grupo 54148" transform="translate(77.347 0.246)">
                  <rect id="Rectángulo_5377" data-name="Rectángulo 5377" width="119.223" height="2.463" transform="translate(0 119.222) rotate(-89.754)"/>
                </g>
              </g>
            </g>
          </g>
        </g>
        <g id="Grupo_54157" data-name="Grupo 54157" transform="translate(913 842.732)">
          <path id="Trazado_101515" data-name="Trazado 101515" d="M1892.86,850l44-44h-87.991Z" transform="translate(-1848.864 -806)" fill="#fff" stroke="#000" stroke-width="1"/>
        </g>
        <g id="Grupo_54248" data-name="Grupo 54248" transform="translate(955 871.841)">
          <path id="Trazado_101562" data-name="Trazado 101562" d="M1935.964,870.055l1.193-.132a.86.86,0,0,0,.229.54.674.674,0,0,0,.486.175.794.794,0,0,0,.65-.35,2.986,2.986,0,0,0,.342-1.456,1.471,1.471,0,0,1-1.162.539,1.734,1.734,0,0,1-1.309-.585,2.136,2.136,0,0,1-.55-1.524,2.166,2.166,0,0,1,.581-1.577,2.1,2.1,0,0,1,3.085.158,3.908,3.908,0,0,1,.627,2.489,3.955,3.955,0,0,1-.653,2.544,2.114,2.114,0,0,1-1.7.781,1.8,1.8,0,0,1-1.219-.4A1.935,1.935,0,0,1,1935.964,870.055Zm2.79-2.693a1.4,1.4,0,0,0-.275-.925.807.807,0,0,0-.633-.329.711.711,0,0,0-.568.269,1.375,1.375,0,0,0-.226.884,1.4,1.4,0,0,0,.246.914.786.786,0,0,0,1.213.011A1.228,1.228,0,0,0,1938.754,867.361Z" transform="translate(-1935.841 -865.085)"/>
        </g>
      </g>
    </g>
    <g id="Grupo_102468" data-name="Grupo 102468" transform="translate(-2167.5 -6839.5)">
      <rect id="Rectángulo_5574-2" data-name="Rectángulo 5574" width="69.677" height="69.677" transform="translate(957.769 793) rotate(45)" fill="none" stroke="#000" stroke-width="1"/>
      <g id="Grupo_54152-2" data-name="Grupo 54152" transform="translate(913 798.244)">
        <path id="Trazado_101509-2" data-name="Trazado 101509" d="M1892.606,715.7l-44.242,44.242.247.246H1936.6l.246-.246Z" transform="translate(-1848.364 -715.697)" fill="#fff" stroke="#000" stroke-width="1"/>
        <g id="Grupo_54151-2" data-name="Grupo 54151" clip-path="url(#clip-path)">
          <g id="Grupo_54150-2" data-name="Grupo 54150" transform="translate(2.11 -3.551)">
            <g id="Grupo_54149-2" data-name="Grupo 54149" transform="translate(0 0)">
              <g id="Grupo_54133-2" data-name="Grupo 54133" transform="translate(0)">
                <rect id="Rectángulo_5362-2" data-name="Rectángulo 5362" width="119.223" height="2.463" transform="translate(0 119.222) rotate(-89.754)"/>
              </g>
              <g id="Grupo_54134-2" data-name="Grupo 54134" transform="translate(5.157 0.246)">
                <rect id="Rectángulo_5363-2" data-name="Rectángulo 5363" width="119.223" height="2.463" transform="translate(0 119.222) rotate(-89.754)"/>
              </g>
              <g id="Grupo_54135-2" data-name="Grupo 54135" transform="translate(10.313)">
                <rect id="Rectángulo_5364-2" data-name="Rectángulo 5364" width="119.223" height="2.463" transform="translate(0 119.222) rotate(-89.754)"/>
              </g>
              <g id="Grupo_54136-2" data-name="Grupo 54136" transform="translate(15.469 0.246)">
                <rect id="Rectángulo_5365-2" data-name="Rectángulo 5365" width="119.223" height="2.463" transform="translate(0 119.222) rotate(-89.754)"/>
              </g>
              <g id="Grupo_54137-2" data-name="Grupo 54137" transform="translate(20.626)">
                <rect id="Rectángulo_5366-2" data-name="Rectángulo 5366" width="119.223" height="2.463" transform="translate(0 119.222) rotate(-89.754)"/>
              </g>
              <g id="Grupo_54138-2" data-name="Grupo 54138" transform="translate(25.782 0.246)">
                <rect id="Rectángulo_5367-2" data-name="Rectángulo 5367" width="119.223" height="2.463" transform="translate(0 119.222) rotate(-89.754)"/>
              </g>
              <g id="Grupo_54139-2" data-name="Grupo 54139" transform="translate(30.939)">
                <rect id="Rectángulo_5368-2" data-name="Rectángulo 5368" width="119.223" height="2.463" transform="translate(0 119.222) rotate(-89.754)"/>
              </g>
              <g id="Grupo_54140-2" data-name="Grupo 54140" transform="translate(36.095 0.246)">
                <rect id="Rectángulo_5369-2" data-name="Rectángulo 5369" width="119.223" height="2.463" transform="translate(0 119.222) rotate(-89.754)"/>
              </g>
              <g id="Grupo_54141-2" data-name="Grupo 54141" transform="translate(41.252)">
                <rect id="Rectángulo_5370-2" data-name="Rectángulo 5370" width="119.223" height="2.463" transform="translate(0 119.222) rotate(-89.754)"/>
              </g>
              <g id="Grupo_54142-2" data-name="Grupo 54142" transform="translate(46.408 0.246)">
                <rect id="Rectángulo_5371-2" data-name="Rectángulo 5371" width="119.223" height="2.463" transform="translate(0 119.222) rotate(-89.754)"/>
              </g>
              <g id="Grupo_54143-2" data-name="Grupo 54143" transform="translate(51.564)">
                <rect id="Rectángulo_5372-2" data-name="Rectángulo 5372" width="119.223" height="2.463" transform="translate(0 119.222) rotate(-89.754)"/>
              </g>
              <g id="Grupo_54144-2" data-name="Grupo 54144" transform="translate(56.721 0.246)">
                <rect id="Rectángulo_5373-2" data-name="Rectángulo 5373" width="119.223" height="2.463" transform="translate(0 119.222) rotate(-89.754)"/>
              </g>
              <g id="Grupo_54145-2" data-name="Grupo 54145" transform="translate(61.877)">
                <rect id="Rectángulo_5374-2" data-name="Rectángulo 5374" width="119.223" height="2.463" transform="translate(0 119.222) rotate(-89.754)"/>
              </g>
              <g id="Grupo_54146-2" data-name="Grupo 54146" transform="translate(67.034 0.246)">
                <rect id="Rectángulo_5375-2" data-name="Rectángulo 5375" width="119.223" height="2.463" transform="translate(0 119.222) rotate(-89.754)"/>
              </g>
              <g id="Grupo_54147-2" data-name="Grupo 54147" transform="translate(72.19)">
                <rect id="Rectángulo_5376-2" data-name="Rectángulo 5376" width="119.223" height="2.463" transform="translate(0 119.222) rotate(-89.754)"/>
              </g>
              <g id="Grupo_54148-2" data-name="Grupo 54148" transform="translate(77.347 0.246)">
                <rect id="Rectángulo_5377-2" data-name="Rectángulo 5377" width="119.223" height="2.463" transform="translate(0 119.222) rotate(-89.754)"/>
              </g>
            </g>
          </g>
        </g>
      </g>
      <g id="Grupo_54157-2" data-name="Grupo 54157" transform="translate(913 842.732)">
        <path id="Trazado_101515-2" data-name="Trazado 101515" d="M1892.86,850l44-44h-87.991Z" transform="translate(-1848.864 -806)" fill="#fff" stroke="#000" stroke-width="1"/>
      </g>
      <g id="Grupo_54248-2" data-name="Grupo 54248" transform="translate(955 871.841)">
        <path id="Trazado_101562-2" data-name="Trazado 101562" d="M1935.964,870.055l1.193-.132a.86.86,0,0,0,.229.54.674.674,0,0,0,.486.175.794.794,0,0,0,.65-.35,2.986,2.986,0,0,0,.342-1.456,1.471,1.471,0,0,1-1.162.539,1.734,1.734,0,0,1-1.309-.585,2.136,2.136,0,0,1-.55-1.524,2.166,2.166,0,0,1,.581-1.577,2.1,2.1,0,0,1,3.085.158,3.908,3.908,0,0,1,.627,2.489,3.955,3.955,0,0,1-.653,2.544,2.114,2.114,0,0,1-1.7.781,1.8,1.8,0,0,1-1.219-.4A1.935,1.935,0,0,1,1935.964,870.055Zm2.79-2.693a1.4,1.4,0,0,0-.275-.925.807.807,0,0,0-.633-.329.711.711,0,0,0-.568.269,1.375,1.375,0,0,0-.226.884,1.4,1.4,0,0,0,.246.914.786.786,0,0,0,1.213.011A1.228,1.228,0,0,0,1938.754,867.361Z" transform="translate(-1935.841 -865.085)"/>
      </g>
    </g>
  </g>
</svg>
