<svg xmlns="http://www.w3.org/2000/svg" width="85" height="85" viewBox="0 0 85 85">
  <g id="Grupo_102552" data-name="Grupo 102552" transform="translate(-285 -9353)">
    <circle id="Elipse_4729" data-name="Elipse 4729" cx="42.5" cy="42.5" r="42.5" transform="translate(285 9353)" fill="#36a3f7"/>
    <g id="Grupo_102470" data-name="Grupo 102470" transform="translate(-1403.502 7448.502)">
      <g id="Grupo_102469" data-name="Grupo 102469" transform="translate(1700.089 1914.097)">
        <path id="Trazado_159008" data-name="Trazado 159008" d="M1761.205,1927.487a4.613,4.613,0,0,0-.962-.059q-8.3,0-16.6,0c-.814,0-.851-.039-.852-.851,0-2.214,0-4.427,0-6.64,0-1.529.005-3.058,0-4.588,0-.581-.125-1.09-.793-1.249h-21.977a1,1,0,0,0-.787,1.068c-.012.262-.01.523-.01.785q0,5.342,0,10.685c0,.738-.052.779-.791.792-.181,0-.362,0-.543,0h-15.938c-.262,0-.523,0-.785.01a1,1,0,0,0-1.068.787v20.044c.129.291.2.6.359.886,1.321,2.393,2.661,4.775,3.984,7.167a2.482,2.482,0,0,1,.322,1.262c-.01,1.648-.02,3.3,0,4.945a16.641,16.641,0,0,1-.287,3.295c-.543,2.9-1.078,5.81-1.581,8.722-.139.806.022,1.092.7,1.374h2.656a1.3,1.3,0,0,0,.76-.628q2.147-3.236,4.3-6.465c.367-.549.373-.549.739,0q2.157,3.229,4.3,6.465a1.3,1.3,0,0,0,.76.628h2.657c.679-.28.845-.571.708-1.374-.365-2.141-.788-4.272-1.152-6.413a30.174,30.174,0,0,1-.7-4.342c-.048-2.091-.01-4.183-.014-6.274a3.049,3.049,0,0,1,.269-1.287c.747-1.648,1.468-3.308,2.215-4.956.061-.135.066-.325.3-.363.363.645.619,1.343.93,2.014,1.744,3.765,1.713,3.767,1.753,7.79a30.908,30.908,0,0,1-.566,6.651c-.5,2.381-.9,4.782-1.309,7.181-.137.8.029,1.094.708,1.374h2.656a1.3,1.3,0,0,0,.76-.628q2.147-3.236,4.3-6.465c.367-.549.372-.549.739,0q2.157,3.229,4.3,6.465a1.3,1.3,0,0,0,.76.628h2.656c.679-.28.845-.571.708-1.374-.365-2.141-.788-4.272-1.152-6.413a30.208,30.208,0,0,1-.7-4.342c-.048-2.091-.01-4.183-.014-6.274a3.049,3.049,0,0,1,.269-1.287c.747-1.648,1.468-3.308,2.216-4.956.061-.135.066-.325.3-.363.363.645.619,1.343.93,2.014,1.744,3.765,1.713,3.767,1.753,7.79a30.916,30.916,0,0,1-.566,6.651c-.5,2.381-.9,4.782-1.31,7.181-.137.8.029,1.094.708,1.374h2.657a1.3,1.3,0,0,0,.76-.628q2.147-3.236,4.3-6.465c.367-.549.372-.549.74,0q2.157,3.229,4.3,6.465a1.3,1.3,0,0,0,.76.628h2.656c.683-.282.842-.568.7-1.374-.365-2.14-.782-4.271-1.152-6.41a30.076,30.076,0,0,1-.7-4.28c-.057-2.129-.015-4.261-.015-6.393a1.836,1.836,0,0,1,.2-.93c.813-1.457,1.636-2.908,2.425-4.378a29.619,29.619,0,0,0,2.034-3.887v-20.044A.931.931,0,0,0,1761.205,1927.487Zm-47.084,23.222a2.849,2.849,0,0,0-1.058-3.347,2.357,2.357,0,0,0-2.778.008c-1.3.876-1.313,2.146-.936,3.436l-5.777-5.774h15.6Zm19.276.052c.254-2.447-.556-3.761-2.291-3.814a2.484,2.484,0,0,0-2.248,1.169,3.452,3.452,0,0,0-.344,2.539l-4.991-5.613h14.958Zm19.262.026a2.781,2.781,0,0,0-.846-3.354,2.355,2.355,0,0,0-2.669-.19c-1.361.75-1.563,1.972-1.311,3.407l-4.989-5.611h15.563Z" transform="translate(-1700.089 -1914.097)"/>
      </g>
      <path id="Trazado_159009" data-name="Trazado 159009" d="M1875.936,1943.522c0-4.326.009-8.652-.012-12.978,0-.46.12-.552.562-.552q9.116.024,18.231,0c.462,0,.551.124.55.563q-.021,12.979,0,25.957c0,.462-.122.559-.563.551-1.569-.029-3.139-.033-4.708,0-.47.01-.551-.134-.547-.568.021-2.616.012-5.231.01-7.847,0-.939-.323-1.257-1.273-1.258q-2.626,0-5.252,0c-.865,0-1.2.339-1.2,1.207,0,2.636-.014,5.272.011,7.908,0,.455-.11.564-.559.556q-2.354-.046-4.708,0c-.462.01-.553-.121-.552-.563C1875.943,1952.174,1875.936,1947.848,1875.936,1943.522Z" transform="translate(-154.594 -13.974)" fill="#e9e6e3"/>
      <path id="Trazado_159010" data-name="Trazado 159010" d="M1724.762,2041.957c2.7,0,5.391.012,8.086-.012.454,0,.574.109.557.56-.038.964-.027,1.931,0,2.9.009.35-.106.437-.44.428-.784-.023-1.569-.016-2.353,0a.97.97,0,0,0-1.077,1.087q-.016,1.81,0,3.62a.972.972,0,0,0,1.081,1.083c.784.012,1.569.019,2.353,0,.34-.01.443.088.435.432-.023.965-.036,1.932,0,2.9.019.459-.116.557-.561.555-4.224-.019-8.448-.011-12.673-.011-1.247,0-2.494-.012-3.741.008-.342.006-.441-.092-.433-.433q.033-1.508,0-3.017c-.008-.348.1-.438.438-.429.784.023,1.569.017,2.353,0a.974.974,0,0,0,1.078-1.087q.016-1.81,0-3.621a.972.972,0,0,0-1.082-1.082c-.8-.012-1.609-.015-2.414,0-.29.007-.376-.081-.372-.371.016-1.005.027-2.012,0-3.017-.012-.4.114-.493.5-.491C1719.25,2041.965,1722.006,2041.957,1724.762,2041.957Z" transform="translate(-13.983 -112.404)" fill="#ddd6cb"/>
      <path id="Trazado_159011" data-name="Trazado 159011" d="M2090.513,2042.021q6.094-.01,12.188-.026c.289,0,.377.079.372.37q-.025,1.569,0,3.138c0,.295-.09.374-.375.368-.784-.018-1.569-.012-2.353,0s-1.135.356-1.14,1.146q-.011,1.75,0,3.5c0,.788.355,1.139,1.14,1.147s1.569.013,2.353,0c.285-.007.38.073.375.368q-.025,1.568,0,3.137c0,.291-.084.371-.372.37q-6.094-.023-12.188-.025a1.022,1.022,0,0,1-.2-.8q-.008-5.946,0-11.892A1.022,1.022,0,0,1,2090.513,2042.021Z" transform="translate(-343.084 -112.449)" fill="#ddd6cb"/>
      <path id="Trazado_159012" data-name="Trazado 159012" d="M2068.413,2321.913q2.142,0,4.283,0c.235,0,.487-.057.491.334a33.47,33.47,0,0,0,.753,4.866c.259,1.642.6,3.272.9,4.908.028.154.115.377-.026.449-.23.118-.284-.155-.374-.289q-2.565-3.832-5.118-7.671a1.174,1.174,0,0,0-.877-.659,1.084,1.084,0,0,0-1.023.611q-2.482,3.742-4.98,7.472l-.235.35c-.065.1-.121.245-.258.211-.2-.049-.117-.235-.1-.354.165-.948.344-1.893.517-2.839q.569-3.1,1.137-6.21c.007-.04.009-.08.012-.12.1-1.06.1-1.06,1.156-1.06Z" transform="translate(-318.03 -358.55)" fill="#09597c"/>
      <path id="Trazado_159013" data-name="Trazado 159013" d="M1908.432,2321.756q2.172,0,4.344,0c.248,0,.471-.029.478.351a34.511,34.511,0,0,0,.784,4.982c.268,1.621.588,3.234.879,4.851.023.129.1.319-.05.384-.205.091-.256-.137-.338-.259q-2.513-3.757-5.02-7.52c-.777-1.165-1.4-1.173-2.166-.025q-2.454,3.687-4.91,7.374c-.056.083-.112.167-.171.248s-.122.245-.264.195c-.181-.065-.1-.242-.082-.365.118-.712.247-1.422.378-2.131q.632-3.43,1.268-6.859c.007-.04.011-.08.017-.119.057-.351-.165-.841.12-1.023s.735-.078,1.114-.08C1906.018,2321.752,1907.225,2321.756,1908.432,2321.756Z" transform="translate(-177.415 -358.394)" fill="#09597c"/>
      <path id="Trazado_159014" data-name="Trazado 159014" d="M1748.479,2321.911q2.172,0,4.344,0c.234,0,.49-.06.492.333a32.42,32.42,0,0,0,.743,4.806c.262,1.662.606,3.312.905,4.968.029.158.151.393-.077.467-.18.059-.237-.179-.32-.3q-2.563-3.833-5.118-7.672a1.2,1.2,0,0,0-.817-.654,1.073,1.073,0,0,0-1.084.6q-2.481,3.742-4.98,7.472c-.067.1-.131.2-.2.3-.09.118-.141.349-.343.243-.129-.068-.062-.259-.038-.392.167-.927.341-1.853.511-2.779q.57-3.1,1.137-6.21c.007-.039.009-.08.013-.12.1-1.061.1-1.061,1.154-1.061Z" transform="translate(-36.8 -358.549)" fill="#09597c"/>
      <path id="Trazado_159015" data-name="Trazado 159015" d="M2056.748,2042.025v13.484c-1.487.007-2.974.007-4.461.025-.282,0-.384-.072-.38-.368q.024-1.567,0-3.135c0-.292.091-.377.377-.371.784.017,1.568.012,2.352,0s1.134-.359,1.139-1.148q.011-1.749,0-3.5c-.005-.79-.354-1.139-1.139-1.147s-1.568-.013-2.352,0c-.286.006-.382-.079-.377-.371q.023-1.567,0-3.135c0-.3.1-.372.38-.368C2053.774,2042.018,2055.261,2042.019,2056.748,2042.025Z" transform="translate(-309.32 -112.453)" fill="#c0b39a"/>
      <path id="Trazado_159016" data-name="Trazado 159016" d="M1716.141,2181.517c2.188,2.193,4.31,4.309,6.417,6.44.521.527,1.014,1.058,1.934.816-.471,1.639-.866,3.192-1.371,4.71a2.189,2.189,0,0,0,.376,2.391,5.681,5.681,0,0,1,.446.672c-.96,0-1.835-.014-2.71.007-.37.009-.3-.221-.3-.433,0-1.348-.01-2.7.005-4.045a2.212,2.212,0,0,0-.3-1.145c-1.384-2.47-2.739-4.957-4.144-7.414A2.955,2.955,0,0,1,1716.141,2181.517Z" transform="translate(-14.079 -235.116)" fill="#afddf6"/>
      <path id="Trazado_159017" data-name="Trazado 159017" d="M2127.068,2196.6c.1-.166.152-.248.2-.328,1.136-1.765,1.019-1.111.453-3.2-.373-1.373-.781-2.738-1.2-4.209,1.157.239,1.671-.616,2.305-1.248,2-1.985,3.979-3.982,6.033-6.041a2.781,2.781,0,0,1-.239,1.781c-1.437,2.531-2.835,5.086-4.257,7.626a2.208,2.208,0,0,0-.3,1.145c.016,1.348-.005,2.7.014,4.044,0,.341-.091.443-.433.434C2128.824,2196.587,2128,2196.6,2127.068,2196.6Z" transform="translate(-374.921 -235.173)" fill="#afddf6"/>
      <path id="Trazado_159018" data-name="Trazado 159018" d="M1814.48,2183.413a2.888,2.888,0,0,1-.217,1.68c-1.134,2.5-2.239,5.015-3.363,7.521a2.691,2.691,0,0,0-.25,1.161c.016,1.327-.009,2.654.015,3.98.006.37-.084.482-.463.467-.819-.031-1.64-.01-2.562-.01.25-.381.43-.712.664-1a1.647,1.647,0,0,0,.259-1.684c-.477-1.531-.886-3.083-1.338-4.622-.082-.279-.134-.472.265-.424a1.368,1.368,0,0,0,1.239-.594C1810.614,2187.751,1812.514,2185.624,1814.48,2183.413Z" transform="translate(-94.144 -236.783)" fill="#afddf6"/>
      <path id="Trazado_159019" data-name="Trazado 159019" d="M1884.081,2183.356c1.97,2.217,3.871,4.344,5.757,6.485a1.365,1.365,0,0,0,1.239.594c.4-.049.345.146.263.424-.425,1.443-.78,2.908-1.263,4.331a2.1,2.1,0,0,0,.386,2.277,7.07,7.07,0,0,1,.469.7h-2.807c-.314,0-.209-.24-.21-.394-.007-1.327-.016-2.655,0-3.982a2.937,2.937,0,0,0-.272-1.278c-1.117-2.488-2.214-4.984-3.342-7.468A2.976,2.976,0,0,1,1884.081,2183.356Z" transform="translate(-161.738 -236.733)" fill="#afddf6"/>
      <path id="Trazado_159020" data-name="Trazado 159020" d="M1974.478,2183.386a2.937,2.937,0,0,1-.214,1.675c-1.127,2.482-2.224,4.978-3.343,7.464a3.063,3.063,0,0,0-.276,1.337c.019,1.286-.006,2.573.014,3.86.006.352-.057.494-.452.477-.821-.034-1.644-.01-2.575-.01.305-.46.56-.856.828-1.244a1.237,1.237,0,0,0,.171-1.137c-.484-1.634-.924-3.281-1.41-4.914-.107-.36-.056-.477.316-.434a1.323,1.323,0,0,0,1.181-.587C1970.607,2187.734,1972.507,2185.6,1974.478,2183.386Z" transform="translate(-234.82 -236.759)" fill="#afddf6"/>
      <path id="Trazado_159021" data-name="Trazado 159021" d="M2044.025,2183.545l3.607,4.047c.6.676,1.214,1.343,1.8,2.031.5.592.972,1.225,1.972.919-.481,1.676-.886,3.25-1.392,4.79a2.1,2.1,0,0,0,.364,2.28,6.105,6.105,0,0,1,.475.718c-.962,0-1.838-.014-2.713.006-.372.009-.3-.227-.3-.435,0-1.307-.014-2.614.007-3.921a3.069,3.069,0,0,0-.286-1.336c-1.091-2.433-2.16-4.876-3.263-7.3A2.794,2.794,0,0,1,2044.025,2183.545Z" transform="translate(-302.346 -236.899)" fill="#afddf6"/>
      <path id="Trazado_159022" data-name="Trazado 159022" d="M1943.8,2093.846c0,1.127-.015,2.254.009,3.381.008.367-.086.484-.466.473-.985-.028-1.972-.02-2.958,0-.317.006-.46-.049-.457-.418q.025-3.441,0-6.882c0-.338.085-.449.434-.442q1.508.034,3.018,0c.359-.008.43.125.425.45C1943.794,2091.552,1943.8,2092.7,1943.8,2093.846Z" transform="translate(-210.87 -154.614)" fill="#1ca8e3"/>
      <path id="Trazado_159023" data-name="Trazado 159023" d="M2109.942,2265.075c.257.889.518,1.778.767,2.669a4.042,4.042,0,0,1-.776,1.373.2.2,0,0,1-.111,0,3.993,3.993,0,0,1-.774-1.373c.25-.891.51-1.779.767-2.668Z" transform="translate(-359.556 -308.58)" fill="#1ca7e2"/>
      <path id="Trazado_159024" data-name="Trazado 159024" d="M1950,2265.078c.257.889.517,1.778.767,2.669a4.036,4.036,0,0,1-.776,1.373.2.2,0,0,1-.111,0,4.006,4.006,0,0,1-.775-1.373c.25-.891.51-1.779.767-2.667Z" transform="translate(-218.935 -308.582)" fill="#1ca7e2"/>
      <path id="Trazado_159025" data-name="Trazado 159025" d="M1790.692,2265.143c.254.876.511,1.751.758,2.628a3.762,3.762,0,0,1-.741,1.388c-.092.055-.135.01-.2-.042a1.939,1.939,0,0,1-.581-1.8c.209-.724.422-1.447.633-2.17Z" transform="translate(-78.945 -308.64)" fill="#1ca7e2"/>
      <path id="Trazado_159026" data-name="Trazado 159026" d="M1717.047,2091.956c-.964,0-.964,0-.964-.983,0-.949,0-.949.938-.949.994,0,.994,0,.994,1.014C1718.015,2091.956,1718.015,2091.956,1717.047,2091.956Z" transform="translate(-14.062 -154.675)" fill="#1ca8e3"/>
      <path id="Trazado_159027" data-name="Trazado 159027" d="M2181.845,2091.014c0,.942,0,.942-.945.942-.987,0-.987,0-.987-.96s0-.972.975-.972C2181.845,2090.024,2181.845,2090.024,2181.845,2091.014Z" transform="translate(-421.862 -154.675)" fill="#1ca8e3"/>
      <path id="Trazado_159028" data-name="Trazado 159028" d="M2053.892,2091.02c0,.937,0,.937-.95.937-.982,0-.982,0-.982-.966s0-.966.981-.966C2053.892,2090.024,2053.892,2090.024,2053.892,2091.02Z" transform="translate(-309.366 -154.675)" fill="#1ca8e3"/>
      <path id="Trazado_159029" data-name="Trazado 159029" d="M1845.968,2091.022c0,.934,0,.934-.953.934-.979,0-.979,0-.979-.968s0-.964.983-.964C1845.968,2090.024,1845.968,2090.024,1845.968,2091.022Z" transform="translate(-126.559 -154.675)" fill="#1ca8e3"/>
      <path id="Trazado_159030" data-name="Trazado 159030" d="M1950.948,2202.788c0-.418.185-.685.591-.7a.543.543,0,0,1,.614.64c-.09.69-.248,1.372-.378,2.057a.2.2,0,0,1-.2.183.214.214,0,0,1-.243-.2C1951.205,2204.1,1951.075,2203.438,1950.948,2202.788Z" transform="translate(-220.556 -253.206)" fill="#f9e433"/>
      <path id="Trazado_159031" data-name="Trazado 159031" d="M1792.253,2202.759q-.195,1-.388,2c-.025.131-.078.223-.228.224s-.2-.092-.228-.223c-.124-.646-.27-1.288-.368-1.938a.565.565,0,0,1,.595-.719C1792.039,2202.1,1792.233,2202.363,1792.253,2202.759Z" transform="translate(-79.956 -253.213)" fill="#f9e433"/>
      <path id="Trazado_159032" data-name="Trazado 159032" d="M2110.879,2202.779c0-.418.2-.681.6-.684a.545.545,0,0,1,.6.651c-.094.69-.25,1.371-.381,2.056a.2.2,0,0,1-.207.173c-.149.006-.209-.083-.234-.215C2111.135,2204.094,2111.006,2203.429,2110.879,2202.779Z" transform="translate(-361.167 -253.208)" fill="#f9e433"/>
      <path id="Trazado_159033" data-name="Trazado 159033" d="M1899.992,1948.891c0-.582-.008-1.165,0-1.747a.97.97,0,0,1,1.063-1.1q1.837-.019,3.675,0a.957.957,0,0,1,1.053,1.045q.021,1.837,0,3.674a.971.971,0,0,1-1.092,1.069q-1.807.015-3.614,0a.973.973,0,0,1-1.083-1.078C1899.983,1950.137,1899.992,1949.514,1899.992,1948.891Z" transform="translate(-175.752 -28.083)"/>
      <path id="Trazado_159034" data-name="Trazado 159034" d="M1966.84,1951.834c-.622,0-1.245.013-1.867,0a.948.948,0,0,1-1.022-1.014c-.016-1.265-.017-2.53,0-3.795a.928.928,0,0,1,.995-.977q1.9-.025,3.8,0a.93.93,0,0,1,.992.981q.028,1.9,0,3.795a.949.949,0,0,1-1.027,1.01C1968.086,1951.846,1967.463,1951.834,1966.84,1951.834Z" transform="translate(-231.977 -28.078)"/>
      <path id="Trazado_159035" data-name="Trazado 159035" d="M1902.865,2010.03c.623,0,1.245-.012,1.868,0a.947.947,0,0,1,1.026,1.01q.025,1.9,0,3.8a.931.931,0,0,1-.993.981q-1.9.026-3.8,0a.93.93,0,0,1-.994-.979q-.028-1.9,0-3.795a.945.945,0,0,1,1.023-1.012C1901.62,2010.017,1902.243,2010.03,1902.865,2010.03Z" transform="translate(-175.729 -84.34)"/>
      <path id="Trazado_159036" data-name="Trazado 159036" d="M1969.743,2012.967c0,.6.013,1.2,0,1.807a.949.949,0,0,1-1.011,1.026q-1.9.024-3.8,0a.93.93,0,0,1-.979-.993q-.025-1.9,0-3.795a.927.927,0,0,1,.978-.994q1.9-.028,3.8,0a.947.947,0,0,1,1.012,1.024C1969.756,2011.681,1969.743,2012.324,1969.743,2012.967Z" transform="translate(-231.98 -84.321)"/>
      <path id="Trazado_159037" data-name="Trazado 159037" d="M1766.916,2074c.622,0,1.245-.012,1.867,0a.946.946,0,0,1,1.026,1.01q.025,1.9,0,3.794a.931.931,0,0,1-.994.98q-1.9.026-3.795,0a.93.93,0,0,1-.993-.979q-.028-1.9,0-3.795a.945.945,0,0,1,1.024-1.011C1765.671,2073.99,1766.293,2074,1766.916,2074Z" transform="translate(-56.201 -140.586)"/>
      <path id="Trazado_159038" data-name="Trazado 159038" d="M2102.74,2079.786c-.582,0-1.165.009-1.747,0a.974.974,0,0,1-1.089-1.073q-.017-1.837,0-3.674a.955.955,0,0,1,1.054-1.043q1.837-.019,3.674,0a.957.957,0,0,1,1.058,1.04q.022,1.867,0,3.734a.949.949,0,0,1-1.024,1.013C2104.026,2079.8,2103.383,2079.786,2102.74,2079.786Z" transform="translate(-351.511 -140.574)"/>
      <path id="Trazado_159039" data-name="Trazado 159039" d="M1916.946,1964.009c-.936,0-.936,0-.936-.951,0-.982,0-.982.966-.982s.967,0,.967.981C1917.942,1964.009,1917.942,1964.009,1916.946,1964.009Z" transform="translate(-189.838 -42.184)" fill="#1ca8e3"/>
      <path id="Trazado_159040" data-name="Trazado 159040" d="M1981.918,1963.049c0,.96,0,.96-.987.96-.945,0-.945,0-.945-.942,0-.99,0-.99,1.017-.99C1981.918,1962.077,1981.918,1962.077,1981.918,1963.049Z" transform="translate(-246.086 -42.184)" fill="#1ca8e3"/>
      <path id="Trazado_159041" data-name="Trazado 159041" d="M1917.942,2027.037c0,.946,0,.946-.941.946-.991,0-.991,0-.991-1.017,0-.916,0-.916.911-.916h.06C1917.942,2026.051,1917.942,2026.051,1917.942,2027.037Z" transform="translate(-189.838 -98.43)" fill="#1ca8e3"/>
      <path id="Trazado_159042" data-name="Trazado 159042" d="M1979.986,2026.992c0-.941,0-.941.946-.941.986,0,.986,0,.986.961s0,.971-.976.971C1979.986,2027.983,1979.986,2027.983,1979.986,2026.992Z" transform="translate(-246.086 -98.43)" fill="#1ca8e3"/>
      <path id="Trazado_159043" data-name="Trazado 159043" d="M1781.061,2090.024c.931,0,.931,0,.931.956,0,.976,0,.976-.971.976s-.961,0-.961-.986C1780.06,2090.024,1780.06,2090.024,1781.061,2090.024Z" transform="translate(-70.311 -154.675)" fill="#1ca8e3"/>
      <path id="Trazado_159044" data-name="Trazado 159044" d="M2116.878,2091.956c-.942,0-.942,0-.942-.945,0-.987,0-.987.96-.987s.972,0,.972.975C2117.868,2091.956,2117.868,2091.956,2116.878,2091.956Z" transform="translate(-365.613 -154.675)" fill="#1ca8e3"/>
    </g>
  </g>
</svg>
