<svg xmlns="http://www.w3.org/2000/svg" xmlns:xlink="http://www.w3.org/1999/xlink" width="64" height="51" viewBox="0 0 64 51">
  <defs>
    <clipPath id="clip-path">
      <rect id="Rectángulo_34064" data-name="Rectángulo 34064" width="64" height="51" transform="translate(925 4336)" fill="none" stroke="#707070" stroke-width="1"/>
    </clipPath>
  </defs>
  <g id="Enmascarar_grupo_66" data-name="Enmascarar grupo 66" transform="translate(-925 -4336)" clip-path="url(#clip-path)">
    <g id="Grupo_90409" data-name="Grupo 90409" transform="translate(516 2049)">
      <rect id="Rectángulo_34062" data-name="Rectángulo 34062" width="43" height="46" transform="translate(421 2286)" fill="none"/>
      <g id="Grupo_90408" data-name="Grupo 90408">
        <g id="Grupo_90406" data-name="Grupo 90406" transform="translate(154 2)" opacity="0.28">
          <rect id="Rectángulo_34063" data-name="Rectángulo 34063" width="31" height="31" transform="translate(256 2286)" fill="#f739a8"/>
        </g>
        <g id="Grupo_90415" data-name="Grupo 90415" transform="translate(194.063 337.654)">
          <path id="Trazado_125544" data-name="Trazado 125544" d="M253.54,2031.262c-.607.37-1.136.7-1.669,1.015-.473.282-.89.217-1.116-.166s-.077-.781.39-1.066c.861-.525,1.728-1.04,2.582-1.579a.9.9,0,0,1,1.063,0c.853.538,1.722,1.051,2.582,1.578.48.294.619.68.4,1.063s-.65.451-1.153.149c-.52-.312-1.038-.63-1.607-.976v8.591h9.933a25.738,25.738,0,0,1-.71-2.589,11.113,11.113,0,0,1,2.828-10.1,7.019,7.019,0,0,1,5.339-2.245c1.376.016,2.755.046,4.129-.005a7.72,7.72,0,0,1,7.162,3.974,11.743,11.743,0,0,1-.735,13.217,7.44,7.44,0,0,1-6.182,2.941c-1.36-.033-2.723-.038-4.083,0a7.561,7.561,0,0,1-6.574-3.351.9.9,0,0,0-.828-.409c-3.578.015-7.157.01-10.736.009-.8,0-1.009-.2-1.009-1q0-4.244,0-8.488Zm30.406,3.829a9.689,9.689,0,0,0-2.406-6.681,5.661,5.661,0,0,0-8.675-.046,9.146,9.146,0,0,0-2.4,5.767,9.464,9.464,0,0,0,2.637,7.729,5.579,5.579,0,0,0,8.189-.017A9.437,9.437,0,0,0,283.946,2035.09Zm-11.046-8.708c-.155-.011-.225-.018-.3-.021a5.928,5.928,0,0,0-4.979,2.284,10.334,10.334,0,0,0-.326,12.3,6.778,6.778,0,0,0,2.741,2.234,5.575,5.575,0,0,0,2.843.412,11.474,11.474,0,0,1,.017-17.212Z" transform="translate(-16.983 -46.058)"/>
          <path id="Trazado_125545" data-name="Trazado 125545" d="M258.5,1974.784c.594-.36,1.1-.668,1.6-.973.54-.325.959-.28,1.2.125.23.388.078.77-.437,1.086-.847.518-1.7,1.023-2.542,1.554a.894.894,0,0,1-1.062,0c-.866-.546-1.747-1.067-2.618-1.6-.45-.277-.58-.663-.367-1.034.224-.389.644-.46,1.114-.179.536.32,1.067.646,1.654,1v-8.58h-9.562c.22.72.5,1.432.654,2.171a11.28,11.28,0,0,1-2.372,10.143,7.17,7.17,0,0,1-5.809,2.637c-1.375-.027-2.753-.042-4.127,0a7.609,7.609,0,0,1-6.865-3.67,11.681,11.681,0,0,1,.778-13.8,7.326,7.326,0,0,1,5.849-2.661c1.391.026,2.783.038,4.173,0a7.559,7.559,0,0,1,6.548,3.308.9.9,0,0,0,.826.417c3.44-.016,6.879-.01,10.319-.009.857,0,1.043.189,1.043,1.057q0,4.2,0,8.393Zm-11.484-3.108a10.232,10.232,0,0,0-2.318-7.112,5.663,5.663,0,0,0-8.767-.1,9.618,9.618,0,0,0-2.373,7.692,9.2,9.2,0,0,0,2.192,5.339,5.671,5.671,0,0,0,8.858.173A9.134,9.134,0,0,0,247.021,1971.676Zm-11.091-9.167c-.037-.027-.059-.053-.084-.057a1.752,1.752,0,0,0-.183-.009,5.81,5.81,0,0,0-4.935,2.268,9.9,9.9,0,0,0-1.919,8.813,8.05,8.05,0,0,0,3.573,5.343,5.608,5.608,0,0,0,3.6.814,11.464,11.464,0,0,1-.052-17.171Z" transform="translate(0 0)"/>
          <path id="Trazado_125546" data-name="Trazado 125546" d="M336.731,2050.473a16.339,16.339,0,0,1-1.6-1.168,2.391,2.391,0,0,1-.7-1.7.723.723,0,0,1,.644-.845c.42-.035.713.227.762.725a1.539,1.539,0,0,0,1.043,1.381,1.713,1.713,0,0,0,1.773-.262,1.348,1.348,0,0,0,.513-1.509,1.566,1.566,0,0,0-1.366-1.133c-.271-.043-.551-.029-.82-.075a3.006,3.006,0,0,1-2.54-2.59,2.945,2.945,0,0,1,2.03-3.083c.1-.036.2-.07.325-.114.012-.114.015-.233.039-.349a.675.675,0,0,1,.688-.613.627.627,0,0,1,.7.583c.03.315.169.419.442.524a2.883,2.883,0,0,1,1.974,2.476c.069.564-.191.942-.645.979-.433.034-.711-.26-.776-.824a1.663,1.663,0,0,0-1.971-1.393,1.537,1.537,0,0,0-1.351,1.836,1.651,1.651,0,0,0,1.473,1.186,6.1,6.1,0,0,1,1.427.28,2.886,2.886,0,0,1,1.862,2.745,2.979,2.979,0,0,1-2.011,2.7c-.223.081-.4.122-.4.444a.694.694,0,0,1-.715.775c-.416-.007-.675-.3-.7-.8-.005-.09-.009-.181-.014-.271Z" transform="translate(-77.347 -56.297)"/>
          <path id="Trazado_125547" data-name="Trazado 125547" d="M269.346,1978.9a.733.733,0,0,1-.646.848.714.714,0,0,1-.771-.725,1.511,1.511,0,0,0-.991-1.367,1.718,1.718,0,0,0-1.78.216,1.361,1.361,0,0,0-.582,1.4,1.509,1.509,0,0,0,1.132,1.2,3.12,3.12,0,0,0,.724.093,3.059,3.059,0,0,1,2.877,2.458,2.9,2.9,0,0,1-1.968,3.238c-.286.1-.411.215-.409.539a.695.695,0,0,1-1.389-.011c.01-.338-.148-.422-.419-.527a2.868,2.868,0,0,1-1.986-2.562c-.044-.521.209-.857.633-.9s.715.25.776.768a1.6,1.6,0,0,0,1.29,1.424,1.763,1.763,0,0,0,1.879-.748,1.477,1.477,0,0,0-.945-2.175,3.363,3.363,0,0,0-.725-.093,3.058,3.058,0,0,1-2.889-2.5,2.916,2.916,0,0,1,2.014-3.215.453.453,0,0,0,.376-.469.637.637,0,0,1,.672-.619.649.649,0,0,1,.706.63c.012.3.153.376.388.459A2.947,2.947,0,0,1,269.346,1978.9Z" transform="translate(-25.971 -10.22)"/>
        </g>
      </g>
    </g>
  </g>
</svg>
