<svg xmlns="http://www.w3.org/2000/svg" xmlns:xlink="http://www.w3.org/1999/xlink" width="64" height="51" viewBox="0 0 64 51">
  <defs>
    <clipPath id="clip-path">
      <rect id="Rectángulo_34058" data-name="Rectángulo 34058" width="64" height="51" transform="translate(925 4336)" fill="none" stroke="#707070" stroke-width="1"/>
    </clipPath>
  </defs>
  <g id="Enmascarar_grupo_64" data-name="Enmascarar grupo 64" transform="translate(-925 -4336)" clip-path="url(#clip-path)">
    <g id="Grupo_77447" data-name="Grupo 77447" transform="translate(516 2049)">
      <rect id="Rectángulo_33680" data-name="Rectángulo 33680" width="43" height="46" transform="translate(421 2286)" fill="none"/>
      <g id="Grupo_90401" data-name="Grupo 90401">
        <g id="Grupo_90400" data-name="Grupo 90400" transform="translate(154 2)" opacity="0.28">
          <rect id="Rectángulo_32442" data-name="Rectángulo 32442" width="31" height="31" transform="translate(256 2286)" fill="#f739a8"/>
        </g>
        <g id="Grupo_90399" data-name="Grupo 90399" transform="matrix(0.883, 0.469, -0.469, 0.883, -329.252, 13.529)">
          <path id="Trazado_125474" data-name="Trazado 125474" d="M1756.607,1679.906q-.914.918-1.828,1.836a1.563,1.563,0,0,1-2.443,0c-1-1.019-2-2.042-2.98-3.084-.253-.27-.39-.263-.64,0-.977,1.043-2,2.047-2.966,3.1a5.335,5.335,0,0,1-3.045,1.73c-.191.034-.379.089-.568.134-.463.109-1.058.083-1.352.367s.18.785.2,1.223a3.261,3.261,0,0,1-.692,2.241c-.3.38-.609.448-.971.073q-4.5-4.647-9-9.289a.549.549,0,0,1,.042-.892,2.838,2.838,0,0,1,3.2-.479c.4.2.567.132.817-.2,2.259-2.987,4.542-5.957,6.807-8.94a5.542,5.542,0,0,1,4-2.265c1.442-.154,2.877-.373,4.316-.55a1.387,1.387,0,0,0,.892-.448c1.481-1.551,2.981-3.083,4.474-4.622.246-.253.513-.569.871-.248.392.352.088.646-.18.923q-4.86,5.018-9.715,10.04a2.237,2.237,0,0,0-.043,3.029c.746.777.756.786,1.522-.026a2.616,2.616,0,0,1,1.756-1c.29-.016.37-.169.376-.415a1.792,1.792,0,0,0-.424-1.263.609.609,0,0,1,.041-.958c.779-.784,1.542-1.582,2.309-2.377.172-.178.345-.338.617-.26s.326.3.378.546a6.592,6.592,0,0,0,5.344,5.506c.61.135.711.506.27.975-.757.8-1.54,1.584-2.3,2.388-.336.357-.616.348-1,.037a1.557,1.557,0,0,0-2.135-.029.668.668,0,0,1-1.132-.119c-.227-.3-.381-.344-.68-.023-1.013,1.086-1.029,1.07.022,2.151.68.7,1.355,1.4,2.035,2.1.71.729.805.729,1.5.013l16.5-17.041c.784-.809,1.571-1.615,2.351-2.427.531-.552.54-.781.03-1.31q-3.993-4.139-7.995-8.27c-.472-.487-.7-.481-1.186.011-.365.37-.724.745-1.083,1.121-.244.256-.513.347-.784.069-.254-.26-.137-.512.082-.738.421-.436.829-.887,1.266-1.307a1.517,1.517,0,0,1,2.256.026q4.173,4.282,8.317,8.592a1.634,1.634,0,0,1-.144,2.427q-2.664,2.758-5.335,5.508c-.133.138-.251.291-.376.438-1.473,1.374-2.819,2.872-4.207,4.328l-.563.589a5.742,5.742,0,0,0-1.369,1.548l-.014.013c-.091-.077-.15-.013-.208.048Zm-7.863-13.923c-1.287.171-2.575.336-3.86.515a4,4,0,0,0-2.694,1.544c-2.422,3.136-4.816,6.294-7.229,9.436-.18.234-.186.368.031.589q2.342,2.391,4.652,4.812a.611.611,0,0,0,.686.172c.86-.219,1.725-.414,2.589-.616a3.681,3.681,0,0,0,1.831-1.055q2.647-2.729,5.286-5.466a1.379,1.379,0,0,0,.07-2.024,1.28,1.28,0,0,0-1.935.2c-.894.913-1.778,1.837-2.67,2.752a.862.862,0,0,1-1.061.231.906.906,0,0,1-.549-.943c0-.086.009-.173.017-.26q.253-2.52.508-5.041a1.893,1.893,0,0,1,.964-1.539C1746.8,1668.509,1747.625,1667.114,1748.744,1665.983Zm2.779,2.862c-.393.39-.767.8-1.187,1.165a.623.623,0,0,0-.158.929,2.421,2.421,0,0,1,.21,1.517c-.022.19-.078.365.131.516a2.357,2.357,0,0,1,.967,2.08.642.642,0,0,0,.966.562,1.882,1.882,0,0,1,1.689-.173c1.028.624,1.493-.054,2.045-.661a2.3,2.3,0,0,1,.273-.277c.379-.294.248-.4-.137-.544a7.468,7.468,0,0,1-4.548-4.579C1751.7,1669.205,1751.714,1668.99,1751.523,1668.846ZM1740,1685.6a1.915,1.915,0,0,0-.508-1.484q-2.9-3.023-5.83-6.02a1.858,1.858,0,0,0-1.864-.468c-.38.092-.532.206-.168.571.53.532,1.011,1.125,1.543,1.645,2.059,2.009,4,4.126,6.034,6.162.16.16.309.5.516.414.255-.105.247-.468.276-.745A.329.329,0,0,0,1740,1685.6Zm5.081-11.258a6.241,6.241,0,0,0-.145,1.644C1745.947,1675.04,1745.947,1675.04,1745.081,1674.346Z" transform="translate(0 0)" fill="#0a0a0a"/>
          <path id="Trazado_125475" data-name="Trazado 125475" d="M2007.978,1672.642a8.769,8.769,0,0,0,2.192-.914c.233-.092.115-.22.045-.356a2.151,2.151,0,0,1-.006-1.818q1.723-4.61,3.429-9.226a4.791,4.791,0,0,1,2.382-2.7c.845-.433,1.686-.875,2.536-1.3a.522.522,0,0,0,.36-.63,2.53,2.53,0,0,1,2.508-2.561,1.6,1.6,0,0,1,1.072.652l.165.375q1.2,3.351,2.4,6.7c.248.691.511,1.377.748,2.072a1.316,1.316,0,0,1-.735,1.773c-.823.414-1.641.827-2.562.234-.189-.122-.317.081-.444.18a4.6,4.6,0,0,0-1.521,2.059q-.7,1.884-1.4,3.765a7.475,7.475,0,0,1-4.511,4.542c-2.782,1.066-5.559,2.146-8.337,3.219a2.277,2.277,0,0,1-3.328-1.415q-.043-.384-.085-.768l.291-1a3.872,3.872,0,0,1,1.206-1.056,3.711,3.711,0,0,0,.985-.456l1.967-.951c.127-.043.281-.04.337-.2Zm-4.081,4.049a1.273,1.273,0,0,0,1.872,1.166q4.358-1.669,8.708-3.36a6.393,6.393,0,0,0,3.76-3.888c.442-1.173.881-2.347,1.3-3.527a5.617,5.617,0,0,1,1.921-2.712.549.549,0,0,0,.2-.759q-1.1-3.05-2.147-6.117c-.122-.357-.223-.49-.614-.266-.768.439-1.566.827-2.358,1.222a3.966,3.966,0,0,0-2.011,2.272q-1.7,4.591-3.4,9.178c-.249.673-.108,1.212.354,1.4.68.27,1.065.066,1.363-.733q.927-2.491,1.844-4.985c.125-.341.3-.625.7-.47s.327.5.206.827c-.645,1.743-1.277,3.491-1.935,5.228a1.677,1.677,0,0,1-2.05,1.143.808.808,0,0,0-.5.057c-2.16,1.042-4.323,2.077-6.482,3.122A1.273,1.273,0,0,0,2003.9,1676.69Zm19.64-12.415a4.681,4.681,0,0,0,1.011-.393c.39-.146.44-.4.3-.774q-1.576-4.291-3.138-8.586c-.058-.157-.108-.336-.31-.387-.645-.164-1.713.91-1.493,1.554.911,2.658,1.85,5.306,2.785,7.955A.9.9,0,0,0,2023.537,1664.276Z" transform="translate(-237.298 -2.326)" fill="#0a0a0a"/>
          <path id="Trazado_125476" data-name="Trazado 125476" d="M1911.806,1740.6a6.028,6.028,0,1,1,5.893-5.982A5.919,5.919,0,0,1,1911.806,1740.6Zm4.917-6.022a4.885,4.885,0,1,0-4.86,5.062A4.967,4.967,0,0,0,1916.723,1734.579Z" transform="translate(-153.011 -67.937)" fill="#0a0a0a"/>
          <path id="Trazado_125477" data-name="Trazado 125477" d="M1965.367,1694.925c0,.19-.133.311-.231.451a1.788,1.788,0,0,0,0,2.334.646.646,0,0,1-.072,1c-.916.922-1.812,1.864-2.716,2.8-.182.188-.362.395-.667.3s-.319-.368-.376-.625a6.613,6.613,0,0,0-5.282-5.425c-.665-.155-.775-.5-.309-.987.91-.958,1.839-1.9,2.751-2.855a.612.612,0,0,1,.951-.1,1.611,1.611,0,0,0,2.289,0,.577.577,0,0,1,.9.043c.838.877,1.685,1.746,2.529,2.617A.657.657,0,0,1,1965.367,1694.925Zm-3.286,5.263c.584-.541,1.156-1.089,1.75-1.611a.59.59,0,0,0,.17-.865,1.835,1.835,0,0,1-.172-1.691c.57-1.061-.026-1.631-.716-2.235a7.686,7.686,0,0,1-.72-.745.409.409,0,0,0-.6-.1,2.544,2.544,0,0,1-2.483-.006c-.188-.1-.323-.164-.5.029-.615.656-1.248,1.294-1.918,1.985A7.726,7.726,0,0,1,1962.081,1700.188Z" transform="translate(-196.01 -35.815)" fill="#0a0a0a"/>
          <path id="Trazado_125478" data-name="Trazado 125478" d="M1945.024,1686.733a1.143,1.143,0,0,1-.159.29c-.445.472-.9.936-1.354,1.4a.45.45,0,0,1-.689.044.456.456,0,0,1-.023-.694c.456-.491.927-.967,1.4-1.44a.436.436,0,0,1,.588-.083A.507.507,0,0,1,1945.024,1686.733Z" transform="translate(-184.895 -31.067)" fill="#0a0a0a"/>
          <path id="Trazado_125479" data-name="Trazado 125479" d="M1932.874,1883.765c.283-.075.565-.108.728.2s-.047.519-.241.725c-.35.371-.694.748-1.041,1.122-.274.193-.566.388-.845.043s-.032-.591.2-.833C1932.08,1884.61,1932.476,1884.185,1932.874,1883.765Z" transform="translate(-175.067 -202.92)" fill="#0a0a0a"/>
          <path id="Trazado_125480" data-name="Trazado 125480" d="M1904.224,1704.731a.476.476,0,0,1-.4-.763,10.247,10.247,0,0,1,1.08-1.109.4.4,0,0,1,.537.017.419.419,0,0,1,.135.576,6.156,6.156,0,0,1-1.152,1.209A.52.52,0,0,1,1904.224,1704.731Z" transform="translate(-151.027 -45.505)" fill="#0a0a0a"/>
          <path id="Trazado_125481" data-name="Trazado 125481" d="M1927.315,1682.841a2.294,2.294,0,0,1-1.126,1.143.456.456,0,0,1-.427-.235.444.444,0,0,1,.035-.54,10.866,10.866,0,0,1,.761-.779.411.411,0,0,1,.534-.023A.465.465,0,0,1,1927.315,1682.841Z" transform="translate(-170.138 -27.72)" fill="#0a0a0a"/>
          <path id="Trazado_125482" data-name="Trazado 125482" d="M1884.338,1727.181a.451.451,0,0,1-.423-.676,3.975,3.975,0,0,1,.844-.886.455.455,0,0,1,.716.357C1885.5,1726.3,1884.678,1727.179,1884.338,1727.181Z" transform="translate(-133.738 -65.31)" fill="#0a0a0a"/>
          <path id="Trazado_125483" data-name="Trazado 125483" d="M1962.324,1854.107a.327.327,0,0,1-.4-.207.436.436,0,0,1,.075-.479c.481-.471.952-.953,1.423-1.434.205-.209.38-.042.574.022.306.1.163.421.123.479a4.509,4.509,0,0,1-1.578,1.616C1962.487,1854.129,1962.41,1854.107,1962.324,1854.107Z" transform="translate(-201.627 -175.23)" fill="#0a0a0a"/>
          <path id="Trazado_125484" data-name="Trazado 125484" d="M1929.7,1755.057a1.894,1.894,0,0,1-1.857-2.493c.089-.3.278-.573-.046-.873a.381.381,0,0,1,.066-.53c.169-.175.4-.256.578-.085.258.244.474.162.754.058a1.785,1.785,0,0,1,1.777.28c.263.2.45.453.228.772s-.487.24-.785.044a.993.993,0,0,0-1.5.307.97.97,0,0,0,.109,1.305.888.888,0,0,0,1.291-.032,2.18,2.18,0,0,1,1.752-.678,1.889,1.889,0,0,1,1.57,2.49c-.089.3-.265.578.053.878a.375.375,0,0,1-.072.528c-.168.167-.391.256-.578.08-.251-.236-.458-.166-.743-.065a1.8,1.8,0,0,1-1.88-.35.485.485,0,0,1-.1-.74c.2-.236.434-.2.694-.04.653.393,1.155.315,1.524-.206a1.047,1.047,0,0,0-.064-1.366.911.911,0,0,0-1.294.029A2.211,2.211,0,0,1,1929.7,1755.057Z" transform="translate(-171.902 -87.452)" fill="#0a0a0a"/>
        </g>
      </g>
    </g>
  </g>
</svg>
