<svg xmlns="http://www.w3.org/2000/svg" xmlns:xlink="http://www.w3.org/1999/xlink" width="400" height="324" viewBox="0 0 400 324">
  <defs>
    <clipPath id="clip-path">
      <rect id="Rectángulo_34047" data-name="Rectángulo 34047" width="400" height="276" fill="#36a3f7"/>
    </clipPath>
  </defs>
  <g id="Grupo_102524" data-name="Grupo 102524" transform="translate(-915 -5730)">
    <g id="Grupo_92162" data-name="Grupo 92162">
      <g id="Grupo_92159" data-name="Grupo 92159" transform="translate(915 5730)">
        <rect id="Rectángulo_33717" data-name="Rectángulo 33717" width="400" height="324" fill="#36a3f7" opacity="0.07"/>
        <g id="Grupo_88470" data-name="Grupo 88470" transform="translate(0 45)">
          <rect id="Rectángulo_33714" data-name="Rectángulo 33714" width="400" height="279" fill="none" opacity="0.07"/>
          <g id="Enmascarar_grupo_61" data-name="Enmascarar grupo 61" transform="translate(0 3)" opacity="0.24" clip-path="url(#clip-path)">
            <path id="Trazado_122678" data-name="Trazado 122678" d="M17.3.293,485.431,12.709c9.652.256,17.684,7.673,17.94,16.566l11.436,397.258c.256,8.893-7.361,15.895-17.013,15.639L29.66,429.755c-9.652-.256-17.684-7.673-17.94-16.566L.284,15.931C.028,7.038,7.645.037,17.3.293Z" transform="translate(468.337 477.956) rotate(163)" fill="#36a3f7"/>
          </g>
        </g>
      </g>
      <g id="Grupo_90595" data-name="Grupo 90595" transform="translate(0 27)">
        <g id="Grupo_78298" data-name="Grupo 78298" transform="translate(105 1187.413)">
          <rect id="Rectángulo_33729" data-name="Rectángulo 33729" width="400" height="271" transform="translate(810 4541.587)" fill="none"/>
        </g>
        <g id="Grupo_90525" data-name="Grupo 90525" transform="translate(803.923 5490.429)">
          <g id="Grupo_90520" data-name="Grupo 90520" transform="translate(145.077 252.571)">
            <g id="Grupo_90487" data-name="Grupo 90487">
              <g id="Grupo_90486" data-name="Grupo 90486" transform="translate(33.91)">
                <path id="Trazado_126956" data-name="Trazado 126956" d="M284.206,235.924c-17.174-7.9-39.543-12.694-64.032-12.694s-46.852,4.792-64.023,12.691l64.029,36.968Z" transform="translate(-156.152 -223.23)" fill="#36a3f7"/>
                <path id="Trazado_126957" data-name="Trazado 126957" d="M156.152,227.375v33l64.03,36.968v-33Z" transform="translate(-156.152 -214.683)" fill="#3782bc"/>
                <path id="Trazado_126958" data-name="Trazado 126958" d="M241.088,227.376v83.685l-64.023,36.964V264.34Z" transform="translate(-113.034 -214.681)" fill="#3090db"/>
              </g>
              <path id="Trazado_126959" data-name="Trazado 126959" d="M145.077,251.021v50.737c0,14.556,11.243,27.712,29.344,37.164V275.157Z" transform="translate(-145.077 -165.93)" fill="#261822"/>
              <path id="Trazado_126960" data-name="Trazado 126960" d="M154.661,271.244v25.989c17.667,9.225,41.87,14.923,68.585,14.923s50.927-5.7,68.6-14.926V271.241Z" transform="translate(-125.317 -124.24)" fill="#c982d6"/>
              <path id="Trazado_126961" data-name="Trazado 126961" d="M145.077,277.552c0,14.562,11.243,27.719,29.344,37.174l68.594-39.6-64.029-36.968C158.231,247.706,145.077,261.809,145.077,277.552Z" transform="translate(-145.077 -192.462)" fill="#3a2934"/>
              <path id="Trazado_126962" data-name="Trazado 126962" d="M154.661,297.912c17.67,9.225,41.873,14.923,68.588,14.923s50.927-5.7,68.6-14.926l-68.591-39.6Z" transform="translate(-125.317 -150.908)" fill="#dc9ce8"/>
              <path id="Trazado_126963" data-name="Trazado 126963" d="M223.256,250.227v24.741l-68.595,39.6V289.83Z" transform="translate(-125.316 -167.567)" fill="#261822"/>
            </g>
            <g id="Grupo_90517" data-name="Grupo 90517" transform="translate(61.034 101.965)">
              <g id="Grupo_90488" data-name="Grupo 90488" transform="translate(37.378 33.896)">
                <path id="Trazado_126964" data-name="Trazado 126964" d="M177.219,269.15a1.827,1.827,0,0,1,.762-1.457.48.48,0,0,1,.49-.04v-.006l11.372,6.5-1.056,2.11-11.277-6.473,0,0A.648.648,0,0,1,177.219,269.15Z" transform="translate(-177.219 -267.603)" fill="#2e428e"/>
                <path id="Trazado_126965" data-name="Trazado 126965" d="M180.917,271.273c0,.563.343.821.762.579a1.828,1.828,0,0,0,.762-1.458c0-.563-.34-.821-.762-.579A1.836,1.836,0,0,0,180.917,271.273Z" transform="translate(-169.594 -263.228)" fill="#3a3a93"/>
              </g>
              <g id="Grupo_90489" data-name="Grupo 90489" transform="translate(23.297 25.804)">
                <path id="Trazado_126966" data-name="Trazado 126966" d="M172.62,266.506a1.825,1.825,0,0,1,.766-1.457.481.481,0,0,1,.487-.04l0-.006,11.368,6.5-1.056,2.109-11.274-6.473v0A.648.648,0,0,1,172.62,266.506Z" transform="translate(-172.62 -264.96)" fill="#2e428e"/>
                <path id="Trazado_126967" data-name="Trazado 126967" d="M176.319,268.632c0,.56.34.817.762.576a1.831,1.831,0,0,0,.762-1.457c0-.563-.343-.82-.762-.576A1.818,1.818,0,0,0,176.319,268.632Z" transform="translate(-164.993 -260.585)" fill="#3a3a93"/>
              </g>
              <g id="Grupo_90510" data-name="Grupo 90510" transform="translate(0 26.289)">
                <g id="Grupo_90490" data-name="Grupo 90490">
                  <path id="Trazado_126968" data-name="Trazado 126968" d="M165.015,277.709h0v-1.283a13.214,13.214,0,0,1,1.311-.285l-.015.129,17.6-10.159a4.5,4.5,0,0,1,4.045-.168l25.251,14.58c.416-.04,1.081-.092,1.081-.092v1.307h0a1.648,1.648,0,0,1-.986,1.341l-17.909,10.34a4.506,4.506,0,0,1-4.045.165l-25.637-14.8A1.173,1.173,0,0,1,165.015,277.709Z" transform="translate(-165.009 -264.25)" fill="#3a3a93"/>
                  <path id="Trazado_126969" data-name="Trazado 126969" d="M191.346,293.164A4.508,4.508,0,0,0,195.39,293l17.909-10.34c1.194-.689,1.326-1.736.291-2.333l-25.637-14.8a4.507,4.507,0,0,0-4.045.165L166,276.027c-1.194.692-1.326,1.739-.291,2.336Z" transform="translate(-165.011 -265.118)" fill="#4646a5"/>
                  <path id="Trazado_126970" data-name="Trazado 126970" d="M165.735,278.1l25.637,14.8a4.009,4.009,0,0,0,3.595-.15l17.909-10.34c1.059-.612,1.176-1.546.257-2.076l-25.637-14.8a4.009,4.009,0,0,0-3.595.15l-17.909,10.337C164.933,276.635,164.817,277.568,165.735,278.1Z" transform="translate(-164.795 -264.994)" fill="#5e5ecc"/>
                </g>
                <g id="Grupo_90491" data-name="Grupo 90491" transform="translate(35.528 12.444)">
                  <path id="Trazado_126971" data-name="Trazado 126971" d="M178.973,271.676l.787.453a1.105,1.105,0,0,0,.983-.04l.906-.527c.291-.165.321-.419.07-.566l-.787-.453a1.1,1.1,0,0,0-.98.04l-.909.527C178.755,271.275,178.722,271.529,178.973,271.676Z" transform="translate(-172.101 -266.576)" fill="#c5d2ef"/>
                  <path id="Trazado_126972" data-name="Trazado 126972" d="M178.242,271.253l.787.456a1.1,1.1,0,0,0,.983-.043l.906-.523c.291-.169.321-.423.07-.567l-.784-.453a1.1,1.1,0,0,0-.983.04l-.909.524C178.024,270.855,177.994,271.109,178.242,271.253Z" transform="translate(-173.605 -267.445)" fill="#c5d2ef"/>
                  <path id="Trazado_126973" data-name="Trazado 126973" d="M177.514,270.833l.784.453a1.1,1.1,0,0,0,.983-.04l.906-.524c.291-.168.322-.423.07-.566l-.784-.456a1.1,1.1,0,0,0-.983.043l-.906.524C177.294,270.432,177.263,270.689,177.514,270.833Z" transform="translate(-175.109 -268.314)" fill="#c5d2ef"/>
                  <path id="Trazado_126974" data-name="Trazado 126974" d="M176.784,270.412l.787.453a1.1,1.1,0,0,0,.98-.04l.909-.523c.288-.168.321-.426.07-.57l-.787-.453a1.106,1.106,0,0,0-.983.04l-.906.524C176.564,270.011,176.533,270.265,176.784,270.412Z" transform="translate(-176.615 -269.182)" fill="#c5d2ef"/>
                </g>
                <g id="Grupo_90492" data-name="Grupo 90492" transform="translate(26.59 7.285)">
                  <path id="Trazado_126975" data-name="Trazado 126975" d="M176.054,269.988l.787.456a1.1,1.1,0,0,0,.983-.043l.906-.524c.288-.165.322-.423.07-.566l-.787-.453a1.1,1.1,0,0,0-.98.04l-.909.524C175.836,269.59,175.8,269.844,176.054,269.988Z" transform="translate(-169.182 -264.891)" fill="#c5d2ef"/>
                  <path id="Trazado_126976" data-name="Trazado 126976" d="M175.323,269.569l.787.453a1.1,1.1,0,0,0,.983-.04l.906-.524c.291-.168.321-.422.07-.566l-.784-.456a1.1,1.1,0,0,0-.983.043l-.909.523C175.105,269.168,175.075,269.425,175.323,269.569Z" transform="translate(-170.686 -265.761)" fill="#c5d2ef"/>
                  <path id="Trazado_126977" data-name="Trazado 126977" d="M174.6,269.148l.784.453a1.1,1.1,0,0,0,.983-.04l.906-.527c.291-.165.321-.419.07-.566l-.784-.453a1.105,1.105,0,0,0-.983.04l-.906.527C174.375,268.747,174.344,269,174.6,269.148Z" transform="translate(-172.19 -266.629)" fill="#c5d2ef"/>
                  <path id="Trazado_126978" data-name="Trazado 126978" d="M173.865,268.724l.787.456a1.089,1.089,0,0,0,.98-.043l.909-.523c.288-.165.322-.423.07-.566l-.787-.453a1.106,1.106,0,0,0-.983.04l-.906.524C173.645,268.326,173.614,268.58,173.865,268.724Z" transform="translate(-173.696 -267.497)" fill="#c5d2ef"/>
                </g>
                <g id="Grupo_90496" data-name="Grupo 90496" transform="translate(15.188 3.546)">
                  <g id="Grupo_90493" data-name="Grupo 90493" transform="translate(17.875 10.321)">
                    <path id="Trazado_126979" data-name="Trazado 126979" d="M178.168,272.141l.787.453a1.1,1.1,0,0,0,.983-.043l.906-.524c.288-.165.321-.422.07-.566l-.787-.453a1.106,1.106,0,0,0-.983.04l-.906.524C177.95,271.74,177.917,271.994,178.168,272.141Z" transform="translate(-171.296 -267.041)" fill="#c5d2ef"/>
                    <path id="Trazado_126980" data-name="Trazado 126980" d="M177.438,271.719l.787.453a1.086,1.086,0,0,0,.983-.04l.906-.524c.291-.168.322-.423.07-.566l-.787-.453a1.08,1.08,0,0,0-.98.04l-.909.524C177.22,271.321,177.187,271.575,177.438,271.719Z" transform="translate(-172.801 -267.911)" fill="#c5d2ef"/>
                    <path id="Trazado_126981" data-name="Trazado 126981" d="M176.709,271.3l.784.453a1.106,1.106,0,0,0,.983-.04l.906-.524c.291-.168.321-.423.07-.569l-.784-.453a1.1,1.1,0,0,0-.983.043l-.906.524C176.489,270.9,176.458,271.154,176.709,271.3Z" transform="translate(-174.304 -268.779)" fill="#c5d2ef"/>
                    <path id="Trazado_126982" data-name="Trazado 126982" d="M175.979,270.877l.784.453a1.1,1.1,0,0,0,.983-.043l.909-.524c.288-.165.318-.423.07-.566l-.787-.453a1.106,1.106,0,0,0-.983.04l-.906.524C175.759,270.476,175.728,270.73,175.979,270.877Z" transform="translate(-175.81 -269.647)" fill="#c5d2ef"/>
                  </g>
                  <g id="Grupo_90494" data-name="Grupo 90494" transform="translate(8.937 5.16)">
                    <path id="Trazado_126983" data-name="Trazado 126983" d="M175.249,270.455l.787.453a1.08,1.08,0,0,0,.98-.04l.909-.524c.288-.168.321-.423.07-.566l-.787-.453a1.086,1.086,0,0,0-.983.04l-.906.524C175.031,270.057,175,270.311,175.249,270.455Z" transform="translate(-168.377 -265.355)" fill="#c5d2ef"/>
                    <path id="Trazado_126984" data-name="Trazado 126984" d="M174.519,270.034l.787.453a1.106,1.106,0,0,0,.983-.04l.906-.524c.291-.168.321-.423.07-.567l-.787-.456a1.09,1.09,0,0,0-.98.043l-.909.524C174.3,269.633,174.268,269.89,174.519,270.034Z" transform="translate(-169.882 -266.224)" fill="#c5d2ef"/>
                    <path id="Trazado_126985" data-name="Trazado 126985" d="M173.79,269.613l.784.453a1.106,1.106,0,0,0,.983-.04l.906-.527c.291-.165.322-.422.07-.566l-.784-.453a1.105,1.105,0,0,0-.983.04l-.906.524C173.57,269.212,173.539,269.466,173.79,269.613Z" transform="translate(-171.385 -267.092)" fill="#c5d2ef"/>
                    <path id="Trazado_126986" data-name="Trazado 126986" d="M173.06,269.191l.784.453a1.086,1.086,0,0,0,.983-.04l.909-.524c.288-.168.318-.423.07-.566l-.787-.453a1.086,1.086,0,0,0-.983.04l-.906.524C172.84,268.793,172.809,269.047,173.06,269.191Z" transform="translate(-172.891 -267.962)" fill="#c5d2ef"/>
                  </g>
                  <g id="Grupo_90495" data-name="Grupo 90495">
                    <path id="Trazado_126987" data-name="Trazado 126987" d="M172.33,268.77l.787.453a1.1,1.1,0,0,0,.98-.04l.909-.524c.288-.168.322-.423.07-.57l-.787-.453a1.1,1.1,0,0,0-.983.043l-.906.524C172.112,268.369,172.079,268.626,172.33,268.77Z" transform="translate(-165.458 -263.67)" fill="#c5d2ef"/>
                    <path id="Trazado_126988" data-name="Trazado 126988" d="M171.6,268.349l.787.453a1.106,1.106,0,0,0,.983-.04l.906-.527c.291-.165.321-.422.07-.566l-.787-.453a1.1,1.1,0,0,0-.98.04l-.909.524C171.382,267.948,171.349,268.2,171.6,268.349Z" transform="translate(-166.963 -264.538)" fill="#c5d2ef"/>
                    <path id="Trazado_126989" data-name="Trazado 126989" d="M170.871,267.927l.784.453a1.086,1.086,0,0,0,.983-.04l.906-.524c.291-.168.321-.423.07-.566l-.784-.453a1.085,1.085,0,0,0-.983.04l-.906.524C170.651,267.529,170.62,267.783,170.871,267.927Z" transform="translate(-168.466 -265.408)" fill="#c5d2ef"/>
                    <path id="Trazado_126990" data-name="Trazado 126990" d="M170.141,267.506l.784.453a1.105,1.105,0,0,0,.983-.04l.909-.523c.288-.168.318-.423.07-.566l-.787-.456a1.1,1.1,0,0,0-.983.043l-.906.524C169.921,267.1,169.89,267.362,170.141,267.506Z" transform="translate(-169.972 -266.276)" fill="#c5d2ef"/>
                  </g>
                </g>
                <g id="Grupo_90500" data-name="Grupo 90500" transform="translate(12.723 4.97)">
                  <g id="Grupo_90497" data-name="Grupo 90497" transform="translate(17.875 10.32)">
                    <path id="Trazado_126991" data-name="Trazado 126991" d="M177.363,272.6l.787.453a1.079,1.079,0,0,0,.98-.04l.909-.524c.288-.168.322-.423.07-.566l-.787-.453a1.106,1.106,0,0,0-.983.04l-.906.524C177.143,272.205,177.112,272.459,177.363,272.6Z" transform="translate(-170.491 -267.505)" fill="#c5d2ef"/>
                    <path id="Trazado_126992" data-name="Trazado 126992" d="M176.633,272.184l.787.453a1.1,1.1,0,0,0,.983-.04l.906-.523c.288-.168.321-.423.07-.566l-.787-.453a1.079,1.079,0,0,0-.98.04l-.909.524C176.415,271.783,176.382,272.04,176.633,272.184Z" transform="translate(-171.996 -268.374)" fill="#c5d2ef"/>
                    <path id="Trazado_126993" data-name="Trazado 126993" d="M175.9,271.763l.787.453a1.105,1.105,0,0,0,.983-.04l.906-.527c.291-.165.322-.42.07-.566l-.784-.453a1.1,1.1,0,0,0-.983.04l-.909.524C175.684,271.362,175.654,271.616,175.9,271.763Z" transform="translate(-173.5 -269.243)" fill="#c5d2ef"/>
                    <path id="Trazado_126994" data-name="Trazado 126994" d="M175.174,271.34l.784.456a1.1,1.1,0,0,0,.983-.043l.906-.524c.291-.165.322-.423.074-.567l-.787-.453a1.1,1.1,0,0,0-.983.04l-.906.523C174.954,270.942,174.923,271.2,175.174,271.34Z" transform="translate(-175.005 -270.112)" fill="#c5d2ef"/>
                  </g>
                  <g id="Grupo_90498" data-name="Grupo 90498" transform="translate(6.702 3.87)">
                    <path id="Trazado_126995" data-name="Trazado 126995" d="M174.444,270.92l.787.453a1.08,1.08,0,0,0,.98-.04l.909-.524c.288-.168.322-.423.07-.566l-.787-.456a1.1,1.1,0,0,0-.983.043l-.906.524C174.224,270.519,174.193,270.776,174.444,270.92Z" transform="translate(-165.337 -264.531)" fill="#c5d2ef"/>
                    <path id="Trazado_126996" data-name="Trazado 126996" d="M173.714,270.5l.787.453a1.105,1.105,0,0,0,.983-.04l.906-.524c.288-.168.321-.423.07-.569l-.787-.453a1.1,1.1,0,0,0-.98.04l-.909.527C173.5,270.1,173.463,270.352,173.714,270.5Z" transform="translate(-166.842 -265.399)" fill="#c5d2ef"/>
                    <path id="Trazado_126997" data-name="Trazado 126997" d="M172.983,270.076l.787.456a1.1,1.1,0,0,0,.983-.043l.906-.524c.291-.165.321-.423.07-.566l-.784-.453a1.1,1.1,0,0,0-.983.04l-.909.523C172.765,269.678,172.735,269.932,172.983,270.076Z" transform="translate(-168.346 -266.268)" fill="#c5d2ef"/>
                    <path id="Trazado_126998" data-name="Trazado 126998" d="M171.525,269.235l3.019,1.742a1.105,1.105,0,0,0,.983-.04l.906-.524c.291-.168.322-.422.07-.566l-3.019-1.745a1.106,1.106,0,0,0-.983.04l-.906.527C171.3,268.834,171.274,269.091,171.525,269.235Z" transform="translate(-171.356 -268.005)" fill="#c5d2ef"/>
                  </g>
                  <g id="Grupo_90499" data-name="Grupo 90499">
                    <path id="Trazado_126999" data-name="Trazado 126999" d="M170.795,268.814l.787.453a1.1,1.1,0,0,0,.983-.043l.906-.524c.288-.165.322-.423.07-.566l-.787-.453a1.106,1.106,0,0,0-.983.04l-.906.523C170.577,268.413,170.544,268.667,170.795,268.814Z" transform="translate(-166.158 -265.004)" fill="#c5d2ef"/>
                    <path id="Trazado_127000" data-name="Trazado 127000" d="M170.064,268.392l.787.453a1.086,1.086,0,0,0,.983-.04l.906-.524c.291-.169.322-.423.07-.566l-.784-.456a1.1,1.1,0,0,0-.983.043l-.909.523C169.846,267.991,169.816,268.248,170.064,268.392Z" transform="translate(-167.662 -265.873)" fill="#c5d2ef"/>
                    <path id="Trazado_127001" data-name="Trazado 127001" d="M169.336,267.971l.784.453a1.105,1.105,0,0,0,.983-.04l.906-.524c.291-.168.321-.423.07-.57l-.784-.453a1.1,1.1,0,0,0-.983.043l-.906.524C169.116,267.57,169.085,267.824,169.336,267.971Z" transform="translate(-169.167 -266.741)" fill="#c5d2ef"/>
                  </g>
                </g>
                <g id="Grupo_90504" data-name="Grupo 90504" transform="translate(10.259 6.394)">
                  <g id="Grupo_90501" data-name="Grupo 90501" transform="translate(17.875 10.319)">
                    <path id="Trazado_127002" data-name="Trazado 127002" d="M176.558,273.07l.784.453a1.086,1.086,0,0,0,.983-.04l.909-.524c.288-.168.322-.423.07-.566l-.787-.453a1.087,1.087,0,0,0-.983.04l-.906.524C176.338,272.672,176.307,272.926,176.558,273.07Z" transform="translate(-169.686 -267.97)" fill="#c5d2ef"/>
                    <path id="Trazado_127003" data-name="Trazado 127003" d="M175.828,272.649l.787.453a1.105,1.105,0,0,0,.983-.04l.906-.523c.288-.168.321-.423.07-.569l-.787-.453a1.1,1.1,0,0,0-.983.043l-.906.524C175.61,272.248,175.577,272.5,175.828,272.649Z" transform="translate(-171.191 -268.839)" fill="#c5d2ef"/>
                    <path id="Trazado_127004" data-name="Trazado 127004" d="M175.1,272.228l.787.453a1.1,1.1,0,0,0,.983-.043l.906-.523c.291-.165.321-.423.07-.566l-.787-.453a1.1,1.1,0,0,0-.98.04l-.909.524C174.88,271.827,174.847,272.081,175.1,272.228Z" transform="translate(-172.696 -269.707)" fill="#c5d2ef"/>
                    <path id="Trazado_127005" data-name="Trazado 127005" d="M174.369,271.806l.784.453a1.086,1.086,0,0,0,.983-.04l.906-.524c.291-.168.321-.423.07-.566l-.784-.453a1.086,1.086,0,0,0-.983.04l-.906.523C174.149,271.408,174.118,271.662,174.369,271.806Z" transform="translate(-174.2 -270.577)" fill="#c5d2ef"/>
                  </g>
                  <g id="Grupo_90502" data-name="Grupo 90502" transform="translate(8.937 5.159)">
                    <path id="Trazado_127006" data-name="Trazado 127006" d="M173.639,271.385l.784.453a1.1,1.1,0,0,0,.983-.04l.909-.524c.288-.168.318-.422.07-.569l-.787-.453a1.1,1.1,0,0,0-.983.043l-.906.524C173.419,270.984,173.388,271.241,173.639,271.385Z" transform="translate(-166.767 -266.285)" fill="#c5d2ef"/>
                    <path id="Trazado_127007" data-name="Trazado 127007" d="M172.909,270.964l.787.453a1.1,1.1,0,0,0,.98-.04l.909-.527c.288-.165.321-.422.07-.566l-.787-.453a1.105,1.105,0,0,0-.983.04l-.906.524C172.691,270.563,172.658,270.817,172.909,270.964Z" transform="translate(-168.272 -267.154)" fill="#c5d2ef"/>
                    <path id="Trazado_127008" data-name="Trazado 127008" d="M172.179,270.542l.787.453a1.086,1.086,0,0,0,.983-.04l.906-.523c.291-.168.321-.423.07-.566l-.787-.453a1.08,1.08,0,0,0-.98.04l-.909.524C171.961,270.144,171.928,270.4,172.179,270.542Z" transform="translate(-169.777 -268.023)" fill="#c5d2ef"/>
                    <path id="Trazado_127009" data-name="Trazado 127009" d="M171.45,270.121l.784.453a1.105,1.105,0,0,0,.983-.04l.906-.524c.291-.168.322-.423.07-.567l-.784-.456a1.1,1.1,0,0,0-.983.043l-.906.524C171.23,269.72,171.2,269.977,171.45,270.121Z" transform="translate(-171.281 -268.891)" fill="#c5d2ef"/>
                  </g>
                  <g id="Grupo_90503" data-name="Grupo 90503">
                    <path id="Trazado_127010" data-name="Trazado 127010" d="M170.72,269.7l.784.453a1.1,1.1,0,0,0,.983-.043l.909-.524c.288-.165.318-.419.07-.566l-.787-.453a1.1,1.1,0,0,0-.983.04l-.906.523C170.5,269.3,170.469,269.553,170.72,269.7Z" transform="translate(-163.848 -264.6)" fill="#c5d2ef"/>
                    <path id="Trazado_127011" data-name="Trazado 127011" d="M169.99,269.278l.787.453a1.079,1.079,0,0,0,.98-.04l.909-.524c.288-.168.321-.423.07-.566l-.787-.453a1.086,1.086,0,0,0-.983.04l-.906.524C169.772,268.88,169.739,269.134,169.99,269.278Z" transform="translate(-165.353 -265.47)" fill="#c5d2ef"/>
                    <path id="Trazado_127012" data-name="Trazado 127012" d="M169.26,268.857l.787.453a1.106,1.106,0,0,0,.983-.04l.906-.523c.291-.169.321-.423.07-.566l-.787-.456a1.09,1.09,0,0,0-.98.043l-.909.524C169.042,268.456,169.009,268.713,169.26,268.857Z" transform="translate(-166.858 -266.338)" fill="#c5d2ef"/>
                    <path id="Trazado_127013" data-name="Trazado 127013" d="M168.531,268.436l.784.453a1.105,1.105,0,0,0,.983-.04l.906-.527c.291-.165.322-.423.07-.567l-.784-.453a1.1,1.1,0,0,0-.983.04l-.906.524C168.311,268.035,168.28,268.289,168.531,268.436Z" transform="translate(-168.362 -267.206)" fill="#c5d2ef"/>
                  </g>
                </g>
                <g id="Grupo_90508" data-name="Grupo 90508" transform="translate(7.793 7.817)">
                  <g id="Grupo_90505" data-name="Grupo 90505" transform="translate(11.171 6.448)">
                    <path id="Trazado_127014" data-name="Trazado 127014" d="M175.753,273.535l.784.453a1.086,1.086,0,0,0,.983-.04l.906-.524c.291-.168.322-.423.07-.566l-.784-.456a1.1,1.1,0,0,0-.983.043l-.906.524C175.533,273.134,175.5,273.391,175.753,273.535Z" transform="translate(-162.177 -264.565)" fill="#c5d2ef"/>
                    <path id="Trazado_127015" data-name="Trazado 127015" d="M175.023,273.114l.787.453a1.1,1.1,0,0,0,.98-.04L177.7,273c.288-.165.321-.419.07-.566l-.787-.453a1.106,1.106,0,0,0-.983.04l-.906.527C174.8,272.713,174.772,272.967,175.023,273.114Z" transform="translate(-163.682 -265.433)" fill="#c5d2ef"/>
                    <path id="Trazado_127016" data-name="Trazado 127016" d="M174.293,272.691l.787.456a1.1,1.1,0,0,0,.983-.043l.906-.524c.288-.168.322-.423.07-.566l-.787-.453a1.089,1.089,0,0,0-.98.04l-.909.524C174.075,272.293,174.042,272.547,174.293,272.691Z" transform="translate(-165.186 -266.302)" fill="#c5d2ef"/>
                    <path id="Trazado_127017" data-name="Trazado 127017" d="M171.374,271.007l7.489,4.323a1.1,1.1,0,0,0,.983-.04l.906-.524c.291-.168.321-.422.07-.567l-7.489-4.326a1.09,1.09,0,0,0-.98.043l-.909.524C171.156,270.609,171.123,270.863,171.374,271.007Z" transform="translate(-171.205 -269.777)" fill="#c5d2ef"/>
                  </g>
                  <g id="Grupo_90506" data-name="Grupo 90506" transform="translate(8.937 5.159)">
                    <path id="Trazado_127018" data-name="Trazado 127018" d="M170.643,270.586l.787.453a1.106,1.106,0,0,0,.983-.04l.906-.527c.291-.165.321-.419.07-.566l-.784-.453a1.105,1.105,0,0,0-.983.04l-.909.527C170.425,270.185,170.395,270.439,170.643,270.586Z" transform="translate(-170.475 -269.356)" fill="#c5d2ef"/>
                  </g>
                  <g id="Grupo_90507" data-name="Grupo 90507">
                    <path id="Trazado_127019" data-name="Trazado 127019" d="M169.915,270.162l.784.456a1.1,1.1,0,0,0,.983-.043l.906-.524c.291-.165.322-.423.07-.566l-.784-.453a1.105,1.105,0,0,0-.983.04l-.906.524C169.695,269.764,169.664,270.018,169.915,270.162Z" transform="translate(-163.042 -265.065)" fill="#c5d2ef"/>
                    <path id="Trazado_127020" data-name="Trazado 127020" d="M169.185,269.743l.787.453a1.079,1.079,0,0,0,.98-.04l.909-.523c.288-.168.322-.423.07-.566l-.787-.453a1.086,1.086,0,0,0-.983.04l-.906.524C168.965,269.342,168.934,269.6,169.185,269.743Z" transform="translate(-164.548 -265.935)" fill="#c5d2ef"/>
                    <path id="Trazado_127021" data-name="Trazado 127021" d="M168.455,269.322l.787.453a1.105,1.105,0,0,0,.983-.04l.906-.523c.288-.168.321-.423.07-.569l-.787-.453a1.09,1.09,0,0,0-.98.043l-.909.524C168.237,268.921,168.2,269.178,168.455,269.322Z" transform="translate(-166.052 -266.803)" fill="#c5d2ef"/>
                    <path id="Trazado_127022" data-name="Trazado 127022" d="M167.724,268.9l.787.453a1.1,1.1,0,0,0,.983-.043l.906-.524c.291-.165.321-.423.07-.566l-.784-.453a1.1,1.1,0,0,0-.983.04l-.909.524C167.506,268.5,167.476,268.754,167.724,268.9Z" transform="translate(-167.556 -267.671)" fill="#c5d2ef"/>
                  </g>
                </g>
                <g id="Grupo_90509" data-name="Grupo 90509" transform="translate(17.653 1.16)">
                  <path id="Trazado_127023" data-name="Trazado 127023" d="M173.135,268.3l.787.453a1.1,1.1,0,0,0,.983-.04l.906-.524c.288-.168.321-.422.07-.566l-.787-.453a1.08,1.08,0,0,0-.98.04l-.909.524C172.917,267.9,172.884,268.161,173.135,268.3Z" transform="translate(-166.263 -262.243)" fill="#c5d2ef"/>
                  <path id="Trazado_127024" data-name="Trazado 127024" d="M172.4,267.884l.787.453a1.106,1.106,0,0,0,.983-.04l.906-.524c.291-.168.321-.423.07-.569l-.784-.453a1.1,1.1,0,0,0-.983.043l-.909.523C172.186,267.483,172.156,267.737,172.4,267.884Z" transform="translate(-167.767 -263.111)" fill="#c5d2ef"/>
                  <path id="Trazado_127025" data-name="Trazado 127025" d="M171.676,267.46l.784.456a1.1,1.1,0,0,0,.983-.043l.906-.524c.291-.165.322-.423.07-.566l-.784-.453a1.1,1.1,0,0,0-.983.04l-.906.523C171.456,267.062,171.425,267.316,171.676,267.46Z" transform="translate(-169.271 -263.979)" fill="#c5d2ef"/>
                  <path id="Trazado_127026" data-name="Trazado 127026" d="M170.946,267.041l.787.453a1.079,1.079,0,0,0,.98-.04l.909-.523c.288-.168.322-.423.07-.566l-.787-.453a1.086,1.086,0,0,0-.983.04l-.906.524C170.726,266.643,170.7,266.9,170.946,267.041Z" transform="translate(-170.777 -264.849)" fill="#c5d2ef"/>
                  <path id="Trazado_127027" data-name="Trazado 127027" d="M171.665,266.17l1.1.634a.721.721,0,0,0,.646-.028l.361-.208c.19-.11.211-.278.046-.373l-1.1-.634a.727.727,0,0,0-.649.027l-.358.208C171.521,265.907,171.5,266.075,171.665,266.17Z" transform="translate(-169.174 -265.497)" fill="#c5d2ef"/>
                  <path id="Trazado_127028" data-name="Trazado 127028" d="M172.4,266.59l1.1.634a.721.721,0,0,0,.646-.028l.358-.205c.193-.11.211-.279.049-.374l-1.1-.634a.711.711,0,0,0-.646.028l-.358.205C172.249,266.327,172.23,266.5,172.4,266.59Z" transform="translate(-167.67 -264.628)" fill="#c5d2ef"/>
                  <path id="Trazado_127029" data-name="Trazado 127029" d="M173.124,267.01l1.1.634a.727.727,0,0,0,.649-.028l.358-.205c.19-.11.211-.279.046-.374l-1.1-.634a.721.721,0,0,0-.646.027l-.358.208C172.98,266.747,172.958,266.915,173.124,267.01Z" transform="translate(-166.166 -263.759)" fill="#c5d2ef"/>
                  <path id="Trazado_127030" data-name="Trazado 127030" d="M173.854,267.434l1.1.634a.727.727,0,0,0,.649-.028l.358-.208c.19-.11.211-.279.046-.373l-1.1-.634a.728.728,0,0,0-.649.027l-.358.208C173.71,267.171,173.689,267.339,173.854,267.434Z" transform="translate(-164.661 -262.891)" fill="#c5d2ef"/>
                  <path id="Trazado_127031" data-name="Trazado 127031" d="M174.584,267.854l1.1.634a.721.721,0,0,0,.646-.028l.361-.208c.19-.107.211-.276.046-.374l-1.1-.631a.726.726,0,0,0-.649.024l-.358.208C174.44,267.591,174.419,267.759,174.584,267.854Z" transform="translate(-163.156 -262.022)" fill="#c5d2ef"/>
                  <path id="Trazado_127032" data-name="Trazado 127032" d="M175.314,268.277l1.1.631a.72.72,0,0,0,.646-.025l.358-.208c.193-.11.214-.279.049-.374l-1.1-.634a.721.721,0,0,0-.646.028l-.358.2C175.17,268.011,175.149,268.179,175.314,268.277Z" transform="translate(-161.651 -261.153)" fill="#c5d2ef"/>
                  <path id="Trazado_127033" data-name="Trazado 127033" d="M176.043,268.7l1.1.634a.727.727,0,0,0,.649-.028l.358-.208c.19-.11.211-.279.046-.374l-1.1-.634a.722.722,0,0,0-.646.028l-.358.208C175.9,268.435,175.878,268.6,176.043,268.7Z" transform="translate(-160.148 -260.285)" fill="#c5d2ef"/>
                  <path id="Trazado_127034" data-name="Trazado 127034" d="M176.773,269.118l1.1.634a.727.727,0,0,0,.649-.027l.358-.205c.19-.11.211-.279.046-.377l-1.1-.631a.727.727,0,0,0-.649.025l-.358.208C176.629,268.855,176.608,269.023,176.773,269.118Z" transform="translate(-158.643 -259.416)" fill="#c5d2ef"/>
                  <path id="Trazado_127035" data-name="Trazado 127035" d="M177.5,269.538l1.1.634a.711.711,0,0,0,.646-.028l.361-.205c.19-.11.211-.279.046-.374l-1.1-.634a.728.728,0,0,0-.649.028l-.358.205C177.359,269.275,177.338,269.443,177.5,269.538Z" transform="translate(-157.138 -258.547)" fill="#c5d2ef"/>
                  <path id="Trazado_127036" data-name="Trazado 127036" d="M178.233,269.962l1.1.634a.721.721,0,0,0,.646-.028l.358-.208c.193-.11.214-.279.049-.373l-1.1-.634a.721.721,0,0,0-.646.027l-.358.208C178.089,269.7,178.068,269.867,178.233,269.962Z" transform="translate(-155.632 -257.679)" fill="#c5d2ef"/>
                  <path id="Trazado_127037" data-name="Trazado 127037" d="M178.962,270.382l1.1.634a.72.72,0,0,0,.646-.027l.358-.208c.19-.11.211-.276.046-.374l-1.1-.631a.72.72,0,0,0-.646.024l-.358.208C178.818,270.119,178.8,270.287,178.962,270.382Z" transform="translate(-154.129 -256.81)" fill="#c5d2ef"/>
                  <path id="Trazado_127038" data-name="Trazado 127038" d="M179.692,270.805l1.1.631a.728.728,0,0,0,.649-.027l.358-.205c.19-.11.211-.279.046-.374l-1.1-.634a.721.721,0,0,0-.646.027l-.361.205C179.548,270.539,179.527,270.707,179.692,270.805Z" transform="translate(-152.624 -255.941)" fill="#c5d2ef"/>
                </g>
                <path id="Trazado_127039" data-name="Trazado 127039" d="M169.014,273.19l6.929,4a1.764,1.764,0,0,0,1.586-.064l3.539-2.045c.468-.269.521-.68.116-.915l-6.929-4a1.773,1.773,0,0,0-1.586.064l-3.539,2.045C168.662,272.544,168.61,272.958,169.014,273.19Z" transform="translate(-157.318 -255.037)" fill="#3a3a93"/>
                <path id="Trazado_127040" data-name="Trazado 127040" d="M180.061,272.713l1.96-1.13a.448.448,0,0,0,.187-.355h0c0-.135-.083-.2-.187-.141l-1.96,1.133a.439.439,0,0,0-.187.355h0C179.874,272.71,179.957,272.775,180.061,272.713Z" transform="translate(-134.366 -252.855)" fill="#fff"/>
                <path id="Trazado_127041" data-name="Trazado 127041" d="M179.111,273.273l1.963-1.133a.454.454,0,0,0,.184-.355h0c0-.135-.083-.2-.184-.141l-1.963,1.133a.445.445,0,0,0-.184.355h0C178.927,273.267,179.01,273.332,179.111,273.273Z" transform="translate(-136.319 -251.706)" fill="#fff"/>
                <path id="Trazado_127042" data-name="Trazado 127042" d="M176.242,274.93l1.96-1.133a.438.438,0,0,0,.187-.352h0c0-.138-.083-.2-.187-.141l-1.96,1.133a.438.438,0,0,0-.187.352h0C176.055,274.927,176.138,274.988,176.242,274.93Z" transform="translate(-142.24 -248.286)" fill="#fff"/>
              </g>
              <path id="Trazado_127043" data-name="Trazado 127043" d="M172.228,257.138l.909-.521v0a.584.584,0,0,1,.649.021l26.935,15.551a2.265,2.265,0,0,1,.943,1.8V296.62a.85.85,0,0,1-.306.744v0l-.971.557-.487-1.066-26.114-15.076a2.274,2.274,0,0,1-.943-1.8V257.808c-.187.119-.334.211-.343.211A8.832,8.832,0,0,1,172.228,257.138Z" transform="translate(-150.131 -256.532)" fill="#3a3a93"/>
              <path id="Trazado_127044" data-name="Trazado 127044" d="M199.988,297.516l-26.932-15.551a2.268,2.268,0,0,1-.946-1.8V257.541c0-.692.426-1.013.946-.713l26.932,15.551a2.255,2.255,0,0,1,.943,1.8V296.8C200.931,297.495,200.508,297.816,199.988,297.516Z" transform="translate(-150.374 -256.155)" fill="#4646a5"/>
              <path id="Trazado_127045" data-name="Trazado 127045" d="M199.614,296.812l-26.5-15.3a2.23,2.23,0,0,1-.931-1.773V257.645c0-.683.419-1,.931-.7l26.5,15.3a2.227,2.227,0,0,1,.928,1.773v22.1C200.541,296.791,200.125,297.106,199.614,296.812Z" transform="translate(-150.218 -255.916)" fill="#5e5ecc"/>
              <path id="Trazado_127046" data-name="Trazado 127046" d="M175.492,259.242l17.383,10.036v20.645l-17.383-10.036Z" transform="translate(-143.4 -250.945)" fill="#fff"/>
              <path id="Trazado_127047" data-name="Trazado 127047" d="M181.736,262.847v20.645l-9.272-5.353V257.494Z" transform="translate(-149.644 -254.55)" fill="#4646a5"/>
              <path id="Trazado_127048" data-name="Trazado 127048" d="M181.736,262.847v3.539l-9.272-5.353v-3.539Z" transform="translate(-149.644 -254.55)" fill="#ffaf04"/>
              <path id="Trazado_127049" data-name="Trazado 127049" d="M177.385,260.2c0,.245-.147.355-.331.251a.8.8,0,0,1-.331-.634c0-.245.147-.358.331-.251A.789.789,0,0,1,177.385,260.2Z" transform="translate(-140.861 -250.364)" fill="#fff"/>
              <path id="Trazado_127050" data-name="Trazado 127050" d="M176.774,259.79c0,.2-.119.288-.266.2a.638.638,0,0,1-.269-.511c0-.2.119-.291.269-.205A.646.646,0,0,1,176.774,259.79Z" transform="translate(-141.863 -250.942)" fill="#fff"/>
              <g id="Grupo_90511" data-name="Grupo 90511" transform="translate(22.521 9)">
                <path id="Trazado_127051" data-name="Trazado 127051" d="M181.613,262.841a.044.044,0,0,0-.089,0c-.049.992,0,1.987-.015,2.976s0,1.99.052,2.976c0,.061.1.1.1-.028A58.142,58.142,0,0,0,181.613,262.841Z" transform="translate(-153.532 -252.613)" fill="#fff"/>
                <path id="Trazado_127052" data-name="Trazado 127052" d="M184.513,263.787c-.716-.533-3.941-2.4-5.153-3.037-.184-.1-.273-.058-.086.089a45.156,45.156,0,0,0,5.165,3.074C184.51,263.941,184.627,263.87,184.513,263.787Z" transform="translate(-158.337 -256.946)" fill="#fff"/>
                <path id="Trazado_127053" data-name="Trazado 127053" d="M182.387,262.562c-.72-.533-3.941-2.4-5.153-3.037-.187-.1-.276-.055-.089.089a44.921,44.921,0,0,0,5.168,3.074C182.381,262.718,182.5,262.645,182.387,262.562Z" transform="translate(-162.726 -259.472)" fill="#fff"/>
                <path id="Trazado_127054" data-name="Trazado 127054" d="M172.423,273.581c1.684.817,3.426,2.25,5.432,2.474a5.315,5.315,0,0,0,3.111-1c.851-.459,1.675-.977,2.538-1.408a.019.019,0,0,1,.018.034,29.477,29.477,0,0,1-2.976,1.855,4.773,4.773,0,0,1-2.768.778c-1.712-.156-3.962-1.512-5.4-2.67C172.343,273.612,172.389,273.566,172.423,273.581Z" transform="translate(-172.367 -230.387)" fill="#fff"/>
              </g>
              <g id="Grupo_90512" data-name="Grupo 90512" transform="translate(27.774 21.93)">
                <path id="Trazado_127055" data-name="Trazado 127055" d="M174.082,263.695l3.005,1.735v.469l-3.005-1.735Z" transform="translate(-174.082 -263.695)" fill="#fff"/>
                <path id="Trazado_127056" data-name="Trazado 127056" d="M174.082,263.977l3.005,1.735v.47l-3.005-1.735Z" transform="translate(-174.082 -263.112)" fill="#fff"/>
                <path id="Trazado_127057" data-name="Trazado 127057" d="M174.082,264.259l3.005,1.735v.469l-3.005-1.735Z" transform="translate(-174.082 -262.53)" fill="#fff"/>
                <path id="Trazado_127058" data-name="Trazado 127058" d="M174.082,264.541l3.005,1.735v.469l-3.005-1.735Z" transform="translate(-174.082 -261.948)" fill="#fff"/>
              </g>
              <g id="Grupo_90513" data-name="Grupo 90513" transform="translate(24.007 19.725)">
                <path id="Trazado_127059" data-name="Trazado 127059" d="M172.852,262.975l3.005,1.735v.47l-3.005-1.735Z" transform="translate(-172.852 -262.975)" fill="#fff"/>
                <path id="Trazado_127060" data-name="Trazado 127060" d="M172.852,263.257l3.005,1.735v.469l-3.005-1.735Z" transform="translate(-172.852 -262.392)" fill="#fff"/>
                <path id="Trazado_127061" data-name="Trazado 127061" d="M172.852,263.539l3.005,1.735v.47l-3.005-1.735Z" transform="translate(-172.852 -261.81)" fill="#fff"/>
                <path id="Trazado_127062" data-name="Trazado 127062" d="M172.852,263.821l3.005,1.735v.469l-3.005-1.735Z" transform="translate(-172.852 -261.229)" fill="#fff"/>
              </g>
              <path id="Trazado_127063" data-name="Trazado 127063" d="M172.621,262.378l8.286,4.7v.882l-8.286-4.7Z" transform="translate(-149.322 -244.479)" fill="#261822"/>
              <path id="Trazado_127064" data-name="Trazado 127064" d="M179.607,265.544c0,.6-.364.879-.814.618a1.95,1.95,0,0,1-.817-1.562c0-.6.364-.876.817-.615A1.954,1.954,0,0,1,179.607,265.544Z" transform="translate(-138.282 -241.368)" fill="#ffaf04"/>
              <path id="Trazado_127065" data-name="Trazado 127065" d="M181.766,266.657a4.693,4.693,0,0,1-1.73-2.061l-3.5,1.062a13.7,13.7,0,0,0,5.233,6.577c2.52,1.454,4.7.793,5.768-1.4l-3.827-4.513A1.322,1.322,0,0,1,181.766,266.657Z" transform="translate(-141.255 -239.906)" fill="#ff9201"/>
              <path id="Trazado_127066" data-name="Trazado 127066" d="M180.37,271.307a3.29,3.29,0,0,1-.1.833l3.824,4.513a8.606,8.606,0,0,0,.459-2.93c0-4.66-2.774-10.058-6.24-12.22l.04,5.618A5.617,5.617,0,0,1,180.37,271.307Z" transform="translate(-137.579 -246.283)" fill="#ff7f00"/>
              <path id="Trazado_127067" data-name="Trazado 127067" d="M180.314,269.287c0-1.54.86-2.315,1.972-1.874l-.04-5.621c-3.408-1.727-6.118.471-6.118,5.08a15.028,15.028,0,0,0,.915,4.954l3.506-1.063A5.1,5.1,0,0,1,180.314,269.287Z" transform="translate(-142.088 -246.899)" fill="#ffaf04"/>
              <g id="Grupo_90516" data-name="Grupo 90516" transform="translate(23.823 7.083)">
                <g id="Grupo_90514" data-name="Grupo 90514">
                  <path id="Trazado_127068" data-name="Trazado 127068" d="M172.792,268.689l7.14,4.122v-9.844l-7.14-4.122Z" transform="translate(-172.792 -258.845)" fill="#fff"/>
                </g>
                <path id="Trazado_127069" data-name="Trazado 127069" d="M174.675,268.745l1,.579v-8.441l-1-.579Z" transform="translate(-168.909 -255.838)" fill="#ffaf04"/>
                <path id="Trazado_127070" data-name="Trazado 127070" d="M174.125,267.551l1,.579v-7.14l-1-.579Z" transform="translate(-170.043 -255.617)" fill="#ff9201"/>
                <path id="Trazado_127071" data-name="Trazado 127071" d="M173.575,266.278l1,.579v-5.721l-1-.579Z" transform="translate(-171.177 -255.316)" fill="#ffaf04"/>
                <path id="Trazado_127072" data-name="Trazado 127072" d="M173.025,264.95l1,.579v-4.22l-1-.579Z" transform="translate(-172.311 -254.96)" fill="#ff7f00"/>
                <g id="Grupo_90515" data-name="Grupo 90515" transform="translate(0 9.494)">
                  <path id="Trazado_127073" data-name="Trazado 127073" d="M172.792,262.3l7.14,4.122v-.35l-7.14-4.122Z" transform="translate(-172.792 -261.946)" fill="#261822"/>
                </g>
              </g>
            </g>
            <g id="Grupo_90519" data-name="Grupo 90519" transform="translate(0.993 98.985)">
              <path id="Trazado_127074" data-name="Trazado 127074" d="M166.478,287.19s-7.22,2.2-9.054,4.648a13.87,13.87,0,0,0-3.08,7.422c-.355,3.019.906,4.908,4.143,4.767,2.841-.125,4.265-1.6,4.746-3.215,0,0,7.976-.842,12.057-3.683S173.2,286.434,166.478,287.19Z" transform="translate(-127.082 -190.446)" fill="#261822"/>
              <path id="Trazado_127075" data-name="Trazado 127075" d="M198.449,275.142c-6.4-1.421-14.3.974-21.038,4.1a1.314,1.314,0,0,0-.493.135c-8.062,3.873-26.962,12.878-26.864,13.157-2.979,6.344,1.54,16.169,9.9,15.107a15.208,15.208,0,0,0,13.53,1.24c-.205.294-3.2,4.547-5.441,8.555,2.318,1.176,3.19,2.208,6.782,5.291,3.889-1.574,9.773-6.69,13.089-9.2s14.657-14.8,14.657-25.162C206.765,284.459,205.84,276.784,198.449,275.142Z" transform="translate(-137.703 -216.046)" fill="#261822"/>
              <path id="Trazado_127076" data-name="Trazado 127076" d="M195.292,310.415c-.367-4.541-3.12-10.891-5.046-13.766-5.07-7.575-7.021-12.507-12.452-15.983-6.549-4.192-10.707,3.328-17.59,4.3-.067-.037-7.189-2.848-7.685-3.111.119.214.2,10.732,2.973,16.136,1.6,3.1,5.915,5.857,12.287,6.035a24.7,24.7,0,0,0,7.762,8.16c-1.987,1.565-4.228,2.7-7.584,5.86A139.063,139.063,0,0,1,151.3,331.651a12.575,12.575,0,0,1,3.493,2.939,8.573,8.573,0,0,1,1.8,4.222c10.934-2.5,19.6-8.218,28.582-14.553,3.23-2.281,4.988-4.617,7.287-7.456C196.881,316.094,196.682,311.713,195.292,310.415Z" transform="translate(-133.239 -206.393)" fill="#3a2934"/>
              <path id="Trazado_127077" data-name="Trazado 127077" d="M177.6,265.03s-8.007-8.741-15.909,1.206c-2.44,3.077-2.759,5.6-3.457,7.284-2.93,5.046-7.71,12.247-9.538,17.027-.762,1.99-.3,5.089.306,5.909,1.209,1.629,14.427,6.693,18.637,2.076C176.118,289.231,177.6,265.03,177.6,265.03Z" transform="translate(-139.435 -243.353)" fill="#2992e3"/>
              <g id="Grupo_90518" data-name="Grupo 90518" transform="translate(37.369)">
                <path id="Trazado_127078" data-name="Trazado 127078" d="M171.614,278.687l-6.424,5.266c-3.463-1.231-6.1-5.325-7.584-9.244,1.268-1.013,5.759-3.582,6.075-4.942-1.335-3.735.686-6.88,4.152-10.236,3.634-3.515,10.19-3.481,14.124-.377a6.187,6.187,0,0,1,3.114,5.9c-.438,3.974-2.71,13.524-6.087,15.242C176.629,281.5,173.883,279.545,171.614,278.687Z" transform="translate(-157.606 -252.876)" fill="#ffc9b6"/>
                <path id="Trazado_127079" data-name="Trazado 127079" d="M158.446,275.623s1.225-7.137,2.462-11.65,3.151-8.025,7.786-6.938c4.2-3.533,10.15.282,12.462,1.1s5.276,1.987,5.753,7.293c.4,4.531.441,6.727.441,6.727s-6.249-.765-8.8-3.007c-2.238,2.254-2.976,3.533-9.691,6.473S158.446,275.623,158.446,275.623Z" transform="translate(-155.874 -255.559)" fill="#ff9d27"/>
                <path id="Trazado_127080" data-name="Trazado 127080" d="M167.476,261.631a1.882,1.882,0,0,0-3.12-.931c-2.348,1.561.459,6.2.459,6.2Z" transform="translate(-145.621 -246.016)" fill="#ffc9b6"/>
              </g>
              <path id="Trazado_127081" data-name="Trazado 127081" d="M173.45,262.271c3.937,1.7,3.662,2.416,11.852,8.714s8.613,10.006,7.866,13.91-1.31,5.9-4.5,13.512a50.733,50.733,0,0,1-9.253,14.951A23.652,23.652,0,0,1,183.469,315c1.261.784,1.571,5.095.162,6.421-4.029,3.787-20.747,13.359-34.513-.426.625-10.836,4.528-32.725,7.305-41.273C159.562,270.051,170,260.777,173.45,262.271Z" transform="translate(-137.738 -242.048)" fill="#36a3f7"/>
              <path id="Trazado_127082" data-name="Trazado 127082" d="M171.138,279.609a52.493,52.493,0,0,1-9.807,4.02,80.947,80.947,0,0,1-8.662,1.733c1.307,0,8.625.726,11.635-1.075S171.138,279.609,171.138,279.609Z" transform="translate(-130.416 -205.972)" fill="#2992e3"/>
              <path id="Trazado_127083" data-name="Trazado 127083" d="M153.48,278.9a9.8,9.8,0,0,0,6.751,1.846c4.035-.392,6.586-.882,6.586-.882s-4.348-1.24-6.586-.964A51.24,51.24,0,0,1,153.48,278.9Z" transform="translate(-128.744 -207.508)" fill="#2992e3"/>
              <path id="Trazado_127084" data-name="Trazado 127084" d="M169.075,295.241a54.246,54.246,0,0,0-8.365,0c-2.425.413-2.777,4.792-4.908,6.862s-8.3,3.135-9.942,7.394,1.359,10.854,5.211,9.231c6.329-2.661,19.106-13.313,19.106-13.313S173.116,300.865,169.075,295.241Z" transform="translate(-145.401 -174.119)" fill="#261822"/>
              <path id="Trazado_127085" data-name="Trazado 127085" d="M182.879,275.01c-1.436.588-2.171.857-3.567,1.387.135-1.289,1.534-2.266.98-3.582-.41-.986-1.344-.086-2.529,1.54s-2.1,3.19-3.653,4.244c0,0-1.693,4.78.006,5.668s8.114-.459,9.89-1.191,4.868-1.7,6.549-5.116C192.627,273.757,186.776,273.411,182.879,275.01Z" transform="translate(-87.758 -220.828)" fill="#ffc9b6"/>
              <path id="Trazado_127086" data-name="Trazado 127086" d="M203.766,291.479c-5.68,0-14.73-.7-19.559-.352a33.824,33.824,0,0,0-6.013-11.053c-1.8-8.521-6.846-13.23-10.226-13.956-4.755-1.013-8.726,2.431-8.717,7.569.018,10.086,4.467,15.386,7.116,15.823-.211,5.346,6.907,11.537,10.294,11.9,1.084,2.511,3.123,4.985,6.73,4.648,6.414-.594,18.074-6.212,22.266-8.046C206.384,296.446,206.126,293.773,203.766,291.479Z" transform="translate(-116.847 -234.153)" fill="#2992e3"/>
            </g>
          </g>
          <g id="Grupo_90524" data-name="Grupo 90524" transform="translate(324.292 274.285)">
            <g id="Grupo_90522" data-name="Grupo 90522" transform="translate(67.698)">
              <path id="Trazado_127087" data-name="Trazado 127087" d="M247.622,214.04c-1.877-.269-5.949-.064-11.448,5.922-7.633,8.307-10.9,20.554-10.9,20.554l-16.237,4.991a9.314,9.314,0,0,1,1.693,7.045c4.118,1.081,13.3,1.43,16.43.576s24.9-32.379,24.9-32.379Z" transform="translate(-209.034 -185.36)" fill="#c678d5"/>
              <path id="Trazado_127088" data-name="Trazado 127088" d="M234.8,257.271a18.9,18.9,0,0,1-9.473.11c-.015,2.624-.1,5.165-.312,7.443-.87,9.372.23,11.225-5.086,14.338-4.758,2.789-5.377,3.7-7.78,6.8-1.727,2.229,1.081,3.5,3.313,3.264,4.865-.517,9.409-5.272,12.067-6s6.3-1.61,5.974-4.461c-.349-3.068-1.118-3.056-1.427-5.744C231.666,269.445,233.4,263.082,234.8,257.271Z" transform="translate(-203.715 -96.079)" fill="#ffc9b6"/>
              <path id="Trazado_127089" data-name="Trazado 127089" d="M235.686,257.271a18.95,18.95,0,0,1-7.936,5.181c1.4,2.22,2.688,4.409,3.732,6.445,4.3,8.374,6.219,9.345,3.408,14.825-2.52,4.908-2.557,6.007-2.918,9.917-.26,2.808,2.792,2.37,4.547.974,3.83-3.047,5.11-9.5,6.963-11.534s4.449-4.743,2.645-6.972c-1.938-2.4-2.584-1.981-4.287-4.081C239.575,269.227,237.624,262.926,235.686,257.271Z" transform="translate(-170.445 -96.079)" fill="#ffc9b6"/>
              <path id="Trazado_127090" data-name="Trazado 127090" d="M242.59,262.891a16.713,16.713,0,0,0,.018,3.543c-1.164,2.235-2.872,4.274-4.25,7.385s-2.263,5.073-4.795,4.948-3.181-.741-3.181-.741-1.684,3.42-1.675,5.006,4.085,3.129,7.664.327,3.634-6.145,4.776-9.1,2.8-4.562,3.953-7.033S242.59,262.891,242.59,262.891Z" transform="translate(-168.47 -84.492)" fill="#261822"/>
              <path id="Trazado_127091" data-name="Trazado 127091" d="M241.1,236.389c-4.847-4.234-15.407-7.566-16.356-5.7-3.607,7.2-3.941,7.5-3.941,14.694-3.319,8.744-7.039,30.312-7.039,39.742,0,3.567,2.872,9.844,3.885,14.409a177.444,177.444,0,0,1,2.942,21.194c1.8,1.794,6.681,2.171,8.1-.521,1.133-4.764,3.953-14.28,4.008-20.159.058-6.05-1.231-9.192-4.538-13.76,4.326-3.521,8.7-14.975,10.563-20.177,1.118-3.129,4.988-11.118,6.356-15.679A13.405,13.405,0,0,0,241.1,236.389Z" transform="translate(-199.288 -151.981)" fill="#261822"/>
              <path id="Trazado_127092" data-name="Trazado 127092" d="M241.291,293.539c2.091-7.575,4.991-13.451,5.34-21.307.239-5.41.545-11.338-1.525-16.445,3.735-5.545,6.32-16.292-.472-24.274-.239-.282-15.833,6.571-23.861,6.3a.289.289,0,0,0-.162.058c-.009-.086-.009-.171-.025-.26a.181.181,0,0,0-.328-.043c-2.887,6.488-.643,13.944,3.977,19.011-1.415,10.863,3.334,35.091,4.73,40.514,0,3.05,2.554,4.063,5.367,8.3,4.657,7,12.379,13.974,16.99,19.893,3.5-1.075,4.28-3.457,5.781-5.321C254.827,303.872,241.288,293.554,241.291,293.539Z" transform="translate(-188.545 -149.205)" fill="#3a2934"/>
              <path id="Trazado_127093" data-name="Trazado 127093" d="M262.159,256.216a8.881,8.881,0,0,0-1.369-4.207,22.508,22.508,0,0,0-2.841-3.555c-2.116-2.293-4.611-4.2-2.792-7.734.533-1.032,1.865-1.788,2.578-2.74a8.007,8.007,0,0,0,1.473-3.276,8.955,8.955,0,0,0-1.157-6.359c-1.614-2.587-4.391-3.114-6.834-4.617a5.271,5.271,0,0,1-2.367-4.443c.058-.87,1-1.858,1.252-2.762a6.372,6.372,0,0,0,.211-2.719,6.671,6.671,0,0,0-3.322-4.746,7.323,7.323,0,0,0-4.541-.524c-1.84-.009-3.781.034-5.153-1s-1.911-2.186-3.689-2.67a7.071,7.071,0,0,0-7.627,2.909,9.723,9.723,0,0,0-.569,9.62,15.8,15.8,0,0,0,4.574,5.171c2.226,1.69,3.056,2.627,3.518,5.426.224,1.341.276,3.968,1.154,5.447a9.853,9.853,0,0,0,3.729,5.759,39.34,39.34,0,0,0,3.794,2.051c2.367,1.375,2.489,4.075,1.938,6.464-.153.671-1.243,2.021-.772,3.717.612,2.2,3.677.949,4.048,4.066.456,3.858-4.825,6.445-2.921,10.854,1.442,3.334,5.741,3.622,8.827,2.851C258.917,267.8,263.053,261.7,262.159,256.216Z" transform="translate(-177.323 -204.625)" fill="#352322"/>
              <path id="Trazado_127094" data-name="Trazado 127094" d="M234.539,211.734a2.237,2.237,0,0,0-2.257-.873,2.185,2.185,0,0,0-.707-2.186,1.9,1.9,0,0,0-2.177-.11c-.07.04-.147.1-.22.147a2.585,2.585,0,0,0-.4-1.436,1.868,1.868,0,0,0-2.085-.851c-1.647.49-2.489,3.316-2.051,4.816a.4.4,0,0,0,.257.251,10.344,10.344,0,0,0,4.149,5.22c.585.438,1.28,1.087,2.061,1.038a3.668,3.668,0,0,0,2.156-1.451C234.233,215.216,235.519,213.158,234.539,211.734Z" transform="translate(-177.093 -201.064)" fill="#c678d5"/>
              <g id="Grupo_90521" data-name="Grupo 90521" transform="translate(26.525 33.977)">
                <path id="Trazado_127095" data-name="Trazado 127095" d="M221.163,241.622c.5,1.577-.135,9.458-.306,10.3-.955,4.724-2.021,9.09-3.16,13.331a47.492,47.492,0,0,0,4.026,4.124,17.6,17.6,0,0,0,12.6,3.233,23.694,23.694,0,0,0,12.106-5.425c.217-.184.413-.361.606-.536a88.73,88.73,0,0,1-5.523-9.746c-.756-3.371.37-6.384,3.148-9.455,2.128-2.351,4.026-4.553,5.144-7.587,1.228-3.334-7.948-17.853-11.182-19.311-2.563-1.154-8.016-5.71-9.335-4.672A43.854,43.854,0,0,0,223.827,222c-1.525,1.963-3.781,4.761-5.141,6.846C216.7,231.894,219.225,241.557,221.163,241.622Z" transform="translate(-217.697 -215.722)" fill="#efe8eb"/>
              </g>
              <path id="Trazado_127096" data-name="Trazado 127096" d="M248.074,224.042c1.026.674,4.268,5.778,4.268,5.778s3.928,9.238,0,14.709-5.217,10.018-5.334,11.812,4.856,9.611,5.334,10.19-3.08,6.026-9.519,8.046-14.727-1.436-14.727-1.436l-.857-6.347-5.211,3.708-5.967-5.144a78.755,78.755,0,0,1,6.372-9.495c-.095-3.895-1.359-11.522-.845-14.378-.848-1.571-1.418-1.611-2.14-5.337s.392-7.517,3.983-12.06c2.829-3.579,9.274-9,9.274-9s1.408.808,3.371,1.938c-9.853,7.061-12.247,25.612-10.177,26.812C230.607,236.148,247.456,223.631,248.074,224.042Z" transform="translate(-194.548 -183.051)" fill="#dc9ce8"/>
              <path id="Trazado_127097" data-name="Trazado 127097" d="M234.843,214.068c-.006-.426-4.93,1.007-7.244,1.28-.021,0-.1-.1-.138-.168a.149.149,0,0,0-.276.077c-.147,2.385-.025,4.415-1.5,6.47a46.245,46.245,0,0,0-3.478,4.758c-1.164,1.966-1.271,3.882.242,5.037,2.391,1.825,9.648-1,13.913-5.1a6.516,6.516,0,0,1-1.675-2.863C234.31,221.689,234.88,217.561,234.843,214.068Z" transform="translate(-183.689 -185.318)" fill="#ffb9a4"/>
              <path id="Trazado_127098" data-name="Trazado 127098" d="M230.146,215.228a56.774,56.774,0,0,0-6.451,5.563,42.823,42.823,0,0,0-5.2,7.547l3.27,3.4-3.754,1.984s.671,5.71,1.133,7.606a21.026,21.026,0,0,0,2.961,5.827s.867-11.565,1.3-14.482c.606-4.026,4.1-8.919,8.16-13.288C232.139,218.767,230.146,215.228,230.146,215.228Z" transform="translate(-190.529 -182.764)" fill="#c678d5"/>
              <path id="Trazado_127099" data-name="Trazado 127099" d="M220,219.838c-.073-2.949.315-6.684,2.434-8.934,2.094-2.223,5.919-2.685,8.83-2.679,4.519.012,8.019,4.773,7.609,10.579-.377,5.361-3.374,13.784-9.222,15.291C223.146,235.771,220.115,224.32,220,219.838Z" transform="translate(-186.444 -197.205)" fill="#ffc9b6"/>
              <path id="Trazado_127100" data-name="Trazado 127100" d="M217.913,215.087a2.941,2.941,0,0,1,2.636-1.745,2.935,2.935,0,0,1-.34-3.989,3.083,3.083,0,0,1,4.828.058,15.783,15.783,0,0,1,9.721-2.085,15.392,15.392,0,0,1,5.1.891,16.189,16.189,0,0,1,2.284,2.529.656.656,0,0,1,.34.126.531.531,0,0,1,.282-.092c7.884.116,4.844,13.506.205,18.729-1.206-1.338-1.482-2.336-2.655-4.734-.465-.949-1.258-3.429-1.81-4.3-1.473,1.2-4.718,1.467-7.321,1.372a17.508,17.508,0,0,1-2.652,1.047c-3.239,1.007-6.751.585-9.21-1.917C217.886,219.508,216.952,217.068,217.913,215.087Z" transform="translate(-191.536 -199.175)" fill="#261822"/>
              <path id="Trazado_127101" data-name="Trazado 127101" d="M224.414,213.7s1.7-3.215,3.221-1.4.478,5.808-1.265,5.839S224.414,213.7,224.414,213.7Z" transform="translate(-177.323 -189.94)" fill="#ffc9b6"/>
              <path id="Trazado_127102" data-name="Trazado 127102" d="M233.89,263.57a16.93,16.93,0,0,0-1.886,3c-2.18,1.264-4.715,2.064-7.547,3.953s-4.632,3.062-6.7,1.6-2.287-2.336-2.287-2.336-3.255,1.984-4.1,3.325,1.767,4.832,6.292,4.391,6.366-3.233,8.916-5.116,4.807-2.348,7.113-3.812S233.89,263.57,233.89,263.57Z" transform="translate(-204.549 -83.092)" fill="#261822"/>
              <path id="Trazado_127103" data-name="Trazado 127103" d="M238.967,215.722s-.26,2.526-3.016,6.313c-1.944,2.676-5.952,4.917-9.075,8.135a45.18,45.18,0,0,0-7.6,11.509l.224,4.452s5.928-6.638,9.568-8.64a15.633,15.633,0,0,1,.521-5.248l4.715,1.727a28.758,28.758,0,0,0,7.869-9.813C243.663,221.1,238.967,215.722,238.967,215.722Z" transform="translate(-187.923 -181.746)" fill="#c678d5"/>
            </g>
            <g id="Grupo_90523" data-name="Grupo 90523" transform="translate(0 19.803)">
              <path id="Trazado_127104" data-name="Trazado 127104" d="M238.66,274.694V223.96l-29.335,21.3v66.6C227.423,302.407,238.66,289.25,238.66,274.694Z" transform="translate(-140.736 -184.564)" fill="#323294"/>
              <path id="Trazado_127105" data-name="Trazado 127105" d="M255.512,287.657c18.1-9.455,29.335-22.608,29.335-37.167,0-15.744-13.147-29.847-33.9-39.4l-64.023,36.962Z" transform="translate(-186.923 -211.093)" fill="#5e5ecc"/>
              <path id="Trazado_127106" data-name="Trazado 127106" d="M186.924,223.165V273.9l68.588,39.6V262.764Z" transform="translate(-186.924 -186.202)" fill="#4646a5"/>
            </g>
            <path id="Trazado_127107" data-name="Trazado 127107" d="M245.934,219.405c1.987-.87,4.458,2.664,5.377,5.591,1.283,4.087.793,7.93-.527,14.951-1.1,5.839-3.888,15.915-8.264,19.415-7.44,6.243-23.894,8.579-23.894,8.579s-.805-3.255.294-5.438c1.644-.487,10.609-6.222,16.846-10.8,1.17-4.822,2.024-7.86,2.067-14.167C237.875,231.613,239.265,222.332,245.934,219.405Z" transform="translate(-122.147 -174.428)" fill="#c678d5"/>
            <path id="Trazado_127108" data-name="Trazado 127108" d="M229.378,235.085a23.364,23.364,0,0,0-4.449-1.341c-1.555-.26-3.72-1.859-3.858-.879-.257,1.843,2.823,2.649,2.878,3.077.028.227-.937.857-2.725.98a45.957,45.957,0,0,0-6.393.652c-1.39.315-1.412,1.121-.346,1.635-.753.548-1.24,1.2.805,1.543-.83.539-.254,1.212.661,1.2-.049.677.671.707,1.865.713a57,57,0,0,0,5.82.018c1.491-.159,4.911-.931,6.586-2.774C231.5,238.5,229.378,235.085,229.378,235.085Z" transform="translate(-131.65 -147.049)" fill="#ffc9b6"/>
          </g>
        </g>
      </g>
    </g>
  </g>
</svg>
