<svg xmlns="http://www.w3.org/2000/svg" width="108" height="108" viewBox="0 0 108 108">
  <g id="Grupo_102528" data-name="Grupo 102528" transform="translate(-1022 -8096)">
    <circle id="Elipse_4724" data-name="Elipse 4724" cx="54" cy="54" r="54" transform="translate(1022 8096)" fill="#36a3f7"/>
    <g id="Grupo_101810" data-name="Grupo 101810" transform="translate(-1103.268 6436.169)">
      <path id="Trazado_157079" data-name="Trazado 157079" d="M2190.723,1750a1.677,1.677,0,0,1-.625,2.593,20.372,20.372,0,0,1-9.659,3.619c-.312.161-.679-.061-.986.141h-3.716a12.823,12.823,0,0,0-2.609-.608,21.11,21.11,0,0,1-15.893-21.861,38.021,38.021,0,0,1,3.548-12.478c1.385-3.2,2.7-6.432,4.077-9.636.262-.61.193-.751-.488-.737-1.91.038-3.822.009-5.733,0-1.456-.009-2.019-.558-2.02-1.99q-.008-9.289,0-18.579c0-1.445.563-1.989,2.012-1.989,1.615,0,3.23-.012,4.845.016a.724.724,0,0,0,.785-.488,11.213,11.213,0,0,1,4.1-4.771c.437-.286.416-.457.141-.851-1.371-1.961-2.7-3.953-4.06-5.919a1.761,1.761,0,0,1-.281-2.02,1.78,1.78,0,0,1,1.792-.833,11.977,11.977,0,0,1,3.325.57,9.489,9.489,0,0,0,5.941,0,11.929,11.929,0,0,1,7.378-.011,9.569,9.569,0,0,0,6.018,0,11.207,11.207,0,0,1,3.488-.556,1.619,1.619,0,0,1,1.6.876,1.638,1.638,0,0,1-.243,1.877q-3.524,4.467-7.042,8.94c-.093.118-.257.2-.225.485.625,0,1.259,0,1.892,0a4.911,4.911,0,0,1,4.718,2.8,4.764,4.764,0,0,1-.614,5.364.474.474,0,0,0-.024.68,4.844,4.844,0,0,1-.612,6.519c-.269.278-.236.43-.08.734a4.908,4.908,0,0,1-1.482,6.449c-.368.27-.379.452-.221.843a4.588,4.588,0,0,1-.1,3.907,1.118,1.118,0,0,0,.106,1.241c2.272,3.774,4.586,7.526,6.766,11.352a19.89,19.89,0,0,1,2.266,13.1c-.195,1.314-.575,1.675-1.828,1.856a1.605,1.605,0,0,1-1.629-2.053,19.4,19.4,0,0,0-.11-6.663,16.168,16.168,0,0,0-1.914-4.949c-1.971-3.306-3.975-6.594-5.926-9.912a1.566,1.566,0,0,0-1.655-.924c-1.743.1-3.5.04-5.246.03a5.137,5.137,0,0,1-4.724-7,1.687,1.687,0,0,1,.2-.44,1.753,1.753,0,0,0,.04-2.179,4.815,4.815,0,0,1,.532-5.453c.372-.5.363-.745-.187-1.04a5.244,5.244,0,0,1-1.867-2.036,3.228,3.228,0,0,0-.633,1.192c-3.836,9.191-7.745,18.35-11.54,27.558a23.041,23.041,0,0,0-1.579,7.058,17.261,17.261,0,0,0,4.086,12.877,16.91,16.91,0,0,0,11,6.03,17.2,17.2,0,0,0,12.27-2.929c1.016-.679,1.755-.727,2.372-.2A1.382,1.382,0,0,1,2190.723,1750Z" transform="translate(0 0)"/>
      <path id="Trazado_157080" data-name="Trazado 157080" d="M2187.491,1785.421a1.246,1.246,0,0,1,.985-.141.177.177,0,0,0-.016.141Z" transform="translate(-8.038 -29.067)" fill="#7f7f7f"/>
      <path id="Trazado_157081" data-name="Trazado 157081" d="M2192.06,1758.372a1.694,1.694,0,0,0-2.465-.068,17.668,17.668,0,0,1-27.454-11.06,21.3,21.3,0,0,1,1.517-12.714q5.913-14.165,11.876-28.309c.05-.118.115-.23.238-.479a5.273,5.273,0,0,0,3.014,3.01,5.351,5.351,0,0,0-1.749,3.179,4.8,4.8,0,0,0,.87,3.589.662.662,0,0,1,.031.954,4.965,4.965,0,0,0,4.022,7.887,28.228,28.228,0,0,0,5.954-.189.382.382,0,0,1,.454.234c2.459,4.321,5.37,8.384,7.473,12.9a16.322,16.322,0,0,1,1.078,9.492c-.191,1.276.156,1.814,1.391,2.2a.563.563,0,0,0-.518.413c-.447,1.055-.909,2.106-1.365,3.158-.114.157-.281.109-.437.117a1.422,1.422,0,0,0-1.39,2.068.871.871,0,0,1,.1.537Z" transform="translate(-1.336 -8.372)" fill="#fdcb71"/>
      <path id="Trazado_157082" data-name="Trazado 157082" d="M2206.128,1771.751a1.656,1.656,0,0,1-.173-2.118,1.623,1.623,0,0,1,1.9-.6c1.009.681,1.289,1.516.789,2.354C2208.128,1772.244,2207.225,1772.377,2206.128,1771.751Z" transform="translate(-12.763 -24.824)" fill="#010101"/>
      <path id="Trazado_157083" data-name="Trazado 157083" d="M2160.992,1703.594c0-2.477.016-4.954-.013-7.432-.006-.532.143-.675.667-.661,1.4.038,2.8.018,4.2.017a1.8,1.8,0,0,0,2.107-1.451,8.714,8.714,0,0,1,8.972-5.848,5.39,5.39,0,0,1,4.966,4.707,58.492,58.492,0,0,1,.052,6.618,1.682,1.682,0,1,1-3.364-.026c-.04-1.938.008-3.877-.017-5.815a1.6,1.6,0,0,0-1.337-1.678,1.651,1.651,0,0,0-1.8,1.053c-.068.146-.121.3-.183.447-2.413,5.74-4.838,11.475-7.223,17.226a1.13,1.13,0,0,1-1.268.874c-1.667-.066-3.338-.048-5.006-.007-.6.015-.777-.137-.768-.755C2161.014,1708.442,2160.992,1706.018,2160.992,1703.594Z" transform="translate(-1.135 -3.805)" fill="#fddddd"/>
      <path id="Trazado_157084" data-name="Trazado 157084" d="M2173.505,1678.665a13.81,13.81,0,0,0,7.387-.35,7.912,7.912,0,0,1,5.008.038,13.733,13.733,0,0,0,6.815.411l-5.7,7.241c-.08-.043-.168-.062-.209-.116-2.536-3.338-5.953-4.1-9.861-3.329a.879.879,0,0,1-1.106-.444C2175.114,1680.988,2174.34,1679.891,2173.505,1678.665Z" transform="translate(-4.397 -1.13)" fill="#fdcb71"/>
      <path id="Trazado_157085" data-name="Trazado 157085" d="M2191.721,1712.716c1.047,0,2.1-.015,3.143,0a1.718,1.718,0,0,1,1.81,1.661,1.675,1.675,0,0,1-1.725,1.822c-2.148.045-4.3.042-6.446,0a1.749,1.749,0,1,1,.075-3.494c1.047-.017,2.095,0,3.143,0Z" transform="translate(-7.836 -10.183)" fill="#fddddd"/>
      <path id="Trazado_157086" data-name="Trazado 157086" d="M2190.714,1725.326c-.75,0-1.5.026-2.253-.007a1.734,1.734,0,1,1,.042-3.466q2.212-.034,4.426,0a1.736,1.736,0,1,1,.038,3.472c-.751.027-1.5.005-2.254.005Z" transform="translate(-7.831 -12.561)" fill="#fddddd"/>
      <path id="Trazado_157087" data-name="Trazado 157087" d="M2191.736,1707.093a5.2,5.2,0,0,0,1.437-3.156c.018-.327.2-.379.481-.376,1.208.011,2.418-.029,3.624.022a1.789,1.789,0,0,1,1.752,1.758,1.747,1.747,0,0,1-1.831,1.745C2195.435,1707.112,2193.669,1707.093,2191.736,1707.093Z" transform="translate(-9.143 -7.802)" fill="#fddddd"/>
      <path id="Trazado_157088" data-name="Trazado 157088" d="M2196,1697.966c-.66-.082-1.721.356-2.174-.164-.388-.447-.1-1.482-.113-2.257-.017-1.1-.017-1.1,1.058-1.1.993,0,1.985-.014,2.977,0a1.821,1.821,0,0,1,1.98,1.771,1.794,1.794,0,0,1-1.986,1.746C2197.211,1697.972,2196.675,1697.966,2196,1697.966Z" transform="translate(-9.635 -5.429)" fill="#fcdddd"/>
      <path id="Trazado_157089" data-name="Trazado 157089" d="M2186.482,1753.971a2.245,2.245,0,0,0-1.619-2.259,37.858,37.858,0,0,1-4.5-1.964c-3.726-2.063-2.953-6.917-.282-8.716a1.835,1.835,0,0,1,.477-.3,1.542,1.542,0,0,0,1.312-1.729,1.492,1.492,0,0,1,1.663-1.313,1.519,1.519,0,0,1,1.46,1.54c-.039.776.3.995.965,1.123a9.063,9.063,0,0,1,2.827,1.143,1.614,1.614,0,0,1,.742,2.257,1.6,1.6,0,0,1-2.3.565,7.085,7.085,0,0,0-4.16-1.027,2.1,2.1,0,0,0-2,2.053,1.471,1.471,0,0,0,.752,1.484,24.3,24.3,0,0,0,4.119,1.82,5.569,5.569,0,0,1,3.576,3.779,6.247,6.247,0,0,1-3.741,7.369c-.545.216-.8.442-.772,1.074.046,1.159-.564,1.84-1.534,1.867a1.6,1.6,0,0,1-1.666-1.836c.008-.566-.192-.729-.713-.8a6.939,6.939,0,0,1-3.011-1.289,1.579,1.579,0,0,1-.529-2.188,1.551,1.551,0,0,1,2.246-.52,5.874,5.874,0,0,0,3.76.928A3.071,3.071,0,0,0,2186.482,1753.971Z" transform="translate(-5.389 -16.688)"/>
    </g>
  </g>
</svg>
