<?xml version="1.0" encoding="utf-8"?>
<!-- Generator: Adobe Illustrator 25.2.3, SVG Export Plug-In . SVG Version: 6.00 Build 0)  -->
<svg version="1.1" id="Capa_1" xmlns="http://www.w3.org/2000/svg" xmlns:xlink="http://www.w3.org/1999/xlink" x="0px" y="0px"
	 viewBox="0 0 222 230.3" style="enable-background:new 0 0 222 230.3;" xml:space="preserve">
<style type="text/css">
	.st0{opacity:0.12;}
	.st1{fill:#231F20;fill-opacity:0;}
	.st2{opacity:3.200000e-02;fill:#231F20;enable-background:new    ;}
	.st3{opacity:6.500000e-02;fill:#231F20;enable-background:new    ;}
	.st4{opacity:9.700000e-02;fill:#231F20;enable-background:new    ;}
	.st5{opacity:0.129;fill:#231F20;enable-background:new    ;}
	.st6{opacity:0.161;fill:#231F20;enable-background:new    ;}
	.st7{opacity:0.194;fill:#231F20;enable-background:new    ;}
	.st8{opacity:0.226;fill:#231F20;enable-background:new    ;}
	.st9{opacity:0.258;fill:#231F20;enable-background:new    ;}
	.st10{opacity:0.29;fill:#231F20;enable-background:new    ;}
	.st11{opacity:0.323;fill:#231F20;enable-background:new    ;}
	.st12{opacity:0.355;fill:#231F20;enable-background:new    ;}
	.st13{opacity:0.387;fill:#231F20;enable-background:new    ;}
	.st14{opacity:0.419;fill:#231F20;enable-background:new    ;}
	.st15{opacity:0.452;fill:#231F20;enable-background:new    ;}
	.st16{opacity:0.484;fill:#231F20;enable-background:new    ;}
	.st17{opacity:0.516;fill:#231F20;enable-background:new    ;}
	.st18{opacity:0.548;fill:#231F20;enable-background:new    ;}
	.st19{opacity:0.581;fill:#231F20;enable-background:new    ;}
	.st20{opacity:0.613;fill:#231F20;enable-background:new    ;}
	.st21{opacity:0.645;fill:#231F20;enable-background:new    ;}
	.st22{opacity:0.677;fill:#231F20;enable-background:new    ;}
	.st23{opacity:0.71;fill:#231F20;enable-background:new    ;}
	.st24{opacity:0.742;fill:#231F20;enable-background:new    ;}
	.st25{opacity:0.774;fill:#231F20;enable-background:new    ;}
	.st26{opacity:0.806;fill:#231F20;enable-background:new    ;}
	.st27{opacity:0.839;fill:#231F20;enable-background:new    ;}
	.st28{opacity:0.871;fill:#231F20;enable-background:new    ;}
	.st29{opacity:0.903;fill:#231F20;enable-background:new    ;}
	.st30{opacity:0.935;fill:#231F20;enable-background:new    ;}
	.st31{opacity:0.968;fill:#231F20;enable-background:new    ;}
	.st32{fill:#231F20;}
	.st33{fill:url(#Trazado_150251_1_);}
	.st34{opacity:0.5;fill:url(#Trazado_150252_1_);enable-background:new    ;}
	.st35{fill:#638BD0;}
	.st36{fill:url(#Elipse_4921_1_);}
	.st37{fill:#A48157;}
	.st38{fill:#C8A376;}
	.st39{fill:#E3C095;}
	.st40{fill:#C5C5C5;}
	.st41{fill:#DCDCDC;}
	.st42{fill:#898989;}
	.st43{fill:#ACACAC;}
	.st44{fill:#808080;}
	.st45{fill:#2E3545;}
	.st46{fill:#4F5B77;}
	.st47{fill:#3D475D;}
	.st48{fill:#DDDDDD;}
	.st49{fill:#868686;}
	.st50{fill:#B4B4B4;}
	.st51{fill:#303748;}
	.st52{fill:#404A60;}
	.st53{fill:#E9E9E9;}
	.st54{fill:#53607D;}
	.st55{fill:#6B573F;}
</style>
<g id="Grupo_102543" transform="translate(-741 -4259.655)">
	<g id="Grupo_96752" transform="translate(741 4423.577)" class="st0">
		<ellipse id="Elipse_4888" class="st1" cx="142.7" cy="37" rx="79.3" ry="29.4"/>
		<ellipse id="Elipse_4889" class="st2" cx="140.7" cy="36.8" rx="79.3" ry="29.4"/>
		<ellipse id="Elipse_4890" class="st3" cx="138.6" cy="36.5" rx="79.3" ry="29.4"/>
		<ellipse id="Elipse_4891" class="st4" cx="136.6" cy="36.3" rx="79.3" ry="29.4"/>
		<ellipse id="Elipse_4892" class="st5" cx="134.5" cy="36" rx="79.3" ry="29.4"/>
		<ellipse id="Elipse_4893" class="st6" cx="132.5" cy="35.8" rx="79.3" ry="29.4"/>
		<ellipse id="Elipse_4894" class="st7" cx="130.4" cy="35.5" rx="79.3" ry="29.4"/>
		<ellipse id="Elipse_4895" class="st8" cx="128.4" cy="35.3" rx="79.3" ry="29.4"/>
		<ellipse id="Elipse_4896" class="st9" cx="126.4" cy="35.1" rx="79.3" ry="29.4"/>
		<ellipse id="Elipse_4897" class="st10" cx="124.3" cy="34.8" rx="79.3" ry="29.4"/>
		<ellipse id="Elipse_4898" class="st11" cx="122.3" cy="34.6" rx="79.3" ry="29.4"/>
		<ellipse id="Elipse_4899" class="st12" cx="120.2" cy="34.3" rx="79.3" ry="29.4"/>
		<ellipse id="Elipse_4900" class="st13" cx="118.2" cy="34.1" rx="79.3" ry="29.4"/>
		<ellipse id="Elipse_4901" class="st14" cx="116.1" cy="33.8" rx="79.3" ry="29.4"/>
		<ellipse id="Elipse_4902" class="st15" cx="114.1" cy="33.6" rx="79.3" ry="29.4"/>
		<ellipse id="Elipse_4903" class="st16" cx="112" cy="33.3" rx="79.3" ry="29.4"/>
		<ellipse id="Elipse_4904" class="st17" cx="110" cy="33.1" rx="79.3" ry="29.4"/>
		<ellipse id="Elipse_4905" class="st18" cx="108" cy="32.8" rx="79.3" ry="29.4"/>
		<ellipse id="Elipse_4906" class="st19" cx="105.9" cy="32.6" rx="79.3" ry="29.4"/>
		<ellipse id="Elipse_4907" class="st20" cx="103.9" cy="32.3" rx="79.3" ry="29.4"/>
		<ellipse id="Elipse_4908" class="st21" cx="101.8" cy="32.1" rx="79.3" ry="29.4"/>
		<ellipse id="Elipse_4909" class="st22" cx="99.8" cy="31.8" rx="79.3" ry="29.4"/>
		<ellipse id="Elipse_4910" class="st23" cx="97.7" cy="31.6" rx="79.3" ry="29.4"/>
		<ellipse id="Elipse_4911" class="st24" cx="95.7" cy="31.3" rx="79.3" ry="29.4"/>
		<ellipse id="Elipse_4912" class="st25" cx="93.6" cy="31.1" rx="79.3" ry="29.4"/>
		<ellipse id="Elipse_4913" class="st26" cx="91.6" cy="30.8" rx="79.3" ry="29.4"/>
		<ellipse id="Elipse_4914" class="st27" cx="89.5" cy="30.6" rx="79.3" ry="29.4"/>
		<ellipse id="Elipse_4915" class="st28" cx="87.5" cy="30.3" rx="79.3" ry="29.4"/>
		<ellipse id="Elipse_4916" class="st29" cx="85.5" cy="30.1" rx="79.3" ry="29.4"/>
		<ellipse id="Elipse_4917" class="st30" cx="83.4" cy="29.8" rx="79.3" ry="29.4"/>
		<ellipse id="Elipse_4918" class="st31" cx="81.4" cy="29.6" rx="79.3" ry="29.4"/>
		<ellipse id="Elipse_4919" class="st32" cx="79.3" cy="29.4" rx="79.3" ry="29.4"/>
	</g>
	
		<linearGradient id="Trazado_150251_1_" gradientUnits="userSpaceOnUse" x1="-556.7682" y1="5775.4072" x2="-555.7682" y2="5775.4072" gradientTransform="matrix(158.6528 0 0 -74.799 89073.8516 436439.2812)">
		<stop  offset="0" style="stop-color:#F8A700"/>
		<stop  offset="1" style="stop-color:#F8A700"/>
	</linearGradient>
	<path id="Trazado_150251" class="st33" d="M741,4407.5v47.2h0.1c2.5,15.4,37,27.6,79.2,27.6s76.7-12.2,79.2-27.6h0.1v-47.2H741z"/>
	
		<linearGradient id="Trazado_150252_1_" gradientUnits="userSpaceOnUse" x1="-555.9092" y1="5775.4072" x2="-556.6612" y2="5775.4072" gradientTransform="matrix(158.6528 0 0 -74.799 89073.8516 436439.2812)">
		<stop  offset="0" style="stop-color:#231F20"/>
		<stop  offset="1" style="stop-color:#FFFFFF"/>
	</linearGradient>
	<path id="Trazado_150252" class="st34" d="M741,4407.5v47.2h0.1c2.5,15.4,37,27.6,79.2,27.6s76.7-12.2,79.2-27.6h0.1v-47.2H741z"/>
	<ellipse id="Elipse_4920" class="st35" cx="820.3" cy="4409.2" rx="79.3" ry="29.4"/>
	
		<linearGradient id="Elipse_4921_1_" gradientUnits="userSpaceOnUse" x1="-555.7761" y1="5770.6392" x2="-556.7601" y2="5770.6392" gradientTransform="matrix(158.652 0 0 -58.706 89073.375 343179.0312)">
		<stop  offset="0" style="stop-color:#F8A700"/>
		<stop  offset="1" style="stop-color:#F8A700"/>
	</linearGradient>
	<ellipse id="Elipse_4921" class="st36" cx="820.3" cy="4407.9" rx="79.3" ry="29.4"/>
	
		<image style="overflow:visible;enable-background:new    ;" width="1563" height="580" id="Rectángulo_34096" xlink:href="916BD190.png"  transform="matrix(9.706718e-02 0 0 9.706718e-02 744.467 4379.7271)">
	</image>
	<g id="Grupo_100819" transform="translate(759 4296.224)">
		<g id="Grupo_91737" transform="translate(0)">
			<g id="Grupo_91736">
				<g id="Grupo_91730">
					<g id="Grupo_91729">
						<g id="Grupo_91726" transform="translate(0 43.26)">
							<path id="Trazado_132101" class="st37" d="M0,0l0.2,33.5L48,61.3l-0.2-33.5L0,0z"/>
						</g>
						<g id="Grupo_91727" transform="translate(47.76 27.837)">
							<path id="Trazado_132102" class="st38" d="M0,43.3l0.2,33.5L75,33.5L74.8,0L0,43.3z"/>
						</g>
						<g id="Grupo_91728">
							<path id="Trazado_132103" class="st39" d="M0,43.3l47.8,27.8l74.8-43.3L74.8,0L0,43.3z"/>
						</g>
					</g>
				</g>
				<g id="Grupo_91735" transform="translate(17.041 9.497)">
					<g id="Grupo_91734" transform="translate(0)">
						<g id="Grupo_91731" transform="translate(0 43.743)">
							<path id="Trazado_132104" class="st40" d="M7.5,4.4L0,0l0.2,16.5l7.5,4.4L7.5,4.4z"/>
						</g>
						<g id="Grupo_91732">
							<path id="Trazado_132105" class="st41" d="M83.1,4.4L75.6,0L0,43.7l7.5,4.4L83.1,4.4z"/>
						</g>
						<g id="Grupo_91733" transform="translate(7.49 4.353)">
							<path id="Trazado_132106" class="st42" d="M0,43.7l0.2,16.5l0.6-0.4L0.6,44.1l75-43.4V0L0,43.7z"/>
						</g>
					</g>
				</g>
			</g>
		</g>
		<g id="Grupo_91847" transform="translate(53.577 34.001)">
			<g id="Grupo_91846" transform="translate(46.571)">
				<g id="Grupo_91825" transform="translate(0 12.157)">
					<g id="Grupo_91824">
						<g id="Grupo_91746" transform="translate(16.511 9.51)">
							<path id="Trazado_132112" class="st43" d="M1.5,0.5L0.6,0L0,0.4l0.9,0.5L1.5,0.5z"/>
						</g>
						<g id="Grupo_91747" transform="translate(17.13 2.718)">
							<path id="Trazado_132113" class="st44" d="M0.9,0.5L0,0l0,6.8l0.9,0.5L0.9,0.5z"/>
						</g>
						<g id="Grupo_91748" transform="translate(16.492 3.087)">
							<path id="Trazado_132114" class="st45" d="M0.9,0.5L0,0l0,6.8l0.9,0.5L0.9,0.5z"/>
						</g>
						<g id="Grupo_91749" transform="translate(15.476 9.201)">
							<path id="Trazado_132115" class="st43" d="M1.5,0.5L0.6,0L0,0.4l0.9,0.5L1.5,0.5z"/>
						</g>
						<g id="Grupo_91750" transform="translate(14.444 9.797)">
							<path id="Trazado_132116" class="st43" d="M1.5,0.5L0.6,0L0,0.4l0.9,0.5L1.5,0.5z"/>
						</g>
						<g id="Grupo_91751" transform="translate(13.412 10.393)">
							<path id="Trazado_132117" class="st43" d="M1.5,0.5L0.6,0L0,0.4l0.9,0.5L1.5,0.5z"/>
						</g>
						<g id="Grupo_91752" transform="translate(12.379 10.989)">
							<path id="Trazado_132118" class="st43" d="M1.5,0.5L0.6,0L0,0.4l0.9,0.5L1.5,0.5z"/>
						</g>
						<g id="Grupo_91753" transform="translate(11.346 11.585)">
							<path id="Trazado_132119" class="st43" d="M1.5,0.5L0.6,0L0,0.4l0.9,0.5L1.5,0.5z"/>
						</g>
						<g id="Grupo_91754" transform="translate(17.362 3.224)">
							<path id="Trazado_132120" class="st46" d="M0,0.4l0,6.8l0.6-0.4l0-6.8L0,0.4z"/>
						</g>
						<g id="Grupo_91755" transform="translate(16.492 2.718)">
							<path id="Trazado_132121" class="st47" d="M1.5,0.5L0.6,0L0,0.4l0.9,0.5L1.5,0.5z"/>
						</g>
						<g id="Grupo_91756" transform="translate(16.098 3.314)">
							<path id="Trazado_132122" class="st44" d="M0.9,0.5L0,0l0,5.9l0.9,0.5L0.9,0.5z"/>
						</g>
						<g id="Grupo_91757" transform="translate(10.314 12.181)">
							<path id="Trazado_132123" class="st43" d="M1.5,0.5L0.6,0L0,0.4l0.9,0.5L1.5,0.5z"/>
						</g>
						<g id="Grupo_91758" transform="translate(16.33 3.82)">
							<path id="Trazado_132124" class="st46" d="M0,0.4l0,5.9l0.6-0.4l0-5.9L0,0.4z"/>
						</g>
						<g id="Grupo_91759" transform="translate(15.46 3.315)">
							<path id="Trazado_132125" class="st47" d="M1.5,0.5L0.6,0L0,0.4l0.9,0.5L1.5,0.5z"/>
						</g>
						<g id="Grupo_91760" transform="translate(15.459 3.683)">
							<path id="Trazado_132126" class="st45" d="M0.9,0.5L0,0l0,5.9l0.9,0.5L0.9,0.5z"/>
						</g>
						<g id="Grupo_91761" transform="translate(9.284 13.683)">
							<path id="Trazado_132127" class="st43" d="M1.5,0.5L0.6,0L0,0.4l0.9,0.5L1.5,0.5z"/>
						</g>
						<g id="Grupo_91762" transform="translate(15.065 3.91)">
							<path id="Trazado_132128" class="st44" d="M0.9,0.5L0,0l0,5.9l0.9,0.5L0.9,0.5z"/>
						</g>
						<g id="Grupo_91763" transform="translate(14.427 3.911)">
							<path id="Trazado_132129" class="st47" d="M1.5,0.5L0.6,0L0,0.4l0.9,0.5L1.5,0.5z"/>
						</g>
						<g id="Grupo_91764" transform="translate(14.427 4.279)">
							<path id="Trazado_132130" class="st45" d="M0.9,0.5L0,0l0,5.9l0.9,0.5L0.9,0.5z"/>
						</g>
						<g id="Grupo_91765" transform="translate(15.297 4.416)">
							<path id="Trazado_132131" class="st46" d="M0,0.4l0,5.9l0.6-0.4l0-5.9L0,0.4z"/>
						</g>
						<g id="Grupo_91766" transform="translate(14.033 4.506)">
							<path id="Trazado_132132" class="st44" d="M0.9,0.5L0,0l0,5.9l0.9,0.5L0.9,0.5z"/>
						</g>
						<g id="Grupo_91767" transform="translate(13.394 4.875)">
							<path id="Trazado_132133" class="st45" d="M0.9,0.5L0,0l0,5.9l0.9,0.5L0.9,0.5z"/>
						</g>
						<g id="Grupo_91768" transform="translate(13.001 5.103)">
							<path id="Trazado_132134" class="st44" d="M0.9,0.5L0,0l0,5.9l0.9,0.5L0.9,0.5z"/>
						</g>
						<g id="Grupo_91769" transform="translate(12.362 5.471)">
							<path id="Trazado_132135" class="st45" d="M0.9,0.5L0,0l0,5.9l0.9,0.5L0.9,0.5z"/>
						</g>
						<g id="Grupo_91770" transform="translate(11.968 5.699)">
							<path id="Trazado_132136" class="st44" d="M0.9,0.5L0,0l0,5.9l0.9,0.5L0.9,0.5z"/>
						</g>
						<g id="Grupo_91771" transform="translate(11.33 6.067)">
							<path id="Trazado_132137" class="st45" d="M0.9,0.5L0,0l0,5.9l0.9,0.5L0.9,0.5z"/>
						</g>
						<g id="Grupo_91772" transform="translate(10.935 6.295)">
							<path id="Trazado_132138" class="st44" d="M0.9,0.5L0,0l0,5.9l0.9,0.5L0.9,0.5z"/>
						</g>
						<g id="Grupo_91773" transform="translate(10.297 6.664)">
							<path id="Trazado_132139" class="st45" d="M0.9,0.5L0,0l0,5.9l0.9,0.5L0.9,0.5z"/>
						</g>
						<g id="Grupo_91774" transform="translate(9.904 6.891)">
							<path id="Trazado_132140" class="st44" d="M0.9,0.5L0,0l0,6.8l0.9,0.5L0.9,0.5z"/>
						</g>
						<g id="Grupo_91775" transform="translate(9.265 7.26)">
							<path id="Trazado_132141" class="st45" d="M0.9,0.5L0,0l0,6.8l0.9,0.5L0.9,0.5z"/>
						</g>
						<g id="Grupo_91776" transform="translate(8.249 13.373)">
							<path id="Trazado_132142" class="st43" d="M1.5,0.5L0.6,0L0,0.4l0.9,0.5L1.5,0.5z"/>
						</g>
						<g id="Grupo_91777" transform="translate(13.395 4.507)">
							<path id="Trazado_132143" class="st47" d="M1.5,0.5L0.6,0L0,0.4l0.9,0.5L1.5,0.5z"/>
						</g>
						<g id="Grupo_91778" transform="translate(14.265 5.012)">
							<path id="Trazado_132144" class="st46" d="M0,0.4l0,5.9l0.6-0.4l0-5.9L0,0.4z"/>
						</g>
						<g id="Grupo_91779" transform="translate(7.217 13.97)">
							<path id="Trazado_132145" class="st43" d="M1.5,0.5L0.6,0L0,0.4l0.9,0.5L1.5,0.5z"/>
						</g>
						<g id="Grupo_91780" transform="translate(12.362 5.103)">
							<path id="Trazado_132146" class="st47" d="M1.5,0.5L0.6,0L0,0.4l0.9,0.5L1.5,0.5z"/>
						</g>
						<g id="Grupo_91781" transform="translate(6.184 14.566)">
							<path id="Trazado_132147" class="st43" d="M1.5,0.5L0.6,0L0,0.4l0.9,0.5L1.5,0.5z"/>
						</g>
						<g id="Grupo_91782" transform="translate(11.33 5.699)">
							<path id="Trazado_132148" class="st47" d="M1.5,0.5L0.6,0L0,0.4l0.9,0.5L1.5,0.5z"/>
						</g>
						<g id="Grupo_91783" transform="translate(5.154 16.067)">
							<path id="Trazado_132149" class="st43" d="M1.5,0.5L0.6,0L0,0.4l0.9,0.5L1.5,0.5z"/>
						</g>
						<g id="Grupo_91784" transform="translate(10.297 6.295)">
							<path id="Trazado_132150" class="st47" d="M1.5,0.5L0.6,0L0,0.4l0.9,0.5L1.5,0.5z"/>
						</g>
						<g id="Grupo_91785" transform="translate(11.167 6.801)">
							<path id="Trazado_132151" class="st46" d="M0,0.4l0,5.9l0.6-0.4l0-5.9L0,0.4z"/>
						</g>
						<g id="Grupo_91786" transform="translate(8.871 7.487)">
							<path id="Trazado_132152" class="st44" d="M0.9,0.5L0,0l0,5.9l0.9,0.5L0.9,0.5z"/>
						</g>
						<g id="Grupo_91787" transform="translate(8.232 7.856)">
							<path id="Trazado_132153" class="st45" d="M0.9,0.5L0,0l0,5.9l0.9,0.5L0.9,0.5z"/>
						</g>
						<g id="Grupo_91788" transform="translate(7.838 8.083)">
							<path id="Trazado_132154" class="st44" d="M0.9,0.5L0,0l0,5.9l0.9,0.5L0.9,0.5z"/>
						</g>
						<g id="Grupo_91789" transform="translate(7.2 8.452)">
							<path id="Trazado_132155" class="st45" d="M0.9,0.5L0,0l0,5.9l0.9,0.5L0.9,0.5z"/>
						</g>
						<g id="Grupo_91790" transform="translate(6.806 8.679)">
							<path id="Trazado_132156" class="st44" d="M0.9,0.5L0,0l0,5.9l0.9,0.5L0.9,0.5z"/>
						</g>
						<g id="Grupo_91791" transform="translate(6.167 9.048)">
							<path id="Trazado_132157" class="st45" d="M0.9,0.5L0,0l0,5.9l0.9,0.5L0.9,0.5z"/>
						</g>
						<g id="Grupo_91792" transform="translate(5.773 9.275)">
							<path id="Trazado_132158" class="st44" d="M0.9,0.5L0,0l0,6.8l0.9,0.5L0.9,0.5z"/>
						</g>
						<g id="Grupo_91793" transform="translate(5.135 9.644)">
							<path id="Trazado_132159" class="st45" d="M0.9,0.5L0,0l0,6.8l0.9,0.5L0.9,0.5z"/>
						</g>
						<g id="Grupo_91794" transform="translate(4.119 15.758)">
							<path id="Trazado_132160" class="st43" d="M1.5,0.5L0.6,0L0,0.4l0.9,0.5L1.5,0.5z"/>
						</g>
						<g id="Grupo_91795" transform="translate(10.135 7.397)">
							<path id="Trazado_132161" class="st46" d="M0,0.4l0,6.8l0.6-0.4l0-6.8L0,0.4z"/>
						</g>
						<g id="Grupo_91796" transform="translate(9.265 6.891)">
							<path id="Trazado_132162" class="st47" d="M1.5,0.5L0.6,0L0,0.4l0.9,0.5L1.5,0.5z"/>
						</g>
						<g id="Grupo_91797" transform="translate(3.087 16.354)">
							<path id="Trazado_132163" class="st43" d="M1.5,0.5L0.6,0L0,0.4l0.9,0.5L1.5,0.5z"/>
						</g>
						<g id="Grupo_91798" transform="translate(8.232 7.487)">
							<path id="Trazado_132164" class="st47" d="M1.5,0.5L0.6,0L0,0.4l0.9,0.5L1.5,0.5z"/>
						</g>
						<g id="Grupo_91799" transform="translate(9.103 7.993)">
							<path id="Trazado_132165" class="st46" d="M0,0.4l0,5.9l0.6-0.4l0-5.9L0,0.4z"/>
						</g>
						<g id="Grupo_91800" transform="translate(2.057 17.856)">
							<path id="Trazado_132166" class="st43" d="M1.5,0.5L0.6,0L0,0.4l0.9,0.5L1.5,0.5z"/>
						</g>
						<g id="Grupo_91801" transform="translate(7.199 8.083)">
							<path id="Trazado_132167" class="st47" d="M1.5,0.5L0.6,0L0,0.4l0.9,0.5L1.5,0.5z"/>
						</g>
						<g id="Grupo_91802" transform="translate(7.037 9.185)">
							<path id="Trazado_132168" class="st46" d="M0,0.4l0,5.9l0.6-0.4l0-5.9L0,0.4z"/>
						</g>
						<g id="Grupo_91803" transform="translate(6.167 8.679)">
							<path id="Trazado_132169" class="st47" d="M1.5,0.5L0.6,0L0,0.4l0.9,0.5L1.5,0.5z"/>
						</g>
						<g id="Grupo_91804" transform="translate(5.135 9.275)">
							<path id="Trazado_132170" class="st47" d="M1.5,0.5L0.6,0L0,0.4l0.9,0.5L1.5,0.5z"/>
						</g>
						<g id="Grupo_91805" transform="translate(6.005 9.781)">
							<path id="Trazado_132171" class="st46" d="M0,0.4l0,6.8l0.6-0.4l0-6.8L0,0.4z"/>
						</g>
						<g id="Grupo_91806" transform="translate(4.741 9.871)">
							<path id="Trazado_132172" class="st44" d="M0.9,0.5L0,0l0,5.9l0.9,0.5L0.9,0.5z"/>
						</g>
						<g id="Grupo_91807" transform="translate(4.103 10.24)">
							<path id="Trazado_132173" class="st45" d="M0.9,0.5L0,0l0,5.9l0.9,0.5L0.9,0.5z"/>
						</g>
						<g id="Grupo_91808" transform="translate(4.103 9.871)">
							<path id="Trazado_132174" class="st47" d="M1.5,0.5L0.6,0L0,0.4l0.9,0.5L1.5,0.5z"/>
						</g>
						<g id="Grupo_91809" transform="translate(3.709 10.467)">
							<path id="Trazado_132175" class="st44" d="M0.9,0.5L0,0l0,5.9l0.9,0.5L0.9,0.5z"/>
						</g>
						<g id="Grupo_91810" transform="translate(3.07 10.836)">
							<path id="Trazado_132176" class="st45" d="M0.9,0.5L0,0l0,5.9l0.9,0.5L0.9,0.5z"/>
						</g>
						<g id="Grupo_91811" transform="translate(3.94 10.973)">
							<path id="Trazado_132177" class="st46" d="M0,0.4l0,5.9l0.6-0.4l0-5.9L0,0.4z"/>
						</g>
						<g id="Grupo_91812" transform="translate(3.07 10.468)">
							<path id="Trazado_132178" class="st47" d="M1.5,0.5L0.6,0L0,0.4l0.9,0.5L1.5,0.5z"/>
						</g>
						<g id="Grupo_91813" transform="translate(2.676 11.063)">
							<path id="Trazado_132179" class="st44" d="M0.9,0.5L0,0l0,6.8l0.9,0.5L0.9,0.5z"/>
						</g>
						<g id="Grupo_91814" transform="translate(2.038 11.064)">
							<path id="Trazado_132180" class="st47" d="M1.5,0.5L0.6,0L0,0.4l0.9,0.5L1.5,0.5z"/>
						</g>
						<g id="Grupo_91815" transform="translate(2.038 11.432)">
							<path id="Trazado_132181" class="st45" d="M0.9,0.5L0,0l0,6.8l0.9,0.5L0.9,0.5z"/>
						</g>
						<g id="Grupo_91816" transform="translate(0.87 0.505)">
							<path id="Trazado_132182" class="st48" d="M19.2,0L0,11.1l0,9.6L19.3,9.6L19.2,0z M5.2,16.4l0-6.8l0.6-0.4l0,6.8L5.2,16.4
								L5.2,16.4z M16.5,9.9l0-6.8l0.6-0.4l0,6.8L16.5,9.9L16.5,9.9z M9.3,14l0-6.8l0.6-0.4l0,6.8L9.3,14L9.3,14z M2.1,18.2l0-6.8
								l0.6-0.4l0,6.8L2.1,18.2L2.1,18.2z M11.3,12l0-5.9L12,5.7l0,5.9L11.3,12L11.3,12z M3.1,16.7l0-5.9l0.6-0.4l0,5.9L3.1,16.7
								L3.1,16.7z M4.1,16.1l0-5.9l0.6-0.4l0,5.9L4.1,16.1z M8.2,13.7l0-5.9l0.6-0.4l0,5.9L8.2,13.7z M7.2,14.3l0-5.9l0.6-0.4l0,5.9
								L7.2,14.3L7.2,14.3z M15.5,9.6l0-5.9l0.6-0.4l0,5.9L15.5,9.6L15.5,9.6z M12.4,11.4l0-5.9L13,5.1l0,5.9L12.4,11.4z M13.4,10.8
								l0-5.9L14,4.5l0,5.9L13.4,10.8L13.4,10.8z M10.3,12.5l0-5.9l0.6-0.4l0,5.9L10.3,12.5z M14.4,10.2l0-5.9l0.6-0.4l0,5.9
								L14.4,10.2z M6.2,14.9l0-5.9l0.6-0.4l0,5.9L6.2,14.9L6.2,14.9z"/>
						</g>
						<g id="Grupo_91817" transform="translate(13.232 5.608)">
							<path id="Trazado_132183" class="st46" d="M0,0.4l0,5.9l0.6-0.4l0-5.9L0,0.4z"/>
						</g>
						<g id="Grupo_91818" transform="translate(12.2 6.204)">
							<path id="Trazado_132184" class="st46" d="M0,0.4l0,5.9l0.6-0.4l0-5.9L0,0.4z"/>
						</g>
						<g id="Grupo_91819" transform="translate(8.07 8.589)">
							<path id="Trazado_132185" class="st46" d="M0,0.4l0,5.9l0.6-0.4l0-5.9L0,0.4z"/>
						</g>
						<g id="Grupo_91820" transform="translate(4.973 10.377)">
							<path id="Trazado_132186" class="st46" d="M0,0.4l0,5.9l0.6-0.4l0-5.9L0,0.4z"/>
						</g>
						<g id="Grupo_91821" transform="translate(2.908 11.569)">
							<path id="Trazado_132187" class="st46" d="M0,0.4l0,6.8l0.6-0.4l0-6.8L0,0.4z"/>
						</g>
						<g id="Grupo_91822">
							<path id="Trazado_132188" class="st43" d="M20.1,0.5L19.2,0L0,11.1l0.9,0.5L20.1,0.5z"/>
						</g>
						<g id="Grupo_91823" transform="translate(0 11.103)">
							<path id="Trazado_132189" class="st44" d="M0.9,0.5L0,0l0,9.6l0.9,0.5L0.9,0.5z"/>
						</g>
					</g>
				</g>
				<g id="Grupo_91845" transform="translate(0.001)">
					<g id="Grupo_91844" transform="translate(0)">
						<g id="Grupo_91826" transform="translate(17.617 7.381)">
							<path id="Trazado_132190" class="st49" d="M0.9,0.5L0,0v0.9l0.9,0.5V0.5z"/>
						</g>
						<g id="Grupo_91827" transform="translate(17.607 3.777)">
							<path id="Trazado_132191" class="st49" d="M0.9,0.5L0,0v0.9l0.9,0.5L0.9,0.5z"/>
						</g>
						<g id="Grupo_91828" transform="translate(17.602 2.346)">
							<path id="Trazado_132192" class="st49" d="M0.9,0.5L0,0v0.9l0.9,0.5L0.9,0.5z"/>
						</g>
						<g id="Grupo_91829" transform="translate(10.874 8.296)">
							<path id="Trazado_132193" class="st50" d="M7.6,0.5L6.7,0L0,3.9l0.9,0.5L7.6,0.5z"/>
						</g>
						<g id="Grupo_91830" transform="translate(10.87 11.276)">
							<path id="Trazado_132194" class="st51" d="M0.9,0.5L0,0v0.9l0.9,0.5L0.9,0.5z"/>
						</g>
						<g id="Grupo_91831" transform="translate(10.87 7.381)">
							<path id="Trazado_132195" class="st52" d="M7.6,0.5L6.7,0L0,3.9l0.9,0.5L7.6,0.5z"/>
						</g>
						<g id="Grupo_91832" transform="translate(10.863 4.691)">
							<path id="Trazado_132196" class="st50" d="M7.6,0.5L6.7,0L0,3.9l0.9,0.5L7.6,0.5z"/>
						</g>
						<g id="Grupo_91833" transform="translate(10.86 3.777)">
							<path id="Trazado_132197" class="st52" d="M7.6,0.5L6.7,0L0,3.9l0.9,0.5L7.6,0.5z"/>
						</g>
						<g id="Grupo_91834" transform="translate(10.86 7.672)">
							<path id="Trazado_132198" class="st51" d="M0.9,0.5L0,0v0.9l0.9,0.5L0.9,0.5z"/>
						</g>
						<g id="Grupo_91835" transform="translate(6.484 3.261)">
							<path id="Trazado_132199" class="st50" d="M12,0.5L11.1,0L0,6.4l0.9,0.5L12,0.5z"/>
						</g>
						<g id="Grupo_91836" transform="translate(6.482 2.346)">
							<path id="Trazado_132200" class="st52" d="M12,0.5L11.1,0L0,6.4l0.9,0.5L12,0.5z"/>
						</g>
						<g id="Grupo_91837" transform="translate(6.482 8.766)">
							<path id="Trazado_132201" class="st51" d="M0.9,0.5L0,0v0.9l0.9,0.5L0.9,0.5z"/>
						</g>
						<g id="Grupo_91838" transform="translate(0.87 0.506)">
							<path id="Trazado_132202" class="st53" d="M19.2,0L0,11.1l0,9L19.3,9L19.2,0z M6.5,9.7V8.8l11.1-6.4v0.9L6.5,9.7L6.5,9.7z
								 M10.9,8.6V7.7l6.7-3.9v0.9L10.9,8.6L10.9,8.6z M10.9,12.2v-0.9l6.7-3.9v0.9L10.9,12.2L10.9,12.2z"/>
						</g>
						<g id="Grupo_91839" transform="translate(11.74 7.887)">
							<path id="Trazado_132203" class="st54" d="M0,3.9v0.9l6.7-3.9V0L0,3.9z"/>
						</g>
						<g id="Grupo_91840" transform="translate(11.73 4.282)">
							<path id="Trazado_132204" class="st54" d="M0,3.9v0.9l6.8-3.9V0L0,3.9z"/>
						</g>
						<g id="Grupo_91841" transform="translate(7.352 2.851)">
							<path id="Trazado_132205" class="st54" d="M0,6.4v0.9l11.1-6.4V0L0,6.4z"/>
						</g>
						<g id="Grupo_91842">
							<path id="Trazado_132206" class="st50" d="M20.1,0.5L19.2,0L0,11.1l0.9,0.5L20.1,0.5z"/>
						</g>
						<g id="Grupo_91843" transform="translate(0 11.103)">
							<path id="Trazado_132207" class="st49" d="M0.9,0.5L0,0l0,9l0.9,0.5L0.9,0.5z"/>
						</g>
					</g>
				</g>
			</g>
		</g>
	</g>
	<g id="Grupo_100820" transform="translate(797.211 4269.317)">
		<g id="Grupo_91738" transform="translate(12.557 11.859)">
			<path id="Trazado_132107" class="st55" d="M0,7.1l0,14c0,1.7,0.9,2.8,2.2,2.8s2.2,1.1,2.2,2.8l0,7.3c0,0.9-0.4,1.7-1.1,2.3
				l-3.3,3.2v0.9l6.1-3.5l6.1-3.5v-0.9L9.1,33C8.4,33.2,8,32.7,8,32l0-7.3c0.1-2,0.9-3.8,2.2-5.3c1.3-1.5,2.1-3.4,2.2-5.3l0-14
				L6.1,3.5L0,7.1z"/>
		</g>
		<g id="Grupo_91739">
			<path id="Trazado_132108" class="st55" d="M37.4,0L0,21.6l0.1,42.9l37.4-21.6L37.4,0z M2.5,60.4L2.4,22.9L35,4.1l0.1,37.5
				L2.5,60.4L2.5,60.4z"/>
		</g>
	</g>
</g>
</svg>
