<svg xmlns="http://www.w3.org/2000/svg" width="820" height="393" viewBox="0 0 820 393">
  <g id="Grupo_101980" data-name="Grupo 101980" transform="translate(3696 6211)">
    <g id="Grupo_76432" data-name="Grupo 76432" transform="translate(-3696 -6211)" opacity="0.25">
      <rect id="Rectángulo_32436" data-name="Rectángulo 32436" width="820" height="393" transform="translate(0 0)" fill="#36a3f7"/>
    </g>
    <g id="Grupo_101811" data-name="Grupo 101811" transform="translate(-2431.05 -7059.452)">
      <g id="Grupo_101817" data-name="Grupo 101817" transform="translate(-1170.95 883.452)">
        <path id="Trazado_157090" data-name="Trazado 157090" d="M-778.465,1476.832a2.137,2.137,0,0,1-.436-.837,9.017,9.017,0,0,1,.166-5.983,3.033,3.033,0,0,1,1.126-1.566,1.34,1.34,0,0,1,1.763.245,1.923,1.923,0,0,1,.254.877,15.678,15.678,0,0,1-.133,4.769,6.568,6.568,0,0,1-.822,2.271,1.359,1.359,0,0,1-.429.465,1.453,1.453,0,0,1-.927.1c-.4-.052-.865-.2-.983-.582Z" transform="translate(901.91 -1285.193)" fill="#af9f97"/>
        <path id="Trazado_157091" data-name="Trazado 157091" d="M-1151.059,1460.895a3.672,3.672,0,0,1,1.243-1.514,2.823,2.823,0,0,1,2.688.191c2.208,1.194,3.308,3.737,3.919,6.171a19.924,19.924,0,0,1,.379,8.876c-.232,1.113-.719,2.341-1.79,2.721a2.513,2.513,0,0,1-2.431-.63,6.738,6.738,0,0,1-1.448-2.183c-1.18-2.467-2.068-5.033-3.081-7.568a5.861,5.861,0,0,1-.772-2.437A8.468,8.468,0,0,1-1151.059,1460.895Z" transform="translate(1158.174 -1278.933)" fill="#af9f97"/>
        <path id="Trazado_157092" data-name="Trazado 157092" d="M-773.049,1233.276a4.479,4.479,0,0,0-3.3,1.43,8.355,8.355,0,0,0-1.825,3.184,6.649,6.649,0,0,0-.343,3.855,3.21,3.21,0,0,0,2.729,2.459,3.379,3.379,0,0,0,2-.637,6.989,6.989,0,0,0,2.445-3.176,20.833,20.833,0,0,0,1.065-3.917A2.745,2.745,0,0,0-773.049,1233.276Z" transform="translate(901.454 -1123.778)" fill="#af9f97"/>
        <path id="Trazado_157093" data-name="Trazado 157093" d="M-1170.373,1232.457a4.568,4.568,0,0,1,3.528-2.327,3.352,3.352,0,0,1,1.6.209,4.349,4.349,0,0,1,2.141,2.606,11.173,11.173,0,0,1,.725,4.613,4.2,4.2,0,0,1-.919,2.68,4.16,4.16,0,0,1-2.557,1.091,3.088,3.088,0,0,1-2.366-.429,3.572,3.572,0,0,1-.869-1.3C-1170.062,1237.556-1171.883,1234.722-1170.373,1232.457Z" transform="translate(1170.95 -1121.607)" fill="#af9f97"/>
        <g id="Grupo_101811-2" data-name="Grupo 101811" transform="translate(35.421 44.928)">
          <path id="Trazado_157094" data-name="Trazado 157094" d="M-1057.785,1066.508l6.677,145.938s1.036,12.462,26.793,11.6c20.881-.7,23.936-10.32,23.936-10.32l6.5-147.221Z" transform="translate(1057.785 -1054.139)" fill="#c63a28"/>
          <path id="Trazado_157095" data-name="Trazado 157095" d="M-887.134,1066.508l-4.792,5.444-5.532,148.544c6.024-2.993,7.223-6.767,7.223-6.767l6.5-147.221Z" transform="translate(947.641 -1054.139)" fill="#b53026"/>
          <ellipse id="Elipse_4977" data-name="Elipse 4977" cx="31.954" cy="12.369" rx="31.954" ry="12.369" transform="translate(0)" fill="#ef7b60"/>
          <path id="Trazado_157096" data-name="Trazado 157096" d="M-986.926,1046.883c0,4.559-11.765,8.255-26.278,8.255s-26.278-3.7-26.278-8.255,11.765-8.255,26.278-8.255S-986.926,1042.324-986.926,1046.883Z" transform="translate(1045.21 -1034.986)" fill="#d13d2a"/>
          <path id="Trazado_157097" data-name="Trazado 157097" d="M-1041.287,1049.136c0,4.115,9.584,7.526,22.121,8.152-1.021-.935-2.182-1.754-3.208-2.688a16.106,16.106,0,0,1-4.968-8.99,10.678,10.678,0,0,1-.061-3.754C-1035.667,1043.247-1041.287,1045.985-1041.287,1049.136Z" transform="translate(1046.451 -1037.203)" fill="#b53026"/>
          <ellipse id="Elipse_4978" data-name="Elipse 4978" cx="23.761" cy="4.726" rx="23.761" ry="4.726" transform="translate(8.193 11.126)" fill="#f2c946"/>
          <path id="Trazado_157098" data-name="Trazado 157098" d="M-1033.435,1123.272c-1.221,2.048-.946,4.617-.662,6.985,3.528,29.313,2.647,58.968,4.581,88.429a27.751,27.751,0,0,0,1.171,7.346c.348,1,1.006,2.1,2.062,2.153.989.049,1.744-.865,2.195-1.746,1.682-3.288,1.536-7.173,1.376-10.864a773.247,773.247,0,0,1,.707-80.414,21.662,21.662,0,0,0-.37-7.287C-1023.434,1124.175-1030.313,1118.035-1033.435,1123.272Z" transform="translate(1041.678 -1091.744)" fill="#fff" opacity="0.23"/>
          <path id="Trazado_157099" data-name="Trazado 157099" d="M-1018.858,1479.006a3.549,3.549,0,0,0-1.659,2.335c-.843,3.081.466,6.284.967,9.439.28,1.766.325,3.632,1.2,5.193s2.977,2.637,4.481,1.671c1.313-.843,1.464-2.668,1.477-4.228s.027-3.148.04-4.722a15.9,15.9,0,0,0-.494-5.024C-1013.422,1481.894-1016.623,1477.9-1018.858,1479.006Z" transform="translate(1032.372 -1337.394)" fill="#fff" opacity="0.23"/>
        </g>
        <g id="Grupo_101812" data-name="Grupo 101812" transform="translate(0.872 70.881)">
          <path id="Trazado_157100" data-name="Trazado 157100" d="M-1167.114,1151.108l10.553,145.709s1.367,12.43,27.092,10.887c20.855-1.251,23.653-10.953,23.653-10.953l2.587-147.342Z" transform="translate(1167.443 -1137.046)" fill="#f24c30"/>
          <path id="Trazado_157101" data-name="Trazado 157101" d="M-987.541,1149.5l-4.646,5.569-1.583,148.639c5.943-3.151,7.041-6.956,7.041-6.956l2.587-147.342Z" transform="translate(1048.356 -1137.046)" fill="#b53026"/>
          <ellipse id="Elipse_4979" data-name="Elipse 4979" cx="31.954" cy="12.369" rx="31.954" ry="12.369" transform="translate(0 1.698) rotate(-1.523)" fill="#ef7b60"/>
          <ellipse id="Elipse_4980" data-name="Elipse 4980" cx="26.278" cy="8.255" rx="26.278" ry="8.255" transform="translate(5.824 5.187) rotate(-1.523)" fill="#d13d2a"/>
          <path id="Trazado_157102" data-name="Trazado 157102" d="M-1150.66,1136.222c.109,4.114,9.78,7.269,22.329,7.561-1.045-.908-2.228-1.695-3.279-2.6a16.11,16.11,0,0,1-5.2-8.855,10.668,10.668,0,0,1-.161-3.751C-1145.2,1130.185-1150.744,1133.072-1150.66,1136.222Z" transform="translate(1156.139 -1122.732)" fill="#b53026"/>
          <path id="Trazado_157103" data-name="Trazado 157103" d="M-1140.652,1153.444c4.284,2.681,13.388,4.372,23.878,4.093s19.491-2.451,23.627-5.356c-4.284-2.681-13.388-4.372-23.878-4.093S-1136.516,1150.54-1140.652,1153.444Z" transform="translate(1149.263 -1136.117)" fill="#f2c946"/>
          <path id="Trazado_157104" data-name="Trazado 157104" d="M-1140.929,1210.687c-1.166,2.08-.823,4.641-.476,7,4.305,29.209,4.213,58.877,6.929,88.276a27.751,27.751,0,0,0,1.365,7.312c.374.988,1.061,2.074,2.118,2.1.99.023,1.72-.911,2.147-1.8,1.594-3.332,1.345-7.212,1.087-10.9a773.189,773.189,0,0,1-1.43-80.4,21.653,21.653,0,0,0-.563-7.274C-1130.908,1211.324-1137.948,1205.369-1140.929,1210.687Z" transform="translate(1150.008 -1177.691)" fill="#fff" opacity="0.23"/>
          <path id="Trazado_157105" data-name="Trazado 157105" d="M-1116.973,1565.992a3.546,3.546,0,0,0-1.6,2.378c-.761,3.1.633,6.269,1.217,9.41.327,1.758.421,3.623,1.334,5.159s3.045,2.557,4.523,1.552c1.29-.878,1.393-2.707,1.365-4.266s-.057-3.148-.085-4.722a15.9,15.9,0,0,0-.627-5.009C-1111.461,1568.733-1114.768,1564.828-1116.973,1565.992Z" transform="translate(1134.245 -1423.09)" fill="#fff" opacity="0.23"/>
        </g>
        <g id="Grupo_101813" data-name="Grupo 101813" transform="translate(67.379 71.72)">
          <path id="Trazado_157106" data-name="Trazado 157106" d="M-955.681,1150.371l4.149,146.032s.82,12.478,26.588,12.065c20.89-.335,24.111-9.9,24.111-9.9l9.049-147.086Z" transform="translate(955.682 -1138.545)" fill="#f24c30"/>
          <path id="Trazado_157107" data-name="Trazado 157107" d="M-790.906,1153.718l-4.886,5.36-8.1,148.426c6.076-2.887,7.339-6.641,7.339-6.641l9.049-147.086Z" transform="translate(851.405 -1140.844)" fill="#b53026"/>
          <path id="Trazado_157108" data-name="Trazado 157108" d="M-891.785,1125.52c-.118,6.83-14.518,12.119-32.163,11.814s-31.853-6.09-31.735-12.92,14.518-12.119,32.163-11.814S-891.666,1118.691-891.785,1125.52Z" transform="translate(955.683 -1112.588)" fill="#ef7b60"/>
          <path id="Trazado_157109" data-name="Trazado 157109" d="M-884.807,1132.946c-.079,4.559-11.906,8.05-26.417,7.8s-26.21-4.15-26.131-8.709,11.906-8.05,26.417-7.8S-884.728,1128.387-884.807,1132.946Z" transform="translate(943.092 -1120.582)" fill="#d13d2a"/>
          <path id="Trazado_157110" data-name="Trazado 157110" d="M-939.163,1133.815c-.071,4.114,9.452,7.691,21.976,8.534-1-.952-2.152-1.791-3.162-2.743a16.109,16.109,0,0,1-4.811-9.075,10.678,10.678,0,0,1,0-3.755C-933.441,1128.024-939.108,1130.664-939.163,1133.815Z" transform="translate(944.334 -1122.335)" fill="#b53026"/>
          <path id="Trazado_157111" data-name="Trazado 157111" d="M-929.7,1152.454c4.163,2.866,13.183,4.956,23.675,5.137s19.58-1.594,23.839-4.314c-4.163-2.866-13.183-4.955-23.675-5.137S-925.443,1149.734-929.7,1152.454Z" transform="translate(937.834 -1137.004)" fill="#f2c946"/>
          <path id="Trazado_157112" data-name="Trazado 157112" d="M-932.546,1207.7c-1.256,2.027-1.026,4.6-.782,6.973,3.02,29.37,1.626,59.005,3.05,88.5a27.739,27.739,0,0,0,1.043,7.365c.33,1,.969,2.118,2.024,2.189.988.066,1.759-.834,2.225-1.708,1.739-3.259,1.66-7.146,1.564-10.839a773.133,773.133,0,0,1,2.1-80.39,21.666,21.666,0,0,0-.244-7.292C-922.563,1208.78-929.334,1202.522-932.546,1207.7Z" transform="translate(940.457 -1176.579)" fill="#fff" opacity="0.23"/>
          <path id="Trazado_157113" data-name="Trazado 157113" d="M-924.083,1563.586a3.547,3.547,0,0,0-1.7,2.306c-.9,3.066.357,6.291.8,9.455.249,1.77.262,3.637,1.107,5.213s2.93,2.688,4.451,1.749c1.327-.82,1.51-2.643,1.55-4.2s.081-3.147.122-4.721a15.9,15.9,0,0,0-.407-5.032C-918.7,1566.567-921.829,1562.52-924.083,1563.586Z" transform="translate(935.357 -1422.302)" fill="#fff" opacity="0.23"/>
        </g>
        <g id="Grupo_101814" data-name="Grupo 101814" transform="translate(30.096)">
          <path id="Trazado_157114" data-name="Trazado 157114" d="M-1070.039,971.484l-1.367-10.805c-1.626-6.487-3.307-13.195-3.389-20.151-.094-7.978,2.148-15.148,6.31-20.192,4.979-6.033,12.182-8.868,19.148-11.611a67.836,67.836,0,0,0,12.411-5.868,63.751,63.751,0,0,0,6.156-4.824,68.569,68.569,0,0,1,6.616-5.169c5.451-3.59,11.691-5.547,17.622-7.126,5.323-1.418,9.831-2.352,14.54-2.282a61.017,61.017,0,0,1,11.771,1.691c1.43.3,2.909.616,4.351.876,4.117.744,8.407,1.144,12.555,1.53,3.7.345,7.529.7,11.3,1.3,10.081,1.609,17.639,4.814,23.106,9.8a29.956,29.956,0,0,1,9.632,23.648c-.274,4.731-1.667,9.21-3.014,13.542-.442,1.422-.9,2.892-1.3,4.329-1.922,6.857-2.029,11.947-.339,16.02.261.629.578,1.265.914,1.939a16.008,16.008,0,0,1,1.986,5.854,2.02,2.02,0,0,1-2.271,1.715c-2.061,0-2.48-1.332-2.48-1.332a12.1,12.1,0,0,0-1.5-4.112c-.357-.716-.726-1.456-1.05-2.237-2.788-6.717-1.249-14.136.152-19.133.42-1.5.888-3,1.34-4.458,1.32-4.244,2.567-8.253,2.807-12.4a25.491,25.491,0,0,0-8.086-19.85c-4.758-4.339-11.511-7.157-20.645-8.614-3.616-.577-7.365-.927-10.99-1.265-4.248-.4-8.642-.805-12.961-1.586-1.511-.273-3.026-.594-4.491-.9a56.6,56.6,0,0,0-10.852-1.589c-4.16-.061-8.3.805-13.245,2.122-5.542,1.476-11.344,3.286-16.227,6.5a63.855,63.855,0,0,0-6.149,4.82,68.418,68.418,0,0,1-6.624,5.175,71.377,71.377,0,0,1-13.285,6.322c-6.7,2.636-13.022,5.127-17.217,10.21-3.447,4.175-5.3,10.249-5.22,17.1.075,6.4,1.687,12.828,3.246,19.048l1.508,11.765s-.075,1.367-2.36,1.349C-1069.667,972.618-1070.039,971.484-1070.039,971.484Z" transform="translate(1074.798 -883.452)" fill="#8e6d57"/>
        </g>
        <g id="Grupo_101815" data-name="Grupo 101815" transform="translate(65.012 4.044)">
          <path id="Trazado_157115" data-name="Trazado 157115" d="M-962.025,955.409c-1.8-8.933-2.3-16.138,3.441-22.454,3.871-4.26,9.306-5.564,14.562-6.824a53.037,53.037,0,0,0,6.972-2,23.27,23.27,0,0,0,10.758-8.663c.841-1.26,1.567-2.61,2.335-4.04a36.983,36.983,0,0,1,4.028-6.389c5.6-6.7,15.451-9.608,28.5-8.4l-.44,4.747c-7.96-.738-18.655-.174-24.4,6.706a32.9,32.9,0,0,0-3.488,5.59c-.787,1.466-1.6,2.981-2.569,4.431a28.081,28.081,0,0,1-12.981,10.454,57.4,57.4,0,0,1-7.6,2.2c-4.764,1.142-9.263,2.222-12.146,5.395-4.314,4.749-3.507,10.965-1.957,18.671,0,0-.412.9-2.435,1.236C-961.37,956.388-962.025,955.409-962.025,955.409Z" transform="translate(963.244 -896.371)" fill="#8e6d57"/>
        </g>
        <g id="Grupo_101816" data-name="Grupo 101816" transform="translate(92.757 4.062)">
          <path id="Trazado_157116" data-name="Trazado 157116" d="M-874.58,980c-.3-4.443,2.157-9.12,6.74-12.832a58.653,58.653,0,0,1,4.927-3.467,44.12,44.12,0,0,0,5.38-3.9,21.165,21.165,0,0,0,6.93-15.009,44.161,44.161,0,0,0-1.186-9.514c-.35-1.773-.711-3.607-.959-5.459-.723-5.383-.764-13.355,3.146-20.757,3.617-6.848,10.188-11.689,17.148-12.633l.641,4.724c-5.461.74-10.662,4.624-13.573,10.135-3.321,6.287-3.267,13.2-2.636,17.9.229,1.707.561,3.39.912,5.171a48.39,48.39,0,0,1,1.274,10.549,26.014,26.014,0,0,1-8.518,18.449,48.416,48.416,0,0,1-5.952,4.339,54.221,54.221,0,0,0-4.533,3.179c-1.59,1.288-5.259,4.724-4.984,8.807a1.983,1.983,0,0,1-2.165,1.794C-874.2,981.475-874.58,980-874.58,980Z" transform="translate(874.604 -896.431)" fill="#8e6d57"/>
        </g>
        <path id="Trazado_157117" data-name="Trazado 157117" d="M-1151.842,1248.941c33.178,4.111,67.331,5.223,99.586-3.571,4.875-1.329,10.237-3.348,12.281-7.969,1.007.2,1.122,1.58.995,2.6q-.858,6.854-1.716,13.708a7.773,7.773,0,0,1-1.054,3.575c-.969,1.38-2.7,1.967-4.311,2.452a217.424,217.424,0,0,1-120.055,1.227,4.748,4.748,0,0,1-2.031-.938c-1.077-1-1-2.7-.918-4.166.308-5.386-.686-10.337-1.788-15.552,2.6-1.225,4.52,4.108,6.509,5.287C-1160.635,1247.79-1156.047,1248.42-1151.842,1248.941Z" transform="translate(1170.884 -1126.614)" fill="#d1beb2"/>
        <path id="Trazado_157118" data-name="Trazado 157118" d="M-1134.437,1481.158c30.443,4.11,61.78,5.223,91.375-3.571,4.473-1.329,9.393-3.348,11.269-7.969.924.2,1.03,1.58.912,2.6q-.787,6.854-1.574,13.708a8.294,8.294,0,0,1-.968,3.575,6.929,6.929,0,0,1-3.955,2.452,183.723,183.723,0,0,1-110.157,1.227,4.2,4.2,0,0,1-1.864-.938c-.989-1-.919-2.7-.842-4.167.282-5.386-.63-10.337-1.64-15.552,2.387-1.225,4.147,4.108,5.972,5.287C-1142.5,1480.007-1138.294,1480.637-1134.437,1481.158Z" transform="translate(1157.849 -1286.147)" fill="#d1beb2"/>
        <path id="Trazado_157119" data-name="Trazado 157119" d="M-897.15,1469.693c-1.513,3.728-5.009,5.762-8.652,7.107a3.1,3.1,0,0,0-.036.534,21.1,21.1,0,0,0,.527,2.841c.372,2.342-.5,4.682-1.366,6.892a9.075,9.075,0,0,1-1.982,3.462,8.886,8.886,0,0,1-3.524,1.734,208.921,208.921,0,0,1-40.24,8.413c-1.085.117-2.175.228-3.257.381a183.4,183.4,0,0,0,52.946-9.029,6.931,6.931,0,0,0,3.956-2.452,8.3,8.3,0,0,0,.967-3.575q.787-6.854,1.574-13.708C-896.121,1471.273-896.226,1469.892-897.15,1469.693Z" transform="translate(1023.06 -1286.199)" fill="#bcaba2"/>
        <path id="Trazado_157120" data-name="Trazado 157120" d="M-877.4,1260.478c1.615-.485,3.342-1.072,4.311-2.452a7.774,7.774,0,0,0,1.054-3.575q.858-6.854,1.716-13.708c.127-1.019.013-2.4-.995-2.6-1.666,3.766-5.535,5.8-9.548,7.148a14.484,14.484,0,0,0-.367,2.232c-.25,2.881-.048,5.949-1.463,8.471-1.358,2.422-3.961,3.86-6.539,4.892-11.488,4.6-24.737,3.544-36.116,8.2A215.54,215.54,0,0,0-877.4,1260.478Z" transform="translate(1002.217 -1127.125)" fill="#bcaba2"/>
        <path id="Trazado_157121" data-name="Trazado 157121" d="M-759.4,893.07a4.085,4.085,0,0,1-1.306,4.066,16.1,16.1,0,0,1,5.426.245,3.747,3.747,0,0,0,1.919.117,2.837,2.837,0,0,0,1.607-2.167,6.683,6.683,0,0,0-.494-4.8,2.112,2.112,0,0,0-.835-.914,2.6,2.6,0,0,0-.922-.21l-7.921-.806c-.805-.082-1.791-.08-2.212.611a10.823,10.823,0,0,1,2.926.92A5.52,5.52,0,0,1-759.4,893.07Z" transform="translate(891.474 -886.965)" fill="#564136"/>
      </g>
      <g id="Grupo_101823" data-name="Grupo 101823" transform="translate(-1078.118 954.285)">
        <path id="Trazado_157122" data-name="Trazado 157122" d="M-886.516,1166.968l109.81-37.5,248.536,15.064-20.317,69.294-192.818,7.315-129.249-18.99Z" transform="translate(886.516 -1099.294)" fill="#93703e"/>
        <path id="Trazado_157123" data-name="Trazado 157123" d="M-886.516,1249.286l279.684,23.517V1396.95L-880.7,1357.835Z" transform="translate(886.516 -1181.612)" fill="#dbac58"/>
        <path id="Trazado_157124" data-name="Trazado 157124" d="M7.037,1223.549,85.7,1177.591v98.866L7.037,1347.7Z" transform="translate(272.647 -1132.358)" fill="#b58c4b"/>
        <path id="Trazado_157125" data-name="Trazado 157125" d="M-776.706,1129.463V1176.2l-109.81-9.234Z" transform="translate(886.516 -1099.294)" fill="#b58c4b"/>
        <path id="Trazado_157126" data-name="Trazado 157126" d="M-667.745,1178.09c3.555-1.624,7.236-3.278,11.144-3.364s8.137,1.815,9.561,5.455c3.676-1.535,7.454-3.093,11.435-3.22s8.272,1.488,10.22,4.962c5.906-4.678,15.7-3.115,19.856,3.168,5.419-5.492,16.047-4.01,19.756,2.756a19.222,19.222,0,0,1,22.995-1.811c2.967-2.61,7.535-2.77,11.172-1.226s6.48,4.516,8.847,7.681c5.337-6.09,16.573-5.175,20.853,1.7,7.435-8.4,22.892-7.295,29.052,2.083,3.925-6.835,15.24-7.48,19.916-1.136,3.2-4.471,9.73-4.437,15.2-3.948l4.2.376c1.6.143,3.553.55,4.027,2.088.549,1.78-1.352,3.284-2.984,4.181l-23.5,12.916c-4.864,2.674-9.777,5.368-15.105,6.92-9.632,2.806-19.913,1.7-29.886.607q-49.042-5.381-98.2-9.653-24.433-2.123-48.889-3.973-12.228-.925-24.461-1.781-6.116-.428-12.234-.839c-1.529-.1-10.617.127-11.007-1.155-.556-1.824,20.671-10.294,23.116-11.411C-684.349,1185.675-676.014,1181.949-667.745,1178.09Z" transform="translate(769.218 -1130.387)" fill="#f24c30"/>
        <path id="Trazado_157127" data-name="Trazado 157127" d="M-586.62,1188.159c-1.157.714-34.427,23.362-34.427,23.362s-6.381-2.392-6.78-2.425,40.161-22.761,40.161-22.761Z" transform="translate(708.799 -1138.365)" fill="#b53026"/>
        <path id="Trazado_157128" data-name="Trazado 157128" d="M-504.328,1193.74l-26.821,24.47-8.418-1.247,33.854-25.04Z" transform="translate(648.163 -1142.204)" fill="#b53026"/>
        <path id="Trazado_157129" data-name="Trazado 157129" d="M-430.83,1203.115l-23.848,22.821-6.806-.3,28.823-24.674Z" transform="translate(594.52 -1148.41)" fill="#b53026"/>
        <path id="Trazado_157130" data-name="Trazado 157130" d="M-352.1,1212.048s-17.13,21.908-17.731,22.109-5.812-1.866-5.812-1.866l22.027-22.342Z" transform="translate(535.549 -1154.587)" fill="#b53026"/>
        <path id="Trazado_157131" data-name="Trazado 157131" d="M-274.561,1208.6l-14.495,24.12h-7.19l19.895-25.156Z" transform="translate(481.002 -1152.945)" fill="#b53026"/>
        <path id="Trazado_157132" data-name="Trazado 157132" d="M-200.875,1228.109l-12.043,22.074-5.211-1.2,16.043-22.413Z" transform="translate(427.335 -1166.005)" fill="#b53026"/>
        <path id="Trazado_157133" data-name="Trazado 157133" d="M-886.516,1166.968l109.81-37.5h6.929l-100.354,35.3,259.394,21.127,68.96-40.134-233.572-14.378,5.571-1.916,241.606,15.064-78.662,45.958Z" transform="translate(886.516 -1099.294)" fill="#f4bd64"/>
        <g id="Grupo_101818" data-name="Grupo 101818" transform="translate(279.684 79.583)">
          <path id="Trazado_157134" data-name="Trazado 157134" d="M85.7,1416.246q-31.545,21.9-63.341,43.445c-5.013,3.4-10.049,6.793-15.321,9.757v5.338c6-3.43,11.347-8.608,16.709-13.121,15.123-12.728,33.271-21.449,48.489-34.063,4.338-3.6,8.491-7.538,13.464-10.164Z" transform="translate(-7.037 -1375.896)" fill="#93703e"/>
          <path id="Trazado_157135" data-name="Trazado 157135" d="M7.037,1342.47a88.452,88.452,0,0,1,16.818-12.929c5.026-2.977,10.343-5.452,15.268-8.593,4.7-3,9-6.573,13.579-9.747,10.917-7.567,23.685-13.094,33-22.292v-1.575c-8.417,6.367-17.441,11.918-26.441,17.447l-20.413,12.541c-5.276,3.241-10.553,6.484-15.7,9.925-4.319,2.888-8.33,6.476-12.791,9.109a14.317,14.317,0,0,1-3.315,1.4Z" transform="translate(-7.037 -1287.333)" fill="#93703e"/>
        </g>
        <g id="Grupo_101819" data-name="Grupo 101819" transform="translate(2.136 108.287)">
          <path id="Trazado_157136" data-name="Trazado 157136" d="M-598.485,1511.687c-2.861.816-6.091.361-9.1-.133q-77.14-12.652-154.539-23.659c-37.218-5.293-74.679-10.307-112.243-9.572l.057,1.055c4.225.687,8.5,1.1,12.761,1.516q129,12.575,256.683,35.683a44.047,44.047,0,0,0,6.38.806Z" transform="translate(876.032 -1447.197)" fill="#cc9c56"/>
          <path id="Trazado_157137" data-name="Trazado 157137" d="M-879.593,1380.9a28.155,28.155,0,0,0,5.857,1.115l124.474,14.191c48.268,5.5,96.711,11.015,145.281,10.005a12.547,12.547,0,0,1,1.836.058V1400.2c-3.576-.213-8.73.961-11.633,1.059q-7.489.255-14.983.3-14.743.1-29.478-.607-16.418-.784-32.768-2.557c-17.992-1.952-35.886-4.8-53.918-6.343-24.328-2.079-48.858-1.773-73.06-5.009-20.582-2.751-40.986-8.058-61.707-8.012Z" transform="translate(879.692 -1379.038)" fill="#cc9c56"/>
        </g>
        <path id="Trazado_157138" data-name="Trazado 157138" d="M-132.606,1445.6l-22.293-3.139-1.252-121.193,21.758,2.72Z" transform="translate(384.756 -1231.064)" fill="#f4bd64"/>
        <path id="Trazado_157139" data-name="Trazado 157139" d="M-84.851,1443.457l4.181-2.535V1318.148l-5.968,3.7Z" transform="translate(337.001 -1228.92)" fill="#b58c4b"/>
        <path id="Trazado_157140" data-name="Trazado 157140" d="M-156.15,1312.094l5.082-4.18,22.644,3.2-5.968,3.7Z" transform="translate(384.756 -1221.889)" fill="#f4bd64"/>
        <path id="Trazado_157141" data-name="Trazado 157141" d="M-811.028,1375.588l-22.292-2.879-1.252-111.171,21.758,2.495Z" transform="translate(850.831 -1190.029)" fill="#f4bd64"/>
        <path id="Trazado_157142" data-name="Trazado 157142" d="M-763.273,1373.621l4.182-2.325V1258.674l-5.968,3.391Z" transform="translate(803.075 -1188.061)" fill="#b58c4b"/>
        <path id="Trazado_157143" data-name="Trazado 157143" d="M-834.572,1253.121l5.082-3.835,22.644,2.938-5.968,3.391Z" transform="translate(850.831 -1181.612)" fill="#f4bd64"/>
        <path id="Trazado_157144" data-name="Trazado 157144" d="M-827.544,1278.717q.343,6.1.685,12.2c.23,4.093.459,8.191.409,12.29-.046,3.686-.318,7.364-.48,11.046a185.406,185.406,0,0,0,.714,26.338c.811.164,1.442-.772,1.493-1.6a14.806,14.806,0,0,1-.025-2.474c.19-.805,1.2-1.5,1.829-.963a1.654,1.654,0,0,1,.41,1.222c.191,3.947-.168,8.1,1.539,11.66.965-.688,1.094-2.048,1.128-3.233q.14-4.861.146-9.725a21.751,21.751,0,0,0-1-7.9,1.393,1.393,0,0,0-.41-.645c-.653-.488-1.516.334-1.757,1.113s-.4,1.755-1.161,2.044a10.049,10.049,0,0,1-.189-4.6l1.467-12.842.889,2.323a1.194,1.194,0,0,0,.4.615c.683.441,1.29-.676,1.338-1.488.681-11.38-1.428-22.989,1.106-34.1l1.449,3.474a.655.655,0,0,0,.311.4c.271.1.529-.175.673-.429,1.076-1.9,1.132-4.191,1.16-6.375l.085-6.5a2.733,2.733,0,0,0-.783-2.406c-.914-.615-1.958.039-2.906.141a10.405,10.405,0,0,1-3.575-.453c-1.47-.331-3.462-.817-4.9-.081-1.613.824-1.324,1.96-.991,3.5A47.366,47.366,0,0,1-827.544,1278.717Z" transform="translate(846.831 -1194.044)" fill="#ffd176"/>
        <path id="Trazado_157145" data-name="Trazado 157145" d="M-150.131,1339.068c-.258,6.46.76,12.895,1.179,19.346.314,4.833.293,9.68.272,14.523l1.39-2.494c.473,2.626.072,5.318-.018,7.985a34.106,34.106,0,0,0,1.1,9.8c.165.629.633,1.412,1.244,1.192q.065-2.46.131-4.921l.454-17.028a52.762,52.762,0,0,0-.1-6.686,7.727,7.727,0,0,0-1.694,4.394q-.094-6.277-.187-12.554c-.017-1.117.1-2.469,1.1-2.975a10.994,10.994,0,0,0,.4,4.775,5.868,5.868,0,0,0,.851-3.463,20.529,20.529,0,0,0-.238-4.97,36.9,36.9,0,0,0-2.147-5.642,8.872,8.872,0,0,1-.6-5.894c.18-.555.563-1.156,1.146-1.171.382-.009.758.246,1.124.139.431-.126.569-.65.81-1.029.636-1,2.067-1.024,3.246-.9s2.575.215,3.334-.7l-4.067,34.248a3.566,3.566,0,0,0,.138,1.968,1.231,1.231,0,0,0,1.645.646,1.709,1.709,0,0,0,.581-.884c2.723-7.2,1.208-15.361,3.262-22.778a6.932,6.932,0,0,0,1.36,2.83,39.032,39.032,0,0,0,1.109-7.8q.411-5.569.823-11.139a2.484,2.484,0,0,0-.045-.908,1.863,1.863,0,0,0-2.117-1.02,20.138,20.138,0,0,0-2.426.817c-2.194.631-4.492-.307-6.634-1.094-2.372-.872-7.235-2.122-6.745,1.821A68.384,68.384,0,0,1-150.131,1339.068Z" transform="translate(380.867 -1233.477)" fill="#ffd176"/>
        <path id="Trazado_157146" data-name="Trazado 157146" d="M-616.61,1051.85l214.28,71.811,108.587-41.129-214.141-49.14Z" transform="translate(701.091 -1033.294)" fill="#ffd176"/>
        <path id="Trazado_157147" data-name="Trazado 157147" d="M-616.61,1092.362l1.126,5,213.247,74.823-.093-8.014Z" transform="translate(701.091 -1073.805)" fill="#dbac58"/>
        <path id="Trazado_157148" data-name="Trazado 157148" d="M68.08,1239.53l108.494-43.768v-5.375L67.987,1231.516Z" transform="translate(230.774 -1141.148)" fill="#93703e"/>
        <path id="Trazado_157149" data-name="Trazado 157149" d="M7.037,1286.735v6.889S85.7,1325.436,85.7,1325.365V1268.89l-59.492,24.572Z" transform="translate(272.647 -1195.08)" fill="#6b512e" opacity="0.29"/>
        <path id="Trazado_157150" data-name="Trazado 157150" d="M-37.667,1196.616,84.1,1162.138v-2.785l-6.336-3.443-108.953,29.227-6.48,7.023Z" transform="translate(303.359 -1117.463)" fill="#b58c4b"/>
        <path id="Trazado_157151" data-name="Trazado 157151" d="M57.222,1153.243,47.1,1152.028l-107.13,26.53-7.537,7.493v4.752l9.36,3.146v-4.455l6.48-7.023Z" transform="translate(323.902 -1114.796)" fill="#f4bd64"/>
        <path id="Trazado_157152" data-name="Trazado 157152" d="M-492.83,1066.855l96.294-25.147.055-2.168-4.864-2.8-85.382,20.6-5.829,5.624Z" transform="translate(616.054 -1035.59)" fill="#b58c4b"/>
        <path id="Trazado_157153" data-name="Trazado 157153" d="M-416.646,1034.221l-7.858-1.146-83.91,18.538-6.689,6.322v4.345l6.972,2.337.274-4.17,5.829-5.624Z" transform="translate(631.356 -1033.076)" fill="#f4bd64"/>
        <g id="Grupo_101822" data-name="Grupo 101822" transform="translate(71.889 85.863)">
          <path id="Trazado_157154" data-name="Trazado 157154" d="M-553.116,1375.594l-73.428,20.077a16.03,16.03,0,0,1-19.69-11.234l-10.034-36.7a16.029,16.029,0,0,1,11.234-19.689l73.429-20.077a16.029,16.029,0,0,1,19.689,11.234l10.035,36.7A16.029,16.029,0,0,1-553.116,1375.594Z" transform="translate(656.84 -1307.398)" fill="#efd9ce"/>
          <g id="Grupo_101820" data-name="Grupo 101820" transform="translate(5.949 6.864)">
            <path id="Trazado_157155" data-name="Trazado 157155" d="M-546.715,1388.1l-63.414,17.339c-8.381,2.292-16.946-2.232-19.093-10.084l-8.119-29.694c-2.147-7.852,2.925-16.1,11.306-18.4l63.414-17.339c8.381-2.291,16.946,2.232,19.093,10.084l8.119,29.694C-533.262,1377.553-538.334,1385.806-546.715,1388.1Zm-78.374-37.375c-6.344,1.735-10.184,7.982-8.558,13.926l8.119,29.694c1.625,5.944,8.109,9.369,14.454,7.634l63.413-17.338c6.345-1.735,10.184-7.982,8.559-13.927l-8.119-29.694c-1.626-5.944-8.11-9.368-14.454-7.634Z" transform="translate(637.833 -1329.328)" fill="#912320"/>
          </g>
          <g id="Grupo_101821" data-name="Grupo 101821" transform="translate(21.018 15.729)">
            <path id="Trazado_157156" data-name="Trazado 157156" d="M-589.689,1397.516l1.431,11.017,7.78-2.467,2.32,26.388,7.019-2.184s-3.175-26.738-2.674-26.738,6.183-.835,6.183-.835l-1.337-9.86Z" transform="translate(589.689 -1381.823)" fill="#912320"/>
            <path id="Trazado_157157" data-name="Trazado 157157" d="M-434.908,1360.54l.149,10.913,6.766-1.781-.571,26.049,6.1-1.567s-.113-26.462.308-26.421,5.27-.313,5.27-.313l-.181-9.771Z" transform="translate(483.355 -1357.649)" fill="#912320"/>
            <path id="Trazado_157158" data-name="Trazado 157158" d="M-512.519,1379.341l4.422,34.864,6.618-2.674-2.823-22.226,9.574,21.391,5.02-1.483-2.647-35.382-5.882.936s3.008,21.892,2.507,21.892-9.886-18.884-9.886-18.884Z" transform="translate(536.673 -1368.766)" fill="#912320"/>
            <path id="Trazado_157159" data-name="Trazado 157159" d="M-567.321,1499.84l57.984-16.467.563,2.956-58.547,18.578Z" transform="translate(574.322 -1444.021)" fill="#912320"/>
          </g>
        </g>
      </g>
      <g id="Grupo_101836" data-name="Grupo 101836" transform="translate(-775.388 1017.524)">
        <g id="Grupo_101824" data-name="Grupo 101824" transform="translate(82.989 53.986)">
          <path id="Trazado_157160" data-name="Trazado 157160" d="M362.025,1509.141c.6.768,66.845,54.464,66.845,54.464l25.185-34.57L382.6,1486.878s-12.752-8.043-21.748,4.131C353.711,1500.677,362.025,1509.141,362.025,1509.141Z" transform="translate(-357.957 -1484.272)" fill="#f24c30"/>
          <path id="Trazado_157161" data-name="Trazado 157161" d="M435.96,1577.443l-76.937-59.626c-3.374,8.187,3.091,14.771,3.091,14.771.595.768,66.97,54.184,66.97,54.184Z" transform="translate(-358.02 -1507.318)" fill="#b53026"/>
          <ellipse id="Elipse_4981" data-name="Elipse 4981" cx="21.199" cy="21.543" rx="21.199" ry="21.543" transform="translate(61.409 42.484) rotate(-4.047)" fill="#912320"/>
          <path id="Trazado_157162" data-name="Trazado 157162" d="M607.373,1647a16.028,16.028,0,1,1-17.138-15.113A16.158,16.158,0,0,1,607.373,1647Z" transform="translate(-507.311 -1585.655)" fill="#f24c30"/>
          <path id="Trazado_157163" data-name="Trazado 157163" d="M590.235,1631.886a16.158,16.158,0,0,0-14.834,17.379,16.407,16.407,0,0,0,2.875,8.208,15.822,15.822,0,0,0,10.9,3.343,16.158,16.158,0,0,0,14.835-17.379,16.412,16.412,0,0,0-2.876-8.207A15.823,15.823,0,0,0,590.235,1631.886Z" transform="translate(-507.311 -1585.655)" fill="#f2c946"/>
          <path id="Trazado_157164" data-name="Trazado 157164" d="M595.748,1632.468a15.772,15.772,0,0,0-5.513-.581,16.158,16.158,0,0,0-14.834,17.379,16.406,16.406,0,0,0,2.875,8.208,16.01,16.01,0,0,0,4.494,2.473c0-.014-.007-.029-.01-.043a24.991,24.991,0,0,1,12.988-27.435Z" transform="translate(-507.311 -1585.655)" fill="#cea83e"/>
          <path id="Trazado_157165" data-name="Trazado 157165" d="M472.839,1532.032a3.561,3.561,0,0,0,1.365,1.787,38.085,38.085,0,0,0,6.586,3.9,130.6,130.6,0,0,1,20.265,12.989,25.284,25.284,0,0,0,6.591,4.211c2.459.9,5.451.844,7.444-.854a1.833,1.833,0,0,0,.492-.581c.359-.749-.2-1.6-.793-2.189-3.868-3.85-9.723-4.734-14.521-7.334-2.226-1.206-4.225-2.785-6.359-4.146a74.781,74.781,0,0,0-6.621-3.617l-12.539-6.312C473.7,1529.362,472.587,1531.011,472.839,1532.032Z" transform="translate(-436.856 -1515.541)" fill="#fff" opacity="0.23"/>
          <path id="Trazado_157166" data-name="Trazado 157166" d="M409.3,1493.719a5.873,5.873,0,0,0,1.859.767,29.2,29.2,0,0,1,7.377,3.359c2.1,1.339,4.094,2.976,6.5,3.634a1.575,1.575,0,0,0,1.624-.229,1.149,1.149,0,0,0,.03-1.285,3.372,3.372,0,0,0-.967-.955l-4.458-3.348a31.485,31.485,0,0,0-5.329-3.465c-1.607-.76-3.928-1.551-5.738-1.2C408.746,1491.281,407.7,1492.548,409.3,1493.719Z" transform="translate(-392.677 -1488.834)" fill="#fff" opacity="0.23"/>
        </g>
        <g id="Grupo_101825" data-name="Grupo 101825" transform="translate(38.886 58.673)">
          <path id="Trazado_157167" data-name="Trazado 157167" d="M221.123,1524.115c.595.768,66.845,54.464,66.845,54.464l25.185-34.57L241.7,1501.853s-12.752-8.043-21.748,4.131C212.809,1515.651,221.123,1524.115,221.123,1524.115Z" transform="translate(-217.055 -1499.247)" fill="#f24c30"/>
          <path id="Trazado_157168" data-name="Trazado 157168" d="M295.058,1592.418l-76.937-59.626c-3.374,8.187,3.091,14.771,3.091,14.771.595.768,66.97,54.184,66.97,54.184Z" transform="translate(-217.118 -1522.292)" fill="#b53026"/>
          <path id="Trazado_157169" data-name="Trazado 157169" d="M460.275,1650.07a21.2,21.2,0,1,1-22.669-19.991A21.373,21.373,0,0,1,460.275,1650.07Z" transform="translate(-355.054 -1589.092)" fill="#912320"/>
          <path id="Trazado_157170" data-name="Trazado 157170" d="M466.47,1661.973a16.028,16.028,0,1,1-17.137-15.113A16.158,16.158,0,0,1,466.47,1661.973Z" transform="translate(-366.409 -1600.629)" fill="#f24c30"/>
          <path id="Trazado_157171" data-name="Trazado 157171" d="M449.333,1646.86a16.158,16.158,0,0,0-14.835,17.379,16.411,16.411,0,0,0,2.876,8.208,15.82,15.82,0,0,0,10.9,3.343,16.158,16.158,0,0,0,14.835-17.379,16.411,16.411,0,0,0-2.876-8.208A15.821,15.821,0,0,0,449.333,1646.86Z" transform="translate(-366.409 -1600.629)" fill="#f2c946"/>
          <path id="Trazado_157172" data-name="Trazado 157172" d="M454.846,1647.442a15.753,15.753,0,0,0-5.513-.582,16.159,16.159,0,0,0-14.835,17.379,16.411,16.411,0,0,0,2.876,8.208,16.01,16.01,0,0,0,4.494,2.473c0-.015-.007-.029-.01-.044a24.99,24.99,0,0,1,12.988-27.434Z" transform="translate(-366.409 -1600.629)" fill="#cea83e"/>
          <path id="Trazado_157173" data-name="Trazado 157173" d="M331.937,1547.006a3.562,3.562,0,0,0,1.365,1.787,38.092,38.092,0,0,0,6.586,3.9,130.568,130.568,0,0,1,20.265,12.988,25.28,25.28,0,0,0,6.591,4.21c2.459.9,5.45.843,7.444-.854a1.833,1.833,0,0,0,.492-.581c.358-.748-.2-1.6-.793-2.189-3.868-3.85-9.723-4.735-14.521-7.334-2.226-1.206-4.225-2.785-6.359-4.146a74.82,74.82,0,0,0-6.621-3.617l-12.539-6.313C332.8,1544.336,331.685,1545.985,331.937,1547.006Z" transform="translate(-295.954 -1530.515)" fill="#fff" opacity="0.23"/>
          <path id="Trazado_157174" data-name="Trazado 157174" d="M268.394,1508.694a5.873,5.873,0,0,0,1.859.766,29.192,29.192,0,0,1,7.377,3.36c2.1,1.339,4.094,2.976,6.5,3.634a1.575,1.575,0,0,0,1.624-.229,1.149,1.149,0,0,0,.03-1.284,3.372,3.372,0,0,0-.967-.956l-4.458-3.348a31.49,31.49,0,0,0-5.329-3.465c-1.607-.76-3.928-1.551-5.738-1.2C267.843,1506.255,266.8,1507.523,268.394,1508.694Z" transform="translate(-251.775 -1503.808)" fill="#fff" opacity="0.23"/>
        </g>
        <g id="Grupo_101826" data-name="Grupo 101826" transform="translate(0 59.506)">
          <path id="Trazado_157175" data-name="Trazado 157175" d="M96.342,1528.789c.539.808,62.827,59.054,62.827,59.054l27.566-32.7-67.221-49.9s-13.1-9.1-22.539,2.742C88.009,1519.235,96.342,1528.789,96.342,1528.789Z" transform="translate(-92.819 -1501.906)" fill="#f24c30"/>
          <path id="Trazado_157176" data-name="Trazado 157176" d="M167.13,1606.226,94.6,1541.311c-3.944,7.927,2.039,14.953,2.039,14.953.539.808,62.971,58.783,62.971,58.783Z" transform="translate(-93.119 -1528.977)" fill="#b53026"/>
          <ellipse id="Elipse_4982" data-name="Elipse 4982" cx="21.199" cy="21.543" rx="21.199" ry="21.543" transform="translate(59.472 48.51)" fill="#912320"/>
          <path id="Trazado_157177" data-name="Trazado 157177" d="M331.4,1689.971a16.028,16.028,0,1,1-16.026-16.287A16.158,16.158,0,0,1,331.4,1689.971Z" transform="translate(-234.706 -1619.917)" fill="#f24c30"/>
          <path id="Trazado_157178" data-name="Trazado 157178" d="M315.377,1673.684a16.158,16.158,0,0,0-16.026,16.287,16.41,16.41,0,0,0,2.288,8.39,15.821,15.821,0,0,0,10.636,4.105,16.158,16.158,0,0,0,16.026-16.287,16.412,16.412,0,0,0-2.288-8.39A15.821,15.821,0,0,0,315.377,1673.684Z" transform="translate(-234.706 -1619.917)" fill="#f2c946"/>
          <path id="Trazado_157179" data-name="Trazado 157179" d="M320.835,1674.654a15.753,15.753,0,0,0-5.458-.97,16.158,16.158,0,0,0-16.026,16.287,16.41,16.41,0,0,0,2.288,8.39,16.024,16.024,0,0,0,4.308,2.785c0-.015,0-.03-.007-.045a24.991,24.991,0,0,1,14.895-26.447Z" transform="translate(-234.706 -1619.917)" fill="#cea83e"/>
          <path id="Trazado_157180" data-name="Trazado 157180" d="M207.638,1563.617a3.558,3.558,0,0,0,1.235,1.879,38.052,38.052,0,0,0,6.293,4.359,130.613,130.613,0,0,1,19.3,14.389,25.281,25.281,0,0,0,6.277,4.666c2.39,1.07,5.377,1.227,7.486-.326a1.83,1.83,0,0,0,.531-.544c.41-.721-.091-1.614-.636-2.24-3.586-4.114-9.364-5.41-13.967-8.343-2.135-1.36-4.017-3.077-6.05-4.585a74.713,74.713,0,0,0-6.348-4.077l-12.062-7.183C208.688,1561.015,207.459,1562.581,207.638,1563.617Z" transform="translate(-171.687 -1542.834)" fill="#fff" opacity="0.23"/>
          <path id="Trazado_157181" data-name="Trazado 157181" d="M147.021,1521.055a5.882,5.882,0,0,0,1.8.9,29.191,29.191,0,0,1,7.121,3.873c2,1.484,3.873,3.258,6.225,4.084a1.575,1.575,0,0,0,1.636-.114,1.15,1.15,0,0,0,.121-1.279,3.375,3.375,0,0,0-.9-1.022l-4.211-3.654a31.51,31.51,0,0,0-5.071-3.833c-1.549-.871-3.808-1.825-5.639-1.6C146.644,1518.584,145.513,1519.775,147.021,1521.055Z" transform="translate(-129.565 -1513.218)" fill="#fff" opacity="0.23"/>
        </g>
        <g id="Grupo_101827" data-name="Grupo 101827" transform="translate(56.109 19.395)">
          <path id="Trazado_157182" data-name="Trazado 157182" d="M276.149,1398.625c.6.768,66.845,54.464,66.845,54.464l25.185-34.57-71.452-42.157s-12.752-8.043-21.748,4.131C267.835,1390.161,276.149,1398.625,276.149,1398.625Z" transform="translate(-272.081 -1373.757)" fill="#f24c30"/>
          <path id="Trazado_157183" data-name="Trazado 157183" d="M350.084,1466.928,273.147,1407.3c-3.374,8.186,3.091,14.771,3.091,14.771.595.768,66.97,54.184,66.97,54.184Z" transform="translate(-272.143 -1396.803)" fill="#b53026"/>
          <path id="Trazado_157184" data-name="Trazado 157184" d="M515.3,1524.581a21.2,21.2,0,1,1-22.669-19.991A21.373,21.373,0,0,1,515.3,1524.581Z" transform="translate(-410.081 -1463.603)" fill="#912320"/>
          <path id="Trazado_157185" data-name="Trazado 157185" d="M521.5,1536.484a16.028,16.028,0,1,1-17.138-15.113A16.159,16.159,0,0,1,521.5,1536.484Z" transform="translate(-421.435 -1475.14)" fill="#f24c30"/>
          <path id="Trazado_157186" data-name="Trazado 157186" d="M504.359,1521.371a16.158,16.158,0,0,0-14.834,17.379,16.407,16.407,0,0,0,2.876,8.208,15.819,15.819,0,0,0,10.9,3.343,16.158,16.158,0,0,0,14.835-17.379,16.414,16.414,0,0,0-2.876-8.208A15.82,15.82,0,0,0,504.359,1521.371Z" transform="translate(-421.435 -1475.14)" fill="#f2c946"/>
          <path id="Trazado_157187" data-name="Trazado 157187" d="M509.872,1521.952a15.761,15.761,0,0,0-5.513-.581,16.158,16.158,0,0,0-14.834,17.379,16.407,16.407,0,0,0,2.876,8.207,16.009,16.009,0,0,0,4.494,2.473c0-.014-.007-.03-.01-.044a24.991,24.991,0,0,1,12.988-27.434Z" transform="translate(-421.435 -1475.14)" fill="#cea83e"/>
          <path id="Trazado_157188" data-name="Trazado 157188" d="M386.963,1421.517a3.561,3.561,0,0,0,1.365,1.787,38.085,38.085,0,0,0,6.586,3.9,130.614,130.614,0,0,1,20.265,12.988,25.28,25.28,0,0,0,6.591,4.21c2.459.9,5.451.844,7.444-.854a1.829,1.829,0,0,0,.492-.581c.359-.748-.2-1.6-.793-2.189-3.868-3.85-9.723-4.735-14.521-7.334-2.226-1.206-4.225-2.785-6.359-4.146a74.733,74.733,0,0,0-6.621-3.618l-12.539-6.313C387.828,1418.846,386.711,1420.5,386.963,1421.517Z" transform="translate(-350.98 -1405.025)" fill="#fff" opacity="0.23"/>
          <path id="Trazado_157189" data-name="Trazado 157189" d="M323.42,1383.2a5.871,5.871,0,0,0,1.859.767,29.179,29.179,0,0,1,7.377,3.359c2.1,1.339,4.094,2.976,6.5,3.634a1.575,1.575,0,0,0,1.624-.229,1.149,1.149,0,0,0,.03-1.285,3.364,3.364,0,0,0-.967-.956l-4.458-3.347a31.507,31.507,0,0,0-5.329-3.465c-1.607-.759-3.928-1.551-5.738-1.2C322.869,1380.766,321.826,1382.033,323.42,1383.2Z" transform="translate(-306.801 -1378.319)" fill="#fff" opacity="0.23"/>
        </g>
        <g id="Grupo_101828" data-name="Grupo 101828" transform="translate(12.007 26.223)">
          <path id="Trazado_157190" data-name="Trazado 157190" d="M135.247,1420.439c.595.769,66.845,54.464,66.845,54.464l25.185-34.57-71.452-42.157s-12.752-8.043-21.748,4.131C126.932,1411.975,135.247,1420.439,135.247,1420.439Z" transform="translate(-131.179 -1395.571)" fill="#f24c30"/>
          <path id="Trazado_157191" data-name="Trazado 157191" d="M209.553,1488.743l-76.937-59.626c-3.374,8.187,4.932,20.145,4.932,20.145.6.768,65.129,48.811,65.129,48.811Z" transform="translate(-131.612 -1418.617)" fill="#b53026"/>
          <ellipse id="Elipse_4983" data-name="Elipse 4983" cx="21.199" cy="21.543" rx="21.199" ry="21.543" transform="matrix(0.998, -0.071, 0.071, 0.998, 61.409, 42.483)" fill="#912320"/>
          <path id="Trazado_157192" data-name="Trazado 157192" d="M380.594,1558.3a16.028,16.028,0,1,1-17.137-15.113A16.158,16.158,0,0,1,380.594,1558.3Z" transform="translate(-280.533 -1496.954)" fill="#f24c30"/>
          <path id="Trazado_157193" data-name="Trazado 157193" d="M363.456,1543.185a16.158,16.158,0,0,0-14.835,17.379,16.409,16.409,0,0,0,2.876,8.208,15.821,15.821,0,0,0,10.9,3.343,16.158,16.158,0,0,0,14.835-17.379,16.412,16.412,0,0,0-2.876-8.207A15.819,15.819,0,0,0,363.456,1543.185Z" transform="translate(-280.533 -1496.954)" fill="#f2c946"/>
          <path id="Trazado_157194" data-name="Trazado 157194" d="M368.97,1543.766a15.762,15.762,0,0,0-5.513-.581,16.158,16.158,0,0,0-14.835,17.379,16.41,16.41,0,0,0,2.876,8.208,16,16,0,0,0,4.494,2.473l-.01-.044a24.991,24.991,0,0,1,12.988-27.434Z" transform="translate(-280.533 -1496.954)" fill="#cea83e"/>
          <path id="Trazado_157195" data-name="Trazado 157195" d="M246.061,1443.331a3.56,3.56,0,0,0,1.365,1.787,38.052,38.052,0,0,0,6.586,3.9,130.613,130.613,0,0,1,20.265,12.988,25.268,25.268,0,0,0,6.591,4.211c2.459.9,5.45.843,7.444-.854a1.836,1.836,0,0,0,.492-.581c.358-.748-.2-1.6-.793-2.189-3.868-3.85-9.723-4.735-14.521-7.334-2.226-1.206-4.225-2.785-6.36-4.146a74.556,74.556,0,0,0-6.621-3.617l-12.539-6.313C246.925,1440.66,245.809,1442.31,246.061,1443.331Z" transform="translate(-210.078 -1426.839)" fill="#fff" opacity="0.23"/>
          <path id="Trazado_157196" data-name="Trazado 157196" d="M182.518,1405.018a5.865,5.865,0,0,0,1.859.767,29.2,29.2,0,0,1,7.377,3.359c2.1,1.339,4.094,2.976,6.5,3.634a1.575,1.575,0,0,0,1.624-.229,1.15,1.15,0,0,0,.03-1.285,3.365,3.365,0,0,0-.967-.956l-4.458-3.347a31.486,31.486,0,0,0-5.329-3.465c-1.607-.759-3.928-1.551-5.738-1.2C181.967,1402.579,180.924,1403.847,182.518,1405.018Z" transform="translate(-165.899 -1400.133)" fill="#fff" opacity="0.23"/>
        </g>
        <g id="Grupo_101829" data-name="Grupo 101829" transform="translate(24.336 0)">
          <path id="Trazado_157197" data-name="Trazado 157197" d="M176.234,1338.258c.7.669,74.3,43.75,74.3,43.75l19.678-37.975-77-30.889s-13.82-6.026-20.875,7.366C166.737,1331.146,176.234,1338.258,176.234,1338.258Z" transform="translate(-170.571 -1311.793)" fill="#f24c30"/>
          <path id="Trazado_157198" data-name="Trazado 157198" d="M256.286,1399.774l-85.055-47.33c-2.1,8.6,5.285,14.136,5.285,14.136.7.669,74.381,43.455,74.381,43.455Z" transform="translate(-170.766 -1339.72)" fill="#b53026"/>
          <path id="Trazado_157199" data-name="Trazado 157199" d="M433.584,1424.61a21.2,21.2,0,1,1-25.426-16.341A21.373,21.373,0,0,1,433.584,1424.61Z" transform="translate(-322.477 -1377.716)" fill="#912320"/>
          <ellipse id="Elipse_4984" data-name="Elipse 4984" cx="16.026" cy="16.287" rx="16.026" ry="16.287" transform="matrix(0.975, -0.221, 0.221, 0.975, 71.205, 39.218)" fill="#f24c30"/>
          <path id="Trazado_157200" data-name="Trazado 157200" d="M420.681,1424.929a16.158,16.158,0,0,0-12.042,19.419,16.406,16.406,0,0,0,4.082,7.679,15.818,15.818,0,0,0,11.279,1.66,16.158,16.158,0,0,0,12.041-19.419,16.41,16.41,0,0,0-4.082-7.679A15.82,15.82,0,0,0,420.681,1424.929Z" transform="translate(-333.842 -1389.248)" fill="#f2c946"/>
          <path id="Trazado_157201" data-name="Trazado 157201" d="M426.219,1424.671a15.748,15.748,0,0,0-5.538.257,16.158,16.158,0,0,0-12.042,19.419,16.407,16.407,0,0,0,4.082,7.679,16.014,16.014,0,0,0,4.816,1.767l-.016-.042a24.992,24.992,0,0,1,8.7-29.08Z" transform="translate(-333.842 -1389.248)" fill="#cea83e"/>
          <path id="Trazado_157202" data-name="Trazado 157202" d="M285.2,1349.109a3.56,3.56,0,0,0,1.619,1.56,38.068,38.068,0,0,0,7.1,2.865,130.6,130.6,0,0,1,21.994,9.781,25.262,25.262,0,0,0,7.151,3.167c2.567.518,5.515.011,7.23-1.968a1.834,1.834,0,0,0,.4-.648c.241-.794-.444-1.554-1.114-2.044-4.405-3.222-10.326-3.213-15.462-5.058-2.382-.856-4.6-2.116-6.912-3.139a74.7,74.7,0,0,0-7.091-2.577l-13.349-4.347C285.649,1346.339,284.795,1348.138,285.2,1349.109Z" transform="translate(-249.249 -1335.742)" fill="#fff" opacity="0.23"/>
          <path id="Trazado_157203" data-name="Trazado 157203" d="M216.5,1320.307a5.858,5.858,0,0,0,1.953.477,29.207,29.207,0,0,1,7.8,2.207c2.281,1.006,4.5,2.324,6.973,2.612a1.574,1.574,0,0,0,1.57-.471,1.149,1.149,0,0,0-.164-1.274,3.366,3.366,0,0,0-1.1-.8l-4.913-2.636a31.5,31.5,0,0,0-5.791-2.621c-1.7-.508-4.117-.941-5.853-.318C215.582,1317.979,214.742,1319.39,216.5,1320.307Z" transform="translate(-201.441 -1315.49)" fill="#fff" opacity="0.23"/>
        </g>
        <g id="Grupo_101830" data-name="Grupo 101830" transform="translate(80.303 120.461)">
          <path id="Trazado_157204" data-name="Trazado 157204" d="M413.888,1745.647a57.946,57.946,0,0,0-10.633-6.367,57.944,57.944,0,0,0-11.1-2.959l-15.518-3.054c-3.9-.767-8.321-1.637-12.068-3.871-3.841-2.29-6.741-5.859-9.3-9.376-2.931-4.024-5.673-8.435-5.883-13.42a1.421,1.421,0,0,1,1.124-.694c1.128-.037,1.229.595,1.229.595.183,4.36,2.72,8.407,5.433,12.132,2.79,3.83,5.321,6.782,8.606,8.739,3.4,2.024,7.423,2.817,11.317,3.583l15.517,3.054a45.124,45.124,0,0,1,22.634,9.708l8.247,5.774c-.506-1.038-.978-2.1-1.443-3.146-.491-1.105-.955-2.149-1.448-3.143a32.569,32.569,0,0,0-5.64-7.336l-.528-.568c-4.982-5.376-10.471-11.923-13.4-19.719-.5-1.322-.921-2.68-1.331-3.992a42.344,42.344,0,0,0-2.3-6.219c-1.723-3.49-4.308-5.827-7.092-6.413a1.4,1.4,0,0,1-.67-1.189,1.118,1.118,0,0,1,1.155-1.116c3.5.736,6.673,3.533,8.719,7.675a44.8,44.8,0,0,1,2.434,6.561c.4,1.281.814,2.606,1.287,3.865,2.789,7.415,8.1,13.739,12.926,18.947l.525.565a34.348,34.348,0,0,1,6.026,7.895c.514,1.038,1.009,2.153,1.489,3.231,1.194,2.684,4.78,9.926,6.485,12.013Z" transform="translate(-349.378 -1696.649)" fill="#8e6d57"/>
        </g>
        <g id="Grupo_101831" data-name="Grupo 101831" transform="translate(160.217 112.904)">
          <path id="Trazado_157205" data-name="Trazado 157205" d="M606.972,1739.615l-2.281-.591,3.353-12.942c2.636-10.174,5.623-21.7,4.012-32.757-.255-1.75-.632-3.554-1-5.3-1.017-4.872-2.069-9.91-.8-14.874a1.363,1.363,0,0,1,1.534-.6.957.957,0,0,1,.748,1.185c-1.136,4.434-.186,8.987.821,13.808.371,1.78.755,3.619,1.021,5.44,1.68,11.523-1.371,23.3-4.062,33.688Z" transform="translate(-604.691 -1672.507)" fill="#8e6d57"/>
        </g>
        <g id="Grupo_101832" data-name="Grupo 101832" transform="translate(95.221 86.369)">
          <path id="Trazado_157206" data-name="Trazado 157206" d="M457.872,1676.478a120.4,120.4,0,0,0-33.183-21.9l-.864-.381a29.73,29.73,0,0,1-7.687-4.342c-3.18-2.738-5.059-6.628-6.57-10.059a150.924,150.924,0,0,1-12.529-51.255,1.139,1.139,0,0,1,1.057-.811c1.091-.063,1.294.659,1.294.659a148.579,148.579,0,0,0,12.334,50.458c1.408,3.2,3.144,6.806,5.951,9.223a28,28,0,0,0,7.1,3.97l.872.384a122.742,122.742,0,0,1,33.831,22.325Z" transform="translate(-397.039 -1587.729)" fill="#8e6d57"/>
        </g>
        <g id="Grupo_101833" data-name="Grupo 101833" transform="translate(139.412 78.069)">
          <path id="Trazado_157207" data-name="Trazado 157207" d="M560.19,1663.222a1.226,1.226,0,0,1-1.015-.557l1.916-1.37a1.16,1.16,0,0,0-2.039.953,9.127,9.127,0,0,0-.849-1.77,1.05,1.05,0,0,0,.975.265,1.085,1.085,0,0,0,.82-.77l-2.3-.519c1.016-5.153,3.088-19.986,2.7-25.118-1-13.137-4.289-17.994-7.47-22.691-2.568-3.792-4.994-7.374-5.782-14.712l-.094-.882c-.5-4.7-1.018-9.552-2.605-13.982-.668-1.862-1.555-3.751-2.412-5.578-2.109-4.493-4.29-9.138-3.72-14.223,0,0,.228-1.053,1.2-1.053,1.176,0,1.143,1.316,1.143,1.316-.5,4.424,1.45,8.57,3.511,12.96.881,1.876,1.792,3.817,2.5,5.784,1.683,4.7,2.215,9.694,2.73,14.528l.094.88c.726,6.755,2.887,9.947,5.391,13.642,3.2,4.722,6.822,10.073,7.869,23.833.4,5.308-1.557,19.379-2.592,25a7.078,7.078,0,0,1,.557.989,9.567,9.567,0,0,1,.646,1.63,1.193,1.193,0,0,1-1.169,1.449Z" transform="translate(-538.223 -1561.214)" fill="#8e6d57"/>
        </g>
        <g id="Grupo_101834" data-name="Grupo 101834" transform="translate(111.726 50.503)">
          <path id="Trazado_157208" data-name="Trazado 157208" d="M499.081,1602.618c-5.359-1.333-5.359-8.184-5.359-11.11,0-19.093-3.981-25.213-8.2-31.692-3.129-4.81-6.364-9.783-8.078-20.02-.718-4.285-1.632-8.619-2.516-12.812-.444-2.1-.9-4.281-1.332-6.429a170.286,170.286,0,0,0-3.948-16.77,98.038,98.038,0,0,0-4.995-12.752,36.053,36.053,0,0,0-5.208-8.555c-2.576-2.938-5.967-5.137-9.245-7.264,0,0-.77-.723-.258-1.395.782-1.024,1.54-.582,1.54-.582,3.413,2.214,6.943,4.5,9.734,7.688a38.14,38.14,0,0,1,5.569,9.1,100.4,100.4,0,0,1,5.114,13.061,172.053,172.053,0,0,1,4.006,17c.427,2.135.885,4.306,1.327,6.4.889,4.216,1.808,8.576,2.534,12.909,1.633,9.753,4.733,14.517,7.73,19.124,4.217,6.482,8.577,13.185,8.577,32.977,0,5.636,1.035,8.193,3.572,8.824Z" transform="translate(-449.77 -1473.142)" fill="#8e6d57"/>
        </g>
        <g id="Grupo_101835" data-name="Grupo 101835" transform="translate(157.563 176.109)">
          <path id="Trazado_157209" data-name="Trazado 157209" d="M646.585,1886.405c-4.791,0-9.389-1.72-13.858-3.392-4.328-1.619-8.8-3.293-13.292-3.293h-.085a37.339,37.339,0,0,0-5.992.681,42.763,42.763,0,0,1-5.895.708c-3.96.11-9.288-1.321-11.251-5.708l2.15-.962c1.489,3.327,5.8,4.406,9.036,4.315a40.338,40.338,0,0,0,5.57-.676,39.7,39.7,0,0,1,6.37-.714h.1c4.915,0,9.592,1.75,14.116,3.442,5.2,1.945,10.106,3.781,15.219,3.1a31.96,31.96,0,0,0,5.676-1.484,40.945,40.945,0,0,1,5.082-1.417,21.122,21.122,0,0,1,15.545,3.184s.72.781.167,1.5a1.369,1.369,0,0,1-1.478.461,18.743,18.743,0,0,0-13.8-2.825,38.481,38.481,0,0,0-4.787,1.341,34.228,34.228,0,0,1-6.1,1.58A18.9,18.9,0,0,1,646.585,1886.405Z" transform="translate(-596.212 -1874.439)" fill="#8e6d57"/>
        </g>
        <path id="Trazado_157210" data-name="Trazado 157210" d="M594,1866.225a6.438,6.438,0,0,1,3.895-1.548,4.453,4.453,0,0,1,2.437.668c.636.531.138,1.217.6,1.906a3.994,3.994,0,0,0,1.681,1.259,17.689,17.689,0,0,0,5.519,1.593,4.4,4.4,0,0,0-2.371,2.114,2.614,2.614,0,0,0-.3,1.728,1.469,1.469,0,0,0,1.2,1.167,1.919,1.919,0,0,0,1.311-.5c-.2.74.094,1.162-.652,1.334a18.537,18.537,0,0,1-7.511-.354,10.844,10.844,0,0,1-4.29-2,11.288,11.288,0,0,1-2.835-3.62C592.141,1868.754,593.117,1867.036,594,1866.225Z" transform="translate(-436.118 -1691.62)" fill="#564136"/>
        <path id="Trazado_157211" data-name="Trazado 157211" d="M633.658,1881.984a4.493,4.493,0,0,0-2.7.8,4.278,4.278,0,0,0-1.054,1.915,2.251,2.251,0,0,0,.236,1.965,2.511,2.511,0,0,0,.885.741,3.5,3.5,0,0,0,2.458.343,4.97,4.97,0,0,0,.968-.371,3.391,3.391,0,0,0,1-.668,1.431,1.431,0,0,0,.43-1.091,4.548,4.548,0,0,1-1.467.251,1.73,1.73,0,0,1-.742-.07,1.382,1.382,0,0,1-.725-.976,1.24,1.24,0,0,1-.016-.716c.139-.4.583-.466,1.007-.518.247-.03,1.174-.185,1.174-.185C635.069,1883.245,634.963,1881.868,633.658,1881.984Z" transform="translate(-461.71 -1703.508)" fill="#332621"/>
        <path id="Trazado_157212" data-name="Trazado 157212" d="M278.383,1398.254c-2.588,3.8-36.984,45.363-45.371,92.731-3.363-1.819-5.789-3.772-6.04-4.768a6.305,6.305,0,0,1,.034-2.49c2.155-14,8.321-27.05,15.069-39.506a402.807,402.807,0,0,1,31.379-49.074c2.684-3.594,5.644-7.31,9.838-8.9a12.483,12.483,0,0,1,13.146,3.5,8.13,8.13,0,0,0-4.543-.436,20.9,20.9,0,0,0-13.513,8.945Z" transform="translate(-184.905 -1362.497)" fill="#d1beb2"/>
        <path id="Trazado_157213" data-name="Trazado 157213" d="M171.3,1349.156c-2.4,3.3-33.424,38.306-41.195,79.415a19.9,19.9,0,0,1-5.438-3.485c-.551-.476-1.089-1.036-.972-1.753,2-12.15,7.71-23.475,13.963-34.284a347.562,347.562,0,0,1,29.076-42.588c2.486-3.12,5.229-6.344,9.115-7.727a12.094,12.094,0,0,1,12.18,3.038,8.013,8.013,0,0,0-4.21-.378,20.035,20.035,0,0,0-5.069,1.6A18.743,18.743,0,0,0,171.3,1349.156Z" transform="translate(-114.022 -1329.915)" fill="#d1beb2"/>
      </g>
    </g>
  </g>
</svg>
