<svg xmlns="http://www.w3.org/2000/svg" width="820" height="393" viewBox="0 0 820 393">
  <g id="Grupo_101982" data-name="Grupo 101982" transform="translate(3699 5185)">
    <g id="Grupo_87287" data-name="Grupo 87287" transform="translate(-3699 -5185)" opacity="0.25">
      <rect id="Rectángulo_32436" data-name="Rectángulo 32436" width="820" height="393" transform="translate(0 0)" fill="#36a3f7"/>
    </g>
    <g id="Grupo_101926" data-name="Grupo 101926" transform="translate(-1344.091 -5845.767)">
      <g id="Grupo_101923" data-name="Grupo 101923" transform="translate(-2242.062 674.877)">
        <g id="Grupo_101918" data-name="Grupo 101918">
          <rect id="Rectángulo_34304" data-name="Rectángulo 34304" width="53.702" height="37.178" transform="translate(136.32 35.113)" fill="#c9c8c7"/>
          <rect id="Rectángulo_34305" data-name="Rectángulo 34305" width="95.011" height="37.178" transform="translate(115.666)" fill="#c9c8c7"/>
          <path id="Trazado_157546" data-name="Trazado 157546" d="M-1773.2,801.425h-380.044c-49.051,0-88.815,48.281-88.815,107.839s39.764,107.839,88.815,107.839H-1773.2c49.051,0,88.814-48.281,88.814-107.839S-1724.152,801.425-1773.2,801.425Z" transform="translate(2242.062 -731.199)" fill="#c9c8c7"/>
          <path id="Trazado_157547" data-name="Trazado 157547" d="M-2175.448,840.883a81.946,81.946,0,0,0-30.28,28.759c-12.318,20.015-16.254,49-14.642,64.391,3.1,29.573,20.862,50.806,20.862,50.806s-6.22-34.974,0-72.712C-2194.9,884.18-2175.448,840.883-2175.448,840.883Z" transform="translate(2232.561 -748.761)" fill="#d8d7d4"/>
          <rect id="Rectángulo_34306" data-name="Rectángulo 34306" width="4.647" height="224.607" transform="translate(83.445 64.791)" fill="#c9c8c7"/>
          <rect id="Rectángulo_34307" data-name="Rectángulo 34307" width="4.647" height="224.607" transform="translate(467.601 64.791)" fill="#c9c8c7"/>
          <path id="Trazado_157548" data-name="Trazado 157548" d="M-2083.318,801.435V1017.1h11.618l-7.8-215.666Z" transform="translate(2171.41 -731.204)" fill="#a5a4a0"/>
          <path id="Trazado_157549" data-name="Trazado 157549" d="M-1391.059,801.435V1017.1l11.563-1.517-7.729-213.8Z" transform="translate(1863.307 -731.204)" fill="#a5a4a0"/>
          <rect id="Rectángulo_34308" data-name="Rectángulo 34308" width="373.7" height="37.299" transform="translate(93.901 87.826)" fill="#d8d7d4"/>
          <rect id="Rectángulo_34309" data-name="Rectángulo 34309" width="37.128" height="37.178" transform="translate(126.043)" fill="#d8d7d4"/>
          <path id="Trazado_157550" data-name="Trazado 157550" d="M-1996.409,741.873v4.475l37.522,3.786,1.033,24.786h14.63V741.873Z" transform="translate(2132.73 -704.695)" fill="#a5a4a0"/>
          <rect id="Rectángulo_34310" data-name="Rectángulo 34310" width="13.769" height="37.178" transform="translate(186.236)" fill="#a5a4a0" opacity="0.5"/>
          <rect id="Rectángulo_34311" data-name="Rectángulo 34311" width="379.509" height="42.696" transform="translate(88.092 243.207)" fill="#a5a4a0" opacity="0.5"/>
          <path id="Trazado_157551" data-name="Trazado 157551" d="M-1950.1,1135.546s-7.045-6.55-14.274-22.041c-7.06-15.128-7.164-44.531-7.165-45.9v-.054h-43.389v111.535h64.828v-43.538Z" transform="translate(2140.972 -849.643)" fill="#3187de"/>
          <path id="Trazado_157552" data-name="Trazado 157552" d="M-1935.855,1113.505c-7.06-15.128-7.164-44.531-7.165-45.9v-.054h-7.716v.054c0,1.371.1,30.774,7.165,45.9,7.229,15.491,14.274,22.041,14.274,22.041v43.538h7.717v-43.538S-1928.626,1129-1935.855,1113.505Z" transform="translate(2112.402 -849.643)" fill="#1e65ad"/>
          <path id="Trazado_157553" data-name="Trazado 157553" d="M-1549.258,1135.546s7.045-6.55,14.274-22.041c7.059-15.128,7.164-44.531,7.165-45.9v-.054h43.388v111.535h-64.828v-43.538Z" transform="translate(1933.716 -849.643)" fill="#3187de"/>
          <path id="Trazado_157554" data-name="Trazado 157554" d="M-1373.179,807.048c23.5,19.4,38.937,52.129,38.937,89.236,0,55.4-12.539,74.519-56.817,80.626v42.69c46.44-1.639,85.425-48.276,85.425-107.833C-1305.634,861.111-1334.4,818.621-1373.179,807.048Z" transform="translate(1863.307 -733.702)" fill="#a5a4a0" opacity="0.5"/>
          <rect id="Rectángulo_34312" data-name="Rectángulo 34312" width="7.278" height="111.535" transform="translate(442.008 217.906)" fill="#1e65ad"/>
        </g>
        <g id="Grupo_101922" data-name="Grupo 101922" transform="translate(255.52 116.902)">
          <g id="Grupo_101920" data-name="Grupo 101920">
            <path id="Trazado_157555" data-name="Trazado 157555" d="M-1726.457,914.1a1.372,1.372,0,0,1,0,1.941l-26.2,26.2a1.372,1.372,0,0,1-1.941,0l-26.2-26.2a1.372,1.372,0,0,1,0-1.941l26.2-26.2a1.372,1.372,0,0,1,1.941,0Z" transform="translate(1781.426 -886.408)" fill="#f3c33f"/>
            <g id="Grupo_101919" data-name="Grupo 101919">
              <path id="Trazado_157556" data-name="Trazado 157556" d="M-1725.7,915.25l-26.2,26.2a2.061,2.061,0,0,1-2.911,0l-26.2-26.2a2.061,2.061,0,0,1,0-2.911l26.2-26.2a2.061,2.061,0,0,1,2.911,0l26.2,26.2A2.059,2.059,0,0,1-1725.7,915.25Zm-54.339-1.941a.688.688,0,0,0,0,.971l26.2,26.2a.688.688,0,0,0,.971,0l26.2-26.2a.686.686,0,0,0,0-.971l-26.2-26.2a.687.687,0,0,0-.971,0Z" transform="translate(1781.609 -885.538)" fill="#16313a"/>
            </g>
          </g>
          <g id="Grupo_101921" data-name="Grupo 101921" transform="translate(14.674 8.431)">
            <path id="Trazado_157557" data-name="Trazado 157557" d="M-1729.147,921.071a18.271,18.271,0,0,0-1.8-5.858c-.718-1.671-2.938-2.845-2.891-4.768,0,1.391-.583,4.291-2.384,4.408-.13-2.625.118-5.02-.789-7.441-.641-1.71-1.893-2.483-3.228-3.634-.8-.688-2.632-1.9-2.513-3.047-1.17,2.335-.913,4.573-.317,7.022.483,1.988,1.424,5.265-.809,6.649-.08-1.092.072-2.449-.478-3.419-.6-1.054-1.919-1.319-2.526-2.367.375,1.894-2.831,3.586-3.457,5.343-.726,2.04.345,3.773.149,5.8-.29-2.108-2.019-3.059-3.671-4.151.873,1.036-.574,3.227-.935,4.3a21.147,21.147,0,0,0-.083,7.376c1.747,5.489,7.948,8,7.948,8s-3.031-5.947-1.372-7.719c0,0,3.818,3.851,4.174,5.146.719-.88-.444-4.206-.114-5.432.381-1.418,1.943-3.259,3.528-4.959.418,1.5-.175,3.575-.326,5.131-.172,1.772,1.539,3.879,1.507,4.649,1.646-.968,3.385-3.209,3.291-5.186.995,2.112,3.17,5.063.907,7.239C-1730.245,930.811-1728.812,926.773-1729.147,921.071Z" transform="translate(1755.165 -900.731)" fill="#16313a"/>
          </g>
        </g>
      </g>
      <g id="Grupo_101925" data-name="Grupo 101925" transform="translate(-1813.294 836.758)">
        <path id="Trazado_157558" data-name="Trazado 157558" d="M-1242.263,1022.409l15.02-12.934,18.775,17.523-14.6,18.357Z" transform="translate(1368.314 -985.677)" fill="#ce402c"/>
        <path id="Trazado_157559" data-name="Trazado 157559" d="M-1445.555,1019.606s-7.608-1.171-15.216,5.852c-10.492,9.685-8.486,19.02-8.486,19.02v87.493c0,.878-.878,10.827,7.023,18.142,6.68,6.186,16.679,6.438,16.679,6.438h106.513a23.591,23.591,0,0,0,17.558-7.608c6.729-7.023,6.145-14.631,6.145-14.631v-76.958s2.341-7.608-15.509-22.824c-17.332-14.775-21.946-14.923-21.946-14.923Z" transform="translate(1469.411 -990.154)" fill="#ce402c"/>
        <path id="Trazado_157560" data-name="Trazado 157560" d="M-1441.476,1139.167v-77.3s-1.772-8.248,7.5-16.806c6.723-6.205,13.444-5.171,13.444-5.171h79.624c-10.6-8.343-13.623-8.448-13.623-8.448h-81.958s-6.722-1.034-13.444,5.171c-9.27,8.557-7.5,16.806-7.5,16.806v77.3c0,.776-.776,9.566,6.205,16.03,4.523,4.188,10.765,5.3,13.436,5.587A21.228,21.228,0,0,1-1441.476,1139.167Z" transform="translate(1464.141 -995.424)" fill="#ff6643" opacity="0.6"/>
        <path id="Trazado_157561" data-name="Trazado 157561" d="M-1308.691,1057.412s2.341-7.608-15.509-22.824c-17.332-14.775-21.946-14.923-21.946-14.923h-4.7c3.083,2.176,7.029,5.222,12.046,9.5,17.849,15.216,15.508,22.824,15.508,22.824v76.958s.585,7.608-6.145,14.631a23.589,23.589,0,0,1-17.557,7.608h-106.513s-.35-.01-.963-.064c6.621,5.258,15.565,5.487,15.565,5.487h106.513a23.588,23.588,0,0,0,17.557-7.608c6.73-7.023,6.145-14.631,6.145-14.631Z" transform="translate(1462.761 -990.212)" fill="#a03024"/>
        <g id="Grupo_101924" data-name="Grupo 101924" transform="translate(51.248 72.375)">
          <path id="Trazado_157562" data-name="Trazado 157562" d="M-1339.2,1145.512h-27.221a10.651,10.651,0,0,1-10.639-10.639v-27.221a10.651,10.651,0,0,1,10.639-10.639h27.221a10.651,10.651,0,0,1,10.639,10.639v27.221A10.651,10.651,0,0,1-1339.2,1145.512Zm-27.221-42.24a4.386,4.386,0,0,0-4.381,4.381v27.221a4.385,4.385,0,0,0,4.381,4.38h27.221a4.385,4.385,0,0,0,4.38-4.38v-27.221a4.385,4.385,0,0,0-4.38-4.381Z" transform="translate(1377.06 -1097.013)" fill="#ff6643"/>
        </g>
        <path id="Trazado_157563" data-name="Trazado 157563" d="M-1430.972,995.812s6.675-27.954,12.1-28.788,69.674-.417,72.178.834,12.933,30.874,12.933,30.874l-13.768,1.669s-2.5-23.781-5.841-25.033-55.489-.835-58.827,0-9.178,24.2-9.178,24.2Z" transform="translate(1452.303 -966.591)" fill="#ce402c"/>
        <rect id="Rectángulo_34313" data-name="Rectángulo 34313" width="65.92" height="1.669" transform="translate(35.933 2.52)" fill="#ff6643"/>
        <rect id="Rectángulo_34314" data-name="Rectángulo 34314" width="19.211" height="33.997" transform="translate(134.712 24.92) rotate(-45.274)" fill="#16313a"/>
        <path id="Trazado_157564" data-name="Trazado 157564" d="M-1218.411,1009.6l14.261-12.547,5.044,4.63-12.745,14.415Z" transform="translate(1357.698 -980.149)" fill="#25525e"/>
      </g>
    </g>
    <g id="Grupo_101937" data-name="Grupo 101937" transform="translate(-3586.153 -5062.45)">
      <g id="Grupo_101936" data-name="Grupo 101936" transform="translate(0 0)">
        <g id="Grupo_101935" data-name="Grupo 101935">
          <path id="Trazado_157567" data-name="Trazado 157567" d="M197.218,457.8l-20.26-11.606-2.1,4.291,20.26,11.606Z" transform="translate(-136.86 -296.026)" fill="#1b2735"/>
          <path id="Trazado_157568" data-name="Trazado 157568" d="M175.7,469.957V448.24l18.881,10.816Z" transform="translate(-136.329 -292.993)" fill="#354e66"/>
          <path id="Trazado_157569" data-name="Trazado 157569" d="M195.117,475.142V434.481l-17.09,5.808-3.169,1.952v21.3Z" transform="translate(-134.759 -313.37)" fill="#111821"/>
          <path id="Trazado_157570" data-name="Trazado 157570" d="M210.415,450.1,190.155,438.5l-1.549,48.658,20.26,11.606Z" transform="translate(-184.171 -307.42)" fill="#1b2735"/>
          <path id="Trazado_157571" data-name="Trazado 157571" d="M188.606,437.181l20.26,11.606,3.1,3.268L191.7,440.449Z" transform="translate(-185.72 -309.371)" fill="#111821"/>
          <path id="Trazado_157572" data-name="Trazado 157572" d="M191.019,448.535l20.26,11.606V442.33l-20.26-11.606Z" transform="translate(-191.018 -318.933)" fill="#eb761d"/>
          <path id="Trazado_157573" data-name="Trazado 157573" d="M220.46,431.592,200.2,419.986l-15.381,26.64,20.26,11.606Z" transform="translate(-184.819 -334.835)" fill="#eb9100"/>
          <path id="Trazado_157574" data-name="Trazado 157574" d="M189.526,417.319l20.26,11.606-7.887,6.616-20.26-11.606Z" transform="translate(-166.259 -338.785)" fill="#fec110"/>
          <path id="Trazado_157575" data-name="Trazado 157575" d="M184.189,412.756l-4.27,11.32,20.26,11.606,4.27-11.32Z" transform="translate(-156.651 -345.542)" fill="#eb9100"/>
          <path id="Trazado_157576" data-name="Trazado 157576" d="M185.641,412.675l20.26,11.606-9.586.2-20.26-11.606Z" transform="translate(-148.517 -345.662)" fill="#fec110"/>
          <path id="Trazado_157577" data-name="Trazado 157577" d="M173.034,479.942V462.131l15.381-26.64,7.887-6.616,4.27-11.32,9.586-.2-3.747,10.918.7,3.12-1.743,13.886,12.288,7.9v5.132l-21.612,7.345Z" transform="translate(-152.774 -338.734)" fill="#fea900"/>
          <path id="Trazado_157578" data-name="Trazado 157578" d="M183.314,447.887l3.1,3.268-1.549,44.633v4.025l14.679-8.475v-53.55Z" transform="translate(-160.168 -308.471)" fill="#293644"/>
          <path id="Trazado_157579" data-name="Trazado 157579" d="M173.034,491.215l18.881-10.9,2.1-4.291V435.362l4.346-1.477.176,42.025L194.2,484.9l-2.847,1.644-18.318,10.575Z" transform="translate(-133.659 -314.251)" fill="#293644"/>
          <path id="Trazado_157580" data-name="Trazado 157580" d="M179.363,440l3.893-2.418,3.769-1.281-1.717,34.4,3.858,5.219-3.1,1.792-4.5-3.841-2.2-23.507Z" transform="translate(-139.989 -310.667)" fill="#e85d00"/>
          <g id="Grupo_101934" data-name="Grupo 101934" transform="translate(34.52)">
            <g id="Grupo_101932" data-name="Grupo 101932" transform="translate(0)">
              <g id="Grupo_101928" data-name="Grupo 101928" transform="translate(9.595 30.865)">
                <path id="Trazado_157581" data-name="Trazado 157581" d="M181.959,415l7.235-14.978-5.9-1.864-7.235,14.978Z" transform="translate(-175.934 -398.031)" fill="#fff"/>
                <path id="Trazado_157582" data-name="Trazado 157582" d="M182.032,415.192a.124.124,0,0,0,.112-.07l7.237-14.977a.122.122,0,0,0,0-.1.13.13,0,0,0-.077-.072l-5.9-1.863a.132.132,0,0,0-.149.067l-7.237,14.977a.121.121,0,0,0,0,.1.126.126,0,0,0,.077.07l5.9,1.863Zm7.063-15.027-7.128,14.754-5.661-1.789,7.128-14.752Z" transform="translate(-176.008 -398.105)" fill="#1d1d1b"/>
              </g>
              <g id="Grupo_101929" data-name="Grupo 101929" transform="translate(0 43.287)">
                <path id="Trazado_157583" data-name="Trazado 157583" d="M186.007,430.722l9.937-27.224-8.028-.336-9.937,27.224Z" transform="translate(-177.855 -403.038)" fill="#fff"/>
                <path id="Trazado_157584" data-name="Trazado 157584" d="M186.081,430.918a.121.121,0,0,0,.117-.079l9.936-27.223a.118.118,0,0,0-.012-.112.122.122,0,0,0-.1-.057L188,403.112h0a.123.123,0,0,0-.117.082l-9.939,27.221a.126.126,0,0,0,.015.112.121.121,0,0,0,.1.057l8.028.335Zm9.762-27.231L186,430.668l-7.768-.325,9.847-26.978Z" transform="translate(-177.93 -403.112)" fill="#1d1d1b"/>
              </g>
              <g id="Grupo_101930" data-name="Grupo 101930" transform="translate(23.226)">
                <path id="Trazado_157585" data-name="Trazado 157585" d="M169.82,413.841l19.62-22.788-3.131-5.339L166.689,408.5Z" transform="translate(-166.565 -385.59)" fill="#fff"/>
                <path id="Trazado_157586" data-name="Trazado 157586" d="M169.894,414.039a.119.119,0,0,0,.094-.045l19.619-22.787a.119.119,0,0,0,.012-.141l-3.131-5.339a.154.154,0,0,0-.107-.062.122.122,0,0,0-.094.045L166.669,408.5a.123.123,0,0,0-.012.144l3.131,5.337A.109.109,0,0,0,169.894,414.039Zm19.468-22.927L169.914,413.7l-3-5.111L186.365,386Z" transform="translate(-166.639 -385.664)" fill="#1d1d1b"/>
              </g>
              <g id="Grupo_101931" data-name="Grupo 101931" transform="translate(16.092 12.841)">
                <path id="Trazado_157587" data-name="Trazado 157587" d="M175.907,415.323l14.123-18.265-4.8-6.168-14.123,18.265Z" transform="translate(-170.982 -390.766)" fill="#fff"/>
                <path id="Trazado_157588" data-name="Trazado 157588" d="M175.982,415.52h0a.122.122,0,0,0,.1-.047L190.2,397.206a.119.119,0,0,0,0-.149l-4.8-6.17a.127.127,0,0,0-.1-.047h0a.119.119,0,0,0-.1.047l-14.124,18.267a.119.119,0,0,0,0,.149l4.8,6.17A.127.127,0,0,0,175.982,415.52Zm13.965-18.389-13.965,18.061-4.644-5.964L185.3,391.167Z" transform="translate(-171.057 -390.84)" fill="#1d1d1b"/>
              </g>
            </g>
            <path id="Trazado_157589" data-name="Trazado 157589" d="M183.552,389.3l-6.228-3.59-11.883,13.8,6.228,3.59Z" transform="translate(-134.354 -385.59)" fill="#a1b1b3"/>
            <g id="Grupo_101933" data-name="Grupo 101933" transform="translate(6.352 3.714)">
              <path id="Trazado_157590" data-name="Trazado 157590" d="M179.449,416.443l7.235-14.978-5.9-1.864-7.235,14.978Z" transform="translate(-163.953 -368.738)" fill="#e4edf2"/>
              <path id="Trazado_157591" data-name="Trazado 157591" d="M183.5,432.169l9.937-27.225-8.028-.336-9.937,27.225Z" transform="translate(-175.469 -361.322)" fill="#a1b1b3"/>
              <path id="Trazado_157592" data-name="Trazado 157592" d="M167.31,415.288,186.93,392.5l-3.131-5.339-19.621,22.788Z" transform="translate(-140.954 -387.161)" fill="#e4edf2"/>
              <path id="Trazado_157593" data-name="Trazado 157593" d="M173.4,416.77l14.123-18.265-4.8-6.168L168.6,410.6Z" transform="translate(-152.505 -379.495)" fill="#a1b1b3"/>
            </g>
            <path id="Trazado_157594" data-name="Trazado 157594" d="M190.882,394.48l-6.228-3.59-14.123,18.265,6.228,3.59Z" transform="translate(-154.315 -377.925)" fill="#636d6e"/>
            <path id="Trazado_157595" data-name="Trazado 157595" d="M176.07,410.469l6.228,3.59,5.664-11.725-.383-.492-6.228-3.59.326.611Z" transform="translate(-165.134 -367.022)" fill="#a1b1b3"/>
            <path id="Trazado_157596" data-name="Trazado 157596" d="M188.289,403.162l.874.036,6.228,3.59-.875-.037-9.937,27.225-6.228-3.59Z" transform="translate(-178.228 -359.751)" fill="#636d6e"/>
          </g>
        </g>
        <path id="Trazado_157597" data-name="Trazado 157597" d="M193.252,464.378l1.546-.893v27.454a3.095,3.095,0,1,1-6.19,0V461.716Z" transform="translate(-168.558 -273.035)" fill="#111821"/>
      </g>
      <path id="Trazado_157598" data-name="Trazado 157598" d="M187.314,469.323l-6.7-3.868V441.975l2.2,23.507Z" transform="translate(-141.24 -302.27)" fill="#942911"/>
    </g>
  </g>
</svg>
