<svg xmlns="http://www.w3.org/2000/svg" xmlns:xlink="http://www.w3.org/1999/xlink" width="820" height="393" viewBox="0 0 820 393">
  <defs>
    <clipPath id="clip-path">
      <rect id="Rectángulo_5395" data-name="Rectángulo 5395" width="46.204" height="46.204" transform="translate(32.671 0) rotate(45)" fill="none"/>
    </clipPath>
  </defs>
  <g id="Grupo_101983" data-name="Grupo 101983" transform="translate(3699 4690)">
    <g id="Grupo_87290" data-name="Grupo 87290" transform="translate(-3699 -4690)" opacity="0.25">
      <rect id="Rectángulo_32436" data-name="Rectángulo 32436" width="820" height="393" transform="translate(0 0)" fill="#36a3f7"/>
    </g>
    <g id="Grupo_101978" data-name="Grupo 101978" transform="translate(-3.867 -6.743)">
      <g id="Grupo_101948" data-name="Grupo 101948" transform="translate(-3440.877 -4665.038)">
        <g id="Grupo_101946" data-name="Grupo 101946">
          <g id="Grupo_101939" data-name="Grupo 101939" transform="translate(3.89 177.841)">
            <ellipse id="Elipse_4991" data-name="Elipse 4991" cx="73.096" cy="42.203" rx="73.096" ry="42.203" fill="#354e66"/>
            <g id="Grupo_101938" data-name="Grupo 101938" transform="translate(0.005 42.254)">
              <path id="Trazado_157599" data-name="Trazado 157599" d="M212.154,159.341c-28.546,16.483-74.827,16.483-103.373,0-14.229-8.217-21.362-18.977-21.4-29.746v3.119c-.046,10.833,7.087,21.675,21.4,29.941,28.546,16.483,74.827,16.483,103.373,0,14.275-8.238,21.41-19.041,21.41-29.841l0-3.265C233.54,140.333,226.4,151.112,212.154,159.341Z" transform="translate(-87.377 -129.549)" fill="#293644"/>
            </g>
          </g>
          <path id="Trazado_157600" data-name="Trazado 157600" d="M213.588,126.444c-30.063,17.357-78.81,17.357-108.873,0-7.27-4.2-12.761-9.027-16.516-14.177v48.388c-1.4,11.464,5.461,23.2,20.64,31.966,27.788,16.041,72.838,16.041,100.626,0,13.675-7.9,20.6-18.206,20.82-28.552h0v-.015c.006-.32.006-.643,0-.965V112.029C226.526,117.27,220.968,122.183,213.588,126.444Z" transform="translate(-82.166 54.707)" fill="#1b2735"/>
          <g id="Grupo_101941" data-name="Grupo 101941" transform="translate(3.89 118.744)">
            <ellipse id="Elipse_4992" data-name="Elipse 4992" cx="73.096" cy="42.203" rx="73.096" ry="42.203" fill="#354e66"/>
            <g id="Grupo_101940" data-name="Grupo 101940" transform="translate(0.005 42.254)">
              <path id="Trazado_157601" data-name="Trazado 157601" d="M212.154,139.937c-28.546,16.48-74.827,16.48-103.373,0-14.229-8.217-21.362-18.977-21.4-29.746v3.119c-.046,10.833,7.087,21.675,21.4,29.941,28.546,16.483,74.827,16.483,103.373,0,14.275-8.238,21.41-19.041,21.41-29.841l0-3.265C233.54,120.929,226.4,131.708,212.154,139.937Z" transform="translate(-87.377 -110.145)" fill="#293644"/>
            </g>
          </g>
          <path id="Trazado_157602" data-name="Trazado 157602" d="M213.588,107.046c-30.063,17.357-78.81,17.357-108.873,0-7.27-4.2-12.761-9.027-16.516-14.177v48.388c-1.4,11.464,5.461,23.2,20.64,31.966,27.788,16.041,72.838,16.041,100.626,0,13.675-7.9,20.6-18.206,20.82-28.552h0v-.015c.006-.32.006-.643,0-.965V92.631C226.526,97.872,220.968,102.785,213.588,107.046Z" transform="translate(-82.166 15.027)" fill="#1b2735"/>
          <g id="Grupo_101943" data-name="Grupo 101943" transform="translate(3.89 53.448)">
            <ellipse id="Elipse_4993" data-name="Elipse 4993" cx="73.096" cy="42.203" rx="73.096" ry="42.203" fill="#354e66"/>
            <g id="Grupo_101942" data-name="Grupo 101942" transform="translate(0.005 42.257)">
              <path id="Trazado_157603" data-name="Trazado 157603" d="M212.154,118.495c-28.546,16.483-74.827,16.483-103.373,0-14.229-8.217-21.362-18.977-21.4-29.743v3.116c-.046,10.833,7.087,21.675,21.4,29.941,28.546,16.483,74.827,16.483,103.373,0,14.275-8.238,21.41-19.041,21.41-29.841l0-3.262C233.54,99.487,226.4,110.269,212.154,118.495Z" transform="translate(-87.377 -88.706)" fill="#293644"/>
            </g>
          </g>
          <g id="Grupo_101944" data-name="Grupo 101944">
            <ellipse id="Elipse_4994" data-name="Elipse 4994" cx="76.986" cy="44.449" rx="76.986" ry="44.449" fill="#354e66"/>
            <ellipse id="Elipse_4995" data-name="Elipse 4995" cx="71.152" cy="41.08" rx="71.152" ry="41.08" transform="translate(5.835 3.369)" fill="#293644"/>
            <path id="Trazado_157604" data-name="Trazado 157604" d="M108.839,76.256c27.788-16.044,72.838-16.044,100.626,0,12.606,7.279,19.473,16.608,20.64,26.131,1.4-11.464-5.461-23.2-20.64-31.966-27.788-16.044-72.838-16.044-100.626,0C93.66,79.183,86.8,90.924,88.2,102.387,89.366,92.864,96.233,83.535,108.839,76.256Z" transform="translate(-82.166 -55.019)" fill="#1b2735"/>
            <path id="Trazado_157605" data-name="Trazado 157605" d="M217.519,103.24c-30.063,17.357-78.81,17.357-108.873,0C93.658,94.584,86.145,83.252,86.1,71.91v6.356c-.046,11.412,7.468,22.83,22.546,31.537,30.063,17.36,78.81,17.36,108.873,0,15.033-8.68,22.549-20.055,22.549-31.43l0-6.46C240.019,83.255,232.506,94.587,217.519,103.24Z" transform="translate(-86.096 -27.359)" fill="#293644"/>
          </g>
          <g id="Grupo_101945" data-name="Grupo 101945" transform="translate(5.854 68.029)">
            <path id="Trazado_157606" data-name="Trazado 157606" d="M213.588,94.034c-30.063,17.36-78.81,17.36-108.873,0-7.27-4.2-12.764-9.027-16.516-14.18v22.379c-1.4,11.464,5.461,23.2,20.64,31.963,27.788,16.044,72.838,16.044,100.626,0,13.675-7.894,20.6-18.2,20.82-28.552h0v-.012c.006-.32.006-.643,0-.965V79.619C226.526,84.86,220.968,89.773,213.588,94.034Z" transform="translate(-88.02 -79.619)" fill="#1b2735"/>
          </g>
        </g>
        <path id="Trazado_157610" data-name="Trazado 157610" d="M151.172,264.79c14.272-8.238,21.407-19.041,21.407-29.841v-3.265l0,.061a25.569,25.569,0,0,0-1.961-9.828V185.568a25.594,25.594,0,0,0,1.964-9.715v-3.265l0,.064a25.585,25.585,0,0,0-1.961-9.831v-42.55a25.594,25.594,0,0,0,1.964-9.715v-3.262c0,.171-.018.341-.024.515a25.483,25.483,0,0,0-1.94-10.239V79.619a44.262,44.262,0,0,1-6.974,7.562c-.152.131-.317.259-.469.39-.551.466-1.106.932-1.69,1.392-.335.259-.691.512-1.035.771-.436.323-.856.652-1.307.968-.5.353-1.029.7-1.553,1.045-.326.216-.634.436-.969.649q-1.307.836-2.7,1.638c-2,1.154-4.093,2.22-6.246,3.219-3.512,54.318-11.82,120.139-30.486,178.6C129.636,274.064,141.441,270.409,151.172,264.79Z" transform="translate(-22.499 -11.59)" fill="#d4d4d4" style="mix-blend-mode: multiply;isolation: isolate"/>
      </g>
      <g id="Grupo_101959" data-name="Grupo 101959" transform="translate(-3560.489 -4611.893)">
        <g id="Grupo_101957" data-name="Grupo 101957">
          <g id="Grupo_101950" data-name="Grupo 101950" transform="translate(3.89 177.841)">
            <ellipse id="Elipse_4996" data-name="Elipse 4996" cx="73.096" cy="42.203" rx="73.096" ry="42.203" fill="#354e66"/>
            <g id="Grupo_101949" data-name="Grupo 101949" transform="translate(0.005 42.255)">
              <path id="Trazado_157611" data-name="Trazado 157611" d="M172.88,176.791c-28.546,16.48-74.827,16.48-103.373,0-14.229-8.217-21.362-18.977-21.4-29.746v3.116C48.057,161,55.19,171.839,69.507,180.1c28.546,16.483,74.827,16.483,103.373,0,14.275-8.241,21.41-19.041,21.41-29.844l0-3.262C194.266,157.783,187.131,168.562,172.88,176.791Z" transform="translate(-48.103 -146.999)" fill="#293644"/>
            </g>
          </g>
          <path id="Trazado_157612" data-name="Trazado 157612" d="M174.314,143.893c-30.063,17.36-78.807,17.36-108.873,0-7.267-4.194-12.761-9.024-16.516-14.177v48.391c-1.4,11.464,5.461,23.2,20.643,31.963,27.785,16.044,72.835,16.044,100.623,0,13.675-7.894,20.6-18.2,20.82-28.552h0v-.012c.006-.323.006-.643,0-.965V129.478C187.252,134.719,181.7,139.632,174.314,143.893Z" transform="translate(-42.892 37.256)" fill="#1b2735"/>
          <g id="Grupo_101952" data-name="Grupo 101952" transform="translate(3.89 118.744)">
            <ellipse id="Elipse_4997" data-name="Elipse 4997" cx="73.097" cy="42.203" rx="73.097" ry="42.203" fill="#354e66"/>
            <g id="Grupo_101951" data-name="Grupo 101951" transform="translate(0.005 42.255)">
              <path id="Trazado_157613" data-name="Trazado 157613" d="M172.88,157.387c-28.546,16.48-74.827,16.48-103.373,0-14.229-8.217-21.362-18.977-21.4-29.746v3.116c-.046,10.836,7.087,21.678,21.4,29.944,28.546,16.483,74.827,16.483,103.373,0,14.275-8.241,21.41-19.041,21.41-29.84l0-3.265C194.266,138.379,187.131,149.158,172.88,157.387Z" transform="translate(-48.103 -127.595)" fill="#293644"/>
            </g>
          </g>
          <path id="Trazado_157614" data-name="Trazado 157614" d="M174.314,124.5c-30.063,17.357-78.807,17.357-108.873,0-7.267-4.2-12.761-9.027-16.516-14.18v48.391c-1.4,11.464,5.461,23.2,20.643,31.963,27.785,16.044,72.835,16.044,100.623,0,13.675-7.894,20.6-18.2,20.82-28.552h0v-.012c.006-.323.006-.643,0-.965V110.08C187.252,115.321,181.7,120.234,174.314,124.5Z" transform="translate(-42.892 -2.424)" fill="#1b2735"/>
          <g id="Grupo_101954" data-name="Grupo 101954" transform="translate(3.89 53.448)">
            <ellipse id="Elipse_4998" data-name="Elipse 4998" cx="73.097" cy="42.203" rx="73.097" ry="42.203" fill="#354e66"/>
            <g id="Grupo_101953" data-name="Grupo 101953" transform="translate(0.005 42.255)">
              <path id="Trazado_157615" data-name="Trazado 157615" d="M172.88,135.947c-28.546,16.48-74.827,16.48-103.373,0C55.279,127.73,48.146,116.97,48.1,106.2v3.119c-.046,10.833,7.087,21.675,21.4,29.941,28.546,16.483,74.827,16.483,103.373,0,14.275-8.241,21.41-19.041,21.41-29.841l0-3.265C194.266,116.939,187.131,127.718,172.88,135.947Z" transform="translate(-48.103 -106.155)" fill="#293644"/>
            </g>
          </g>
          <g id="Grupo_101955" data-name="Grupo 101955">
            <ellipse id="Elipse_4999" data-name="Elipse 4999" cx="76.986" cy="44.449" rx="76.986" ry="44.449" fill="#354e66"/>
            <ellipse id="Elipse_5000" data-name="Elipse 5000" cx="71.151" cy="41.08" rx="71.151" ry="41.08" transform="translate(5.835 3.369)" fill="#293644"/>
            <path id="Trazado_157616" data-name="Trazado 157616" d="M69.568,93.7c27.785-16.041,72.835-16.041,100.623,0,12.606,7.279,19.473,16.611,20.64,26.131,1.4-11.464-5.461-23.2-20.64-31.966-27.788-16.041-72.838-16.041-100.623,0-15.182,8.765-22.047,20.5-20.643,31.966C50.092,110.314,56.959,100.983,69.568,93.7Z" transform="translate(-42.892 -72.469)" fill="#1b2735"/>
            <path id="Trazado_157617" data-name="Trazado 157617" d="M178.245,120.689c-30.063,17.36-78.807,17.36-108.873,0-14.987-8.652-22.5-19.988-22.546-31.33v6.359c-.046,11.412,7.468,22.83,22.546,31.537,30.066,17.357,78.81,17.357,108.873,0,15.033-8.68,22.549-20.055,22.549-31.43l0-6.46C200.745,100.7,193.232,112.036,178.245,120.689Z" transform="translate(-46.822 -44.81)" fill="#293644"/>
          </g>
          <g id="Grupo_101956" data-name="Grupo 101956" transform="translate(5.855 68.03)">
            <path id="Trazado_157618" data-name="Trazado 157618" d="M174.314,111.484c-30.063,17.357-78.807,17.357-108.873,0-7.27-4.2-12.764-9.03-16.516-14.183v22.379c-1.4,11.464,5.461,23.2,20.643,31.966,27.785,16.044,72.835,16.044,100.623,0,13.675-7.894,20.6-18.2,20.82-28.552h0v-.012c.006-.323.006-.643,0-.965V97.069C187.252,102.31,181.7,107.223,174.314,111.484Z" transform="translate(-48.746 -97.069)" fill="#1b2735"/>
          </g>
        </g>
        <path id="Trazado_157622" data-name="Trazado 157622" d="M111.9,282.24C126.169,274,133.3,263.2,133.3,252.4v-3.262l0,.061a25.558,25.558,0,0,0-1.961-9.828V203.015A25.579,25.579,0,0,0,133.3,193.3v-3.265l0,.061a25.569,25.569,0,0,0-1.961-9.828v-42.55a25.594,25.594,0,0,0,1.964-9.715v-3.265c0,.174-.018.344-.024.515a25.5,25.5,0,0,0-1.94-10.239V97.069a44.138,44.138,0,0,1-6.974,7.562c-.149.131-.317.259-.472.39-.548.466-1.1.932-1.687,1.389-.335.262-.691.515-1.036.774-.436.323-.856.652-1.307.968-.5.353-1.029.7-1.553,1.045-.323.216-.633.436-.968.649q-1.307.836-2.7,1.639c-2,1.154-4.093,2.22-6.246,3.219-3.512,54.318-11.82,120.139-30.486,178.6C90.362,291.514,102.167,287.859,111.9,282.24Z" transform="translate(16.775 -29.039)" fill="#d4d4d4" style="mix-blend-mode: multiply;isolation: isolate"/>
      </g>
      <g id="Grupo_101972" data-name="Grupo 101972" transform="translate(-3518.131 -4599.696)">
        <rect id="Rectángulo_5555" data-name="Rectángulo 5555" width="46.226" height="46.226" transform="translate(33.056 0) rotate(45)" fill="#fff" stroke="#000" stroke-width="1" stroke-dasharray="5"/>
        <g id="Grupo_54186" data-name="Grupo 54186" transform="translate(0 0.395)">
          <g id="Grupo_54185" data-name="Grupo 54185" transform="translate(0 0)" clip-path="url(#clip-path)">
            <g id="Grupo_54184" data-name="Grupo 54184" transform="translate(-1.1 -2.622)">
              <g id="Grupo_54168" data-name="Grupo 54168" transform="translate(0 0)">
                <rect id="Rectángulo_5379" data-name="Rectángulo 5379" width="88.043" height="1.819" transform="translate(0 88.042) rotate(-89.754)" fill="#c61f20"/>
              </g>
              <g id="Grupo_54169" data-name="Grupo 54169" transform="translate(5.908 0.182)">
                <rect id="Rectángulo_5380" data-name="Rectángulo 5380" width="88.043" height="1.819" transform="translate(0 88.042) rotate(-89.754)" fill="#c61f20"/>
              </g>
              <g id="Grupo_54170" data-name="Grupo 54170" transform="translate(11.816 0)">
                <rect id="Rectángulo_5381" data-name="Rectángulo 5381" width="88.043" height="1.819" transform="translate(0 88.042) rotate(-89.754)" fill="#c61f20"/>
              </g>
              <g id="Grupo_54171" data-name="Grupo 54171" transform="translate(17.723 0.182)">
                <rect id="Rectángulo_5382" data-name="Rectángulo 5382" width="88.043" height="1.819" transform="translate(0 88.042) rotate(-89.754)" fill="#c61f20"/>
              </g>
              <g id="Grupo_54172" data-name="Grupo 54172" transform="translate(23.631 0)">
                <rect id="Rectángulo_5383" data-name="Rectángulo 5383" width="88.043" height="1.819" transform="translate(0 88.042) rotate(-89.754)" fill="#c61f20"/>
              </g>
              <g id="Grupo_54173" data-name="Grupo 54173" transform="translate(29.539 0.182)">
                <rect id="Rectángulo_5384" data-name="Rectángulo 5384" width="88.043" height="1.819" transform="translate(0 88.042) rotate(-89.754)" fill="#c61f20"/>
              </g>
              <g id="Grupo_54174" data-name="Grupo 54174" transform="translate(35.447 0)">
                <rect id="Rectángulo_5385" data-name="Rectángulo 5385" width="88.043" height="1.819" transform="translate(0 88.042) rotate(-89.754)" fill="#c61f20"/>
              </g>
              <g id="Grupo_54175" data-name="Grupo 54175" transform="translate(41.354 0.182)">
                <rect id="Rectángulo_5386" data-name="Rectángulo 5386" width="88.043" height="1.819" transform="translate(0 88.042) rotate(-89.754)" fill="#c61f20"/>
              </g>
              <g id="Grupo_54176" data-name="Grupo 54176" transform="translate(48.001 0)">
                <rect id="Rectángulo_5387" data-name="Rectángulo 5387" width="88.043" height="1.819" transform="translate(0 88.042) rotate(-89.754)" fill="#c61f20"/>
              </g>
              <g id="Grupo_54177" data-name="Grupo 54177" transform="translate(53.908 0.182)">
                <rect id="Rectángulo_5388" data-name="Rectángulo 5388" width="88.043" height="1.819" transform="translate(0 88.042) rotate(-89.754)" fill="#c61f20"/>
              </g>
              <g id="Grupo_54178" data-name="Grupo 54178" transform="translate(59.816 0)">
                <rect id="Rectángulo_5389" data-name="Rectángulo 5389" width="88.043" height="1.819" transform="translate(0 88.042) rotate(-89.754)" fill="#c61f20"/>
              </g>
              <g id="Grupo_54923" data-name="Grupo 54923" transform="translate(64.247 0)">
                <rect id="Rectángulo_5389-2" data-name="Rectángulo 5389" width="88.043" height="1.819" transform="translate(0 88.042) rotate(-89.754)" fill="#c61f20"/>
              </g>
            </g>
          </g>
        </g>
        <g id="Grupo_54167" data-name="Grupo 54167" transform="translate(28.83 6.824)">
          <g id="Grupo_54163" data-name="Grupo 54163" transform="translate(0.677)">
            <g id="Grupo_54162" data-name="Grupo 54162">
              <g id="Grupo_54161" data-name="Grupo 54161">
                <path id="Trazado_101518" data-name="Trazado 101518" d="M2297.457,548.482c.43.645.375,1.029-.442,2.595a1.187,1.187,0,0,0,1.115-1.145,20.2,20.2,0,0,0-.138-2.866,3.117,3.117,0,0,1,.32-2.02,5.423,5.423,0,0,1,.619-.677c-.5,1.867-.255,2.715.923,3.44-.077-.487-.428-.954.031-1.487a1.456,1.456,0,0,0,.739,1.281,6.152,6.152,0,0,1,2.568,3.943,3.818,3.818,0,0,1-1.488,3.984,5.418,5.418,0,0,1-1.414.76c.155-.18.32-.352.462-.542a1.817,1.817,0,0,0,.065-2.237,10.656,10.656,0,0,1-.557-1.186c.027.3.054.563.075.826a1.7,1.7,0,0,1,.026.739,2.923,2.923,0,0,1-.583.674c-.191-.181-.509-.341-.542-.548a2.394,2.394,0,0,1,.149-1.013c.177-.609.441-1.2.582-1.811.089-.387-.139-.715-.624-.982.321.584.026.862-.308,1.171a2.5,2.5,0,0,0-1.026,2.3l-.164.032-.305-.945a1.5,1.5,0,0,0,.1,1.869,1.441,1.441,0,0,1,.327,1.719,4.372,4.372,0,0,1-3.111-2.876,3.877,3.877,0,0,1,1.542-3.763A7.848,7.848,0,0,0,2297.457,548.482Z" transform="translate(-2294.779 -544.369)"/>
              </g>
            </g>
          </g>
          <g id="Grupo_54166" data-name="Grupo 54166" transform="translate(0 12.496)">
            <g id="Grupo_54164" data-name="Grupo 54164" transform="translate(0.415 0.415)">
              <line id="Línea_169" data-name="Línea 169" x2="9.022"/>
            </g>
            <g id="Grupo_54165" data-name="Grupo 54165">
              <path id="Trazado_101519" data-name="Trazado 101519" d="M2302.355,579.548h-9.022a.415.415,0,1,1,0-.831h9.022a.415.415,0,0,1,0,.831Z" transform="translate(-2292.918 -578.717)"/>
            </g>
          </g>
        </g>
        <rect id="Rectángulo_5554" data-name="Rectángulo 5554" width="42.528" height="42.528" transform="translate(33.756 2.615) rotate(45)" fill="none" stroke="#000" stroke-width="1"/>
        <text id="_4" data-name="4" transform="translate(31.754 55.681)" font-size="4" font-family="Arial-BoldMT, Arial" font-weight="700"><tspan x="0" y="0">4</tspan></text>
      </g>
      <g id="Grupo_101973" data-name="Grupo 101973" transform="translate(-3394.369 -4653.083)">
        <rect id="Rectángulo_5555-2" data-name="Rectángulo 5555" width="46.226" height="46.226" transform="translate(33.056 0) rotate(45)" fill="#fff" stroke="#000" stroke-width="1" stroke-dasharray="5"/>
        <g id="Grupo_54186-2" data-name="Grupo 54186" transform="translate(0 0.395)">
          <g id="Grupo_54185-2" data-name="Grupo 54185" transform="translate(0 0)" clip-path="url(#clip-path)">
            <g id="Grupo_54184-2" data-name="Grupo 54184" transform="translate(-1.1 -2.622)">
              <g id="Grupo_54168-2" data-name="Grupo 54168" transform="translate(0 0)">
                <rect id="Rectángulo_5379-2" data-name="Rectángulo 5379" width="88.043" height="1.819" transform="translate(0 88.042) rotate(-89.754)" fill="#c61f20"/>
              </g>
              <g id="Grupo_54169-2" data-name="Grupo 54169" transform="translate(5.908 0.182)">
                <rect id="Rectángulo_5380-2" data-name="Rectángulo 5380" width="88.043" height="1.819" transform="translate(0 88.042) rotate(-89.754)" fill="#c61f20"/>
              </g>
              <g id="Grupo_54170-2" data-name="Grupo 54170" transform="translate(11.816 0)">
                <rect id="Rectángulo_5381-2" data-name="Rectángulo 5381" width="88.043" height="1.819" transform="translate(0 88.042) rotate(-89.754)" fill="#c61f20"/>
              </g>
              <g id="Grupo_54171-2" data-name="Grupo 54171" transform="translate(17.723 0.182)">
                <rect id="Rectángulo_5382-2" data-name="Rectángulo 5382" width="88.043" height="1.819" transform="translate(0 88.042) rotate(-89.754)" fill="#c61f20"/>
              </g>
              <g id="Grupo_54172-2" data-name="Grupo 54172" transform="translate(23.631 0)">
                <rect id="Rectángulo_5383-2" data-name="Rectángulo 5383" width="88.043" height="1.819" transform="translate(0 88.042) rotate(-89.754)" fill="#c61f20"/>
              </g>
              <g id="Grupo_54173-2" data-name="Grupo 54173" transform="translate(29.539 0.182)">
                <rect id="Rectángulo_5384-2" data-name="Rectángulo 5384" width="88.043" height="1.819" transform="translate(0 88.042) rotate(-89.754)" fill="#c61f20"/>
              </g>
              <g id="Grupo_54174-2" data-name="Grupo 54174" transform="translate(35.447 0)">
                <rect id="Rectángulo_5385-2" data-name="Rectángulo 5385" width="88.043" height="1.819" transform="translate(0 88.042) rotate(-89.754)" fill="#c61f20"/>
              </g>
              <g id="Grupo_54175-2" data-name="Grupo 54175" transform="translate(41.354 0.182)">
                <rect id="Rectángulo_5386-2" data-name="Rectángulo 5386" width="88.043" height="1.819" transform="translate(0 88.042) rotate(-89.754)" fill="#c61f20"/>
              </g>
              <g id="Grupo_54176-2" data-name="Grupo 54176" transform="translate(48.001 0)">
                <rect id="Rectángulo_5387-2" data-name="Rectángulo 5387" width="88.043" height="1.819" transform="translate(0 88.042) rotate(-89.754)" fill="#c61f20"/>
              </g>
              <g id="Grupo_54177-2" data-name="Grupo 54177" transform="translate(53.908 0.182)">
                <rect id="Rectángulo_5388-2" data-name="Rectángulo 5388" width="88.043" height="1.819" transform="translate(0 88.042) rotate(-89.754)" fill="#c61f20"/>
              </g>
              <g id="Grupo_54178-2" data-name="Grupo 54178" transform="translate(59.816 0)">
                <rect id="Rectángulo_5389-3" data-name="Rectángulo 5389" width="88.043" height="1.819" transform="translate(0 88.042) rotate(-89.754)" fill="#c61f20"/>
              </g>
              <g id="Grupo_54923-2" data-name="Grupo 54923" transform="translate(64.247 0)">
                <rect id="Rectángulo_5389-4" data-name="Rectángulo 5389" width="88.043" height="1.819" transform="translate(0 88.042) rotate(-89.754)" fill="#c61f20"/>
              </g>
            </g>
          </g>
        </g>
        <g id="Grupo_54167-2" data-name="Grupo 54167" transform="translate(28.83 6.824)">
          <g id="Grupo_54163-2" data-name="Grupo 54163" transform="translate(0.677)">
            <g id="Grupo_54162-2" data-name="Grupo 54162">
              <g id="Grupo_54161-2" data-name="Grupo 54161">
                <path id="Trazado_101518-2" data-name="Trazado 101518" d="M2297.457,548.482c.43.645.375,1.029-.442,2.595a1.187,1.187,0,0,0,1.115-1.145,20.2,20.2,0,0,0-.138-2.866,3.117,3.117,0,0,1,.32-2.02,5.423,5.423,0,0,1,.619-.677c-.5,1.867-.255,2.715.923,3.44-.077-.487-.428-.954.031-1.487a1.456,1.456,0,0,0,.739,1.281,6.152,6.152,0,0,1,2.568,3.943,3.818,3.818,0,0,1-1.488,3.984,5.418,5.418,0,0,1-1.414.76c.155-.18.32-.352.462-.542a1.817,1.817,0,0,0,.065-2.237,10.656,10.656,0,0,1-.557-1.186c.027.3.054.563.075.826a1.7,1.7,0,0,1,.026.739,2.923,2.923,0,0,1-.583.674c-.191-.181-.509-.341-.542-.548a2.394,2.394,0,0,1,.149-1.013c.177-.609.441-1.2.582-1.811.089-.387-.139-.715-.624-.982.321.584.026.862-.308,1.171a2.5,2.5,0,0,0-1.026,2.3l-.164.032-.305-.945a1.5,1.5,0,0,0,.1,1.869,1.441,1.441,0,0,1,.327,1.719,4.372,4.372,0,0,1-3.111-2.876,3.877,3.877,0,0,1,1.542-3.763A7.848,7.848,0,0,0,2297.457,548.482Z" transform="translate(-2294.779 -544.369)"/>
              </g>
            </g>
          </g>
          <g id="Grupo_54166-2" data-name="Grupo 54166" transform="translate(0 12.496)">
            <g id="Grupo_54164-2" data-name="Grupo 54164" transform="translate(0.415 0.415)">
              <line id="Línea_169-2" data-name="Línea 169" x2="9.022"/>
            </g>
            <g id="Grupo_54165-2" data-name="Grupo 54165">
              <path id="Trazado_101519-2" data-name="Trazado 101519" d="M2302.355,579.548h-9.022a.415.415,0,1,1,0-.831h9.022a.415.415,0,0,1,0,.831Z" transform="translate(-2292.918 -578.717)"/>
            </g>
          </g>
        </g>
        <rect id="Rectángulo_5554-2" data-name="Rectángulo 5554" width="42.528" height="42.528" transform="translate(33.756 2.615) rotate(45)" fill="none" stroke="#000" stroke-width="1"/>
        <text id="_4-2" data-name="4" transform="translate(31.754 55.681)" font-size="4" font-family="Arial-BoldMT, Arial" font-weight="700"><tspan x="0" y="0">4</tspan></text>
      </g>
      <g id="Grupo_101976" data-name="Grupo 101976" transform="translate(-3249.943 -4563.927)">
        <g id="Grupo_101970" data-name="Grupo 101970" transform="translate(0 0)">
          <g id="Grupo_101968" data-name="Grupo 101968" transform="translate(0 0)">
            <g id="Grupo_101961" data-name="Grupo 101961" transform="translate(156.601)">
              <ellipse id="Elipse_5001" data-name="Elipse 5001" cx="42.203" cy="73.096" rx="42.203" ry="73.096" transform="translate(0 41.651) rotate(-29.568)" fill="#1b2735"/>
              <g id="Grupo_101960" data-name="Grupo 101960" transform="translate(36.755 15.852)">
                <path id="Trazado_157623" data-name="Trazado 157623" d="M167.944,127.4c28.421,16.7,51.257,56.949,51.01,89.911-.125,16.431-5.966,27.943-15.31,33.294l2.711-1.538c9.444-5.305,15.356-16.86,15.481-33.392.25-32.962-22.589-73.216-51.01-89.911-14.211-8.348-27.124-9.225-36.519-3.9l-2.835,1.611C140.859,118.174,153.754,119.06,167.944,127.4Z" transform="translate(-131.47 -118.527)" fill="#354e66"/>
              </g>
            </g>
            <path id="Trazado_157624" data-name="Trazado 157624" d="M137.325,156.036c29.935,17.585,53.986,59.983,53.724,94.7-.064,8.394-1.553,15.554-4.182,21.362l42.087-23.877c10.666-4.434,17.488-16.2,17.619-33.727.244-32.085-21.989-71.269-49.652-87.521-13.617-8-26-8.936-35.109-4.017h0l-.009.006q-.425.228-.841.475l-44.414,25.2C122.962,149.311,129.979,151.72,137.325,156.036Z" transform="translate(31.361 -99.79)" fill="#293644"/>
            <g id="Grupo_101963" data-name="Grupo 101963" transform="translate(105.2 29.161)">
              <ellipse id="Elipse_5002" data-name="Elipse 5002" cx="42.203" cy="73.096" rx="42.203" ry="73.096" transform="translate(0 41.651) rotate(-29.568)" fill="#1b2735"/>
              <g id="Grupo_101962" data-name="Grupo 101962" transform="translate(36.752 15.852)">
                <path id="Trazado_157625" data-name="Trazado 157625" d="M151.069,136.971c28.418,16.7,51.257,56.949,51.01,89.911-.125,16.431-5.966,27.946-15.31,33.294l2.711-1.538c9.444-5.305,15.356-16.86,15.481-33.392.25-32.962-22.589-73.216-51.01-89.911-14.211-8.348-27.124-9.225-36.52-3.9l-2.838,1.611C123.985,127.749,136.88,128.635,151.069,136.971Z" transform="translate(-114.592 -128.102)" fill="#354e66"/>
              </g>
            </g>
            <path id="Trazado_157626" data-name="Trazado 157626" d="M120.451,165.608c29.935,17.585,53.989,59.983,53.724,94.7-.061,8.394-1.553,15.554-4.179,21.362l42.087-23.877c10.663-4.434,17.485-16.2,17.616-33.727.244-32.085-21.986-71.269-49.652-87.521-13.614-8-26-8.936-35.109-4.017v0l-.009.009q-.425.228-.841.475L99.677,158.2C106.088,158.883,113.1,161.292,120.451,165.608Z" transform="translate(-3.149 -80.209)" fill="#293644"/>
            <g id="Grupo_101965" data-name="Grupo 101965" transform="translate(48.407 61.382)">
              <ellipse id="Elipse_5003" data-name="Elipse 5003" cx="42.203" cy="73.096" rx="42.203" ry="73.096" transform="translate(0 41.651) rotate(-29.568)" fill="#1b2735"/>
              <g id="Grupo_101964" data-name="Grupo 101964" transform="translate(36.755 15.851)">
                <path id="Trazado_157627" data-name="Trazado 157627" d="M132.419,147.55c28.421,16.7,51.26,56.952,51.01,89.911-.125,16.434-5.963,27.946-15.31,33.3l2.711-1.538c9.447-5.308,15.356-16.86,15.484-33.395.247-32.959-22.589-73.216-51.01-89.911-14.211-8.348-27.127-9.225-36.523-3.9l-2.835,1.611C105.335,138.331,118.229,139.217,132.419,147.55Z" transform="translate(-95.945 -138.681)" fill="#354e66"/>
              </g>
            </g>
            <g id="Grupo_101966" data-name="Grupo 101966" transform="translate(0 82.156)">
              <ellipse id="Elipse_5004" data-name="Elipse 5004" cx="44.449" cy="76.986" rx="44.449" ry="76.986" transform="matrix(0.87, -0.493, 0.493, 0.87, 0, 43.867)" fill="#293644"/>
              <ellipse id="Elipse_5005" data-name="Elipse 5005" cx="41.08" cy="71.151" rx="41.08" ry="71.151" transform="translate(5.81 47.28) rotate(-29.568)" fill="#1b2735"/>
              <path id="Trazado_157628" data-name="Trazado 157628" d="M131.43,267.116c-27.663-16.251-49.893-55.436-49.652-87.521.11-14.555,4.839-25.132,12.545-30.846-10.666,4.434-17.488,16.2-17.619,33.727-.244,32.082,21.986,71.266,49.652,87.518,15.112,8.878,28.711,9.058,37.987,2.181C155.487,275.857,143.984,274.49,131.43,267.116Z" transform="translate(-50.146 -123.007)" fill="#354e66"/>
              <path id="Trazado_157629" data-name="Trazado 157629" d="M119.078,156.137c29.935,17.585,53.989,59.983,53.727,94.7-.131,17.3-6.283,29.432-16.126,35.067l5.528-3.137c9.95-5.589,16.175-17.759,16.306-35.17.262-34.716-23.789-77.114-53.724-94.7-14.966-8.793-28.571-9.715-38.466-4.1l-5.616,3.192C90.593,146.431,104.158,147.372,119.078,156.137Z" transform="translate(-41.954 -130.102)" fill="#354e66"/>
            </g>
            <g id="Grupo_101967" data-name="Grupo 101967" transform="translate(62.058 81.69)">
              <path id="Trazado_157630" data-name="Trazado 157630" d="M109.136,163.408c29.935,17.582,53.986,59.98,53.724,94.7-.064,8.394-1.556,15.554-4.185,21.362l19.464-11.043c10.666-4.434,17.485-16.2,17.619-33.727.241-32.082-21.989-71.266-49.655-87.518-13.614-8-26-8.939-35.106-4.02h0l-.012.006c-.283.152-.56.314-.838.475L88.359,156C94.773,156.683,101.787,159.092,109.136,163.408Z" transform="translate(-88.359 -140.145)" fill="#293644"/>
            </g>
          </g>
        </g>
        <path id="Trazado_157634" data-name="Trazado 157634" d="M244.618,210.721l-.015.006,2.711-1.538c9.444-5.305,15.356-16.86,15.481-33.392.091-12.118-2.945-25.22-8.226-37.777-27.77,36.864-76.627,89.5-140.282,109.126a85.525,85.525,0,0,1,1.346,15.3c-.064,8.394-1.553,15.554-4.185,21.362l14.984-8.5a25.737,25.737,0,0,0,9.98-3.2h0l2.711-1.538a25.722,25.722,0,0,0,7.861-6.92l36.245-20.564a25.655,25.655,0,0,0,9.977-3.2h0l2.711-1.538a25.722,25.722,0,0,0,7.861-6.92l30.852-17.5A25.736,25.736,0,0,0,244.618,210.721Z" transform="translate(20.927 -62.8)" fill="#d4d4d4" style="mix-blend-mode: multiply;isolation: isolate"/>
        <g id="Grupo_101974" data-name="Grupo 101974" transform="translate(49.506 136.124)">
          <rect id="Rectángulo_5555-3" data-name="Rectángulo 5555" width="46.226" height="46.226" transform="translate(33.056 0) rotate(45)" fill="#fff" stroke="#000" stroke-width="1" stroke-dasharray="5"/>
          <g id="Grupo_54186-3" data-name="Grupo 54186" transform="translate(0 0.395)">
            <g id="Grupo_54185-3" data-name="Grupo 54185" transform="translate(0 0)" clip-path="url(#clip-path)">
              <g id="Grupo_54184-3" data-name="Grupo 54184" transform="translate(-1.1 -2.622)">
                <g id="Grupo_54168-3" data-name="Grupo 54168" transform="translate(0 0)">
                  <rect id="Rectángulo_5379-3" data-name="Rectángulo 5379" width="88.043" height="1.819" transform="translate(0 88.042) rotate(-89.754)" fill="#c61f20"/>
                </g>
                <g id="Grupo_54169-3" data-name="Grupo 54169" transform="translate(5.908 0.182)">
                  <rect id="Rectángulo_5380-3" data-name="Rectángulo 5380" width="88.043" height="1.819" transform="translate(0 88.042) rotate(-89.754)" fill="#c61f20"/>
                </g>
                <g id="Grupo_54170-3" data-name="Grupo 54170" transform="translate(11.816 0)">
                  <rect id="Rectángulo_5381-3" data-name="Rectángulo 5381" width="88.043" height="1.819" transform="translate(0 88.042) rotate(-89.754)" fill="#c61f20"/>
                </g>
                <g id="Grupo_54171-3" data-name="Grupo 54171" transform="translate(17.723 0.182)">
                  <rect id="Rectángulo_5382-3" data-name="Rectángulo 5382" width="88.043" height="1.819" transform="translate(0 88.042) rotate(-89.754)" fill="#c61f20"/>
                </g>
                <g id="Grupo_54172-3" data-name="Grupo 54172" transform="translate(23.631 0)">
                  <rect id="Rectángulo_5383-3" data-name="Rectángulo 5383" width="88.043" height="1.819" transform="translate(0 88.042) rotate(-89.754)" fill="#c61f20"/>
                </g>
                <g id="Grupo_54173-3" data-name="Grupo 54173" transform="translate(29.539 0.182)">
                  <rect id="Rectángulo_5384-3" data-name="Rectángulo 5384" width="88.043" height="1.819" transform="translate(0 88.042) rotate(-89.754)" fill="#c61f20"/>
                </g>
                <g id="Grupo_54174-3" data-name="Grupo 54174" transform="translate(35.447 0)">
                  <rect id="Rectángulo_5385-3" data-name="Rectángulo 5385" width="88.043" height="1.819" transform="translate(0 88.042) rotate(-89.754)" fill="#c61f20"/>
                </g>
                <g id="Grupo_54175-3" data-name="Grupo 54175" transform="translate(41.354 0.182)">
                  <rect id="Rectángulo_5386-3" data-name="Rectángulo 5386" width="88.043" height="1.819" transform="translate(0 88.042) rotate(-89.754)" fill="#c61f20"/>
                </g>
                <g id="Grupo_54176-3" data-name="Grupo 54176" transform="translate(48.001 0)">
                  <rect id="Rectángulo_5387-3" data-name="Rectángulo 5387" width="88.043" height="1.819" transform="translate(0 88.042) rotate(-89.754)" fill="#c61f20"/>
                </g>
                <g id="Grupo_54177-3" data-name="Grupo 54177" transform="translate(53.908 0.182)">
                  <rect id="Rectángulo_5388-3" data-name="Rectángulo 5388" width="88.043" height="1.819" transform="translate(0 88.042) rotate(-89.754)" fill="#c61f20"/>
                </g>
                <g id="Grupo_54178-3" data-name="Grupo 54178" transform="translate(59.816 0)">
                  <rect id="Rectángulo_5389-5" data-name="Rectángulo 5389" width="88.043" height="1.819" transform="translate(0 88.042) rotate(-89.754)" fill="#c61f20"/>
                </g>
                <g id="Grupo_54923-3" data-name="Grupo 54923" transform="translate(64.247 0)">
                  <rect id="Rectángulo_5389-6" data-name="Rectángulo 5389" width="88.043" height="1.819" transform="translate(0 88.042) rotate(-89.754)" fill="#c61f20"/>
                </g>
              </g>
            </g>
          </g>
          <g id="Grupo_54167-3" data-name="Grupo 54167" transform="translate(28.83 6.824)">
            <g id="Grupo_54163-3" data-name="Grupo 54163" transform="translate(0.677)">
              <g id="Grupo_54162-3" data-name="Grupo 54162">
                <g id="Grupo_54161-3" data-name="Grupo 54161">
                  <path id="Trazado_101518-3" data-name="Trazado 101518" d="M2297.457,548.482c.43.645.375,1.029-.442,2.595a1.187,1.187,0,0,0,1.115-1.145,20.2,20.2,0,0,0-.138-2.866,3.117,3.117,0,0,1,.32-2.02,5.423,5.423,0,0,1,.619-.677c-.5,1.867-.255,2.715.923,3.44-.077-.487-.428-.954.031-1.487a1.456,1.456,0,0,0,.739,1.281,6.152,6.152,0,0,1,2.568,3.943,3.818,3.818,0,0,1-1.488,3.984,5.418,5.418,0,0,1-1.414.76c.155-.18.32-.352.462-.542a1.817,1.817,0,0,0,.065-2.237,10.656,10.656,0,0,1-.557-1.186c.027.3.054.563.075.826a1.7,1.7,0,0,1,.026.739,2.923,2.923,0,0,1-.583.674c-.191-.181-.509-.341-.542-.548a2.394,2.394,0,0,1,.149-1.013c.177-.609.441-1.2.582-1.811.089-.387-.139-.715-.624-.982.321.584.026.862-.308,1.171a2.5,2.5,0,0,0-1.026,2.3l-.164.032-.305-.945a1.5,1.5,0,0,0,.1,1.869,1.441,1.441,0,0,1,.327,1.719,4.372,4.372,0,0,1-3.111-2.876,3.877,3.877,0,0,1,1.542-3.763A7.848,7.848,0,0,0,2297.457,548.482Z" transform="translate(-2294.779 -544.369)"/>
                </g>
              </g>
            </g>
            <g id="Grupo_54166-3" data-name="Grupo 54166" transform="translate(0 12.496)">
              <g id="Grupo_54164-3" data-name="Grupo 54164" transform="translate(0.415 0.415)">
                <line id="Línea_169-3" data-name="Línea 169" x2="9.022"/>
              </g>
              <g id="Grupo_54165-3" data-name="Grupo 54165">
                <path id="Trazado_101519-3" data-name="Trazado 101519" d="M2302.355,579.548h-9.022a.415.415,0,1,1,0-.831h9.022a.415.415,0,0,1,0,.831Z" transform="translate(-2292.918 -578.717)"/>
              </g>
            </g>
          </g>
          <rect id="Rectángulo_5554-3" data-name="Rectángulo 5554" width="42.528" height="42.528" transform="translate(33.756 2.615) rotate(45)" fill="none" stroke="#000" stroke-width="1"/>
          <text id="_4-3" data-name="4" transform="translate(31.754 55.681)" font-size="4" font-family="Arial-BoldMT, Arial" font-weight="700"><tspan x="0" y="0">4</tspan></text>
        </g>
      </g>
      <g id="Grupo_101975" data-name="Grupo 101975" transform="translate(-3321.37 -4445.436)">
        <path id="Trazado_157635" data-name="Trazado 157635" d="M-591.833,374.944c-4.135,0-4.142,6.427,0,6.427S-587.69,374.944-591.833,374.944Z" transform="translate(594.937 -249.832)" fill="#101010"/>
        <path id="Trazado_157636" data-name="Trazado 157636" d="M-399.124,382.979l-3.369.187a3.269,3.269,0,0,0-3.214,3.214,3.256,3.256,0,0,0,3.214,3.214l3.369-.187a3.269,3.269,0,0,0,3.214-3.214A3.257,3.257,0,0,0-399.124,382.979Z" transform="translate(507.059 -253.562)" fill="#101010"/>
        <path id="Trazado_157637" data-name="Trazado 157637" d="M-415.367,261.994a2.924,2.924,0,0,0-1.352-1.627l-.868-.476a2.494,2.494,0,0,0,.036-.513l-.1-.755a3.209,3.209,0,0,0,.817.318,2.915,2.915,0,0,0,2.81,1.778c3.663,0,4.084-5.039,1.254-6.191a3.2,3.2,0,0,0-.667-.979l-.651-.5a3.234,3.234,0,0,0-.628-.275,2.615,2.615,0,0,0-.779-1.284,5.591,5.591,0,0,0-1.284-.893,2.4,2.4,0,0,0-.532-.485,2.425,2.425,0,0,0-1.093-.575,2.539,2.539,0,0,0-.638-.115,2.436,2.436,0,0,0,.182-1.025q-.058-.427-.115-.854a3.206,3.206,0,0,0-.827-1.418l-.65-.5a3.2,3.2,0,0,0-1.622-.439h-.5a2.434,2.434,0,0,0-1,.17,3.2,3.2,0,0,0-1.393-.8l-.749-.25h0a3.026,3.026,0,0,0-2.621-3.075,2.835,2.835,0,0,0-.416-1.96c-.218-.329-.412-.667-.6-1.009a3.194,3.194,0,0,0-.428-1.464l-.277-.553c-.028-.126-.058-.252-.081-.379q.034.418-.021-.185c-.007-.071-.018-.141-.029-.211a3.343,3.343,0,0,0-1.436-4.193,2.45,2.45,0,0,0,.171-.488,3.221,3.221,0,0,0-.324-2.476l-1-1.5a3.41,3.41,0,0,0-1.92-1.477,3.4,3.4,0,0,0-1.391-.062,2.506,2.506,0,0,0,.316-.458l.324-.768a3.234,3.234,0,0,0,0-1.709l-.25-1.5a3.22,3.22,0,0,0-1.477-1.92,3.427,3.427,0,0,0-1.522-.437,3.449,3.449,0,0,0-.517-1.65c-.175-.988-.376-1.968-.633-2.932.012-.019.026-.036.038-.056l.324-.768a3.233,3.233,0,0,0,0-1.709l-.243-.751a2.424,2.424,0,0,0-.575-1.093,2.427,2.427,0,0,0-.9-.827,2.463,2.463,0,0,0-.47-.23q.05-.375.1-.751a3.193,3.193,0,0,0-.439-1.622l-.366-.55a3.062,3.062,0,0,0,.056-.574v-1.248a3.317,3.317,0,0,0-.941-2.273,3.267,3.267,0,0,0-2.272-.941,3.922,3.922,0,0,0-1.226.246l-.4-.307c-.045-.026-.093-.045-.138-.069a2.6,2.6,0,0,0-.124-1.258l-.982-2.751a3.439,3.439,0,0,0-1.477-1.921,3.317,3.317,0,0,0-2.378-.348,2.691,2.691,0,0,0,.2-1.111,3.349,3.349,0,0,0-.941-2.272l-1-1a3.317,3.317,0,0,0-1.613-.866,2.991,2.991,0,0,0-2.157-.824,3.59,3.59,0,0,0-.47.033,2.555,2.555,0,0,0,.269-.681,3.6,3.6,0,0,0-.324-2.477l-.966-2.012a3.242,3.242,0,0,0-1.921-1.477c-.036-.01-.075-.016-.112-.025a3.221,3.221,0,0,0-1.127-1.114l-.646-.445a2.513,2.513,0,0,0,.329-.294,3.339,3.339,0,0,0,.942-2.273v-1a3.318,3.318,0,0,0-.942-2.273,2.407,2.407,0,0,0-1.034-.664,2.417,2.417,0,0,0-1.238-.277,3.976,3.976,0,0,0-1.125.213c-.007-.033-.011-.066-.02-.1l-.324-.768a3.224,3.224,0,0,0-1.153-1.153l-.4-.2.305-.395a3.2,3.2,0,0,0,.439-1.622v-.25a2.419,2.419,0,0,0-.277-1.238,2.406,2.406,0,0,0-.664-1.034,2.411,2.411,0,0,0-1.034-.665,2.42,2.42,0,0,0-1.238-.276l-.854.115a3.22,3.22,0,0,0-1,.484l.391-.506a3.2,3.2,0,0,0,.439-1.622q-.058-.427-.115-.854a3.206,3.206,0,0,0-.826-1.418l-.25-.25a2.42,2.42,0,0,0-.7-.523c.066-.057.134-.111.2-.174l.5-.65a3.206,3.206,0,0,0,.439-1.622v-.5a2.42,2.42,0,0,0-.277-1.238,2.411,2.411,0,0,0-.665-1.034c-.053-.056-.108-.107-.164-.157a3.257,3.257,0,0,0-1.974-4.415c-.033-.209-.07-.415-.109-.62a3.388,3.388,0,0,0-1.112-3.381,8.234,8.234,0,0,0-.529-.871,3.182,3.182,0,0,0-2.877-4.477,3.226,3.226,0,0,0-1.4.3l-.468-.362a3.194,3.194,0,0,0-1.622-.439h-.749a2.423,2.423,0,0,0-1.219.268c-.093-.008-.185-.018-.279-.018h-.5a2.42,2.42,0,0,0-1.238.277,2.4,2.4,0,0,0-1.034.664,2.5,2.5,0,0,0-.4.472,3.193,3.193,0,0,0-1.573-.415h-.5a2.419,2.419,0,0,0-1.238.277,2.406,2.406,0,0,0-1.034.664,2.411,2.411,0,0,0-.665,1.034,2.411,2.411,0,0,0-.275,1.173,3.2,3.2,0,0,0-1.307.787l-.5.651a3.2,3.2,0,0,0-.439,1.622v.25a2.607,2.607,0,0,0,.019.4l-.174.073a3.233,3.233,0,0,0-1.153,1.153l-.25.5a2.4,2.4,0,0,0-.381,1.195,2.437,2.437,0,0,0,.058,1.281,2.445,2.445,0,0,0,.328.766,2.776,2.776,0,0,0-.328.771l-.25,1a3.359,3.359,0,0,0,.323,2.476c.006.011.016.02.022.031-.039.022-.079.041-.117.065l-.65.5a3.208,3.208,0,0,0-.826,1.418l-.439,1.1a2.406,2.406,0,0,0-.648,1.017,2.4,2.4,0,0,0-.207.55,2.951,2.951,0,0,0-2.347-1.028,3.076,3.076,0,0,0-3.093,3.512,2.4,2.4,0,0,0-.593.96,2.417,2.417,0,0,0-.276,1.238,2.435,2.435,0,0,0,.149.953,3.194,3.194,0,0,0-.4,1.543v.2a3.388,3.388,0,0,0-.307.269l-.749.749a2.41,2.41,0,0,0-.665,1.034c-.026.05-.046.1-.068.153a3.232,3.232,0,0,0-.765.56l-.5.5a2.414,2.414,0,0,0-.665,1.034,2.4,2.4,0,0,0-.271,1.01,3.2,3.2,0,0,0-1.062.7l-.25.25a2.406,2.406,0,0,0-.664,1.034l0,0a3.2,3.2,0,0,0-1.081.709l-.25.25a2.406,2.406,0,0,0-.664,1.034c-.006.012-.01.024-.016.035-.1-.007-.192-.014-.292-.014a2.932,2.932,0,0,0-2.939,2.133,3.125,3.125,0,0,0-1.087,1.845,3.342,3.342,0,0,0-.246.359l-.25.5a2.39,2.39,0,0,0-.381,1.195,2.433,2.433,0,0,0,.057,1.282,2.423,2.423,0,0,0,.475.968,3.346,3.346,0,0,0-.976,2.5c-.057.049-.115.095-.169.149l-.5.65a3.194,3.194,0,0,0-.439,1.622v.5a2.473,2.473,0,0,0,.08.721,3.528,3.528,0,0,0,.44,4.125,3.389,3.389,0,0,0-1.207,4.639,3.2,3.2,0,0,0-1.117.722l-.5.65a3.205,3.205,0,0,0-.439,1.622v.25a2.42,2.42,0,0,0,.277,1.238l.006.014-.094.12a3.207,3.207,0,0,0-.439,1.622v.25a2.417,2.417,0,0,0,.277,1.238,2.408,2.408,0,0,0,.665,1.034c.032.035.068.064.1.1a3.031,3.031,0,0,0-.651.971,3.584,3.584,0,0,0-.673-.064,3.084,3.084,0,0,0-3.082,3.6,2.817,2.817,0,0,0-1.5.917A3.1,3.1,0,0,0-532,220.243a3.154,3.154,0,0,0-.917,1.65,3.2,3.2,0,0,0-1.254.769l-.25.25a2.408,2.408,0,0,0-.665,1.034,2.4,2.4,0,0,0-.178.455,3.321,3.321,0,0,0-1.634,4.587l0,0a2.42,2.42,0,0,0-1.238-.277l-.854.115a3.211,3.211,0,0,0-1.418.826l-.5.65a3.2,3.2,0,0,0-.439,1.622v.25a2.556,2.556,0,0,0,.011.347,3.639,3.639,0,0,0-.239,2.725,3.632,3.632,0,0,0-.552-.045,3.076,3.076,0,0,0-3.091,3.52,3.455,3.455,0,0,0-.75,2.475,2.97,2.97,0,0,0-2.959,2.623,3.4,3.4,0,0,0-.34,5.446l-.2.027a3.234,3.234,0,0,0-.876.4c-.087-.006-.174-.013-.266-.013a2.946,2.946,0,0,0-2.366,1.054,3.231,3.231,0,0,0-2.237,4.478c-.016.051-.034.1-.047.153a2.5,2.5,0,0,0-.112.772c-.046-.05-.091-.1-.142-.149l-.651-.5a3.2,3.2,0,0,0-1.622-.439l-.8.107a3.032,3.032,0,0,0-1.983-.67,2.916,2.916,0,0,0-2.792,1.738,1.091,1.091,0,0,0-.975.612,2.955,2.955,0,0,0-3.026-2.467c-2.919,0-3.779,3.2-2.576,5.084a3.557,3.557,0,0,0-.514,3.48,3.367,3.367,0,0,0-1.1-.178c-3.25,0-3.948,3.968-2.089,5.668a3.128,3.128,0,0,0-1.47,2.457,3.109,3.109,0,0,0-1.181-.315c0-.045.005-.089,0-.134q-.058-.427-.115-.855a3.209,3.209,0,0,0-.826-1.418l-.65-.5a3.2,3.2,0,0,0-1.622-.439h-.187a2.419,2.419,0,0,0-1.238.276,2.412,2.412,0,0,0-1.034.665,2.407,2.407,0,0,0-.664,1.034,2.42,2.42,0,0,0-.277,1.238l.115.854a3.21,3.21,0,0,0,.826,1.418l.651.5a3.2,3.2,0,0,0,1.622.439h.018a3.329,3.329,0,0,0,1.026,2.588,2.393,2.393,0,0,0-.739.461,2.427,2.427,0,0,0-.828.9l-.324.768a3.234,3.234,0,0,0,0,1.709l.324.767a3.231,3.231,0,0,0,1.153,1.153l.748.376a2.387,2.387,0,0,0,1.194.381,2.434,2.434,0,0,0,1.282-.057,2.416,2.416,0,0,0,1.093-.575,2.425,2.425,0,0,0,.828-.9l.324-.768a3.243,3.243,0,0,0,0-1.709q-.162-.383-.324-.768a3.23,3.23,0,0,0-1.153-1.153l-.195-.1a3.071,3.071,0,0,0,1.777-2.611,3.209,3.209,0,0,0,1.461.329,3.554,3.554,0,0,0,.7-.068,2.916,2.916,0,0,0,2.666,1.486l.033,0a3.2,3.2,0,0,0,2.8,4.667c4.135,0,4.142-6.427,0-6.427l-.033,0a3.471,3.471,0,0,0,.152-.423l.525-.17a2.427,2.427,0,0,0,1.093-.575,2.439,2.439,0,0,0,.426-.359,2.861,2.861,0,0,0,1.76-.905,1.079,1.079,0,0,0,.555.157c.018,0,.035,0,.054-.005a3.219,3.219,0,0,0-.426.918q-.058.427-.115.854a3.2,3.2,0,0,0,.439,1.622l.118.236a2.431,2.431,0,0,0,.721.812,3.2,3.2,0,0,0,2.822,4.618,2.984,2.984,0,0,0,3.069-2.728,3.43,3.43,0,0,0,.59-.086,2.669,2.669,0,0,0,.113.9,3.251,3.251,0,0,0,1.477,1.92,3.32,3.32,0,0,0,2.476.324l1.311-.374a3.339,3.339,0,0,0,1.921-1.477,3.281,3.281,0,0,0,.324-2.476,3.248,3.248,0,0,0-1.477-1.921,3.518,3.518,0,0,0-1.832-.432c.015-.037.032-.074.044-.112a2.42,2.42,0,0,0,.277-1.238q-.058-.427-.115-.854a3.288,3.288,0,0,0-.229-.577,2.4,2.4,0,0,0,.745.152,3.2,3.2,0,0,0,.727,1.131l.65.5a3.2,3.2,0,0,0,1.622.439h.355a2.421,2.421,0,0,0,1.238-.277,2.408,2.408,0,0,0,1.034-.664,2.407,2.407,0,0,0,.665-1.034,2.42,2.42,0,0,0,.277-1.238l-.045-.334c.037.042.071.086.111.126l.65.5a3.2,3.2,0,0,0,1.622.439h.177a2.423,2.423,0,0,0,1.141-.234,3,3,0,0,0,.447.293c-.108-.011-.216-.021-.327-.022h-.187a2.419,2.419,0,0,0-1.238.277,2.414,2.414,0,0,0-1.034.665,2.406,2.406,0,0,0-.664,1.034,2.418,2.418,0,0,0-.277,1.238q.057.427.115.854a3.213,3.213,0,0,0,.826,1.418l.651.5a3.2,3.2,0,0,0,1.622.439h.187a2.418,2.418,0,0,0,1.238-.276,2.407,2.407,0,0,0,1.034-.665,2.407,2.407,0,0,0,.665-1.034,2.425,2.425,0,0,0,.277-1.238q-.058-.427-.115-.854a3.207,3.207,0,0,0-.826-1.418l-.65-.5c-.027-.016-.056-.027-.083-.041l.477.11a3.384,3.384,0,0,0,2.477-.324,2.428,2.428,0,0,0,.9-.828,2.392,2.392,0,0,0,.416-.639,2.9,2.9,0,0,0,2.648-1.65h.341a2.418,2.418,0,0,0,1.238-.277,2.408,2.408,0,0,0,1.034-.665,2.407,2.407,0,0,0,.665-1.034,2.394,2.394,0,0,0,.269-.924c.8-.014,1.593-.031,2.39-.043l.036.273a2.385,2.385,0,0,0-.88.264,2.409,2.409,0,0,0-1.034.664,2.4,2.4,0,0,0-.665,1.034,2.42,2.42,0,0,0-.277,1.238q.058.427.115.854a3.218,3.218,0,0,0,.827,1.418l.41.317h-.946a3.25,3.25,0,0,0-3.214,3.214,3.27,3.27,0,0,0,3.214,3.214h4.493a3.25,3.25,0,0,0,3.214-3.214,3.291,3.291,0,0,0-2.835-3.189,2.467,2.467,0,0,0,.4-.341,2.41,2.41,0,0,0,.637-.966,3.336,3.336,0,0,0,.46.035l.854-.115a3.212,3.212,0,0,0,1.418-.826l.159-.159a3.143,3.143,0,0,0,3,4.1,3.181,3.181,0,0,0,2.9-4.415,3.2,3.2,0,0,0,1.11.556l.854.115a3.249,3.249,0,0,0,.863-.119,3.205,3.205,0,0,0,3.068,2.365h1.872a3.315,3.315,0,0,0,2.272-.941,3.267,3.267,0,0,0,.941-2.273,3.558,3.558,0,0,0-.157-.893,2.448,2.448,0,0,0,.291.325l.65.5a3.208,3.208,0,0,0,1.622.439l1.5.178a3.2,3.2,0,0,0,2.272-.941,3.265,3.265,0,0,0,.942-2.273,4.215,4.215,0,0,0-.09-.691h2.681a2.9,2.9,0,0,0-1.16,2.426,3.255,3.255,0,0,0,3.214,3.214l3-.19a3.5,3.5,0,0,0,3.011-2.04l.609.471a3.2,3.2,0,0,0,1.622.439h.187a2.42,2.42,0,0,0,1.238-.277,2.4,2.4,0,0,0,1.034-.665,2.408,2.408,0,0,0,.665-1.034,2.417,2.417,0,0,0,.276-1.238q-.057-.427-.115-.854c-.011-.041-.028-.078-.041-.118q.7.022,1.394.049a3,3,0,0,0-.362,1.464,3.25,3.25,0,0,0,.942,2.273l.65.5a3.2,3.2,0,0,0,1.622.439l1.871.193a3.213,3.213,0,0,0,2.272-.942,3.36,3.36,0,0,0,.681-1.019l.68.074a3.113,3.113,0,0,0-.3,1.308,3.26,3.26,0,0,0,3.213,3.214,37.674,37.674,0,0,0,6.47-.489,2.328,2.328,0,0,0,1.018-.43c.086.032.171.065.26.09l.751.178a2.433,2.433,0,0,0,1.282.057,2.389,2.389,0,0,0,1.195-.381,2.439,2.439,0,0,0,.674-.558,2.59,2.59,0,0,0,.488.621,3.769,3.769,0,0,0,2.273.942l2.81.356a3.2,3.2,0,0,0,2.273-.941,3.412,3.412,0,0,0,.771-1.255,3.269,3.269,0,0,0,1.907,1.508l.273.084a3.065,3.065,0,0,0,1.891.592l.029,0,.24.074a3.244,3.244,0,0,0,3.953-2.244,3.59,3.59,0,0,0,.088-.932l.054-.008.026.191a3.213,3.213,0,0,0,.826,1.418l.187.187a2.406,2.406,0,0,0,1.034.664,2.418,2.418,0,0,0,1.238.277,2.42,2.42,0,0,0,1.238-.277,2.406,2.406,0,0,0,1.034-.664l.5-.651c.018-.03.029-.062.046-.092l1.968-.283a3.2,3.2,0,0,0,2.357-3.354l.326.422a3.211,3.211,0,0,0,1.418.826l.563.182a2.471,2.471,0,0,0,.785.112,3,3,0,0,0,2.118.784,2.915,2.915,0,0,0,2.681-1.519,10.107,10.107,0,0,0,3.225-.29,3.246,3.246,0,0,0,2.244-3.953A3.318,3.318,0,0,0-415.367,261.994ZM-465,266.65c.019-.041.039-.082.057-.124l.057.008c-.024.038-.045.078-.067.117Zm-98.609-8.277a3.506,3.506,0,0,0,.206.7,2.476,2.476,0,0,0-.132.32,2.422,2.422,0,0,0-.224.621,3.2,3.2,0,0,0-.987-.63,3.447,3.447,0,0,0,.472-1.473A1.092,1.092,0,0,0-563.613,258.372Z" transform="translate(589.352 -141.349)" fill="#101010"/>
        <path id="Trazado_157638" data-name="Trazado 157638" d="M-262.562,370.472l.768.324a3.235,3.235,0,0,0,1.709,0l.936-.374a2.415,2.415,0,0,0,1.093-.575,2.428,2.428,0,0,0,.827-.9,2.388,2.388,0,0,0,.381-1.195,2.431,2.431,0,0,0-.057-1.281,3.252,3.252,0,0,0-1.477-1.921l-.768-.324a3.233,3.233,0,0,0-1.709,0l-.936.374a2.425,2.425,0,0,0-1.093.575,2.428,2.428,0,0,0-.828.9,2.39,2.39,0,0,0-.381,1.195,2.434,2.434,0,0,0,.057,1.282A3.25,3.25,0,0,0-262.562,370.472Z" transform="translate(441.32 -244.8)" fill="#101010"/>
        <path id="Trazado_157639" data-name="Trazado 157639" d="M-245.42,358.744a2.41,2.41,0,0,0-.664-1.034,2.416,2.416,0,0,0-1.034-.665,2.425,2.425,0,0,0-1.238-.276l-.854.115a3.211,3.211,0,0,0-1.418.826l-.5.65a3.208,3.208,0,0,0-.439,1.622v.374a2.418,2.418,0,0,0,.277,1.238,2.4,2.4,0,0,0,.665,1.034,2.4,2.4,0,0,0,1.034.665,2.418,2.418,0,0,0,1.238.277l.854-.115a3.209,3.209,0,0,0,1.418-.826l.5-.65a3.2,3.2,0,0,0,.439-1.622v-.374A2.42,2.42,0,0,0-245.42,358.744Z" transform="translate(435.477 -241.39)" fill="#101010"/>
        <path id="Trazado_157640" data-name="Trazado 157640" d="M-252.566,378.308a2.429,2.429,0,0,0-.9-.828l-.768-.324a3.234,3.234,0,0,0-1.709,0l-.768.324a3.231,3.231,0,0,0-1.153,1.153l-.187.374a2.4,2.4,0,0,0-.381,1.195,2.419,2.419,0,0,0,0,1.055,3.117,3.117,0,0,0-1.712-.472c-4.136,0-4.143,6.427,0,6.427a3.128,3.128,0,0,0,3.024-3.964,2.518,2.518,0,0,0,.221.156l.768.324a3.234,3.234,0,0,0,1.709,0l.768-.324a3.227,3.227,0,0,0,1.153-1.153l.187-.374a2.388,2.388,0,0,0,.381-1.195,2.431,2.431,0,0,0-.057-1.281A2.415,2.415,0,0,0-252.566,378.308Z" transform="translate(440.899 -250.806)" fill="#101010"/>
      </g>
      <g id="Grupo_101977" data-name="Grupo 101977" transform="translate(-3486.25 -4487.783)">
        <path id="Trazado_157635-2" data-name="Trazado 157635" d="M-591.833,374.944c-4.135,0-4.142,6.427,0,6.427S-587.69,374.944-591.833,374.944Z" transform="translate(594.937 -249.832)" fill="#101010"/>
        <path id="Trazado_157636-2" data-name="Trazado 157636" d="M-399.124,382.979l-3.369.187a3.269,3.269,0,0,0-3.214,3.214,3.256,3.256,0,0,0,3.214,3.214l3.369-.187a3.269,3.269,0,0,0,3.214-3.214A3.257,3.257,0,0,0-399.124,382.979Z" transform="translate(507.059 -253.562)" fill="#101010"/>
        <path id="Trazado_157637-2" data-name="Trazado 157637" d="M-415.367,261.994a2.924,2.924,0,0,0-1.352-1.627l-.868-.476a2.494,2.494,0,0,0,.036-.513l-.1-.755a3.209,3.209,0,0,0,.817.318,2.915,2.915,0,0,0,2.81,1.778c3.663,0,4.084-5.039,1.254-6.191a3.2,3.2,0,0,0-.667-.979l-.651-.5a3.234,3.234,0,0,0-.628-.275,2.615,2.615,0,0,0-.779-1.284,5.591,5.591,0,0,0-1.284-.893,2.4,2.4,0,0,0-.532-.485,2.425,2.425,0,0,0-1.093-.575,2.539,2.539,0,0,0-.638-.115,2.436,2.436,0,0,0,.182-1.025q-.058-.427-.115-.854a3.206,3.206,0,0,0-.827-1.418l-.65-.5a3.2,3.2,0,0,0-1.622-.439h-.5a2.434,2.434,0,0,0-1,.17,3.2,3.2,0,0,0-1.393-.8l-.749-.25h0a3.026,3.026,0,0,0-2.621-3.075,2.835,2.835,0,0,0-.416-1.96c-.218-.329-.412-.667-.6-1.009a3.194,3.194,0,0,0-.428-1.464l-.277-.553c-.028-.126-.058-.252-.081-.379q.034.418-.021-.185c-.007-.071-.018-.141-.029-.211a3.343,3.343,0,0,0-1.436-4.193,2.45,2.45,0,0,0,.171-.488,3.221,3.221,0,0,0-.324-2.476l-1-1.5a3.41,3.41,0,0,0-1.92-1.477,3.4,3.4,0,0,0-1.391-.062,2.506,2.506,0,0,0,.316-.458l.324-.768a3.234,3.234,0,0,0,0-1.709l-.25-1.5a3.22,3.22,0,0,0-1.477-1.92,3.427,3.427,0,0,0-1.522-.437,3.449,3.449,0,0,0-.517-1.65c-.175-.988-.376-1.968-.633-2.932.012-.019.026-.036.038-.056l.324-.768a3.233,3.233,0,0,0,0-1.709l-.243-.751a2.424,2.424,0,0,0-.575-1.093,2.427,2.427,0,0,0-.9-.827,2.463,2.463,0,0,0-.47-.23q.05-.375.1-.751a3.193,3.193,0,0,0-.439-1.622l-.366-.55a3.062,3.062,0,0,0,.056-.574v-1.248a3.317,3.317,0,0,0-.941-2.273,3.267,3.267,0,0,0-2.272-.941,3.922,3.922,0,0,0-1.226.246l-.4-.307c-.045-.026-.093-.045-.138-.069a2.6,2.6,0,0,0-.124-1.258l-.982-2.751a3.439,3.439,0,0,0-1.477-1.921,3.317,3.317,0,0,0-2.378-.348,2.691,2.691,0,0,0,.2-1.111,3.349,3.349,0,0,0-.941-2.272l-1-1a3.317,3.317,0,0,0-1.613-.866,2.991,2.991,0,0,0-2.157-.824,3.59,3.59,0,0,0-.47.033,2.555,2.555,0,0,0,.269-.681,3.6,3.6,0,0,0-.324-2.477l-.966-2.012a3.242,3.242,0,0,0-1.921-1.477c-.036-.01-.075-.016-.112-.025a3.221,3.221,0,0,0-1.127-1.114l-.646-.445a2.513,2.513,0,0,0,.329-.294,3.339,3.339,0,0,0,.942-2.273v-1a3.318,3.318,0,0,0-.942-2.273,2.407,2.407,0,0,0-1.034-.664,2.417,2.417,0,0,0-1.238-.277,3.976,3.976,0,0,0-1.125.213c-.007-.033-.011-.066-.02-.1l-.324-.768a3.224,3.224,0,0,0-1.153-1.153l-.4-.2.305-.395a3.2,3.2,0,0,0,.439-1.622v-.25a2.419,2.419,0,0,0-.277-1.238,2.406,2.406,0,0,0-.664-1.034,2.411,2.411,0,0,0-1.034-.665,2.42,2.42,0,0,0-1.238-.276l-.854.115a3.22,3.22,0,0,0-1,.484l.391-.506a3.2,3.2,0,0,0,.439-1.622q-.058-.427-.115-.854a3.206,3.206,0,0,0-.826-1.418l-.25-.25a2.42,2.42,0,0,0-.7-.523c.066-.057.134-.111.2-.174l.5-.65a3.206,3.206,0,0,0,.439-1.622v-.5a2.42,2.42,0,0,0-.277-1.238,2.411,2.411,0,0,0-.665-1.034c-.053-.056-.108-.107-.164-.157a3.257,3.257,0,0,0-1.974-4.415c-.033-.209-.07-.415-.109-.62a3.388,3.388,0,0,0-1.112-3.381,8.234,8.234,0,0,0-.529-.871,3.182,3.182,0,0,0-2.877-4.477,3.226,3.226,0,0,0-1.4.3l-.468-.362a3.194,3.194,0,0,0-1.622-.439h-.749a2.423,2.423,0,0,0-1.219.268c-.093-.008-.185-.018-.279-.018h-.5a2.42,2.42,0,0,0-1.238.277,2.4,2.4,0,0,0-1.034.664,2.5,2.5,0,0,0-.4.472,3.193,3.193,0,0,0-1.573-.415h-.5a2.419,2.419,0,0,0-1.238.277,2.406,2.406,0,0,0-1.034.664,2.411,2.411,0,0,0-.665,1.034,2.411,2.411,0,0,0-.275,1.173,3.2,3.2,0,0,0-1.307.787l-.5.651a3.2,3.2,0,0,0-.439,1.622v.25a2.607,2.607,0,0,0,.019.4l-.174.073a3.233,3.233,0,0,0-1.153,1.153l-.25.5a2.4,2.4,0,0,0-.381,1.195,2.437,2.437,0,0,0,.058,1.281,2.445,2.445,0,0,0,.328.766,2.776,2.776,0,0,0-.328.771l-.25,1a3.359,3.359,0,0,0,.323,2.476c.006.011.016.02.022.031-.039.022-.079.041-.117.065l-.65.5a3.208,3.208,0,0,0-.826,1.418l-.439,1.1a2.406,2.406,0,0,0-.648,1.017,2.4,2.4,0,0,0-.207.55,2.951,2.951,0,0,0-2.347-1.028,3.076,3.076,0,0,0-3.093,3.512,2.4,2.4,0,0,0-.593.96,2.417,2.417,0,0,0-.276,1.238,2.435,2.435,0,0,0,.149.953,3.194,3.194,0,0,0-.4,1.543v.2a3.388,3.388,0,0,0-.307.269l-.749.749a2.41,2.41,0,0,0-.665,1.034c-.026.05-.046.1-.068.153a3.232,3.232,0,0,0-.765.56l-.5.5a2.414,2.414,0,0,0-.665,1.034,2.4,2.4,0,0,0-.271,1.01,3.2,3.2,0,0,0-1.062.7l-.25.25a2.406,2.406,0,0,0-.664,1.034l0,0a3.2,3.2,0,0,0-1.081.709l-.25.25a2.406,2.406,0,0,0-.664,1.034c-.006.012-.01.024-.016.035-.1-.007-.192-.014-.292-.014a2.932,2.932,0,0,0-2.939,2.133,3.125,3.125,0,0,0-1.087,1.845,3.342,3.342,0,0,0-.246.359l-.25.5a2.39,2.39,0,0,0-.381,1.195,2.433,2.433,0,0,0,.057,1.282,2.423,2.423,0,0,0,.475.968,3.346,3.346,0,0,0-.976,2.5c-.057.049-.115.095-.169.149l-.5.65a3.194,3.194,0,0,0-.439,1.622v.5a2.473,2.473,0,0,0,.08.721,3.528,3.528,0,0,0,.44,4.125,3.389,3.389,0,0,0-1.207,4.639,3.2,3.2,0,0,0-1.117.722l-.5.65a3.205,3.205,0,0,0-.439,1.622v.25a2.42,2.42,0,0,0,.277,1.238l.006.014-.094.12a3.207,3.207,0,0,0-.439,1.622v.25a2.417,2.417,0,0,0,.277,1.238,2.408,2.408,0,0,0,.665,1.034c.032.035.068.064.1.1a3.031,3.031,0,0,0-.651.971,3.584,3.584,0,0,0-.673-.064,3.084,3.084,0,0,0-3.082,3.6,2.817,2.817,0,0,0-1.5.917A3.1,3.1,0,0,0-532,220.243a3.154,3.154,0,0,0-.917,1.65,3.2,3.2,0,0,0-1.254.769l-.25.25a2.408,2.408,0,0,0-.665,1.034,2.4,2.4,0,0,0-.178.455,3.321,3.321,0,0,0-1.634,4.587l0,0a2.42,2.42,0,0,0-1.238-.277l-.854.115a3.211,3.211,0,0,0-1.418.826l-.5.65a3.2,3.2,0,0,0-.439,1.622v.25a2.556,2.556,0,0,0,.011.347,3.639,3.639,0,0,0-.239,2.725,3.632,3.632,0,0,0-.552-.045,3.076,3.076,0,0,0-3.091,3.52,3.455,3.455,0,0,0-.75,2.475,2.97,2.97,0,0,0-2.959,2.623,3.4,3.4,0,0,0-.34,5.446l-.2.027a3.234,3.234,0,0,0-.876.4c-.087-.006-.174-.013-.266-.013a2.946,2.946,0,0,0-2.366,1.054,3.231,3.231,0,0,0-2.237,4.478c-.016.051-.034.1-.047.153a2.5,2.5,0,0,0-.112.772c-.046-.05-.091-.1-.142-.149l-.651-.5a3.2,3.2,0,0,0-1.622-.439l-.8.107a3.032,3.032,0,0,0-1.983-.67,2.916,2.916,0,0,0-2.792,1.738,1.091,1.091,0,0,0-.975.612,2.955,2.955,0,0,0-3.026-2.467c-2.919,0-3.779,3.2-2.576,5.084a3.557,3.557,0,0,0-.514,3.48,3.367,3.367,0,0,0-1.1-.178c-3.25,0-3.948,3.968-2.089,5.668a3.128,3.128,0,0,0-1.47,2.457,3.109,3.109,0,0,0-1.181-.315c0-.045.005-.089,0-.134q-.058-.427-.115-.855a3.209,3.209,0,0,0-.826-1.418l-.65-.5a3.2,3.2,0,0,0-1.622-.439h-.187a2.419,2.419,0,0,0-1.238.276,2.412,2.412,0,0,0-1.034.665,2.407,2.407,0,0,0-.664,1.034,2.42,2.42,0,0,0-.277,1.238l.115.854a3.21,3.21,0,0,0,.826,1.418l.651.5a3.2,3.2,0,0,0,1.622.439h.018a3.329,3.329,0,0,0,1.026,2.588,2.393,2.393,0,0,0-.739.461,2.427,2.427,0,0,0-.828.9l-.324.768a3.234,3.234,0,0,0,0,1.709l.324.767a3.231,3.231,0,0,0,1.153,1.153l.748.376a2.387,2.387,0,0,0,1.194.381,2.434,2.434,0,0,0,1.282-.057,2.416,2.416,0,0,0,1.093-.575,2.425,2.425,0,0,0,.828-.9l.324-.768a3.243,3.243,0,0,0,0-1.709q-.162-.383-.324-.768a3.23,3.23,0,0,0-1.153-1.153l-.195-.1a3.071,3.071,0,0,0,1.777-2.611,3.209,3.209,0,0,0,1.461.329,3.554,3.554,0,0,0,.7-.068,2.916,2.916,0,0,0,2.666,1.486l.033,0a3.2,3.2,0,0,0,2.8,4.667c4.135,0,4.142-6.427,0-6.427l-.033,0a3.471,3.471,0,0,0,.152-.423l.525-.17a2.427,2.427,0,0,0,1.093-.575,2.439,2.439,0,0,0,.426-.359,2.861,2.861,0,0,0,1.76-.905,1.079,1.079,0,0,0,.555.157c.018,0,.035,0,.054-.005a3.219,3.219,0,0,0-.426.918q-.058.427-.115.854a3.2,3.2,0,0,0,.439,1.622l.118.236a2.431,2.431,0,0,0,.721.812,3.2,3.2,0,0,0,2.822,4.618,2.984,2.984,0,0,0,3.069-2.728,3.43,3.43,0,0,0,.59-.086,2.669,2.669,0,0,0,.113.9,3.251,3.251,0,0,0,1.477,1.92,3.32,3.32,0,0,0,2.476.324l1.311-.374a3.339,3.339,0,0,0,1.921-1.477,3.281,3.281,0,0,0,.324-2.476,3.248,3.248,0,0,0-1.477-1.921,3.518,3.518,0,0,0-1.832-.432c.015-.037.032-.074.044-.112a2.42,2.42,0,0,0,.277-1.238q-.058-.427-.115-.854a3.288,3.288,0,0,0-.229-.577,2.4,2.4,0,0,0,.745.152,3.2,3.2,0,0,0,.727,1.131l.65.5a3.2,3.2,0,0,0,1.622.439h.355a2.421,2.421,0,0,0,1.238-.277,2.408,2.408,0,0,0,1.034-.664,2.407,2.407,0,0,0,.665-1.034,2.42,2.42,0,0,0,.277-1.238l-.045-.334c.037.042.071.086.111.126l.65.5a3.2,3.2,0,0,0,1.622.439h.177a2.423,2.423,0,0,0,1.141-.234,3,3,0,0,0,.447.293c-.108-.011-.216-.021-.327-.022h-.187a2.419,2.419,0,0,0-1.238.277,2.414,2.414,0,0,0-1.034.665,2.406,2.406,0,0,0-.664,1.034,2.418,2.418,0,0,0-.277,1.238q.057.427.115.854a3.213,3.213,0,0,0,.826,1.418l.651.5a3.2,3.2,0,0,0,1.622.439h.187a2.418,2.418,0,0,0,1.238-.276,2.407,2.407,0,0,0,1.034-.665,2.407,2.407,0,0,0,.665-1.034,2.425,2.425,0,0,0,.277-1.238q-.058-.427-.115-.854a3.207,3.207,0,0,0-.826-1.418l-.65-.5c-.027-.016-.056-.027-.083-.041l.477.11a3.384,3.384,0,0,0,2.477-.324,2.428,2.428,0,0,0,.9-.828,2.392,2.392,0,0,0,.416-.639,2.9,2.9,0,0,0,2.648-1.65h.341a2.418,2.418,0,0,0,1.238-.277,2.408,2.408,0,0,0,1.034-.665,2.407,2.407,0,0,0,.665-1.034,2.394,2.394,0,0,0,.269-.924c.8-.014,1.593-.031,2.39-.043l.036.273a2.385,2.385,0,0,0-.88.264,2.409,2.409,0,0,0-1.034.664,2.4,2.4,0,0,0-.665,1.034,2.42,2.42,0,0,0-.277,1.238q.058.427.115.854a3.218,3.218,0,0,0,.827,1.418l.41.317h-.946a3.25,3.25,0,0,0-3.214,3.214,3.27,3.27,0,0,0,3.214,3.214h4.493a3.25,3.25,0,0,0,3.214-3.214,3.291,3.291,0,0,0-2.835-3.189,2.467,2.467,0,0,0,.4-.341,2.41,2.41,0,0,0,.637-.966,3.336,3.336,0,0,0,.46.035l.854-.115a3.212,3.212,0,0,0,1.418-.826l.159-.159a3.143,3.143,0,0,0,3,4.1,3.181,3.181,0,0,0,2.9-4.415,3.2,3.2,0,0,0,1.11.556l.854.115a3.249,3.249,0,0,0,.863-.119,3.205,3.205,0,0,0,3.068,2.365h1.872a3.315,3.315,0,0,0,2.272-.941,3.267,3.267,0,0,0,.941-2.273,3.558,3.558,0,0,0-.157-.893,2.448,2.448,0,0,0,.291.325l.65.5a3.208,3.208,0,0,0,1.622.439l1.5.178a3.2,3.2,0,0,0,2.272-.941,3.265,3.265,0,0,0,.942-2.273,4.215,4.215,0,0,0-.09-.691h2.681a2.9,2.9,0,0,0-1.16,2.426,3.255,3.255,0,0,0,3.214,3.214l3-.19a3.5,3.5,0,0,0,3.011-2.04l.609.471a3.2,3.2,0,0,0,1.622.439h.187a2.42,2.42,0,0,0,1.238-.277,2.4,2.4,0,0,0,1.034-.665,2.408,2.408,0,0,0,.665-1.034,2.417,2.417,0,0,0,.276-1.238q-.057-.427-.115-.854c-.011-.041-.028-.078-.041-.118q.7.022,1.394.049a3,3,0,0,0-.362,1.464,3.25,3.25,0,0,0,.942,2.273l.65.5a3.2,3.2,0,0,0,1.622.439l1.871.193a3.213,3.213,0,0,0,2.272-.942,3.36,3.36,0,0,0,.681-1.019l.68.074a3.113,3.113,0,0,0-.3,1.308,3.26,3.26,0,0,0,3.213,3.214,37.674,37.674,0,0,0,6.47-.489,2.328,2.328,0,0,0,1.018-.43c.086.032.171.065.26.09l.751.178a2.433,2.433,0,0,0,1.282.057,2.389,2.389,0,0,0,1.195-.381,2.439,2.439,0,0,0,.674-.558,2.59,2.59,0,0,0,.488.621,3.769,3.769,0,0,0,2.273.942l2.81.356a3.2,3.2,0,0,0,2.273-.941,3.412,3.412,0,0,0,.771-1.255,3.269,3.269,0,0,0,1.907,1.508l.273.084a3.065,3.065,0,0,0,1.891.592l.029,0,.24.074a3.244,3.244,0,0,0,3.953-2.244,3.59,3.59,0,0,0,.088-.932l.054-.008.026.191a3.213,3.213,0,0,0,.826,1.418l.187.187a2.406,2.406,0,0,0,1.034.664,2.418,2.418,0,0,0,1.238.277,2.42,2.42,0,0,0,1.238-.277,2.406,2.406,0,0,0,1.034-.664l.5-.651c.018-.03.029-.062.046-.092l1.968-.283a3.2,3.2,0,0,0,2.357-3.354l.326.422a3.211,3.211,0,0,0,1.418.826l.563.182a2.471,2.471,0,0,0,.785.112,3,3,0,0,0,2.118.784,2.915,2.915,0,0,0,2.681-1.519,10.107,10.107,0,0,0,3.225-.29,3.246,3.246,0,0,0,2.244-3.953A3.318,3.318,0,0,0-415.367,261.994ZM-465,266.65c.019-.041.039-.082.057-.124l.057.008c-.024.038-.045.078-.067.117Zm-98.609-8.277a3.506,3.506,0,0,0,.206.7,2.476,2.476,0,0,0-.132.32,2.422,2.422,0,0,0-.224.621,3.2,3.2,0,0,0-.987-.63,3.447,3.447,0,0,0,.472-1.473A1.092,1.092,0,0,0-563.613,258.372Z" transform="translate(589.352 -141.349)" fill="#101010"/>
        <path id="Trazado_157638-2" data-name="Trazado 157638" d="M-262.562,370.472l.768.324a3.235,3.235,0,0,0,1.709,0l.936-.374a2.415,2.415,0,0,0,1.093-.575,2.428,2.428,0,0,0,.827-.9,2.388,2.388,0,0,0,.381-1.195,2.431,2.431,0,0,0-.057-1.281,3.252,3.252,0,0,0-1.477-1.921l-.768-.324a3.233,3.233,0,0,0-1.709,0l-.936.374a2.425,2.425,0,0,0-1.093.575,2.428,2.428,0,0,0-.828.9,2.39,2.39,0,0,0-.381,1.195,2.434,2.434,0,0,0,.057,1.282A3.25,3.25,0,0,0-262.562,370.472Z" transform="translate(441.32 -244.8)" fill="#101010"/>
        <path id="Trazado_157639-2" data-name="Trazado 157639" d="M-245.42,358.744a2.41,2.41,0,0,0-.664-1.034,2.416,2.416,0,0,0-1.034-.665,2.425,2.425,0,0,0-1.238-.276l-.854.115a3.211,3.211,0,0,0-1.418.826l-.5.65a3.208,3.208,0,0,0-.439,1.622v.374a2.418,2.418,0,0,0,.277,1.238,2.4,2.4,0,0,0,.665,1.034,2.4,2.4,0,0,0,1.034.665,2.418,2.418,0,0,0,1.238.277l.854-.115a3.209,3.209,0,0,0,1.418-.826l.5-.65a3.2,3.2,0,0,0,.439-1.622v-.374A2.42,2.42,0,0,0-245.42,358.744Z" transform="translate(435.477 -241.39)" fill="#101010"/>
        <path id="Trazado_157640-2" data-name="Trazado 157640" d="M-252.566,378.308a2.429,2.429,0,0,0-.9-.828l-.768-.324a3.234,3.234,0,0,0-1.709,0l-.768.324a3.231,3.231,0,0,0-1.153,1.153l-.187.374a2.4,2.4,0,0,0-.381,1.195,2.419,2.419,0,0,0,0,1.055,3.117,3.117,0,0,0-1.712-.472c-4.136,0-4.143,6.427,0,6.427a3.128,3.128,0,0,0,3.024-3.964,2.518,2.518,0,0,0,.221.156l.768.324a3.234,3.234,0,0,0,1.709,0l.768-.324a3.227,3.227,0,0,0,1.153-1.153l.187-.374a2.388,2.388,0,0,0,.381-1.195,2.431,2.431,0,0,0-.057-1.281A2.415,2.415,0,0,0-252.566,378.308Z" transform="translate(440.899 -250.806)" fill="#101010"/>
      </g>
    </g>
  </g>
</svg>
