<svg xmlns="http://www.w3.org/2000/svg" width="108" height="108" viewBox="0 0 108 108">
  <g id="Grupo_102548" data-name="Grupo 102548" transform="translate(-474 -7750)">
    <circle id="Elipse_4723" data-name="Elipse 4723" cx="54" cy="54" r="54" transform="translate(474 7750)" fill="#36a3f7"/>
    <g id="Grupo_101804" data-name="Grupo 101804" transform="translate(-1461.107 6304)">
      <path id="Trazado_157043" data-name="Trazado 157043" d="M1978.391,1542c-6.545-1.258-10.819-5.664-14.555-10.695a48.71,48.71,0,0,1-9.119-20.21c-1.6-8.564-.137-16.529,5.307-23.533a21.327,21.327,0,0,1,7.216-5.954,2.836,2.836,0,0,0,.315-.192c-.755-2.145-1.646-4.174-2.178-6.292a34.074,34.074,0,0,1-.4-13.109,1.63,1.63,0,0,1,1.493-1.511,33.575,33.575,0,0,1,15.708,1.112,15.79,15.79,0,0,1,10.011,9.587c.068.174.144.345.274.655.281-.589.5-1.078.742-1.554a26.411,26.411,0,0,1,12.521-12.044,3.487,3.487,0,0,0,.4-.258h.984a1.79,1.79,0,0,1,1.162,1.791c-.08.866-.7,1.2-1.387,1.553-7.159,3.651-11.673,9.277-12.848,17.355a16.43,16.43,0,0,0-.014,2.272c1.536-.334,3.041-.68,4.555-.987,11.791-2.39,19.39,4.571,22.985,11.346a29.323,29.323,0,0,1,2.3,22.1,49.36,49.36,0,0,1-13.491,23.4,17.643,17.643,0,0,1-9.371,5.063c-.045.007-.081.066-.122.1h-3.281c-2.124-.444-4.24-.927-6.375-1.312a7.733,7.733,0,0,0-2.6-.1c-2.38.4-4.738.93-7.1,1.409Zm24.68-59.184c.295.247.412.357.541.451a23.038,23.038,0,0,1,6.947,7.964c4.813,9.094,4.278,18.335.615,27.627a1.568,1.568,0,0,1-2.035.9,1.6,1.6,0,0,1-1.025-1.979c.136-.526.357-1.031.543-1.543,2.2-6.059,2.878-12.219,1.046-18.491-1.711-5.861-5.033-10.488-10.551-13.376a3.8,3.8,0,0,0-3.417-.415,3.494,3.494,0,0,1-1.194.264c-.6.021-.7.341-.727.845-.048.789-.142,1.578-.266,2.359-.188,1.19-.4,1.426-1.591,1.617a35.036,35.036,0,0,1-10.456.107c-4.185-.584-8.073-1.893-11.272-4.821a1.037,1.037,0,0,0-.912-.064,16.662,16.662,0,0,0-5.084,3.538c-5.742,5.836-7.641,13.013-6.565,20.878,1.262,9.231,5.472,17.2,11.651,24.136.707.793,1.521,1.491,2.3,2.219a12.586,12.586,0,0,0,13.122,2.994,15.781,15.781,0,0,1,9.59-.005,12.635,12.635,0,0,0,13.25-3.085c.457-.432.944-.834,1.38-1.284a48.319,48.319,0,0,0,11.3-19.528,27.506,27.506,0,0,0,.279-16.694c-1.8-5.87-5.207-10.474-10.834-13.228A14.216,14.216,0,0,0,2003.071,1482.812Zm-12.6.848a27.051,27.051,0,0,0-.783-9.668,13.11,13.11,0,0,0-9.358-9.543,30.721,30.721,0,0,0-11.123-.951c-.373.027-.742.092-1.134.143a31.8,31.8,0,0,0,.8,12c1.253,4.351,3.848,7.553,8.188,9.014a36.232,36.232,0,0,0,6.544,1.371,34.368,34.368,0,0,0,4.594.038c-.282-.3-.477-.517-.684-.723q-5.713-5.709-11.432-11.413c-.5-.5-1.017-1.069-.732-1.78a2.627,2.627,0,0,1,1.148-1.245c.647-.335,1.26.048,1.754.542q4.059,4.057,8.122,8.113C1987.709,1480.885,1989.036,1482.221,1990.47,1483.66Z" transform="translate(0)"/>
      <path id="Trazado_157045" data-name="Trazado 157045" d="M2006.777,1510.888a14.216,14.216,0,0,1,6.635,1.385c5.628,2.754,9.035,7.358,10.834,13.228a27.505,27.505,0,0,1-.279,16.694,48.317,48.317,0,0,1-11.3,19.527c-.437.45-.923.853-1.38,1.285a12.636,12.636,0,0,1-13.25,3.085,15.78,15.78,0,0,0-9.59.005,12.586,12.586,0,0,1-13.122-2.995c-.778-.728-1.593-1.426-2.3-2.219-6.178-6.936-10.388-14.906-11.651-24.136-1.076-7.866.823-15.042,6.565-20.878a16.662,16.662,0,0,1,5.084-3.538,1.037,1.037,0,0,1,.912.064c3.2,2.928,7.087,4.237,11.272,4.821a35.024,35.024,0,0,0,10.456-.108c1.188-.191,1.4-.427,1.591-1.617.123-.781.218-1.57.266-2.359.031-.5.129-.824.727-.845a3.494,3.494,0,0,0,1.194-.264,3.8,3.8,0,0,1,3.417.415c5.518,2.888,8.839,7.515,10.551,13.376,1.832,6.273,1.157,12.432-1.046,18.491-.186.512-.407,1.017-.543,1.543a1.6,1.6,0,0,0,1.025,1.979,1.568,1.568,0,0,0,2.035-.9c3.663-9.292,4.2-18.532-.615-27.626a23.036,23.036,0,0,0-6.947-7.963C2007.188,1511.246,2007.072,1511.135,2006.777,1510.888Zm3.332,43.925a1.635,1.635,0,1,0-.025-3.27,1.635,1.635,0,0,0,.025,3.27Z" transform="translate(-3.706 -28.076)" fill="#ff4f17"/>
      <path id="Trazado_157046" data-name="Trazado 157046" d="M2006.026,1489.743c-1.434-1.439-2.761-2.775-4.091-4.105q-4.059-4.058-8.122-8.113c-.494-.494-1.108-.877-1.754-.542a2.624,2.624,0,0,0-1.148,1.245c-.285.711.229,1.279.732,1.78q5.722,5.7,11.432,11.413c.207.206.4.424.684.723a34.349,34.349,0,0,1-4.594-.039,36.214,36.214,0,0,1-6.544-1.371c-4.34-1.461-6.935-4.663-8.188-9.014a31.8,31.8,0,0,1-.8-12c.392-.051.761-.116,1.134-.143a30.721,30.721,0,0,1,11.123.951,13.11,13.11,0,0,1,9.358,9.543A27.057,27.057,0,0,1,2006.026,1489.743Z" transform="translate(-15.556 -6.084)" fill="#27e700"/>
      <path id="Trazado_157047" data-name="Trazado 157047" d="M2063.756,1600.819a1.635,1.635,0,0,1-.025-3.27,1.635,1.635,0,1,1,.025,3.27Z" transform="translate(-57.353 -74.083)"/>
    </g>
  </g>
</svg>
