<svg xmlns="http://www.w3.org/2000/svg" width="108" height="108" viewBox="0 0 108 108">
  <g id="Grupo_102549" data-name="Grupo 102549" transform="translate(-1025 -7750)">
    <circle id="Elipse_4724" data-name="Elipse 4724" cx="54" cy="54" r="54" transform="translate(1025 7750)" fill="#36a3f7"/>
    <g id="Grupo_101803" data-name="Grupo 101803" transform="translate(-529.621 6144.395)">
      <path id="Trazado_157039" data-name="Trazado 157039" d="M1679.169,1676.581c.372-.406,1.115.149,1.3-.358a5.349,5.349,0,0,0,.074-1.709c.005-.46,0-.921,0-1.382,1.2-.23,1.214-1.082,1.183-2.062-.057-1.805-.031-3.614-.01-5.421.012-1,.183-1.174,1.188-1.175q10.408-.018,20.816,0c1.166,0,1.29.232.716,1.289-1.614,2.971-3.281,5.912-4.911,8.874a6.647,6.647,0,0,0-.336.613,1.169,1.169,0,0,0,1.051,1.8c.61.056,1.224,0,1.836.026,1,.042,1.165.33.581,1.163-1.489,2.124-3.016,4.222-4.514,6.34a4.215,4.215,0,0,0-.342.507,1.138,1.138,0,0,0,.9,1.75c.462.071.932.012,1.4.054.534.048.73.3.519.82-.11.271-.243.53-.374.79q-2.486,4.966-4.969,9.933a4.506,4.506,0,0,0-.383.881,1.144,1.144,0,0,0,1.757,1.289,4.079,4.079,0,0,0,.654-.578q7.856-7.852,15.709-15.707.155-.155.305-.313a1.346,1.346,0,0,0,.441-1.571c-.271-.6-.824-.679-1.4-.685-.437,0-.875.011-1.312-.012-.259-.014-.569.009-.709-.25-.164-.3.063-.566.242-.781.8-.963,1.625-1.908,2.439-2.859,1.061-1.24,2.126-2.476,3.183-3.719a1.33,1.33,0,0,0,.378-1.435,1.294,1.294,0,0,0-1.364-.742c-.175,0-.35-.009-.524-.027-.569-.059-.69-.352-.439-.838a10.7,10.7,0,0,1,.841-1.224c1.077-1.523,2.152-3.049,3.257-4.551a2.212,2.212,0,0,1,2.485-.781.687.687,0,0,1,.52.625,7.011,7.011,0,0,1,.032.961c0,7.113.157,14.23-.042,21.337-.213,7.613-3.756,13.384-10.461,17.119a18.885,18.885,0,0,1-9.831,2.363,19.188,19.188,0,0,1-11.99-4.443,19.548,19.548,0,0,1-7.352-15.846q0-4.373,0-8.745c0-1-.052-1.021-1.031-1.056C1680.165,1676.817,1679.614,1676.994,1679.169,1676.581Z" transform="translate(-92.523 -38.252)" fill="#f05247"/>
      <path id="Trazado_157040" data-name="Trazado 157040" d="M1679.053,1664.53c.67-.013,1.344.008,2.01-.049.617-.053.785.169.78.779-.029,3.207-.021,6.415-.012,9.622a19.592,19.592,0,0,0,38.867,3.68,22.7,22.7,0,0,0,.332-3.912c-.007-6.969,0-13.938-.018-20.908,0-.352.288-.977-.247-1.035-.647-.072-1.5-.41-1.978.221-1.625,2.157-3.161,4.381-4.836,6.726.5,0,.831.012,1.165,0a1.447,1.447,0,0,1,1.2,2.519q-2.655,3.081-5.3,6.175c-.265.309-.524.624-.844,1a8.409,8.409,0,0,0,2.171.094,1.492,1.492,0,0,1,1.56.881,1.468,1.468,0,0,1-.486,1.722q-8.2,8.193-16.4,16.389a1.446,1.446,0,0,1-2.025.333c-.625-.46-.728-1.13-.278-2.033q2.688-5.4,5.388-10.785c.128-.256.244-.517.424-.9-.546,0-1-.015-1.447,0a1.6,1.6,0,0,1-1.705-.791,1.575,1.575,0,0,1,.35-1.766c1.469-2.031,2.919-4.075,4.374-6.116.232-.325.452-.66.772-1.128-.908,0-1.678,0-2.448,0-1.63-.011-2.224-.991-1.442-2.409q2.638-4.782,5.3-9.552c.095-.171.184-.344.339-.635h-.87c-7.028,0-14.057.01-21.085-.017-.7,0-.871.193-.857.87.043,2.157-.029,4.317.038,6.472.027.869-.183,1.248-1.08,1.078a1.373,1.373,0,0,0-.348.023c-1.394-.07-1.394-.07-1.394-1.531,0-2.653,0-5.306,0-7.958,0-1.25.492-1.734,1.756-1.735q12.945,0,25.889,0c1.566,0,2.161,1,1.4,2.374-1.852,3.362-3.722,6.713-5.669,10.221.9,0,1.692.009,2.484,0,.769-.011,1.543-.052,1.972.782s-.1,1.439-.541,2.055q-2.432,3.409-4.876,6.824c.25.245.522.13.76.133,1.935.02,2.449.867,1.575,2.619q-1.129,2.265-2.263,4.529c-.1.2-.192.41-.2.421l7.53-7.547a7.743,7.743,0,0,0-1.536-.008,1.5,1.5,0,0,1-1.567-.869,1.475,1.475,0,0,1,.4-1.669c2.035-2.363,4.061-4.733,6.114-7.128-.26-.254-.562-.13-.822-.131a1.49,1.49,0,0,1-1.451-.782,1.436,1.436,0,0,1,.227-1.626c2.035-2.842,4.131-5.643,6.065-8.553a3.178,3.178,0,0,1,3.315-1.664c.863.1,1.747.007,2.622.021,1.048.016,1.6.521,1.6,1.537,0,8.25.158,16.5-.054,24.748a22.254,22.254,0,0,1-18.589,20.972c-.316.051-.629.12-.944.18a4.347,4.347,0,0,1-2.54.425c-1.375.021-1.386.015-1.386,1.342q0,6.858.006,13.716c0,.382-.172.9.309,1.087a2.158,2.158,0,0,0,1.624-.03c.386-.167.3-.6.3-.937.013-2.388,0-4.776.007-7.164,0-1.485-.021-2.971.009-4.456.025-1.247.506-1.538,1.676-1.06,1.392.068,1.392.068,1.392,1.532,0,3.847.029,7.695-.023,11.541-.011.837.256.983,1.012.969,2.418-.046,4.838-.028,7.258-.014a7,7,0,0,1,7.091,6.078c.271,1.687-.27,2.318-1.99,2.318h-35.153c-1.653,0-2.194-.638-1.944-2.285a7.008,7.008,0,0,1,7.067-6.109c2.536-.016,5.072-.018,7.608.009.522.005.69-.108.688-.666q-.035-7.956,0-15.913c0-.53-.2-.668-.674-.776a22.4,22.4,0,0,1-17.533-21.792C1679.016,1671.583,1679.045,1668.056,1679.053,1664.53Z" transform="translate(-92.407 -26.201)"/>
      <path id="Trazado_157041" data-name="Trazado 157041" d="M1803.138,1924.034c-1.408.069-1.408.069-1.408,1.538,0,3.906-.013,7.812.013,11.717,0,.6-.144.79-.769.785-2.045-.015-2.045.012-2.045-2.031,0-4.664.013-9.327-.015-13.991,0-.648.15-.876.82-.814a20.663,20.663,0,0,0,3.4-.128Q1803.137,1922.572,1803.138,1924.034Z" transform="translate(-191.309 -250.016)" fill="#f05247"/>
      <path id="Trazado_157042" data-name="Trazado 157042" d="M1729.5,2036.722q-7.825,0-15.65,0c-.252,0-.6.128-.739-.088-.189-.285.117-.539.27-.767a4,4,0,0,1,3.433-1.927q12.677-.028,25.355,0a3.984,3.984,0,0,1,3.482,1.994c.135.211.4.434.237.7-.13.208-.429.092-.65.093Q1737.367,2036.726,1729.5,2036.722Z" transform="translate(-120.473 -343.08)" fill="#f05247"/>
    </g>
  </g>
</svg>
