<svg xmlns="http://www.w3.org/2000/svg" xmlns:xlink="http://www.w3.org/1999/xlink" width="64" height="51" viewBox="0 0 64 51">
  <defs>
    <clipPath id="clip-path">
      <rect id="Rectángulo_34067" data-name="Rectángulo 34067" width="64" height="51" transform="translate(925 4336)" fill="none" stroke="#707070" stroke-width="1"/>
    </clipPath>
  </defs>
  <g id="Enmascarar_grupo_67" data-name="Enmascarar grupo 67" transform="translate(-925 -4336)" clip-path="url(#clip-path)">
    <g id="Grupo_90413" data-name="Grupo 90413" transform="translate(516 2049)">
      <rect id="Rectángulo_34065" data-name="Rectángulo 34065" width="43" height="46" transform="translate(421 2286)" fill="none"/>
      <g id="Grupo_90412" data-name="Grupo 90412">
        <g id="Grupo_90410" data-name="Grupo 90410" transform="translate(154 2)" opacity="0.28">
          <rect id="Rectángulo_34066" data-name="Rectángulo 34066" width="31" height="31" transform="translate(256 2286)" fill="#f739a8"/>
        </g>
        <g id="Grupo_90416" data-name="Grupo 90416" transform="translate(-197.99 326.909)">
          <path id="Trazado_125548" data-name="Trazado 125548" d="M640.179,1990.361v3.036h.291q2.575,0,5.15,0a.7.7,0,0,1,.722.929.716.716,0,0,1-.737.476q-1.724,0-3.449,0h-1.974v3.038h.279q1.878,0,3.756,0a.7.7,0,0,1,.761.671.691.691,0,0,1-.671.734c-.157.008-.315,0-.472,0H619.975c-.118,0-.237,0-.354-.007a.687.687,0,0,1-.632-.676c0-.063,0-.126,0-.189v-24.732c0-.641.238-.877.886-.877q9.224,0,18.449,0,7.807,0,15.614,0c.515,0,.81.227.853.655a1.371,1.371,0,0,1,0,.142q0,4.216,0,8.433a.7.7,0,0,1-.676.779.682.682,0,0,1-.726-.7c-.011-.393,0-.787,0-1.181q0-3.212,0-6.425v-.288H620.4v14.758h1.733c0-.073.011-.142.011-.21q0-4.547,0-9.095c0-.582.22-.817.8-.848a2.01,2.01,0,0,0,1.9-1.957.69.69,0,0,1,.74-.738q2.327-.006,4.653,0a.684.684,0,0,1,.721.581.675.675,0,0,1-.424.759,1.1,1.1,0,0,1-.369.052c-1.236,0-2.473,0-3.709,0h-.267l-.065.21a3.367,3.367,0,0,1-2.362,2.364c-.15.046-.217.095-.217.266q.008,4.228,0,8.456c0,.046.006.093.011.155h7.335c-.135-.513-.3-1.015-.4-1.53a11.166,11.166,0,0,1,1.171-7.9,7,7,0,0,1,2.757-2.783,5.181,5.181,0,0,1,5.872.628,8.611,8.611,0,0,1,2.823,4.563,11.586,11.586,0,0,1-.2,6.835c-.02.058-.035.118-.059.2h.295c1.417,0,2.834,0,4.252,0a.7.7,0,1,1,.031,1.4c-.063,0-.126,0-.189,0h-7.07Zm-3.3-1.407c1.409,0,2.817,0,4.226,0a.29.29,0,0,0,.324-.22,10.153,10.153,0,0,0-.017-7.51,6.281,6.281,0,0,0-2.273-3,3.733,3.733,0,0,0-3.366-.558,4.723,4.723,0,0,0-2.621,2.093,9.83,9.83,0,0,0-.775,9.049c.055.15.154.148.276.148Q634.766,1988.953,636.879,1988.954Zm-3.294,4.435v-3.012H620.406v3.012Zm0,1.429H620.411v3.013h13.177Zm5.176-4.44h-3.741v7.448h3.741Z"/>
          <path id="Trazado_125549" data-name="Trazado 125549" d="M679.2,2015.535c-.107-.087-.164-.134-.222-.18a7.93,7.93,0,0,1-3.2-6.885,11.406,11.406,0,0,1,.528-2.56q.8-2.888,1.59-5.778a3.012,3.012,0,0,1,1.623-1.98.252.252,0,0,0,.174-.264c-.01-.457,0-.914-.006-1.37a.254.254,0,0,0-.117-.187,1.506,1.506,0,0,1-.9-1.456q-.006-1.724,0-3.449a.7.7,0,0,1,.805-.792c.165,0,.331.011.5.027s.308.045.476.071v-3.15a3.475,3.475,0,0,1-2.624-2.64h-.254c-1.26,0-2.52,0-3.78,0a.69.69,0,0,1-.714-.911.68.68,0,0,1,.682-.479c.929-.005,1.858,0,2.787,0,.606,0,1.212,0,1.819,0a.711.711,0,0,1,.807.771,2,2,0,0,0,1.9,1.926c.559.03.792.273.792.833,0,1.331,0,2.661,0,3.992a.317.317,0,0,0,.174.319,5.075,5.075,0,0,1,1.715,1.736l.178-.253a4.976,4.976,0,0,1,4.13-2.234.682.682,0,0,1,.773.747c.005,1.189.009,2.378,0,3.567a1.474,1.474,0,0,1-.878,1.375.279.279,0,0,0-.134.2c-.01.457,0,.913,0,1.37a.238.238,0,0,0,.156.251,3.04,3.04,0,0,1,1.646,2.018c.629,2.306,1.307,4.6,1.886,6.92a7.936,7.936,0,0,1-6.441,9.741,8.4,8.4,0,0,1-1.339.109q-10.1.01-20.2,0c-.531,0-.848-.264-.847-.7a.69.69,0,0,1,.64-.693c.086-.007.173,0,.26,0H679.2Zm1.9-17.7c.467,0,.906,0,1.345,0a.714.714,0,0,1,.736.706.7.7,0,0,1-.737.7c-.472.006-.945,0-1.417,0a1.672,1.672,0,0,0-1.8,1.372c-.483,1.759-.978,3.515-1.448,5.277a15.575,15.575,0,0,0-.561,2.455,6.576,6.576,0,1,0,12.906-1.071c-.613-2.27-1.246-4.534-1.873-6.8a1.64,1.64,0,0,0-1.619-1.234c-.52,0-1.039,0-1.559,0a.7.7,0,1,1,0-1.4c.236-.006.472,0,.709,0h.633c0-.4,0-.766,0-1.128,0-.179-.085-.253-.262-.253q-2.4,0-4.794,0c-.179,0-.261.081-.261.256C681.091,1997.071,681.091,1997.433,681.091,1997.835Zm3.435-2.809a.406.406,0,0,0,.079.02c.881,0,1.761,0,2.641,0,.174,0,.185-.1.184-.228,0-.778,0-1.557,0-2.335v-.369A3.617,3.617,0,0,0,684.527,1995.026Zm-1.566.022a3.6,3.6,0,0,0-2.889-2.918q0,1.38,0,2.76c0,.169.114.158.227.158h2.663Z" transform="translate(-30.228 -7.458)"/>
          <path id="Trazado_125550" data-name="Trazado 125550" d="M674.148,1995.152a.7.7,0,0,1-.686.726.684.684,0,0,1-.715-.665.848.848,0,0,0-.607-.813.983.983,0,0,0-1.053.212.725.725,0,0,0-.213.8.86.86,0,0,0,.729.593c.24.04.488.035.725.086a2.269,2.269,0,0,1,1.815,2.036,2.241,2.241,0,0,1-1.47,2.223.255.255,0,0,0-.191.247.7.7,0,0,1-1.387-.018c-.011-.16-.1-.188-.209-.232a2.242,2.242,0,0,1-1.454-2.024.7.7,0,1,1,1.4-.086.954.954,0,0,0,1.4.777.794.794,0,0,0,.5-.739.782.782,0,0,0-.519-.749,1.426,1.426,0,0,0-.5-.1,2.323,2.323,0,0,1-2.254-1.889,2.24,2.24,0,0,1,1.456-2.452.347.347,0,0,0,.172-.2.713.713,0,0,1,.691-.568.668.668,0,0,1,.686.561.29.29,0,0,0,.221.234A2.253,2.253,0,0,1,674.148,1995.152Z" transform="translate(-34.899 -13.523)"/>
          <path id="Trazado_125551" data-name="Trazado 125551" d="M724.119,2054.468a2.915,2.915,0,0,1-1.372-.806,2.526,2.526,0,0,1-.705-1.657.705.705,0,1,1,1.4-.071,1.3,1.3,0,0,0,1.215,1.2,1.4,1.4,0,0,0,1.486-.883,1.233,1.233,0,0,0-1.032-1.561c-.278-.048-.566-.04-.843-.091a2.689,2.689,0,0,1-2.228-2.4,2.646,2.646,0,0,1,1.88-2.692c.141-.047.2-.1.2-.254a.7.7,0,0,1,1.394,0,.242.242,0,0,0,.2.257,2.634,2.634,0,0,1,1.875,2.266c.07.534-.2.912-.655.93a.7.7,0,0,1-.74-.716,1.3,1.3,0,0,0-1.2-1.214,1.394,1.394,0,0,0-1.5.891,1.234,1.234,0,0,0,1.044,1.553c.279.045.566.039.843.091a2.684,2.684,0,0,1,2.22,2.427,2.639,2.639,0,0,1-1.872,2.649.255.255,0,0,0-.211.3.687.687,0,0,1-.71.741.7.7,0,0,1-.692-.74C724.117,2054.622,724.119,2054.552,724.119,2054.468Z" transform="translate(-71.299 -49.694)"/>
        </g>
      </g>
    </g>
  </g>
</svg>
